G04*
G04 #@! TF.GenerationSoftware,Altium Limited,Altium Designer,21.1.1 (26)*
G04*
G04 Layer_Color=16711935*
%FSLAX25Y25*%
%MOIN*%
G70*
G04*
G04 #@! TF.SameCoordinates,4F177341-0937-496B-BE4A-6E5797C68D15*
G04*
G04*
G04 #@! TF.FilePolarity,Negative*
G04*
G01*
G75*
%ADD130C,0.14973*%
%ADD131C,0.07887*%
%ADD132R,0.07887X0.07887*%
%ADD133R,0.04760X0.04760*%
%ADD134C,0.04760*%
%ADD135R,0.07887X0.07887*%
%ADD136C,0.02800*%
%ADD137C,0.02000*%
D130*
X226969Y9252D02*
D03*
Y226969D02*
D03*
X9252D02*
D03*
Y9252D02*
D03*
D131*
X169400Y17400D02*
D03*
X159400D02*
D03*
X46600Y8181D02*
D03*
Y18181D02*
D03*
Y28181D02*
D03*
X71000D02*
D03*
Y18181D02*
D03*
Y8181D02*
D03*
X95652Y28181D02*
D03*
Y18181D02*
D03*
Y8181D02*
D03*
X85300Y178982D02*
D03*
Y188982D02*
D03*
D132*
X149400Y17400D02*
D03*
D133*
X179164Y121592D02*
D03*
D134*
X174164D02*
D03*
X179164Y116593D02*
D03*
X174164D02*
D03*
X164164D02*
D03*
X169164D02*
D03*
X164164Y121592D02*
D03*
X169164D02*
D03*
X159164D02*
D03*
Y116593D02*
D03*
D135*
X46600Y38181D02*
D03*
X71000D02*
D03*
X95652D02*
D03*
X85300Y168982D02*
D03*
D136*
X232659Y131035D02*
D03*
X232429Y120008D02*
D03*
Y123521D02*
D03*
X178339Y50234D02*
D03*
X178199Y53328D02*
D03*
X178057Y56711D02*
D03*
X64685Y48675D02*
D03*
X100599Y203957D02*
D03*
X177045Y20810D02*
D03*
X21800Y219952D02*
D03*
X19819Y218749D02*
D03*
X28300Y137795D02*
D03*
Y127953D02*
D03*
Y118110D02*
D03*
Y108268D02*
D03*
Y98425D02*
D03*
Y88583D02*
D03*
Y78740D02*
D03*
Y68898D02*
D03*
Y59055D02*
D03*
X13485Y144510D02*
D03*
X23328D02*
D03*
X13780Y52500D02*
D03*
X23622D02*
D03*
X3643Y144510D02*
D03*
X3937Y52500D02*
D03*
X66685Y231850D02*
D03*
X100623Y208225D02*
D03*
X103800Y204671D02*
D03*
X103369Y207979D02*
D03*
X115800Y219512D02*
D03*
X85411Y210459D02*
D03*
X87240Y216253D02*
D03*
X135340Y128600D02*
D03*
X157108Y132621D02*
D03*
X147155Y132494D02*
D03*
X150554Y132566D02*
D03*
X85039Y198128D02*
D03*
X190358Y135785D02*
D03*
X190221Y139211D02*
D03*
X201881Y77531D02*
D03*
X201705Y73830D02*
D03*
X201600Y70177D02*
D03*
Y66229D02*
D03*
X77982Y205538D02*
D03*
X74045D02*
D03*
Y209475D02*
D03*
X77982D02*
D03*
X76013Y207506D02*
D03*
X88758Y198128D02*
D03*
X66685Y210656D02*
D03*
X194312Y135785D02*
D03*
X194229Y139211D02*
D03*
X9252Y29601D02*
D03*
X199673Y217242D02*
D03*
X186655Y171786D02*
D03*
X210713Y156184D02*
D03*
X136764Y46343D02*
D03*
X139403Y46784D02*
D03*
X11582Y149943D02*
D03*
X6400Y200461D02*
D03*
X14494Y200198D02*
D03*
X61736Y189555D02*
D03*
X57557Y213621D02*
D03*
X52472Y209985D02*
D03*
X65425Y149600D02*
D03*
X211309Y188500D02*
D03*
X201600Y62257D02*
D03*
X204915Y46805D02*
D03*
X202000Y54400D02*
D03*
X171084Y95872D02*
D03*
X153875Y132616D02*
D03*
X157400Y174400D02*
D03*
X66583Y229211D02*
D03*
X65136Y219748D02*
D03*
X65009Y222540D02*
D03*
X220350Y207600D02*
D03*
X206600Y198200D02*
D03*
X126650Y212588D02*
D03*
X123200Y217242D02*
D03*
X17100Y184300D02*
D03*
X25848Y179628D02*
D03*
X41517Y182514D02*
D03*
Y178971D02*
D03*
Y175428D02*
D03*
X45454D02*
D03*
Y178971D02*
D03*
Y182514D02*
D03*
X33614Y185395D02*
D03*
X31633Y177230D02*
D03*
X47243Y55072D02*
D03*
X108700Y7900D02*
D03*
X130644Y46084D02*
D03*
X123200Y184100D02*
D03*
X101300Y184300D02*
D03*
X135900Y66266D02*
D03*
X146059Y49290D02*
D03*
X50700Y159500D02*
D03*
X89806Y140782D02*
D03*
X25352Y168990D02*
D03*
X69800Y140227D02*
D03*
X103800Y141865D02*
D03*
X61490Y48675D02*
D03*
X77341Y167810D02*
D03*
X66382Y178982D02*
D03*
X66400Y182400D02*
D03*
D137*
X179248Y153403D02*
D03*
X176197Y150450D02*
D03*
X179248D02*
D03*
X182300D02*
D03*
X176197Y146317D02*
D03*
X179248D02*
D03*
X182300D02*
D03*
X179248Y143364D02*
D03*
M02*
