G04*
G04 #@! TF.GenerationSoftware,Altium Limited,Altium Designer,21.1.1 (26)*
G04*
G04 Layer_Color=65535*
%FSLAX25Y25*%
%MOIN*%
G70*
G04*
G04 #@! TF.SameCoordinates,AD5FC0C8-6BA0-4716-B2C6-8E65356085E1*
G04*
G04*
G04 #@! TF.FilePolarity,Positive*
G04*
G01*
G75*
%ADD10C,0.00984*%
%ADD11C,0.00394*%
%ADD12C,0.00787*%
%ADD13C,0.01000*%
%ADD14C,0.00300*%
%ADD15C,0.00600*%
%ADD16C,0.00500*%
G36*
X181507Y32533D02*
X181572D01*
Y32500D01*
X181637D01*
Y32467D01*
X181703D01*
Y32435D01*
X181768D01*
Y32402D01*
X181801D01*
Y32369D01*
X181866D01*
Y32337D01*
X181932D01*
Y32304D01*
X181997D01*
Y32271D01*
X182062D01*
Y32238D01*
X182095D01*
Y32206D01*
X182160D01*
Y32173D01*
X182226D01*
Y32140D01*
X182291D01*
Y32108D01*
X182357D01*
Y32075D01*
X182389D01*
Y32042D01*
X182455D01*
Y32010D01*
X182520D01*
Y31977D01*
X182586D01*
Y31944D01*
X182651D01*
Y31911D01*
X182684D01*
Y31879D01*
X182749D01*
Y31846D01*
X182815D01*
Y31813D01*
X182880D01*
Y31781D01*
X182945D01*
Y31748D01*
X183011D01*
Y31715D01*
X183043D01*
Y31683D01*
X183109D01*
Y31650D01*
X183174D01*
Y31617D01*
X183240D01*
Y31584D01*
X183305D01*
Y31552D01*
X183338D01*
Y31519D01*
X183403D01*
Y31486D01*
X183468D01*
Y31454D01*
X183534D01*
Y31421D01*
X183599D01*
Y31388D01*
X183632D01*
Y31356D01*
X183697D01*
Y31323D01*
X183763D01*
Y31290D01*
X183828D01*
Y31257D01*
X183894D01*
Y31225D01*
X183959D01*
Y31192D01*
X183992D01*
Y31159D01*
X184057D01*
Y31127D01*
X184123D01*
Y31094D01*
X184188D01*
Y31061D01*
X184253D01*
Y31029D01*
X184286D01*
Y30996D01*
X184351D01*
Y30963D01*
X184417D01*
Y30930D01*
X184482D01*
Y30898D01*
X184548D01*
Y30865D01*
X184580D01*
Y30832D01*
X184646D01*
Y30800D01*
X184711D01*
Y30767D01*
X184776D01*
Y30734D01*
X184842D01*
Y30702D01*
X184907D01*
Y30669D01*
X184940D01*
Y30636D01*
X185005D01*
Y30603D01*
X185071D01*
Y30571D01*
X185136D01*
Y30538D01*
X185202D01*
Y30505D01*
X185234D01*
Y30473D01*
X185300D01*
Y30440D01*
X185365D01*
Y30407D01*
X185430D01*
Y30375D01*
X185496D01*
Y30342D01*
X185529D01*
Y30309D01*
X185594D01*
Y30276D01*
X185659D01*
Y30244D01*
X185725D01*
Y30211D01*
X185790D01*
Y30178D01*
X185855D01*
Y30146D01*
X185888D01*
Y30113D01*
X185954D01*
Y30080D01*
X186019D01*
Y30113D01*
X186052D01*
Y30146D01*
Y30178D01*
X186084D01*
Y30211D01*
Y30244D01*
Y30276D01*
X186117D01*
Y30309D01*
X186150D01*
Y30342D01*
Y30375D01*
X186182D01*
Y30407D01*
Y30440D01*
X186215D01*
Y30473D01*
X186182D01*
Y30505D01*
X186117D01*
Y30538D01*
X186019D01*
Y30571D01*
X185954D01*
Y30603D01*
X185888D01*
Y30636D01*
X185823D01*
Y30669D01*
X185757D01*
Y30702D01*
X185692D01*
Y30734D01*
X185627D01*
Y30767D01*
X185561D01*
Y30800D01*
X185496D01*
Y30832D01*
X185463D01*
Y30865D01*
X185430D01*
Y30898D01*
X185398D01*
Y30930D01*
X185365D01*
Y30963D01*
X185332D01*
Y30996D01*
Y31029D01*
Y31061D01*
X185300D01*
Y31094D01*
Y31127D01*
Y31159D01*
Y31192D01*
Y31225D01*
Y31257D01*
X185332D01*
Y31290D01*
Y31323D01*
Y31356D01*
X185365D01*
Y31388D01*
Y31421D01*
X185398D01*
Y31454D01*
X185430D01*
Y31486D01*
X185463D01*
Y31519D01*
X185529D01*
Y31552D01*
X185594D01*
Y31584D01*
X185692D01*
Y31617D01*
X185790D01*
Y31650D01*
X185888D01*
Y31683D01*
X185954D01*
Y31715D01*
X186052D01*
Y31748D01*
X186150D01*
Y31781D01*
X186248D01*
Y31813D01*
X186313D01*
Y31846D01*
X186411D01*
Y31879D01*
X186510D01*
Y31911D01*
X186608D01*
Y31944D01*
X186673D01*
Y31977D01*
X186771D01*
Y32010D01*
X186869D01*
Y32042D01*
X186967D01*
Y32075D01*
X187033D01*
Y32108D01*
X187131D01*
Y32140D01*
X187229D01*
Y32173D01*
X187327D01*
Y32206D01*
X187392D01*
Y32238D01*
X187490D01*
Y32271D01*
X187589D01*
Y32304D01*
X187687D01*
Y32337D01*
X187752D01*
Y32369D01*
X187850D01*
Y32402D01*
X187948D01*
Y32435D01*
X188046D01*
Y32467D01*
X188112D01*
Y32500D01*
X188210D01*
Y32533D01*
X188504D01*
Y32500D01*
X188570D01*
Y32467D01*
X188602D01*
Y32435D01*
X188668D01*
Y32402D01*
Y32369D01*
X188700D01*
Y32337D01*
X188733D01*
Y32304D01*
Y32271D01*
X188766D01*
Y32238D01*
Y32206D01*
X188798D01*
Y32173D01*
Y32140D01*
X188831D01*
Y32108D01*
Y32075D01*
X188864D01*
Y32042D01*
Y32010D01*
X188897D01*
Y31977D01*
Y31944D01*
X188929D01*
Y31911D01*
Y31879D01*
X188962D01*
Y31846D01*
Y31813D01*
X188995D01*
Y31781D01*
Y31748D01*
X189027D01*
Y31715D01*
Y31683D01*
X189060D01*
Y31650D01*
Y31617D01*
X189093D01*
Y31584D01*
Y31552D01*
X189126D01*
Y31519D01*
Y31486D01*
X189158D01*
Y31454D01*
Y31421D01*
X189191D01*
Y31388D01*
Y31356D01*
X189224D01*
Y31323D01*
Y31290D01*
X189256D01*
Y31257D01*
Y31225D01*
X189289D01*
Y31192D01*
Y31159D01*
X189322D01*
Y31127D01*
Y31094D01*
X189354D01*
Y31061D01*
Y31029D01*
X189387D01*
Y30996D01*
Y30963D01*
X189420D01*
Y30930D01*
Y30898D01*
X189452D01*
Y30865D01*
Y30832D01*
X189485D01*
Y30800D01*
Y30767D01*
X189518D01*
Y30734D01*
Y30702D01*
X189550D01*
Y30669D01*
Y30636D01*
X189583D01*
Y30603D01*
Y30571D01*
X189616D01*
Y30538D01*
Y30505D01*
X189649D01*
Y30473D01*
Y30440D01*
X189681D01*
Y30407D01*
Y30375D01*
X189714D01*
Y30342D01*
Y30309D01*
X189747D01*
Y30276D01*
Y30244D01*
X189779D01*
Y30211D01*
Y30178D01*
X189812D01*
Y30146D01*
Y30113D01*
X189845D01*
Y30080D01*
Y30048D01*
X189877D01*
Y30015D01*
Y29982D01*
X189910D01*
Y29950D01*
Y29917D01*
X189943D01*
Y29884D01*
Y29851D01*
X189976D01*
Y29819D01*
Y29786D01*
X190008D01*
Y29753D01*
Y29721D01*
X190041D01*
Y29688D01*
Y29655D01*
X190074D01*
Y29623D01*
Y29590D01*
X190106D01*
Y29557D01*
Y29524D01*
X190139D01*
Y29492D01*
Y29459D01*
X190172D01*
Y29426D01*
Y29394D01*
X190205D01*
Y29361D01*
Y29328D01*
Y29296D01*
Y29263D01*
Y29230D01*
Y29197D01*
Y29165D01*
Y29132D01*
Y29099D01*
X190172D01*
Y29067D01*
Y29034D01*
X190139D01*
Y29001D01*
X190106D01*
Y28969D01*
Y28936D01*
X190041D01*
Y28903D01*
X190008D01*
Y28870D01*
X189943D01*
Y28838D01*
X189649D01*
Y28870D01*
X189583D01*
Y28903D01*
X189518D01*
Y28936D01*
X189452D01*
Y28969D01*
X189354D01*
Y29001D01*
X189289D01*
Y29034D01*
X189224D01*
Y29067D01*
X189191D01*
Y29034D01*
Y29001D01*
Y28969D01*
X189158D01*
Y28936D01*
Y28903D01*
Y28870D01*
X189126D01*
Y28838D01*
Y28805D01*
X189093D01*
Y28772D01*
Y28740D01*
X189060D01*
Y28707D01*
Y28674D01*
X189027D01*
Y28642D01*
Y28609D01*
X188995D01*
Y28576D01*
X188962D01*
Y28543D01*
X188929D01*
Y28511D01*
Y28478D01*
Y28445D01*
X188995D01*
Y28413D01*
X189027D01*
Y28380D01*
X189093D01*
Y28347D01*
X189158D01*
Y28315D01*
X189224D01*
Y28282D01*
X189289D01*
Y28249D01*
X189354D01*
Y28216D01*
X189387D01*
Y28184D01*
X189452D01*
Y28151D01*
X189518D01*
Y28118D01*
X189583D01*
Y28086D01*
X189649D01*
Y28053D01*
X189681D01*
Y28020D01*
X189747D01*
Y27988D01*
X189812D01*
Y27955D01*
X189877D01*
Y27922D01*
X189943D01*
Y27889D01*
X189976D01*
Y27857D01*
X190041D01*
Y27824D01*
X190106D01*
Y27791D01*
X190172D01*
Y27759D01*
X190237D01*
Y27726D01*
X190303D01*
Y27693D01*
X190335D01*
Y27661D01*
X190401D01*
Y27628D01*
X190466D01*
Y27595D01*
X190532D01*
Y27562D01*
X190597D01*
Y27530D01*
X190630D01*
Y27497D01*
X190695D01*
Y27464D01*
X190760D01*
Y27432D01*
X190826D01*
Y27399D01*
X190891D01*
Y27366D01*
X190924D01*
Y27334D01*
X190989D01*
Y27301D01*
X191055D01*
Y27268D01*
X191120D01*
Y27235D01*
X191185D01*
Y27203D01*
X191251D01*
Y27170D01*
X191284D01*
Y27137D01*
X191349D01*
Y27105D01*
X191414D01*
Y27072D01*
X191480D01*
Y27039D01*
X191545D01*
Y27007D01*
X191578D01*
Y26974D01*
X191643D01*
Y26941D01*
X191709D01*
Y26908D01*
X191774D01*
Y26876D01*
X191840D01*
Y26843D01*
X191872D01*
Y26810D01*
X191938D01*
Y26778D01*
X192003D01*
Y26745D01*
X192068D01*
Y26712D01*
X192134D01*
Y26680D01*
X192199D01*
Y26647D01*
X192232D01*
Y26614D01*
X192297D01*
Y26581D01*
X192363D01*
Y26549D01*
X192428D01*
Y26516D01*
X192493D01*
Y26483D01*
X192526D01*
Y26451D01*
X192592D01*
Y26418D01*
X192657D01*
Y26385D01*
X192722D01*
Y26353D01*
X192788D01*
Y26320D01*
X192821D01*
Y26287D01*
X192886D01*
Y26254D01*
X192951D01*
Y26222D01*
X193017D01*
Y26189D01*
X193082D01*
Y26156D01*
X193148D01*
Y26124D01*
X193180D01*
Y26091D01*
X193246D01*
Y26058D01*
X193311D01*
Y26026D01*
X193376D01*
Y25993D01*
X193442D01*
Y25960D01*
X193474D01*
Y25927D01*
X193540D01*
Y25895D01*
X193605D01*
Y25862D01*
X193671D01*
Y25829D01*
X193736D01*
Y25797D01*
X193769D01*
Y25764D01*
X193834D01*
Y25731D01*
X193900D01*
Y25699D01*
X193965D01*
Y25666D01*
X194030D01*
Y25633D01*
X194096D01*
Y25600D01*
X194128D01*
Y25568D01*
X194194D01*
Y25535D01*
X194259D01*
Y25502D01*
X194325D01*
Y25470D01*
X194390D01*
Y25437D01*
X194423D01*
Y25404D01*
X194488D01*
Y25372D01*
X194553D01*
Y25339D01*
X194619D01*
Y25306D01*
X194684D01*
Y25273D01*
X194717D01*
Y25241D01*
X194782D01*
Y25208D01*
X194848D01*
Y25175D01*
X194913D01*
Y25143D01*
X194979D01*
Y25110D01*
X195044D01*
Y25077D01*
X195077D01*
Y25045D01*
X195142D01*
Y25012D01*
X195208D01*
Y24979D01*
X195273D01*
Y24947D01*
X195338D01*
Y24914D01*
X195371D01*
Y24881D01*
X195436D01*
Y24848D01*
X195502D01*
Y24816D01*
X195567D01*
Y24783D01*
X195633D01*
Y24750D01*
X195665D01*
Y24718D01*
X195731D01*
Y24685D01*
X195796D01*
Y24652D01*
X195861D01*
Y24620D01*
X195927D01*
Y24587D01*
X195992D01*
Y24554D01*
X196025D01*
Y24521D01*
X196090D01*
Y24489D01*
X196156D01*
Y24456D01*
X196221D01*
Y24423D01*
X196287D01*
Y24391D01*
X196319D01*
Y24358D01*
X196385D01*
Y24325D01*
X196450D01*
Y24293D01*
X196516D01*
Y24260D01*
X196581D01*
Y24227D01*
X196614D01*
Y24194D01*
X196679D01*
Y24162D01*
X196744D01*
Y24129D01*
X196810D01*
Y24096D01*
X196875D01*
Y24064D01*
X196941D01*
Y24031D01*
X196973D01*
Y23998D01*
X197039D01*
Y23966D01*
X197104D01*
Y23933D01*
X197169D01*
Y23900D01*
X197235D01*
Y23867D01*
X197268D01*
Y23835D01*
X197333D01*
Y23802D01*
X197398D01*
Y23769D01*
X197464D01*
Y23737D01*
X197529D01*
Y23704D01*
X197562D01*
Y23671D01*
X197627D01*
Y23639D01*
X197693D01*
Y23606D01*
X197758D01*
Y23573D01*
X197791D01*
Y23540D01*
Y23508D01*
X197824D01*
Y23475D01*
Y23442D01*
X197856D01*
Y23410D01*
Y23377D01*
Y23344D01*
Y23312D01*
Y23279D01*
X197824D01*
Y23246D01*
Y23213D01*
X197791D01*
Y23181D01*
X197758D01*
Y23148D01*
X197725D01*
Y23115D01*
X197627D01*
Y23083D01*
X197529D01*
Y23115D01*
X197431D01*
Y23148D01*
X197366D01*
Y23181D01*
X197300D01*
Y23213D01*
X197268D01*
Y23246D01*
X197202D01*
Y23279D01*
X197137D01*
Y23312D01*
X197071D01*
Y23344D01*
X197006D01*
Y23377D01*
X196941D01*
Y23410D01*
X196908D01*
Y23442D01*
X196843D01*
Y23475D01*
X196777D01*
Y23508D01*
X196712D01*
Y23540D01*
X196646D01*
Y23573D01*
X196614D01*
Y23606D01*
X196548D01*
Y23639D01*
X196483D01*
Y23671D01*
X196417D01*
Y23704D01*
X196352D01*
Y23737D01*
X196319D01*
Y23769D01*
X196254D01*
Y23802D01*
X196188D01*
Y23835D01*
X196123D01*
Y23867D01*
X196058D01*
Y23900D01*
X195992D01*
Y23933D01*
X195960D01*
Y23966D01*
X195894D01*
Y23998D01*
X195829D01*
Y24031D01*
X195763D01*
Y24064D01*
X195698D01*
Y24096D01*
X195665D01*
Y24129D01*
X195600D01*
Y24162D01*
X195535D01*
Y24194D01*
X195469D01*
Y24227D01*
X195404D01*
Y24260D01*
X195371D01*
Y24293D01*
X195306D01*
Y24325D01*
X195240D01*
Y24358D01*
X195175D01*
Y24391D01*
X195109D01*
Y24423D01*
X195044D01*
Y24456D01*
X195011D01*
Y24489D01*
X194946D01*
Y24521D01*
X194880D01*
Y24554D01*
X194815D01*
Y24587D01*
X194750D01*
Y24620D01*
X194717D01*
Y24652D01*
X194652D01*
Y24685D01*
X194586D01*
Y24718D01*
X194521D01*
Y24750D01*
X194455D01*
Y24783D01*
X194423D01*
Y24816D01*
X194357D01*
Y24848D01*
X194292D01*
Y24881D01*
X194227D01*
Y24914D01*
X194161D01*
Y24947D01*
X194096D01*
Y24979D01*
X194063D01*
Y25012D01*
X193998D01*
Y25045D01*
X193932D01*
Y25077D01*
X193867D01*
Y25110D01*
X193801D01*
Y25143D01*
X193769D01*
Y25175D01*
X193703D01*
Y25208D01*
X193638D01*
Y25241D01*
X193573D01*
Y25273D01*
X193507D01*
Y25306D01*
X193442D01*
Y25339D01*
X193409D01*
Y25372D01*
X193344D01*
Y25404D01*
X193278D01*
Y25437D01*
X193213D01*
Y25470D01*
X193148D01*
Y25502D01*
X193115D01*
Y25535D01*
X193049D01*
Y25568D01*
X192984D01*
Y25600D01*
X192919D01*
Y25633D01*
X192853D01*
Y25666D01*
X192821D01*
Y25699D01*
X192755D01*
Y25731D01*
X192690D01*
Y25764D01*
X192624D01*
Y25797D01*
X192559D01*
Y25829D01*
X192493D01*
Y25862D01*
X192461D01*
Y25895D01*
X192395D01*
Y25927D01*
X192330D01*
Y25960D01*
X192265D01*
Y25993D01*
X192199D01*
Y26026D01*
X192166D01*
Y26058D01*
X192101D01*
Y26091D01*
X192036D01*
Y26124D01*
X191970D01*
Y26156D01*
X191905D01*
Y26189D01*
X191872D01*
Y26222D01*
X191807D01*
Y26254D01*
X191741D01*
Y26287D01*
X191676D01*
Y26320D01*
X191611D01*
Y26353D01*
X191578D01*
Y26320D01*
Y26287D01*
Y26254D01*
Y26222D01*
Y26189D01*
X191545D01*
Y26156D01*
Y26124D01*
Y26091D01*
Y26058D01*
X191513D01*
Y26026D01*
Y25993D01*
Y25960D01*
X191480D01*
Y25927D01*
Y25895D01*
Y25862D01*
X191447D01*
Y25829D01*
Y25797D01*
Y25764D01*
X191414D01*
Y25731D01*
Y25699D01*
X191382D01*
Y25666D01*
Y25633D01*
Y25600D01*
X191349D01*
Y25568D01*
Y25535D01*
Y25502D01*
X191316D01*
Y25470D01*
Y25437D01*
Y25404D01*
X191284D01*
Y25372D01*
Y25339D01*
Y25306D01*
X191251D01*
Y25273D01*
Y25241D01*
Y25208D01*
X191218D01*
Y25175D01*
Y25143D01*
X191185D01*
Y25110D01*
Y25077D01*
Y25045D01*
X191153D01*
Y25012D01*
Y24979D01*
X191120D01*
Y24947D01*
Y24914D01*
Y24881D01*
X191087D01*
Y24848D01*
X191055D01*
Y24816D01*
Y24783D01*
X191022D01*
Y24750D01*
Y24718D01*
X190989D01*
Y24685D01*
X190957D01*
Y24652D01*
X190924D01*
Y24620D01*
X190891D01*
Y24587D01*
Y24554D01*
X190858D01*
Y24521D01*
X190826D01*
Y24489D01*
X190760D01*
Y24456D01*
X190728D01*
Y24423D01*
X190695D01*
Y24391D01*
X190630D01*
Y24358D01*
X190597D01*
Y24325D01*
X190532D01*
Y24293D01*
X190466D01*
Y24260D01*
X190401D01*
Y24227D01*
X190303D01*
Y24194D01*
X190172D01*
Y24162D01*
X189910D01*
Y24129D01*
X189812D01*
Y24162D01*
X189583D01*
Y24194D01*
X189452D01*
Y24227D01*
X189387D01*
Y24260D01*
X189289D01*
Y24293D01*
X189224D01*
Y24325D01*
X189191D01*
Y24358D01*
X189126D01*
Y24391D01*
X189093D01*
Y24423D01*
X189027D01*
Y24456D01*
X188995D01*
Y24489D01*
X188929D01*
Y24521D01*
X188897D01*
Y24554D01*
X188864D01*
Y24587D01*
X188798D01*
Y24620D01*
X188766D01*
Y24652D01*
X188700D01*
Y24685D01*
X188668D01*
Y24718D01*
X188635D01*
Y24750D01*
X188570D01*
Y24783D01*
X188537D01*
Y24750D01*
Y24718D01*
Y24685D01*
X188504D01*
Y24652D01*
Y24620D01*
Y24587D01*
X188471D01*
Y24554D01*
Y24521D01*
Y24489D01*
X188439D01*
Y24456D01*
Y24423D01*
Y24391D01*
Y24358D01*
X188406D01*
Y24325D01*
Y24293D01*
Y24260D01*
X188373D01*
Y24227D01*
Y24194D01*
Y24162D01*
X188341D01*
Y24129D01*
Y24096D01*
Y24064D01*
Y24031D01*
X188308D01*
Y23998D01*
Y23966D01*
Y23933D01*
X188275D01*
Y23900D01*
Y23867D01*
Y23835D01*
X188243D01*
Y23802D01*
Y23769D01*
Y23737D01*
Y23704D01*
X188210D01*
Y23671D01*
Y23639D01*
Y23606D01*
X188177D01*
Y23573D01*
Y23540D01*
Y23508D01*
X188145D01*
Y23475D01*
Y23442D01*
X188243D01*
Y23410D01*
X188308D01*
Y23377D01*
X188406D01*
Y23344D01*
X188471D01*
Y23312D01*
X188570D01*
Y23279D01*
X188635D01*
Y23246D01*
X188733D01*
Y23213D01*
X188798D01*
Y23181D01*
X188897D01*
Y23148D01*
X188995D01*
Y23115D01*
X189060D01*
Y23083D01*
X189158D01*
Y23050D01*
X189224D01*
Y23017D01*
X189322D01*
Y22985D01*
X189387D01*
Y22952D01*
X189485D01*
Y22919D01*
X189550D01*
Y22886D01*
X189649D01*
Y22854D01*
X189747D01*
Y22821D01*
X189812D01*
Y22788D01*
X189910D01*
Y22756D01*
X189976D01*
Y22723D01*
X190074D01*
Y22690D01*
X190139D01*
Y22658D01*
X190237D01*
Y22625D01*
X190303D01*
Y22592D01*
X190401D01*
Y22559D01*
X190499D01*
Y22527D01*
X190564D01*
Y22494D01*
X190662D01*
Y22461D01*
X190728D01*
Y22429D01*
X190826D01*
Y22396D01*
X190924D01*
Y22363D01*
X190989D01*
Y22331D01*
X191087D01*
Y22298D01*
X191185D01*
Y22265D01*
X191251D01*
Y22232D01*
X191349D01*
Y22200D01*
X191414D01*
Y22167D01*
X191513D01*
Y22134D01*
X191611D01*
Y22102D01*
X191676D01*
Y22069D01*
X191774D01*
Y22036D01*
X191840D01*
Y22004D01*
X191938D01*
Y21971D01*
X192036D01*
Y21938D01*
X192101D01*
Y21905D01*
X192199D01*
Y21873D01*
X192265D01*
Y21840D01*
X192363D01*
Y21807D01*
X192461D01*
Y21775D01*
X192526D01*
Y21742D01*
X192624D01*
Y21709D01*
X192722D01*
Y21677D01*
X192788D01*
Y21644D01*
X192886D01*
Y21611D01*
X192951D01*
Y21578D01*
X193049D01*
Y21546D01*
X193148D01*
Y21513D01*
X193213D01*
Y21480D01*
X193311D01*
Y21448D01*
X193376D01*
Y21415D01*
X193474D01*
Y21382D01*
X193573D01*
Y21350D01*
X193638D01*
Y21317D01*
X193703D01*
Y21284D01*
X193769D01*
Y21251D01*
X193801D01*
Y21219D01*
X193867D01*
Y21186D01*
X193900D01*
Y21153D01*
X193932D01*
Y21121D01*
X193965D01*
Y21088D01*
X193998D01*
Y21055D01*
X194030D01*
Y21023D01*
X194063D01*
Y20990D01*
Y20957D01*
X194096D01*
Y20924D01*
Y20892D01*
X194128D01*
Y20859D01*
Y20826D01*
X194161D01*
Y20794D01*
Y20761D01*
X194194D01*
Y20728D01*
Y20696D01*
Y20663D01*
Y20630D01*
X194227D01*
Y20597D01*
Y20565D01*
Y20532D01*
Y20499D01*
Y20467D01*
Y20434D01*
Y20401D01*
Y20369D01*
Y20336D01*
Y20303D01*
Y20270D01*
Y20238D01*
X194194D01*
Y20205D01*
Y20172D01*
Y20140D01*
Y20107D01*
X194161D01*
Y20074D01*
Y20042D01*
Y20009D01*
X195469D01*
Y19976D01*
X195502D01*
Y19943D01*
X195535D01*
Y19911D01*
X195567D01*
Y19878D01*
X195600D01*
Y19845D01*
Y19813D01*
X195633D01*
Y19780D01*
Y19747D01*
Y19715D01*
Y19682D01*
Y19649D01*
X195600D01*
Y19616D01*
Y19584D01*
X195567D01*
Y19551D01*
X195535D01*
Y19518D01*
X195502D01*
Y19486D01*
X195404D01*
Y19453D01*
X181343D01*
Y19486D01*
X181245D01*
Y19518D01*
X181212D01*
Y19551D01*
X181179D01*
Y19584D01*
X181147D01*
Y19616D01*
Y19649D01*
X181114D01*
Y19682D01*
Y19715D01*
Y19747D01*
Y19780D01*
Y19813D01*
X181147D01*
Y19845D01*
Y19878D01*
X181179D01*
Y19911D01*
Y19943D01*
X181245D01*
Y19976D01*
X181278D01*
Y20009D01*
X183403D01*
Y20042D01*
Y20074D01*
X183370D01*
Y20107D01*
Y20140D01*
Y20172D01*
X183338D01*
Y20205D01*
Y20238D01*
Y20270D01*
X183305D01*
Y20303D01*
Y20336D01*
Y20369D01*
Y20401D01*
X183272D01*
Y20434D01*
Y20467D01*
Y20499D01*
X183240D01*
Y20532D01*
Y20565D01*
Y20597D01*
X183207D01*
Y20630D01*
Y20663D01*
Y20696D01*
Y20728D01*
X183174D01*
Y20761D01*
Y20794D01*
Y20826D01*
X183142D01*
Y20859D01*
Y20892D01*
Y20924D01*
X183109D01*
Y20957D01*
Y20990D01*
Y21023D01*
Y21055D01*
X183076D01*
Y21088D01*
Y21121D01*
Y21153D01*
X183043D01*
Y21186D01*
Y21219D01*
Y21251D01*
X183011D01*
Y21284D01*
Y21317D01*
Y21350D01*
Y21382D01*
X182978D01*
Y21415D01*
Y21448D01*
Y21480D01*
X182945D01*
Y21513D01*
Y21546D01*
Y21578D01*
Y21611D01*
X182913D01*
Y21644D01*
Y21677D01*
Y21709D01*
X182880D01*
Y21742D01*
Y21775D01*
Y21807D01*
X182847D01*
Y21840D01*
Y21873D01*
Y21905D01*
Y21938D01*
X182815D01*
Y21971D01*
Y22004D01*
Y22036D01*
X182782D01*
Y22069D01*
Y22102D01*
Y22134D01*
X182749D01*
Y22167D01*
Y22200D01*
Y22232D01*
Y22265D01*
X182716D01*
Y22298D01*
Y22331D01*
Y22363D01*
X182684D01*
Y22396D01*
Y22429D01*
Y22461D01*
X182651D01*
Y22494D01*
Y22527D01*
Y22559D01*
Y22592D01*
X182618D01*
Y22625D01*
Y22658D01*
Y22690D01*
X182586D01*
Y22723D01*
Y22756D01*
Y22788D01*
Y22821D01*
X182553D01*
Y22854D01*
Y22886D01*
Y22919D01*
Y22952D01*
Y22985D01*
Y23017D01*
X182520D01*
Y23050D01*
Y23083D01*
Y23115D01*
Y23148D01*
Y23181D01*
Y23213D01*
X182553D01*
Y23246D01*
Y23279D01*
Y23312D01*
Y23344D01*
Y23377D01*
Y23410D01*
X182586D01*
Y23442D01*
Y23475D01*
Y23508D01*
Y23540D01*
X182618D01*
Y23573D01*
Y23606D01*
X182651D01*
Y23639D01*
Y23671D01*
X182684D01*
Y23704D01*
Y23737D01*
X182716D01*
Y23769D01*
Y23802D01*
X182749D01*
Y23835D01*
X182782D01*
Y23867D01*
X182815D01*
Y23900D01*
Y23933D01*
X182847D01*
Y23966D01*
X182880D01*
Y23998D01*
X182913D01*
Y24031D01*
X182945D01*
Y24064D01*
X183011D01*
Y24096D01*
X183043D01*
Y24129D01*
X183076D01*
Y24162D01*
X183142D01*
Y24194D01*
X183207D01*
Y24227D01*
X183272D01*
Y24260D01*
X183338D01*
Y24293D01*
X183436D01*
Y24325D01*
X183599D01*
Y24358D01*
X183926D01*
Y24325D01*
X184155D01*
Y24293D01*
X184384D01*
Y24260D01*
X184580D01*
Y24227D01*
X184809D01*
Y24194D01*
X184842D01*
Y24227D01*
X184874D01*
Y24260D01*
Y24293D01*
Y24325D01*
Y24358D01*
X184907D01*
Y24391D01*
Y24423D01*
Y24456D01*
Y24489D01*
X184940D01*
Y24521D01*
Y24554D01*
Y24587D01*
Y24620D01*
Y24652D01*
X184973D01*
Y24685D01*
Y24718D01*
Y24750D01*
Y24783D01*
X185005D01*
Y24816D01*
Y24848D01*
Y24881D01*
Y24914D01*
Y24947D01*
X185038D01*
Y24979D01*
Y25012D01*
Y25045D01*
Y25077D01*
X185071D01*
Y25110D01*
Y25143D01*
Y25175D01*
Y25208D01*
Y25241D01*
X185103D01*
Y25273D01*
Y25306D01*
Y25339D01*
Y25372D01*
X185136D01*
Y25404D01*
Y25437D01*
Y25470D01*
Y25502D01*
Y25535D01*
X185169D01*
Y25568D01*
Y25600D01*
Y25633D01*
Y25666D01*
X185202D01*
Y25699D01*
Y25731D01*
Y25764D01*
Y25797D01*
Y25829D01*
X185234D01*
Y25862D01*
Y25895D01*
Y25927D01*
Y25960D01*
X185267D01*
Y25993D01*
Y26026D01*
Y26058D01*
Y26091D01*
Y26124D01*
X185169D01*
Y26156D01*
X185071D01*
Y26189D01*
X184973D01*
Y26222D01*
X184842D01*
Y26254D01*
X184744D01*
Y26287D01*
X184646D01*
Y26320D01*
X184548D01*
Y26353D01*
X184417D01*
Y26385D01*
X184319D01*
Y26418D01*
X184221D01*
Y26451D01*
X184090D01*
Y26483D01*
X183992D01*
Y26516D01*
X183894D01*
Y26549D01*
X183795D01*
Y26581D01*
X183665D01*
Y26614D01*
X183567D01*
Y26647D01*
X183468D01*
Y26680D01*
X183370D01*
Y26712D01*
X183305D01*
Y26745D01*
X183240D01*
Y26778D01*
X183174D01*
Y26810D01*
X183109D01*
Y26843D01*
X183043D01*
Y26876D01*
X183011D01*
Y26908D01*
X182978D01*
Y26941D01*
X182913D01*
Y26974D01*
X182880D01*
Y27007D01*
X182847D01*
Y27039D01*
X182815D01*
Y27072D01*
X182782D01*
Y27105D01*
X182749D01*
Y27137D01*
Y27170D01*
X182716D01*
Y27203D01*
X182684D01*
Y27235D01*
X182651D01*
Y27268D01*
Y27301D01*
X182618D01*
Y27334D01*
X182586D01*
Y27366D01*
Y27399D01*
X182553D01*
Y27432D01*
Y27464D01*
X182520D01*
Y27497D01*
Y27530D01*
X182487D01*
Y27562D01*
Y27595D01*
Y27628D01*
X182455D01*
Y27661D01*
Y27693D01*
Y27726D01*
X182422D01*
Y27759D01*
Y27791D01*
Y27824D01*
Y27857D01*
Y27889D01*
X182389D01*
Y27922D01*
Y27955D01*
Y27988D01*
Y28020D01*
Y28053D01*
Y28086D01*
Y28118D01*
Y28151D01*
Y28184D01*
Y28216D01*
Y28249D01*
Y28282D01*
Y28315D01*
X182422D01*
Y28347D01*
Y28380D01*
Y28413D01*
Y28445D01*
Y28478D01*
X182455D01*
Y28511D01*
Y28543D01*
Y28576D01*
Y28609D01*
X182487D01*
Y28642D01*
Y28674D01*
Y28707D01*
X182520D01*
Y28740D01*
Y28772D01*
X182553D01*
Y28805D01*
Y28838D01*
X182586D01*
Y28870D01*
Y28903D01*
Y28936D01*
X182618D01*
Y28969D01*
Y29001D01*
X182651D01*
Y29034D01*
Y29067D01*
Y29099D01*
X182684D01*
Y29132D01*
Y29165D01*
X182716D01*
Y29197D01*
Y29230D01*
Y29263D01*
X182749D01*
Y29296D01*
Y29328D01*
X182782D01*
Y29361D01*
Y29394D01*
Y29426D01*
X182815D01*
Y29459D01*
Y29492D01*
X182847D01*
Y29524D01*
Y29557D01*
Y29590D01*
X182880D01*
Y29623D01*
Y29655D01*
X182913D01*
Y29688D01*
Y29721D01*
Y29753D01*
X182945D01*
Y29786D01*
Y29819D01*
X182978D01*
Y29851D01*
Y29884D01*
X183011D01*
Y29917D01*
Y29950D01*
Y29982D01*
X183043D01*
Y30015D01*
Y30048D01*
X183076D01*
Y30080D01*
Y30113D01*
Y30146D01*
X183109D01*
Y30178D01*
Y30211D01*
X183142D01*
Y30244D01*
Y30276D01*
Y30309D01*
X183174D01*
Y30342D01*
Y30375D01*
X183207D01*
Y30407D01*
Y30440D01*
X183240D01*
Y30473D01*
X183272D01*
Y30505D01*
X183305D01*
Y30538D01*
Y30571D01*
X183338D01*
Y30603D01*
X183370D01*
Y30636D01*
X183403D01*
Y30669D01*
X183436D01*
Y30702D01*
X183501D01*
Y30734D01*
X183534D01*
Y30767D01*
X183567D01*
Y30800D01*
X183501D01*
Y30832D01*
X183436D01*
Y30865D01*
X183370D01*
Y30898D01*
X183338D01*
Y30930D01*
X183272D01*
Y30963D01*
X183207D01*
Y30996D01*
X183142D01*
Y31029D01*
X183076D01*
Y31061D01*
X183011D01*
Y31094D01*
X182978D01*
Y31127D01*
X182913D01*
Y31159D01*
X182847D01*
Y31192D01*
X182782D01*
Y31225D01*
X182716D01*
Y31257D01*
X182684D01*
Y31290D01*
X182618D01*
Y31323D01*
X182553D01*
Y31356D01*
X182487D01*
Y31388D01*
X182422D01*
Y31421D01*
X182389D01*
Y31454D01*
X182324D01*
Y31486D01*
X182259D01*
Y31519D01*
X182193D01*
Y31552D01*
X182128D01*
Y31584D01*
X182062D01*
Y31617D01*
X182030D01*
Y31650D01*
X181964D01*
Y31683D01*
X181899D01*
Y31715D01*
X181834D01*
Y31748D01*
X181768D01*
Y31781D01*
X181735D01*
Y31813D01*
X181670D01*
Y31846D01*
X181605D01*
Y31879D01*
X181539D01*
Y31911D01*
X181474D01*
Y31944D01*
X181441D01*
Y31977D01*
X181376D01*
Y32010D01*
X181310D01*
Y32042D01*
X181245D01*
Y32075D01*
X181212D01*
Y32108D01*
X181179D01*
Y32140D01*
X181147D01*
Y32173D01*
Y32206D01*
Y32238D01*
X181114D01*
Y32271D01*
Y32304D01*
Y32337D01*
X181147D01*
Y32369D01*
Y32402D01*
Y32435D01*
X181179D01*
Y32467D01*
X181212D01*
Y32500D01*
X181245D01*
Y32533D01*
X181310D01*
Y32565D01*
X181507D01*
Y32533D01*
D02*
G37*
G36*
X197137Y19976D02*
X197169D01*
Y19943D01*
X197235D01*
Y19911D01*
Y19878D01*
X197268D01*
Y19845D01*
X197300D01*
Y19813D01*
Y19780D01*
Y19747D01*
Y19715D01*
Y19682D01*
Y19649D01*
Y19616D01*
X197268D01*
Y19584D01*
X197235D01*
Y19551D01*
X197202D01*
Y19518D01*
X197169D01*
Y19486D01*
X197104D01*
Y19453D01*
X196417D01*
Y19486D01*
X196319D01*
Y19518D01*
X196287D01*
Y19551D01*
X196254D01*
Y19584D01*
X196221D01*
Y19616D01*
Y19649D01*
X196188D01*
Y19682D01*
Y19715D01*
Y19747D01*
Y19780D01*
Y19813D01*
X196221D01*
Y19845D01*
Y19878D01*
X196254D01*
Y19911D01*
Y19943D01*
X196319D01*
Y19976D01*
X196352D01*
Y20009D01*
X197137D01*
Y19976D01*
D02*
G37*
%LPC*%
G36*
X188308Y31944D02*
X188210D01*
Y31911D01*
X188145D01*
Y31879D01*
X188046D01*
Y31846D01*
X187948D01*
Y31813D01*
X187850D01*
Y31781D01*
X187785D01*
Y31748D01*
X187687D01*
Y31715D01*
X187589D01*
Y31683D01*
X187490D01*
Y31650D01*
X187425D01*
Y31617D01*
X187327D01*
Y31584D01*
X187229D01*
Y31552D01*
X187131D01*
Y31519D01*
X187065D01*
Y31486D01*
X186967D01*
Y31454D01*
X186869D01*
Y31421D01*
X186804D01*
Y31388D01*
X186706D01*
Y31356D01*
X186608D01*
Y31323D01*
X186510D01*
Y31290D01*
X186444D01*
Y31257D01*
X186346D01*
Y31225D01*
X186248D01*
Y31192D01*
X186150D01*
Y31159D01*
X186117D01*
Y31127D01*
X186150D01*
Y31094D01*
X186248D01*
Y31061D01*
X186313D01*
Y31029D01*
X186379D01*
Y30996D01*
X186444D01*
Y30963D01*
X186510D01*
Y30930D01*
X186575D01*
Y30898D01*
X186640D01*
Y30865D01*
X186738D01*
Y30832D01*
X186804D01*
Y30800D01*
X186869D01*
Y30767D01*
X186935D01*
Y30734D01*
X187000D01*
Y30702D01*
X187065D01*
Y30669D01*
X187131D01*
Y30636D01*
X187196D01*
Y30603D01*
X187262D01*
Y30571D01*
X187327D01*
Y30538D01*
X187425D01*
Y30505D01*
X187490D01*
Y30473D01*
X187556D01*
Y30440D01*
X187621D01*
Y30407D01*
X187687D01*
Y30375D01*
X187752D01*
Y30342D01*
X187818D01*
Y30309D01*
X187883D01*
Y30276D01*
X187981D01*
Y30244D01*
X188046D01*
Y30211D01*
X188112D01*
Y30178D01*
X188177D01*
Y30146D01*
X188243D01*
Y30113D01*
X188308D01*
Y30080D01*
X188373D01*
Y30048D01*
X188471D01*
Y30015D01*
X188537D01*
Y29982D01*
X188602D01*
Y29950D01*
X188668D01*
Y29917D01*
X188733D01*
Y29884D01*
X188798D01*
Y29851D01*
X188864D01*
Y29819D01*
X188929D01*
Y29786D01*
X189027D01*
Y29753D01*
X189093D01*
Y29721D01*
X189158D01*
Y29688D01*
X189224D01*
Y29655D01*
X189289D01*
Y29623D01*
X189354D01*
Y29590D01*
X189420D01*
Y29557D01*
X189485D01*
Y29590D01*
X189452D01*
Y29623D01*
Y29655D01*
X189420D01*
Y29688D01*
Y29721D01*
X189387D01*
Y29753D01*
Y29786D01*
X189354D01*
Y29819D01*
Y29851D01*
X189322D01*
Y29884D01*
Y29917D01*
X189289D01*
Y29950D01*
Y29982D01*
X189256D01*
Y30015D01*
Y30048D01*
X189224D01*
Y30080D01*
Y30113D01*
X189191D01*
Y30146D01*
Y30178D01*
X189158D01*
Y30211D01*
Y30244D01*
X189126D01*
Y30276D01*
Y30309D01*
X189093D01*
Y30342D01*
Y30375D01*
X189060D01*
Y30407D01*
Y30440D01*
X189027D01*
Y30473D01*
Y30505D01*
X188995D01*
Y30538D01*
Y30571D01*
X188962D01*
Y30603D01*
Y30636D01*
X188929D01*
Y30669D01*
Y30702D01*
X188897D01*
Y30734D01*
Y30767D01*
X188864D01*
Y30800D01*
Y30832D01*
X188831D01*
Y30865D01*
Y30898D01*
X188798D01*
Y30930D01*
Y30963D01*
X188766D01*
Y30996D01*
Y31029D01*
X188733D01*
Y31061D01*
Y31094D01*
X188700D01*
Y31127D01*
Y31159D01*
X188668D01*
Y31192D01*
Y31225D01*
X188635D01*
Y31257D01*
Y31290D01*
X188602D01*
Y31323D01*
Y31356D01*
X188570D01*
Y31388D01*
Y31421D01*
X188537D01*
Y31454D01*
Y31486D01*
X188504D01*
Y31519D01*
Y31552D01*
X188471D01*
Y31584D01*
Y31617D01*
X188439D01*
Y31650D01*
Y31683D01*
X188406D01*
Y31715D01*
Y31748D01*
X188373D01*
Y31781D01*
Y31813D01*
X188341D01*
Y31846D01*
Y31879D01*
X188308D01*
Y31911D01*
Y31944D01*
D02*
G37*
G36*
X185038Y29982D02*
X185005D01*
Y29950D01*
Y29917D01*
Y29884D01*
Y29851D01*
Y29819D01*
Y29786D01*
Y29753D01*
Y29721D01*
Y29688D01*
X184973D01*
Y29655D01*
Y29623D01*
Y29590D01*
Y29557D01*
X184940D01*
Y29524D01*
Y29492D01*
Y29459D01*
X184907D01*
Y29426D01*
Y29394D01*
X184874D01*
Y29361D01*
Y29328D01*
Y29296D01*
X184842D01*
Y29263D01*
Y29230D01*
X184809D01*
Y29197D01*
Y29165D01*
Y29132D01*
X184776D01*
Y29099D01*
Y29067D01*
X184744D01*
Y29034D01*
Y29001D01*
Y28969D01*
X184711D01*
Y28936D01*
Y28903D01*
X184678D01*
Y28870D01*
Y28838D01*
Y28805D01*
X184646D01*
Y28772D01*
Y28740D01*
X184613D01*
Y28707D01*
Y28674D01*
Y28642D01*
X184580D01*
Y28609D01*
Y28576D01*
X184548D01*
Y28543D01*
Y28511D01*
Y28478D01*
X184515D01*
Y28445D01*
Y28413D01*
Y28380D01*
X184580D01*
Y28347D01*
X184678D01*
Y28315D01*
X184809D01*
Y28282D01*
X184907D01*
Y28249D01*
X185005D01*
Y28216D01*
X185103D01*
Y28184D01*
X185234D01*
Y28151D01*
X185332D01*
Y28118D01*
X185430D01*
Y28086D01*
X185529D01*
Y28053D01*
X185659D01*
Y28020D01*
X185757D01*
Y27988D01*
X185855D01*
Y27955D01*
X185954D01*
Y27922D01*
X186084D01*
Y27889D01*
X186215D01*
Y27857D01*
X186313D01*
Y27824D01*
X186444D01*
Y27791D01*
X186542D01*
Y27759D01*
X186673D01*
Y27726D01*
X186771D01*
Y27693D01*
X186902D01*
Y27661D01*
X187033D01*
Y27628D01*
X187131D01*
Y27595D01*
X187262D01*
Y27562D01*
X187360D01*
Y27530D01*
X187490D01*
Y27497D01*
X187589D01*
Y27464D01*
X187719D01*
Y27432D01*
X187850D01*
Y27399D01*
X187948D01*
Y27366D01*
X188046D01*
Y27334D01*
X188145D01*
Y27301D01*
X188243D01*
Y27268D01*
X188308D01*
Y27235D01*
X188406D01*
Y27203D01*
X188471D01*
Y27170D01*
X188537D01*
Y27137D01*
X188602D01*
Y27105D01*
X188635D01*
Y27072D01*
X188700D01*
Y27039D01*
X188766D01*
Y27007D01*
X188831D01*
Y26974D01*
X188864D01*
Y26941D01*
X188929D01*
Y26908D01*
X188962D01*
Y26876D01*
X189027D01*
Y26843D01*
X189060D01*
Y26810D01*
X189093D01*
Y26778D01*
X189158D01*
Y26745D01*
X189191D01*
Y26712D01*
X189256D01*
Y26680D01*
X189289D01*
Y26647D01*
X189322D01*
Y26614D01*
X189387D01*
Y26581D01*
X189420D01*
Y26549D01*
X189452D01*
Y26516D01*
X189518D01*
Y26483D01*
X189550D01*
Y26451D01*
X189616D01*
Y26483D01*
Y26516D01*
Y26549D01*
X189649D01*
Y26581D01*
Y26614D01*
Y26647D01*
X189681D01*
Y26680D01*
Y26712D01*
X189714D01*
Y26745D01*
Y26778D01*
Y26810D01*
X189747D01*
Y26843D01*
Y26876D01*
X189779D01*
Y26908D01*
X189812D01*
Y26941D01*
Y26974D01*
X189845D01*
Y27007D01*
X189877D01*
Y27039D01*
X189910D01*
Y27072D01*
X189943D01*
Y27105D01*
X189976D01*
Y27137D01*
X190041D01*
Y27170D01*
X190074D01*
Y27203D01*
X190008D01*
Y27235D01*
X189976D01*
Y27268D01*
X189910D01*
Y27301D01*
X189845D01*
Y27334D01*
X189779D01*
Y27366D01*
X189714D01*
Y27399D01*
X189649D01*
Y27432D01*
X189616D01*
Y27464D01*
X189550D01*
Y27497D01*
X189485D01*
Y27530D01*
X189420D01*
Y27562D01*
X189354D01*
Y27595D01*
X189322D01*
Y27628D01*
X189256D01*
Y27661D01*
X189191D01*
Y27693D01*
X189126D01*
Y27726D01*
X189060D01*
Y27759D01*
X189027D01*
Y27791D01*
X188962D01*
Y27824D01*
X188897D01*
Y27857D01*
X188831D01*
Y27889D01*
X188766D01*
Y27922D01*
X188700D01*
Y27955D01*
X188668D01*
Y27988D01*
X188602D01*
Y28020D01*
X188537D01*
Y28053D01*
X188471D01*
Y28086D01*
X188439D01*
Y28053D01*
X188373D01*
Y28020D01*
X188308D01*
Y27988D01*
X188243D01*
Y27955D01*
X188177D01*
Y27922D01*
X188079D01*
Y27889D01*
X187948D01*
Y27857D01*
X187719D01*
Y27824D01*
X187425D01*
Y27857D01*
X187229D01*
Y27889D01*
X187098D01*
Y27922D01*
X187000D01*
Y27955D01*
X186935D01*
Y27988D01*
X186869D01*
Y28020D01*
X186804D01*
Y28053D01*
X186738D01*
Y28086D01*
X186673D01*
Y28118D01*
X186640D01*
Y28151D01*
X186575D01*
Y28184D01*
X186542D01*
Y28216D01*
X186510D01*
Y28249D01*
X186477D01*
Y28282D01*
X186444D01*
Y28315D01*
X186411D01*
Y28347D01*
X186379D01*
Y28380D01*
X186346D01*
Y28413D01*
X186313D01*
Y28445D01*
X186281D01*
Y28478D01*
X186248D01*
Y28511D01*
Y28543D01*
X186215D01*
Y28576D01*
X186182D01*
Y28609D01*
Y28642D01*
X186150D01*
Y28674D01*
X186117D01*
Y28707D01*
Y28740D01*
X186084D01*
Y28772D01*
Y28805D01*
X186052D01*
Y28838D01*
Y28870D01*
Y28903D01*
X186019D01*
Y28936D01*
Y28969D01*
X185986D01*
Y29001D01*
Y29034D01*
Y29067D01*
Y29099D01*
X185954D01*
Y29132D01*
Y29165D01*
Y29197D01*
Y29230D01*
X185921D01*
Y29263D01*
Y29296D01*
Y29328D01*
Y29361D01*
Y29394D01*
Y29426D01*
Y29459D01*
Y29492D01*
X185855D01*
Y29524D01*
X185823D01*
Y29557D01*
X185757D01*
Y29590D01*
X185692D01*
Y29623D01*
X185627D01*
Y29655D01*
X185561D01*
Y29688D01*
X185529D01*
Y29721D01*
X185463D01*
Y29753D01*
X185398D01*
Y29786D01*
X185332D01*
Y29819D01*
X185267D01*
Y29851D01*
X185234D01*
Y29884D01*
X185169D01*
Y29917D01*
X185103D01*
Y29950D01*
X185038D01*
Y29982D01*
D02*
G37*
G36*
X184973Y22200D02*
X184809D01*
Y22167D01*
Y22134D01*
Y22102D01*
X184842D01*
Y22069D01*
Y22036D01*
Y22004D01*
Y21971D01*
X184874D01*
Y21938D01*
Y21905D01*
Y21873D01*
X184907D01*
Y21840D01*
Y21807D01*
Y21775D01*
Y21742D01*
X184940D01*
Y21709D01*
Y21677D01*
Y21644D01*
X184973D01*
Y21611D01*
Y21578D01*
Y21546D01*
X185005D01*
Y21513D01*
Y21480D01*
Y21448D01*
Y21415D01*
X185038D01*
Y21382D01*
Y21350D01*
Y21317D01*
X185071D01*
Y21284D01*
Y21251D01*
Y21219D01*
Y21186D01*
X185103D01*
Y21153D01*
Y21121D01*
Y21088D01*
X185136D01*
Y21055D01*
Y21023D01*
Y20990D01*
X185169D01*
Y20957D01*
Y20924D01*
Y20892D01*
Y20859D01*
X185202D01*
Y20826D01*
Y20794D01*
Y20761D01*
X185234D01*
Y20728D01*
Y20696D01*
Y20663D01*
Y20630D01*
Y20597D01*
X185267D01*
Y20565D01*
Y20532D01*
Y20499D01*
Y20467D01*
Y20434D01*
Y20401D01*
Y20369D01*
Y20336D01*
Y20303D01*
Y20270D01*
X185234D01*
Y20238D01*
Y20205D01*
Y20172D01*
Y20140D01*
X185202D01*
Y20107D01*
Y20074D01*
Y20042D01*
X185169D01*
Y20009D01*
X191578D01*
Y20042D01*
X191513D01*
Y20074D01*
X191447D01*
Y20107D01*
X191349D01*
Y20140D01*
X191251D01*
Y20172D01*
X191185D01*
Y20205D01*
X191087D01*
Y20238D01*
X191022D01*
Y20270D01*
X190924D01*
Y20303D01*
X190826D01*
Y20336D01*
X190760D01*
Y20369D01*
X190662D01*
Y20401D01*
X190597D01*
Y20434D01*
X190499D01*
Y20467D01*
X190401D01*
Y20499D01*
X190335D01*
Y20532D01*
X190237D01*
Y20565D01*
X190172D01*
Y20597D01*
X190074D01*
Y20630D01*
X190008D01*
Y20663D01*
X189910D01*
Y20696D01*
X189812D01*
Y20728D01*
X189747D01*
Y20761D01*
X189649D01*
Y20794D01*
X189583D01*
Y20826D01*
X189485D01*
Y20859D01*
X189387D01*
Y20892D01*
X189322D01*
Y20924D01*
X189224D01*
Y20957D01*
X189158D01*
Y20990D01*
X189060D01*
Y21023D01*
X188995D01*
Y21055D01*
X188897D01*
Y21088D01*
X188798D01*
Y21121D01*
X188733D01*
Y21153D01*
X188635D01*
Y21186D01*
X188570D01*
Y21219D01*
X188471D01*
Y21251D01*
X188373D01*
Y21284D01*
X188308D01*
Y21317D01*
X188210D01*
Y21350D01*
X188145D01*
Y21382D01*
X188046D01*
Y21415D01*
X187948D01*
Y21448D01*
X187883D01*
Y21480D01*
X187785D01*
Y21513D01*
X187719D01*
Y21546D01*
X187621D01*
Y21578D01*
X187523D01*
Y21611D01*
X187458D01*
Y21644D01*
X187360D01*
Y21677D01*
X187262D01*
Y21709D01*
X187163D01*
Y21742D01*
X187065D01*
Y21775D01*
X186935D01*
Y21807D01*
X186837D01*
Y21840D01*
X186706D01*
Y21873D01*
X186575D01*
Y21905D01*
X186444D01*
Y21938D01*
X186281D01*
Y21971D01*
X186117D01*
Y22004D01*
X185921D01*
Y22036D01*
X185725D01*
Y22069D01*
X185529D01*
Y22102D01*
X185365D01*
Y22134D01*
X185169D01*
Y22167D01*
X184973D01*
Y22200D01*
D02*
G37*
%LPD*%
D10*
X162900Y74019D02*
G03*
X162900Y74019I-492J0D01*
G01*
X36872Y145821D02*
G03*
X36872Y145821I-492J0D01*
G01*
X70895Y198747D02*
G03*
X70895Y198747I-492J0D01*
G01*
X142333Y17400D02*
G03*
X142333Y17400I-500J0D01*
G01*
X176689Y160490D02*
G03*
X176689Y160490I-492J0D01*
G01*
X47100Y45748D02*
G03*
X47100Y45748I-500J0D01*
G01*
X71500D02*
G03*
X71500Y45748I-500J0D01*
G01*
X96152D02*
G03*
X96152Y45748I-500J0D01*
G01*
X85800Y161415D02*
G03*
X85800Y161415I-500J0D01*
G01*
X39317Y214051D02*
G03*
X39317Y214051I-492J0D01*
G01*
X146322Y109388D02*
G03*
X146322Y109388I-492J0D01*
G01*
X149805Y233879D02*
G03*
X149805Y233879I-492J0D01*
G01*
D11*
X193871Y100655D02*
G03*
X193871Y100655I-197J0D01*
G01*
X36005Y184876D02*
G03*
X36005Y184876I-197J0D01*
G01*
X47522Y199550D02*
G03*
X47522Y199550I-197J0D01*
G01*
X179975Y48660D02*
G03*
X179975Y48660I-197J0D01*
G01*
X120697Y40247D02*
G03*
X120697Y40247I-197J0D01*
G01*
X26458Y214734D02*
Y216734D01*
Y214734D02*
X27958D01*
X59958D02*
X61458D01*
Y216734D01*
X24458Y224234D02*
X26458D01*
Y222734D02*
Y224234D01*
X61458Y222734D02*
Y224234D01*
X63458D01*
D12*
X168308Y224781D02*
G03*
X168702Y224388I394J0D01*
G01*
X179332D02*
G03*
X179725Y224781I0J394D01*
G01*
X156497Y229751D02*
G03*
X155140Y230293I-1357J-1426D01*
G01*
X178938Y224781D02*
G03*
X179332Y224388I394J0D01*
G01*
X168702D02*
G03*
X169095Y224781I0J394D01*
G01*
X157464Y225621D02*
G03*
X159077Y224781I1612J1129D01*
G01*
X189234D02*
G03*
X190806Y225565I0J1969D01*
G01*
X168894Y59500D02*
G03*
X168894Y59500I-394J0D01*
G01*
X121874Y44698D02*
Y49707D01*
X127189Y44698D02*
Y49707D01*
X110692Y208381D02*
Y208782D01*
X105771Y208381D02*
Y208782D01*
X99373Y209475D02*
X104373D01*
X99373Y206975D02*
X101873Y209475D01*
X104373Y206975D01*
X99373D02*
X104373D01*
X113438Y207979D02*
Y208373D01*
X118162Y207979D02*
Y208373D01*
X98207Y209242D02*
Y209635D01*
X95058Y209242D02*
Y209635D01*
X164396Y79260D02*
Y88512D01*
X169219Y92154D02*
X172172D01*
X176995Y79260D02*
Y88512D01*
X169219Y75618D02*
X172172D01*
X82319Y224581D02*
Y224982D01*
X87240Y224581D02*
Y224982D01*
X193343Y102899D02*
Y108411D01*
X202005Y102899D02*
Y108411D01*
X116472Y55195D02*
X116865D01*
X116472Y52046D02*
X116865D01*
X108846Y53490D02*
Y61758D01*
X100963Y53532D02*
Y61800D01*
X104309Y49005D02*
X105490D01*
X104900Y48414D02*
Y49595D01*
X39135Y150152D02*
X42088D01*
X46911Y153794D02*
Y163046D01*
X39135Y166687D02*
X42088D01*
X34313Y153794D02*
Y163046D01*
X69813Y201306D02*
X70935D01*
X69813D02*
Y202428D01*
Y212585D02*
Y213707D01*
X70935D01*
X81092D02*
X82214D01*
Y212585D02*
Y213707D01*
X81092Y201306D02*
X82214D01*
Y202428D01*
X165478Y136103D02*
Y136497D01*
X162722Y136103D02*
Y136497D01*
X144400Y4880D02*
X174400D01*
X144400D02*
Y27400D01*
X174400D01*
Y4880D02*
Y27400D01*
X172162Y157439D02*
X173461D01*
X185036D02*
X186335D01*
Y139328D02*
Y139545D01*
Y157222D02*
Y157439D01*
X172162Y139328D02*
X173461D01*
X185036D02*
X186335D01*
X172162D02*
Y139545D01*
Y157222D02*
Y157439D01*
X34080Y3181D02*
Y43181D01*
X56600D01*
Y3181D02*
Y43181D01*
X34080Y3181D02*
X56600D01*
X58480D02*
X81000D01*
Y43181D01*
X58480D02*
X81000D01*
X58480Y3181D02*
Y43181D01*
X83132Y3181D02*
X105652D01*
Y43181D01*
X83132D02*
X105652D01*
X83132Y3181D02*
Y43181D01*
X75300Y193982D02*
X97820D01*
X75300Y163982D02*
Y193982D01*
Y163982D02*
X97820D01*
Y193982D01*
X71435Y221421D02*
Y221815D01*
X68285Y221421D02*
Y221815D01*
X78958Y221899D02*
Y222292D01*
X74037Y221899D02*
Y222292D01*
X7475Y207703D02*
Y208097D01*
X4325Y207703D02*
Y208097D01*
X13975Y207453D02*
Y207846D01*
X10825Y207453D02*
Y207846D01*
X22461Y207803D02*
Y208197D01*
X17539Y207803D02*
Y208197D01*
X29675Y204554D02*
Y204947D01*
X26525Y204554D02*
Y204947D01*
X51722Y192997D02*
Y193391D01*
X54478Y192997D02*
Y193391D01*
X90486Y223848D02*
Y224242D01*
X93635Y223848D02*
Y224242D01*
X30747Y196378D02*
X31141D01*
X30747Y193622D02*
X31141D01*
X41975Y192603D02*
Y192997D01*
X38825Y192603D02*
Y192997D01*
X41616Y199747D02*
X45159D01*
X41616Y211558D02*
X45159D01*
X46144Y205850D02*
Y207031D01*
X40632Y204275D02*
Y207031D01*
X48475Y192603D02*
Y192997D01*
X45325Y192603D02*
Y192997D01*
X59431Y205903D02*
Y206297D01*
X56281Y205903D02*
Y206297D01*
X194367Y167702D02*
Y168096D01*
X197122Y167702D02*
Y168096D01*
X194022Y157557D02*
Y157950D01*
X196778Y157557D02*
Y157950D01*
X201803Y167546D02*
Y167939D01*
X205346Y167546D02*
Y167939D01*
X208805Y138541D02*
Y144447D01*
X199356Y138541D02*
Y144447D01*
X213220Y138541D02*
Y144447D01*
X222669Y138541D02*
Y144447D01*
X225195Y143561D02*
Y143954D01*
X229920Y143561D02*
Y143954D01*
X81671Y139574D02*
Y139968D01*
X76947Y139574D02*
Y139968D01*
X172851Y135076D02*
X173245D01*
X172851Y131927D02*
X173245D01*
X134476Y138146D02*
Y144052D01*
X143924Y138146D02*
Y144052D01*
X163967Y146346D02*
Y146740D01*
X166722Y146346D02*
Y146740D01*
X177969Y167339D02*
Y167733D01*
X174426Y167339D02*
Y167733D01*
X168372Y167339D02*
Y167733D01*
X164828Y167339D02*
Y167733D01*
X112562Y138265D02*
Y138659D01*
X107838Y138265D02*
Y138659D01*
X98722Y141443D02*
Y141836D01*
X93998Y141443D02*
Y141836D01*
X129024Y137943D02*
Y143849D01*
X119576Y137943D02*
Y143849D01*
X136915Y121199D02*
Y121592D01*
X133766Y121199D02*
Y121592D01*
X213173Y110963D02*
Y112144D01*
X209827Y110963D02*
Y112144D01*
X198928Y113525D02*
X199322D01*
X198928Y116675D02*
X199322D01*
X169095Y224781D02*
X178938D01*
X191971Y185411D02*
X193034D01*
X148919D02*
Y186671D01*
X148447D02*
X148919D01*
Y185411D02*
X149648D01*
X168466D02*
X181341D01*
X195022D02*
Y186671D01*
X195494D02*
Y222813D01*
X193034Y185411D02*
X195022D01*
X149648D02*
X157837D01*
X148447Y186671D02*
Y186986D01*
X179725Y224781D02*
X189234D01*
X195022Y186671D02*
X195494D01*
X159077Y224781D02*
X168308D01*
X148447Y194073D02*
Y201553D01*
X148470Y208640D02*
Y224585D01*
X154687Y230293D02*
X155140D01*
X97160Y195539D02*
X97553D01*
X97160Y200461D02*
X97553D01*
X209672Y201725D02*
X210066D01*
X209672Y204875D02*
X210066D01*
X196320Y58002D02*
Y59183D01*
X192973Y58002D02*
Y59183D01*
X195021Y44706D02*
X195415D01*
X195021Y41557D02*
X195415D01*
X188109Y50904D02*
Y56416D01*
X179447Y50904D02*
Y56416D01*
X139246Y69587D02*
X139640D01*
X139246Y74508D02*
X139640D01*
X147208Y92926D02*
X147602D01*
X147208Y96076D02*
X147602D01*
X183581Y60803D02*
X183975D01*
X183581Y63953D02*
X183975D01*
X155353Y84583D02*
X155747D01*
X155353Y87732D02*
X155747D01*
X195179Y81721D02*
Y82114D01*
X190454Y81721D02*
Y82114D01*
X207460Y89172D02*
X207854D01*
X207460Y85628D02*
X207854D01*
X220024Y78152D02*
Y78546D01*
X224748Y78152D02*
Y78546D01*
X133825Y109280D02*
Y109673D01*
X136975Y109280D02*
Y109673D01*
X80275Y55514D02*
Y55907D01*
X77125Y55514D02*
Y55907D01*
X71275Y55663D02*
Y56057D01*
X68125Y55663D02*
Y56057D01*
X42384Y138301D02*
Y138695D01*
X45533Y138301D02*
Y138695D01*
X43503Y63661D02*
X43897D01*
X43503Y58739D02*
X43897D01*
X57375Y58454D02*
Y58847D01*
X54225Y58454D02*
Y58847D01*
X24258Y160171D02*
X24659D01*
X24258Y165092D02*
X24659D01*
X25352Y166490D02*
Y171490D01*
X22852D02*
X25352Y168990D01*
X22852Y166490D02*
X25352Y168990D01*
X22852Y166490D02*
Y171490D01*
X23982Y176826D02*
X24376D01*
X23982Y173677D02*
X24376D01*
X24950Y185845D02*
X25344D01*
X24950Y182695D02*
X25344D01*
X53575Y138203D02*
Y138597D01*
X50425Y138203D02*
Y138597D01*
X55632Y174345D02*
Y174739D01*
X52482Y174345D02*
Y174739D01*
X57010Y163525D02*
X57403D01*
X57010Y166675D02*
X57403D01*
X59225Y174345D02*
Y174739D01*
X62375Y174345D02*
Y174739D01*
X90058Y148643D02*
Y149037D01*
X85334Y148643D02*
Y149037D01*
X55490Y186904D02*
X55884D01*
X55490Y184148D02*
X55884D01*
X30659Y188272D02*
X31053D01*
X30659Y191028D02*
X31053D01*
X68575Y192403D02*
Y192797D01*
X65425Y192403D02*
Y192797D01*
D13*
X32447Y62528D02*
G03*
X32447Y62528I-1409J0D01*
G01*
D14*
X179549Y17739D02*
X229012D01*
X179549Y33538D02*
X229012D01*
Y17739D02*
Y33538D01*
X179549Y17739D02*
Y33538D01*
D15*
X156664Y112592D02*
X181664D01*
X156664D02*
Y126093D01*
X181664D01*
Y112592D02*
Y126093D01*
D16*
X122602Y153105D02*
X150948D01*
X122602D02*
Y158420D01*
Y173380D02*
Y178695D01*
X150948D01*
Y173380D02*
Y178695D01*
Y153105D02*
Y158420D01*
X168617Y38223D02*
Y53577D01*
X148783Y38223D02*
Y53577D01*
X186519Y67315D02*
X189668D01*
X186519Y72039D02*
X189668D01*
X198356Y32951D02*
Y31618D01*
X199023Y30951D01*
X199689Y31618D01*
Y32951D01*
X200689Y30951D02*
X201355D01*
X201688Y31285D01*
Y31951D01*
X201355Y32284D01*
X200689D01*
X200356Y31951D01*
Y31285D01*
X200689Y30951D01*
X202688D02*
X203355D01*
X203688Y31285D01*
Y31951D01*
X203355Y32284D01*
X202688D01*
X202355Y31951D01*
Y31285D01*
X202688Y30951D01*
X205687Y32951D02*
Y30951D01*
X204687D01*
X204354Y31285D01*
Y31951D01*
X204687Y32284D01*
X205687D01*
X206687Y30951D02*
X207353D01*
X207686Y31285D01*
Y31951D01*
X207353Y32284D01*
X206687D01*
X206354Y31951D01*
Y31285D01*
X206687Y30951D01*
X208686D02*
X209353D01*
X209686Y31285D01*
Y31951D01*
X209353Y32284D01*
X208686D01*
X208353Y31951D01*
Y31285D01*
X208686Y30951D01*
X212352D02*
Y32951D01*
X213018Y32284D01*
X213685Y32951D01*
Y30951D01*
X214684Y32284D02*
X215351D01*
X215684Y31951D01*
Y30951D01*
X214684D01*
X214351Y31285D01*
X214684Y31618D01*
X215684D01*
X217017Y30285D02*
X217350D01*
X217683Y30618D01*
Y32284D01*
X216684D01*
X216350Y31951D01*
Y31285D01*
X216684Y30951D01*
X217683D01*
X218350D02*
X219016D01*
X218683D01*
Y32284D01*
X218350D01*
X221349D02*
X220349D01*
X220016Y31951D01*
Y31285D01*
X220349Y30951D01*
X221349D01*
X198356Y28685D02*
Y26686D01*
X199023Y27352D01*
X199689Y26686D01*
Y28685D01*
X200356Y26686D02*
X201022D01*
X200689D01*
Y28019D01*
X200356D01*
X203355Y28685D02*
X202022D01*
Y27685D01*
X202688D01*
X202022D01*
Y26686D01*
X204021D02*
X204687D01*
X204354D01*
Y28019D01*
X204021D01*
X209019Y28352D02*
X208686Y28685D01*
X208020D01*
X207686Y28352D01*
Y27019D01*
X208020Y26686D01*
X208686D01*
X209019Y27019D01*
Y27685D01*
X208353D01*
X210019Y28019D02*
X210685D01*
X211019Y27685D01*
Y26686D01*
X210019D01*
X209686Y27019D01*
X210019Y27352D01*
X211019D01*
X211685Y26686D02*
Y28019D01*
X212018D01*
X212352Y27685D01*
Y26686D01*
Y27685D01*
X212685Y28019D01*
X213018Y27685D01*
Y26686D01*
X213685D02*
X214351D01*
X214018D01*
Y28019D01*
X213685D01*
X215351Y26686D02*
Y28019D01*
X216350D01*
X216684Y27685D01*
Y26686D01*
X218016Y26019D02*
X218350D01*
X218683Y26353D01*
Y28019D01*
X217683D01*
X217350Y27685D01*
Y27019D01*
X217683Y26686D01*
X218683D01*
X221349D02*
Y28685D01*
X222348D01*
X222682Y28352D01*
Y27685D01*
X222348Y27352D01*
X221349D01*
X224681Y28352D02*
X224348Y28685D01*
X223681D01*
X223348Y28352D01*
Y27019D01*
X223681Y26686D01*
X224348D01*
X224681Y27019D01*
X225347Y28685D02*
Y26686D01*
X226347D01*
X226680Y27019D01*
Y27352D01*
X226347Y27685D01*
X225347D01*
X226347D01*
X226680Y28019D01*
Y28352D01*
X226347Y28685D01*
X225347D01*
X199689Y24419D02*
X198356D01*
Y22420D01*
X199689D01*
X198356Y23420D02*
X199023D01*
X201688Y24086D02*
X201355Y24419D01*
X200689D01*
X200356Y24086D01*
Y23753D01*
X200689Y23420D01*
X201355D01*
X201688Y23087D01*
Y22753D01*
X201355Y22420D01*
X200689D01*
X200356Y22753D01*
X203688Y24419D02*
X202355D01*
Y22420D01*
X203688D01*
X202355Y23420D02*
X203021D01*
X205687Y24419D02*
X204354D01*
Y23420D01*
X205021Y23753D01*
X205354D01*
X205687Y23420D01*
Y22753D01*
X205354Y22420D01*
X204687D01*
X204354Y22753D01*
X206354Y22420D02*
X207020D01*
X206687D01*
Y24419D01*
X206354Y24086D01*
X209353Y24419D02*
X208686Y24086D01*
X208020Y23420D01*
Y22753D01*
X208353Y22420D01*
X209019D01*
X209353Y22753D01*
Y23087D01*
X209019Y23420D01*
X208020D01*
X212018Y22420D02*
Y24419D01*
X213018D01*
X213351Y24086D01*
Y23420D01*
X213018Y23087D01*
X212018D01*
X214018Y23753D02*
Y22420D01*
Y23087D01*
X214351Y23420D01*
X214684Y23753D01*
X215017D01*
X216350Y22420D02*
X217017D01*
X217350Y22753D01*
Y23420D01*
X217017Y23753D01*
X216350D01*
X216017Y23420D01*
Y22753D01*
X216350Y22420D01*
X218016Y21754D02*
X218350D01*
X218683Y22087D01*
Y23753D01*
X221016Y22420D02*
X220349D01*
X220016Y22753D01*
Y23420D01*
X220349Y23753D01*
X221016D01*
X221349Y23420D01*
Y23087D01*
X220016D01*
X223348Y23753D02*
X222348D01*
X222015Y23420D01*
Y22753D01*
X222348Y22420D01*
X223348D01*
X224348Y24086D02*
Y23753D01*
X224014D01*
X224681D01*
X224348D01*
Y22753D01*
X224681Y22420D01*
X198356Y18155D02*
Y20154D01*
X199356D01*
X199689Y19821D01*
Y19154D01*
X199356Y18821D01*
X198356D01*
X199023D02*
X199689Y18155D01*
X201688Y20154D02*
X200356D01*
Y18155D01*
X201688D01*
X200356Y19154D02*
X201022D01*
X202355Y20154D02*
Y18821D01*
X203021Y18155D01*
X203688Y18821D01*
Y20154D01*
X206354Y18155D02*
X207020D01*
X206687D01*
Y20154D01*
X206354Y19821D01*
X185919Y13869D02*
X185586Y14202D01*
X184920D01*
X184586Y13869D01*
Y12536D01*
X184920Y12203D01*
X185586D01*
X185919Y12536D01*
X186586Y14202D02*
Y12203D01*
Y13202D01*
X186919Y13536D01*
X187585D01*
X187918Y13202D01*
Y12203D01*
X189585D02*
X188918D01*
X188585Y12536D01*
Y13202D01*
X188918Y13536D01*
X189585D01*
X189918Y13202D01*
Y12869D01*
X188585D01*
X190584Y12203D02*
Y13536D01*
X191584D01*
X191917Y13202D01*
Y12203D01*
X195916Y13869D02*
X195583Y14202D01*
X194916D01*
X194583Y13869D01*
Y12536D01*
X194916Y12203D01*
X195583D01*
X195916Y12536D01*
X196582Y14202D02*
Y12203D01*
Y13202D01*
X196916Y13536D01*
X197582D01*
X197915Y13202D01*
Y12203D01*
X199581D02*
X198915D01*
X198582Y12536D01*
Y13202D01*
X198915Y13536D01*
X199581D01*
X199915Y13202D01*
Y12869D01*
X198582D01*
X200581Y12203D02*
Y13536D01*
X201581D01*
X201914Y13202D01*
Y12203D01*
X205913D02*
X205579Y12536D01*
X205246Y12203D01*
X204913D01*
X204580Y12536D01*
Y12869D01*
X204913Y13202D01*
X204580Y13536D01*
Y13869D01*
X204913Y14202D01*
X205246D01*
X205579Y13869D01*
Y13536D01*
X205246Y13202D01*
X205579Y12869D01*
Y12536D01*
X205913Y13202D02*
X205579Y12869D01*
X204913Y13202D02*
X205246D01*
X184586Y10603D02*
Y8603D01*
X185253Y9270D01*
X185919Y8603D01*
Y10603D01*
X186586Y9936D02*
Y8937D01*
X186919Y8603D01*
X187918D01*
Y9936D01*
X188585Y7937D02*
X188918D01*
X189251Y8270D01*
Y9936D01*
X190584Y8603D02*
X191251D01*
X190918D01*
Y9936D01*
X190584D01*
X194250Y10603D02*
X195583D01*
Y10270D01*
X194250Y8937D01*
Y8603D01*
X195583D01*
X196249Y10603D02*
Y8603D01*
Y9603D01*
X196582Y9936D01*
X197249D01*
X197582Y9603D01*
Y8603D01*
X198582Y9936D02*
X199248D01*
X199581Y9603D01*
Y8603D01*
X198582D01*
X198249Y8937D01*
X198582Y9270D01*
X199581D01*
X200248Y8603D02*
Y9936D01*
X201248D01*
X201581Y9603D01*
Y8603D01*
X202914Y7937D02*
X203247D01*
X203580Y8270D01*
Y9936D01*
X202580D01*
X202247Y9603D01*
Y8937D01*
X202580Y8603D01*
X203580D01*
X185919Y4338D02*
X184586D01*
X185919Y5671D01*
Y6004D01*
X185586Y6337D01*
X184920D01*
X184586Y6004D01*
X186586D02*
X186919Y6337D01*
X187585D01*
X187918Y6004D01*
Y4671D01*
X187585Y4338D01*
X186919D01*
X186586Y4671D01*
Y6004D01*
X189918Y4338D02*
X188585D01*
X189918Y5671D01*
Y6004D01*
X189585Y6337D01*
X188918D01*
X188585Y6004D01*
X190584Y4338D02*
X191251D01*
X190918D01*
Y6337D01*
X190584Y6004D01*
X192250Y5337D02*
X193583D01*
X194250Y6004D02*
X194583Y6337D01*
X195249D01*
X195583Y6004D01*
Y4671D01*
X195249Y4338D01*
X194583D01*
X194250Y4671D01*
Y6004D01*
X197582Y4338D02*
X196249D01*
X197582Y5671D01*
Y6004D01*
X197249Y6337D01*
X196582D01*
X196249Y6004D01*
X198249Y5337D02*
X199581D01*
X201581Y4338D02*
X200248D01*
X201581Y5671D01*
Y6004D01*
X201248Y6337D01*
X200581D01*
X200248Y6004D01*
X202247D02*
X202580Y6337D01*
X203247D01*
X203580Y6004D01*
Y5671D01*
X203247Y5337D01*
X203580Y5004D01*
Y4671D01*
X203247Y4338D01*
X202580D01*
X202247Y4671D01*
Y5004D01*
X202580Y5337D01*
X202247Y5671D01*
Y6004D01*
X202580Y5337D02*
X203247D01*
X87060Y232171D02*
X88726D01*
X134491Y79734D02*
X132492D01*
Y80733D01*
X132825Y81067D01*
X133491D01*
X133825Y80733D01*
Y79734D01*
X132492Y81733D02*
X134491D01*
Y82733D01*
X134158Y83066D01*
X133825D01*
X133491Y82733D01*
Y81733D01*
Y82733D01*
X133158Y83066D01*
X132825D01*
X132492Y82733D01*
Y81733D01*
X134491Y85065D02*
Y83732D01*
X133158Y85065D01*
X132825D01*
X132492Y84732D01*
Y84066D01*
X132825Y83732D01*
Y85732D02*
X132492Y86065D01*
Y86731D01*
X132825Y87065D01*
X133158D01*
X133491Y86731D01*
Y86398D01*
Y86731D01*
X133825Y87065D01*
X134158D01*
X134491Y86731D01*
Y86065D01*
X134158Y85732D01*
X132431Y76677D02*
Y78677D01*
X133431D01*
X133764Y78344D01*
Y77677D01*
X133431Y77344D01*
X132431D01*
X134431Y78677D02*
Y76677D01*
X135430D01*
X135764Y77011D01*
Y77344D01*
X135430Y77677D01*
X134431D01*
X135430D01*
X135764Y78010D01*
Y78344D01*
X135430Y78677D01*
X134431D01*
X137763Y76677D02*
X136430D01*
X137763Y78010D01*
Y78344D01*
X137430Y78677D01*
X136763D01*
X136430Y78344D01*
X139762Y76677D02*
X138429D01*
X139762Y78010D01*
Y78344D01*
X139429Y78677D01*
X138763D01*
X138429Y78344D01*
X107180Y49674D02*
Y47675D01*
X108179D01*
X108513Y48008D01*
Y49341D01*
X108179Y49674D01*
X107180D01*
X110512D02*
X109179D01*
Y48675D01*
X109845Y49008D01*
X110179D01*
X110512Y48675D01*
Y48008D01*
X110179Y47675D01*
X109512D01*
X109179Y48008D01*
X166653Y99970D02*
X166320Y100303D01*
X165654D01*
X165320Y99970D01*
Y99636D01*
X165654Y99303D01*
X166320D01*
X166653Y98970D01*
Y98637D01*
X166320Y98303D01*
X165654D01*
X165320Y98637D01*
X167320Y100303D02*
Y98303D01*
X167986Y98970D01*
X168653Y98303D01*
Y100303D01*
X170652Y98303D02*
X169319D01*
X170652Y99636D01*
Y99970D01*
X170319Y100303D01*
X169652D01*
X169319Y99970D01*
X30474Y153248D02*
X30141Y152914D01*
Y152248D01*
X30474Y151915D01*
X30808D01*
X31141Y152248D01*
Y152914D01*
X31474Y153248D01*
X31807D01*
X32141Y152914D01*
Y152248D01*
X31807Y151915D01*
X30141Y153914D02*
X32141D01*
X31474Y154580D01*
X32141Y155247D01*
X30141D01*
X32141Y155913D02*
Y156580D01*
Y156247D01*
X30141D01*
X30474Y155913D01*
X73240Y198721D02*
Y197055D01*
X73573Y196722D01*
X74240D01*
X74573Y197055D01*
Y198721D01*
X76572D02*
X75239D01*
Y197721D01*
X75906Y198055D01*
X76239D01*
X76572Y197721D01*
Y197055D01*
X76239Y196722D01*
X75573D01*
X75239Y197055D01*
X191200Y147097D02*
X189534D01*
X189200Y146764D01*
Y146097D01*
X189534Y145764D01*
X191200D01*
X189200Y144098D02*
X191200D01*
X190200Y145097D01*
Y143765D01*
X124734Y43600D02*
Y41934D01*
X125067Y41600D01*
X125734D01*
X126067Y41934D01*
Y43600D01*
X126733Y41934D02*
X127067Y41600D01*
X127733D01*
X128066Y41934D01*
Y43266D01*
X127733Y43600D01*
X127067D01*
X126733Y43266D01*
Y42933D01*
X127067Y42600D01*
X128066D01*
X145059Y53406D02*
X146725D01*
X147058Y53740D01*
Y54406D01*
X146725Y54739D01*
X145059D01*
X145392Y55406D02*
X145059Y55739D01*
Y56405D01*
X145392Y56739D01*
X145726D01*
X146059Y56405D01*
X146392Y56739D01*
X146725D01*
X147058Y56405D01*
Y55739D01*
X146725Y55406D01*
X146392D01*
X146059Y55739D01*
X145726Y55406D01*
X145392D01*
X146059Y55739D02*
Y56405D01*
X189392Y108635D02*
X191059D01*
X191392Y108968D01*
Y109634D01*
X191059Y109968D01*
X189392D01*
Y110634D02*
Y111967D01*
X189726D01*
X191059Y110634D01*
X191392D01*
X176746Y52734D02*
X178412D01*
X178745Y53067D01*
Y53734D01*
X178412Y54067D01*
X176746D01*
Y56066D02*
X177079Y55400D01*
X177745Y54733D01*
X178412D01*
X178745Y55067D01*
Y55733D01*
X178412Y56066D01*
X178079D01*
X177745Y55733D01*
Y54733D01*
X22967Y48499D02*
X24299D01*
X23633D01*
Y46500D01*
X24966D02*
Y48499D01*
X25966D01*
X26299Y48166D01*
Y47500D01*
X25966Y47166D01*
X24966D01*
X26965Y46500D02*
X27632D01*
X27299D01*
Y48499D01*
X26965Y48166D01*
X28631D02*
X28965Y48499D01*
X29631D01*
X29964Y48166D01*
Y47833D01*
X29631Y47500D01*
X29298D01*
X29631D01*
X29964Y47166D01*
Y46833D01*
X29631Y46500D01*
X28965D01*
X28631Y46833D01*
X21634Y38000D02*
X22967D01*
X22301D01*
Y36000D01*
X23634D02*
Y38000D01*
X24633D01*
X24967Y37666D01*
Y37000D01*
X24633Y36667D01*
X23634D01*
X25633Y36000D02*
X26300D01*
X25966D01*
Y38000D01*
X25633Y37666D01*
X27299Y36000D02*
X27966D01*
X27632D01*
Y38000D01*
X27299Y37666D01*
X153085Y164992D02*
X154418D01*
X153752D01*
Y162993D01*
X155085D02*
Y164992D01*
X156084D01*
X156417Y164659D01*
Y163993D01*
X156084Y163659D01*
X155085D01*
X157084Y162993D02*
X157750D01*
X157417D01*
Y164992D01*
X157084Y164659D01*
X160083Y162993D02*
X158750D01*
X160083Y164326D01*
Y164659D01*
X159750Y164992D01*
X159083D01*
X158750Y164659D01*
X175802Y96619D02*
X177135D01*
X176469D01*
Y94619D01*
X177802D02*
Y96619D01*
X178802D01*
X179135Y96285D01*
Y95619D01*
X178802Y95286D01*
X177802D01*
X179801Y94619D02*
X180468D01*
X180134D01*
Y96619D01*
X179801Y96285D01*
X181467D02*
X181800Y96619D01*
X182467D01*
X182800Y96285D01*
Y94952D01*
X182467Y94619D01*
X181800D01*
X181467Y94952D01*
Y96285D01*
X185466D02*
X185799Y96619D01*
X186466D01*
X186799Y96285D01*
Y95952D01*
X186466Y95619D01*
X186132D01*
X186466D01*
X186799Y95286D01*
Y94952D01*
X186466Y94619D01*
X185799D01*
X185466Y94952D01*
X187465Y96619D02*
Y95286D01*
X188132Y94619D01*
X188798Y95286D01*
Y96619D01*
X189465Y96285D02*
X189798Y96619D01*
X190464D01*
X190798Y96285D01*
Y95952D01*
X190464Y95619D01*
X190131D01*
X190464D01*
X190798Y95286D01*
Y94952D01*
X190464Y94619D01*
X189798D01*
X189465Y94952D01*
X173752Y72343D02*
Y71010D01*
Y71676D01*
X171753D01*
Y70344D02*
X173752D01*
Y69344D01*
X173419Y69011D01*
X172752D01*
X172419Y69344D01*
Y70344D01*
X173752Y68344D02*
Y67011D01*
X173419D01*
X172086Y68344D01*
X171753D01*
X210978Y124127D02*
X212311D01*
X211644D01*
Y122128D01*
X212977D02*
Y124127D01*
X213977D01*
X214310Y123794D01*
Y123127D01*
X213977Y122794D01*
X212977D01*
X215976Y122128D02*
Y124127D01*
X214976Y123127D01*
X216309D01*
X220308Y124127D02*
X218975D01*
Y123127D01*
X219641Y123461D01*
X219975D01*
X220308Y123127D01*
Y122461D01*
X219975Y122128D01*
X219308D01*
X218975Y122461D01*
X220974Y124127D02*
Y122794D01*
X221641Y122128D01*
X222307Y122794D01*
Y124127D01*
X224307D02*
X222974D01*
Y123127D01*
X223640Y123461D01*
X223973D01*
X224307Y123127D01*
Y122461D01*
X223973Y122128D01*
X223307D01*
X222974Y122461D01*
X132100Y50234D02*
Y51567D01*
Y50901D01*
X134100D01*
Y52234D02*
X132100D01*
Y53233D01*
X132433Y53566D01*
X133100D01*
X133433Y53233D01*
Y52234D01*
X132433Y54233D02*
X132100Y54566D01*
Y55233D01*
X132433Y55566D01*
X132767D01*
X133100Y55233D01*
Y54899D01*
Y55233D01*
X133433Y55566D01*
X133766D01*
X134100Y55233D01*
Y54566D01*
X133766Y54233D01*
X41156Y135277D02*
X39157D01*
Y136277D01*
X39490Y136610D01*
X40157D01*
X40490Y136277D01*
Y135277D01*
Y135944D02*
X41156Y136610D01*
Y138610D02*
Y137277D01*
X39823Y138610D01*
X39490D01*
X39157Y138277D01*
Y137610D01*
X39490Y137277D01*
X41156Y140276D02*
X39157D01*
X40157Y139276D01*
Y140609D01*
X32753Y135155D02*
X30754D01*
Y136155D01*
X31087Y136488D01*
X31754D01*
X32087Y136155D01*
Y135155D01*
Y135822D02*
X32753Y136488D01*
Y138487D02*
Y137154D01*
X31420Y138487D01*
X31087D01*
X30754Y138154D01*
Y137488D01*
X31087Y137154D01*
Y139154D02*
X30754Y139487D01*
Y140154D01*
X31087Y140487D01*
X31420D01*
X31754Y140154D01*
Y139820D01*
Y140154D01*
X32087Y140487D01*
X32420D01*
X32753Y140154D01*
Y139487D01*
X32420Y139154D01*
X125568Y50753D02*
Y52753D01*
X126567D01*
X126900Y52420D01*
Y51753D01*
X126567Y51420D01*
X125568D01*
X126234D02*
X126900Y50753D01*
X128567D02*
Y52753D01*
X127567Y51753D01*
X128900D01*
X130899Y52753D02*
X129566D01*
Y51753D01*
X130233Y52086D01*
X130566D01*
X130899Y51753D01*
Y51087D01*
X130566Y50753D01*
X129900D01*
X129566Y51087D01*
X94254Y61218D02*
Y63218D01*
X95254D01*
X95587Y62885D01*
Y62218D01*
X95254Y61885D01*
X94254D01*
X94920D02*
X95587Y61218D01*
X96253D02*
X96920D01*
X96587D01*
Y63218D01*
X96253Y62885D01*
X97919D02*
X98253Y63218D01*
X98919D01*
X99252Y62885D01*
Y62551D01*
X98919Y62218D01*
X98586D01*
X98919D01*
X99252Y61885D01*
Y61552D01*
X98919Y61218D01*
X98253D01*
X97919Y61552D01*
X145155Y43515D02*
X147155D01*
Y42515D01*
X146822Y42182D01*
X146155D01*
X145822Y42515D01*
Y43515D01*
Y42848D02*
X145155Y42182D01*
Y40516D02*
X147155D01*
X146155Y41515D01*
Y40183D01*
X145155Y38516D02*
X147155D01*
X146155Y39516D01*
Y38183D01*
X59962Y65266D02*
Y67265D01*
X60961D01*
X61295Y66932D01*
Y66266D01*
X60961Y65933D01*
X59962D01*
X60628D02*
X61295Y65266D01*
X61961D02*
X62627D01*
X62294D01*
Y67265D01*
X61961Y66932D01*
X63627Y65266D02*
X64293D01*
X63960D01*
Y67265D01*
X63627Y66932D01*
X85901Y128981D02*
Y130981D01*
X86901D01*
X87234Y130648D01*
Y129981D01*
X86901Y129648D01*
X85901D01*
X86567D02*
X87234Y128981D01*
X87900D02*
X88567D01*
X88233D01*
Y130981D01*
X87900Y130648D01*
X90566Y128981D02*
Y130981D01*
X89566Y129981D01*
X90899D01*
X100432Y129200D02*
Y131200D01*
X101432D01*
X101765Y130867D01*
Y130200D01*
X101432Y129867D01*
X100432D01*
X101098D02*
X101765Y129200D01*
X102431D02*
X103098D01*
X102764D01*
Y131200D01*
X102431Y130867D01*
X105430Y129200D02*
X104097D01*
X105430Y130533D01*
Y130867D01*
X105097Y131200D01*
X104431D01*
X104097Y130867D01*
X197563Y97747D02*
Y99746D01*
X198562D01*
X198895Y99413D01*
Y98747D01*
X198562Y98413D01*
X197563D01*
X198229D02*
X198895Y97747D01*
X200561D02*
Y99746D01*
X199562Y98747D01*
X200895D01*
X201561Y99413D02*
X201894Y99746D01*
X202561D01*
X202894Y99413D01*
Y99080D01*
X202561Y98747D01*
X202228D01*
X202561D01*
X202894Y98413D01*
Y98080D01*
X202561Y97747D01*
X201894D01*
X201561Y98080D01*
X197552Y93032D02*
Y95031D01*
X198552D01*
X198885Y94698D01*
Y94032D01*
X198552Y93698D01*
X197552D01*
X198219D02*
X198885Y93032D01*
X200551D02*
Y95031D01*
X199552Y94032D01*
X200885D01*
X202884Y93032D02*
X201551D01*
X202884Y94365D01*
Y94698D01*
X202551Y95031D01*
X201884D01*
X201551Y94698D01*
X186423Y99843D02*
X184424D01*
Y100843D01*
X184757Y101176D01*
X185423D01*
X185757Y100843D01*
Y99843D01*
Y100510D02*
X186423Y101176D01*
Y102842D02*
X184424D01*
X185423Y101843D01*
Y103176D01*
X186423Y103842D02*
Y104508D01*
Y104175D01*
X184424D01*
X184757Y103842D01*
X201000Y51955D02*
X203000D01*
Y50956D01*
X202666Y50622D01*
X202000D01*
X201667Y50956D01*
Y51955D01*
Y51289D02*
X201000Y50622D01*
Y48956D02*
X203000D01*
X202000Y49956D01*
Y48623D01*
X202666Y47957D02*
X203000Y47623D01*
Y46957D01*
X202666Y46624D01*
X201333D01*
X201000Y46957D01*
Y47623D01*
X201333Y47957D01*
X202666D01*
X175046Y42034D02*
X173047D01*
Y43034D01*
X173380Y43367D01*
X174047D01*
X174380Y43034D01*
Y42034D01*
Y42701D02*
X175046Y43367D01*
X173380Y44034D02*
X173047Y44367D01*
Y45033D01*
X173380Y45366D01*
X173713D01*
X174047Y45033D01*
Y44700D01*
Y45033D01*
X174380Y45366D01*
X174713D01*
X175046Y45033D01*
Y44367D01*
X174713Y44034D01*
Y46033D02*
X175046Y46366D01*
Y47033D01*
X174713Y47366D01*
X173380D01*
X173047Y47033D01*
Y46366D01*
X173380Y46033D01*
X173713D01*
X174047Y46366D01*
Y47366D01*
X190800Y33934D02*
X188800D01*
Y34934D01*
X189134Y35267D01*
X189800D01*
X190133Y34934D01*
Y33934D01*
Y34601D02*
X190800Y35267D01*
X189134Y35934D02*
X188800Y36267D01*
Y36933D01*
X189134Y37266D01*
X189467D01*
X189800Y36933D01*
Y36600D01*
Y36933D01*
X190133Y37266D01*
X190466D01*
X190800Y36933D01*
Y36267D01*
X190466Y35934D01*
X189134Y37933D02*
X188800Y38266D01*
Y38933D01*
X189134Y39266D01*
X189467D01*
X189800Y38933D01*
X190133Y39266D01*
X190466D01*
X190800Y38933D01*
Y38266D01*
X190466Y37933D01*
X190133D01*
X189800Y38266D01*
X189467Y37933D01*
X189134D01*
X189800Y38266D02*
Y38933D01*
X163004Y156184D02*
Y158183D01*
X164004D01*
X164337Y157850D01*
Y157183D01*
X164004Y156850D01*
X163004D01*
X163670D02*
X164337Y156184D01*
X165003Y157850D02*
X165337Y158183D01*
X166003D01*
X166336Y157850D01*
Y157517D01*
X166003Y157183D01*
X165670D01*
X166003D01*
X166336Y156850D01*
Y156517D01*
X166003Y156184D01*
X165337D01*
X165003Y156517D01*
X167003Y157850D02*
X167336Y158183D01*
X168002D01*
X168335Y157850D01*
Y157517D01*
X168002Y157183D01*
X167669D01*
X168002D01*
X168335Y156850D01*
Y156517D01*
X168002Y156184D01*
X167336D01*
X167003Y156517D01*
X213377Y154800D02*
Y156800D01*
X214376D01*
X214710Y156466D01*
Y155800D01*
X214376Y155467D01*
X213377D01*
X214043D02*
X214710Y154800D01*
X215376Y156466D02*
X215709Y156800D01*
X216376D01*
X216709Y156466D01*
Y156133D01*
X216376Y155800D01*
X216043D01*
X216376D01*
X216709Y155467D01*
Y155134D01*
X216376Y154800D01*
X215709D01*
X215376Y155134D01*
X218708Y154800D02*
X217375D01*
X218708Y156133D01*
Y156466D01*
X218375Y156800D01*
X217709D01*
X217375Y156466D01*
X186730Y161867D02*
X184731D01*
Y162866D01*
X185064Y163199D01*
X185730D01*
X186064Y162866D01*
Y161867D01*
Y162533D02*
X186730Y163199D01*
X185064Y163866D02*
X184731Y164199D01*
Y164866D01*
X185064Y165199D01*
X185397D01*
X185730Y164866D01*
Y164532D01*
Y164866D01*
X186064Y165199D01*
X186397D01*
X186730Y164866D01*
Y164199D01*
X186397Y163866D01*
X186730Y165865D02*
Y166532D01*
Y166199D01*
X184731D01*
X185064Y165865D01*
X198744Y157699D02*
Y159698D01*
X199743D01*
X200077Y159365D01*
Y158698D01*
X199743Y158365D01*
X198744D01*
X199410D02*
X200077Y157699D01*
X202076D02*
X200743D01*
X202076Y159032D01*
Y159365D01*
X201743Y159698D01*
X201076D01*
X200743Y159365D01*
X202742Y158032D02*
X203076Y157699D01*
X203742D01*
X204075Y158032D01*
Y159365D01*
X203742Y159698D01*
X203076D01*
X202742Y159365D01*
Y159032D01*
X203076Y158698D01*
X204075D01*
X84336Y156439D02*
Y158438D01*
X85335D01*
X85668Y158105D01*
Y157439D01*
X85335Y157105D01*
X84336D01*
X85002D02*
X85668Y156439D01*
X86335D02*
X87001D01*
X86668D01*
Y158438D01*
X86335Y158105D01*
X88001Y158438D02*
X89334D01*
Y158105D01*
X88001Y156772D01*
Y156439D01*
X107888Y129335D02*
Y131335D01*
X108888D01*
X109221Y131001D01*
Y130335D01*
X108888Y130002D01*
X107888D01*
X108554D02*
X109221Y129335D01*
X109887D02*
X110554D01*
X110220D01*
Y131335D01*
X109887Y131001D01*
X112886Y131335D02*
X112220Y131001D01*
X111553Y130335D01*
Y129668D01*
X111887Y129335D01*
X112553D01*
X112886Y129668D01*
Y130002D01*
X112553Y130335D01*
X111553D01*
X93361Y131747D02*
Y133747D01*
X94361D01*
X94694Y133414D01*
Y132747D01*
X94361Y132414D01*
X93361D01*
X94028D02*
X94694Y131747D01*
X95360D02*
X96027D01*
X95694D01*
Y133747D01*
X95360Y133414D01*
X98359Y133747D02*
X97026D01*
Y132747D01*
X97693Y133080D01*
X98026D01*
X98359Y132747D01*
Y132081D01*
X98026Y131747D01*
X97360D01*
X97026Y132081D01*
X183129Y81200D02*
Y83199D01*
X184129D01*
X184462Y82866D01*
Y82200D01*
X184129Y81866D01*
X183129D01*
X183795D02*
X184462Y81200D01*
X185128D02*
X185795D01*
X185462D01*
Y83199D01*
X185128Y82866D01*
X186794D02*
X187128Y83199D01*
X187794D01*
X188127Y82866D01*
Y81533D01*
X187794Y81200D01*
X187128D01*
X186794Y81533D01*
Y82866D01*
X220434Y86000D02*
Y88000D01*
X221434D01*
X221767Y87666D01*
Y87000D01*
X221434Y86667D01*
X220434D01*
X221100D02*
X221767Y86000D01*
X222433Y87666D02*
X222766Y88000D01*
X223433D01*
X223766Y87666D01*
Y87333D01*
X223433Y87000D01*
X223766Y86667D01*
Y86334D01*
X223433Y86000D01*
X222766D01*
X222433Y86334D01*
Y86667D01*
X222766Y87000D01*
X222433Y87333D01*
Y87666D01*
X222766Y87000D02*
X223433D01*
X86734Y45600D02*
Y47600D01*
X87734D01*
X88067Y47267D01*
Y46600D01*
X87734Y46267D01*
X86734D01*
X90066Y45600D02*
X88733D01*
X90066Y46933D01*
Y47267D01*
X89733Y47600D01*
X89066D01*
X88733Y47267D01*
X143100Y21134D02*
X141100D01*
Y22134D01*
X141434Y22467D01*
X142100D01*
X142433Y22134D01*
Y21134D01*
X141100Y24466D02*
Y23133D01*
X142100D01*
X141767Y23800D01*
Y24133D01*
X142100Y24466D01*
X142766D01*
X143100Y24133D01*
Y23467D01*
X142766Y23133D01*
X60434Y44898D02*
Y46897D01*
X61434D01*
X61767Y46564D01*
Y45898D01*
X61434Y45564D01*
X60434D01*
X62433Y46564D02*
X62767Y46897D01*
X63433D01*
X63766Y46564D01*
Y46231D01*
X63433Y45898D01*
X63100D01*
X63433D01*
X63766Y45564D01*
Y45231D01*
X63433Y44898D01*
X62767D01*
X62433Y45231D01*
X34934Y44600D02*
Y46600D01*
X35934D01*
X36267Y46266D01*
Y45600D01*
X35934Y45267D01*
X34934D01*
X37933Y44600D02*
Y46600D01*
X36933Y45600D01*
X38266D01*
X199934Y127900D02*
Y125900D01*
X201267D01*
X201933Y127567D02*
X202267Y127900D01*
X202933D01*
X203266Y127567D01*
Y127233D01*
X202933Y126900D01*
X202600D01*
X202933D01*
X203266Y126567D01*
Y126234D01*
X202933Y125900D01*
X202267D01*
X201933Y126234D01*
X182671Y75845D02*
Y73845D01*
X184004D01*
X186003D02*
X184670D01*
X186003Y75178D01*
Y75511D01*
X185670Y75845D01*
X185003D01*
X184670Y75511D01*
X59767Y190366D02*
X59434Y190700D01*
X58767D01*
X58434Y190366D01*
Y189034D01*
X58767Y188700D01*
X59434D01*
X59767Y189034D01*
X60433D02*
X60767Y188700D01*
X61433D01*
X61766Y189034D01*
Y190366D01*
X61433Y190700D01*
X60767D01*
X60433Y190366D01*
Y190033D01*
X60767Y189700D01*
X61766D01*
X24034Y190667D02*
X23700Y190334D01*
Y189667D01*
X24034Y189334D01*
X25366D01*
X25700Y189667D01*
Y190334D01*
X25366Y190667D01*
X24034Y191333D02*
X23700Y191666D01*
Y192333D01*
X24034Y192666D01*
X24367D01*
X24700Y192333D01*
X25033Y192666D01*
X25366D01*
X25700Y192333D01*
Y191666D01*
X25366Y191333D01*
X25033D01*
X24700Y191666D01*
X24367Y191333D01*
X24034D01*
X24700Y191666D02*
Y192333D01*
X193746Y152003D02*
X193413Y152336D01*
X192747D01*
X192413Y152003D01*
Y150670D01*
X192747Y150337D01*
X193413D01*
X193746Y150670D01*
X194413Y150337D02*
X195079D01*
X194746D01*
Y152336D01*
X194413Y152003D01*
X196079Y150670D02*
X196412Y150337D01*
X197079D01*
X197412Y150670D01*
Y152003D01*
X197079Y152336D01*
X196412D01*
X196079Y152003D01*
Y151670D01*
X196412Y151336D01*
X197412D01*
X47309Y136777D02*
X46976Y136444D01*
Y135777D01*
X47309Y135444D01*
X48642D01*
X48975Y135777D01*
Y136444D01*
X48642Y136777D01*
X48975Y137443D02*
Y138110D01*
Y137777D01*
X46976D01*
X47309Y137443D01*
Y139110D02*
X46976Y139443D01*
Y140109D01*
X47309Y140443D01*
X48642D01*
X48975Y140109D01*
Y139443D01*
X48642Y139110D01*
X47309D01*
X132133Y43967D02*
X131800Y43634D01*
Y42967D01*
X132133Y42634D01*
X133466D01*
X133800Y42967D01*
Y43634D01*
X133466Y43967D01*
X133800Y45633D02*
X131800D01*
X132800Y44634D01*
Y45967D01*
X132133Y46633D02*
X131800Y46966D01*
Y47633D01*
X132133Y47966D01*
X133466D01*
X133800Y47633D01*
Y46966D01*
X133466Y46633D01*
X132133D01*
X145489Y62953D02*
X145155Y62620D01*
Y61953D01*
X145489Y61620D01*
X146822D01*
X147155Y61953D01*
Y62620D01*
X146822Y62953D01*
X145489Y63619D02*
X145155Y63953D01*
Y64619D01*
X145489Y64952D01*
X145822D01*
X146155Y64619D01*
Y64286D01*
Y64619D01*
X146488Y64952D01*
X146822D01*
X147155Y64619D01*
Y63953D01*
X146822Y63619D01*
Y65619D02*
X147155Y65952D01*
Y66618D01*
X146822Y66952D01*
X145489D01*
X145155Y66618D01*
Y65952D01*
X145489Y65619D01*
X145822D01*
X146155Y65952D01*
Y66952D01*
X159367Y72033D02*
X159700Y72366D01*
Y73033D01*
X159367Y73366D01*
X158034D01*
X157700Y73033D01*
Y72366D01*
X158034Y72033D01*
X159367Y71366D02*
X159700Y71033D01*
Y70367D01*
X159367Y70034D01*
X159033D01*
X158700Y70367D01*
Y70700D01*
Y70367D01*
X158367Y70034D01*
X158034D01*
X157700Y70367D01*
Y71033D01*
X158034Y71366D01*
X159367Y69367D02*
X159700Y69034D01*
Y68367D01*
X159367Y68034D01*
X159033D01*
X158700Y68367D01*
X158367Y68034D01*
X158034D01*
X157700Y68367D01*
Y69034D01*
X158034Y69367D01*
X158367D01*
X158700Y69034D01*
X159033Y69367D01*
X159367D01*
X158700Y69034D02*
Y68367D01*
X217935Y113858D02*
X218269Y114192D01*
Y114858D01*
X217935Y115191D01*
X216602D01*
X216269Y114858D01*
Y114192D01*
X216602Y113858D01*
X217935Y113192D02*
X218269Y112859D01*
Y112192D01*
X217935Y111859D01*
X217602D01*
X217269Y112192D01*
Y112526D01*
Y112192D01*
X216936Y111859D01*
X216602D01*
X216269Y112192D01*
Y112859D01*
X216602Y113192D01*
X218269Y111193D02*
Y109860D01*
X217935D01*
X216602Y111193D01*
X216269D01*
X205421Y82797D02*
X205088Y83131D01*
X204421D01*
X204088Y82797D01*
Y81464D01*
X204421Y81131D01*
X205088D01*
X205421Y81464D01*
X206088Y82797D02*
X206421Y83131D01*
X207087D01*
X207421Y82797D01*
Y82464D01*
X207087Y82131D01*
X206754D01*
X207087D01*
X207421Y81798D01*
Y81464D01*
X207087Y81131D01*
X206421D01*
X206088Y81464D01*
X209420Y83131D02*
X208753Y82797D01*
X208087Y82131D01*
Y81464D01*
X208420Y81131D01*
X209087D01*
X209420Y81464D01*
Y81798D01*
X209087Y82131D01*
X208087D01*
X191484Y120919D02*
X191150Y121253D01*
X190484D01*
X190151Y120919D01*
Y119586D01*
X190484Y119253D01*
X191150D01*
X191484Y119586D01*
X192150Y120919D02*
X192483Y121253D01*
X193150D01*
X193483Y120919D01*
Y120586D01*
X193150Y120253D01*
X192816D01*
X193150D01*
X193483Y119920D01*
Y119586D01*
X193150Y119253D01*
X192483D01*
X192150Y119586D01*
X195482Y121253D02*
X194149D01*
Y120253D01*
X194816Y120586D01*
X195149D01*
X195482Y120253D01*
Y119586D01*
X195149Y119253D01*
X194483D01*
X194149Y119586D01*
X175035Y61409D02*
X174702Y61076D01*
Y60410D01*
X175035Y60076D01*
X176368D01*
X176701Y60410D01*
Y61076D01*
X176368Y61409D01*
X175035Y62076D02*
X174702Y62409D01*
Y63075D01*
X175035Y63409D01*
X175368D01*
X175701Y63075D01*
Y62742D01*
Y63075D01*
X176035Y63409D01*
X176368D01*
X176701Y63075D01*
Y62409D01*
X176368Y62076D01*
X176701Y65075D02*
X174702D01*
X175701Y64075D01*
Y65408D01*
X200264Y59672D02*
X200597Y60005D01*
Y60672D01*
X200264Y61005D01*
X198931D01*
X198598Y60672D01*
Y60005D01*
X198931Y59672D01*
X200264Y59006D02*
X200597Y58672D01*
Y58006D01*
X200264Y57673D01*
X199931D01*
X199597Y58006D01*
Y58339D01*
Y58006D01*
X199264Y57673D01*
X198931D01*
X198598Y58006D01*
Y58672D01*
X198931Y59006D01*
X200264Y57006D02*
X200597Y56673D01*
Y56006D01*
X200264Y55673D01*
X199931D01*
X199597Y56006D01*
Y56340D01*
Y56006D01*
X199264Y55673D01*
X198931D01*
X198598Y56006D01*
Y56673D01*
X198931Y57006D01*
X204267Y44033D02*
X204600Y44366D01*
Y45033D01*
X204267Y45366D01*
X202934D01*
X202600Y45033D01*
Y44366D01*
X202934Y44033D01*
X204267Y43366D02*
X204600Y43033D01*
Y42367D01*
X204267Y42033D01*
X203933D01*
X203600Y42367D01*
Y42700D01*
Y42367D01*
X203267Y42033D01*
X202934D01*
X202600Y42367D01*
Y43033D01*
X202934Y43366D01*
X202600Y40034D02*
Y41367D01*
X203933Y40034D01*
X204267D01*
X204600Y40367D01*
Y41034D01*
X204267Y41367D01*
X171288Y129266D02*
X170954Y129600D01*
X170288D01*
X169955Y129266D01*
Y127934D01*
X170288Y127600D01*
X170954D01*
X171288Y127934D01*
X173287Y127600D02*
X171954D01*
X173287Y128933D01*
Y129266D01*
X172954Y129600D01*
X172287D01*
X171954Y129266D01*
X173953D02*
X174287Y129600D01*
X174953D01*
X175286Y129266D01*
Y128933D01*
X174953Y128600D01*
X175286Y128267D01*
Y127934D01*
X174953Y127600D01*
X174287D01*
X173953Y127934D01*
Y128267D01*
X174287Y128600D01*
X173953Y128933D01*
Y129266D01*
X174287Y128600D02*
X174953D01*
X194234Y175066D02*
X193901Y175400D01*
X193234D01*
X192901Y175066D01*
Y173734D01*
X193234Y173400D01*
X193901D01*
X194234Y173734D01*
X194900Y173400D02*
X195567D01*
X195233D01*
Y175400D01*
X194900Y175066D01*
X196566Y175400D02*
X197899D01*
Y175066D01*
X196566Y173734D01*
Y173400D01*
X210666Y169366D02*
X211000Y169700D01*
Y170366D01*
X210666Y170699D01*
X209334D01*
X209000Y170366D01*
Y169700D01*
X209334Y169366D01*
X209000Y168700D02*
Y168033D01*
Y168367D01*
X211000D01*
X210666Y168700D01*
Y167034D02*
X211000Y166700D01*
Y166034D01*
X210666Y165701D01*
X210333D01*
X210000Y166034D01*
X209667Y165701D01*
X209334D01*
X209000Y166034D01*
Y166700D01*
X209334Y167034D01*
X209667D01*
X210000Y166700D01*
X210333Y167034D01*
X210666D01*
X210000Y166700D02*
Y166034D01*
X214145Y39388D02*
X212812D01*
Y38389D01*
X213478D01*
X212812D01*
Y37389D01*
X214811Y39388D02*
Y37389D01*
X215811D01*
X216144Y37722D01*
Y39055D01*
X215811Y39388D01*
X214811D01*
X216811Y39055D02*
X217144Y39388D01*
X217810D01*
X218144Y39055D01*
Y38722D01*
X217810Y38389D01*
X217477D01*
X217810D01*
X218144Y38056D01*
Y37722D01*
X217810Y37389D01*
X217144D01*
X216811Y37722D01*
X23915Y16300D02*
X22582D01*
Y15300D01*
X23248D01*
X22582D01*
Y14300D01*
X24581Y16300D02*
Y14300D01*
X25581D01*
X25914Y14634D01*
Y15967D01*
X25581Y16300D01*
X24581D01*
X27913Y14300D02*
X26581D01*
X27913Y15633D01*
Y15967D01*
X27580Y16300D01*
X26914D01*
X26581Y15967D01*
X109482Y227138D02*
X108150D01*
Y226139D01*
X108816D01*
X108150D01*
Y225139D01*
X110149Y227138D02*
Y225139D01*
X111149D01*
X111482Y225472D01*
Y226805D01*
X111149Y227138D01*
X110149D01*
X112148Y225139D02*
X112815D01*
X112481D01*
Y227138D01*
X112148Y226805D01*
X144834Y129037D02*
X146167Y127037D01*
Y129037D02*
X144834Y127037D01*
X146834D02*
X147500D01*
X147167D01*
Y129037D01*
X146834Y128703D01*
X143983Y83148D02*
X141983D01*
Y84148D01*
X142316Y84481D01*
X142983D01*
X143316Y84148D01*
Y83148D01*
Y83815D02*
X143983Y84481D01*
Y86147D02*
Y85481D01*
X143649Y85148D01*
X142983D01*
X142650Y85481D01*
Y86147D01*
X142983Y86480D01*
X143316D01*
Y85148D01*
X143983Y87147D02*
Y88147D01*
X143649Y88480D01*
X143316Y88147D01*
Y87480D01*
X142983Y87147D01*
X142650Y87480D01*
Y88480D01*
X143983Y90146D02*
Y89479D01*
X143649Y89146D01*
X142983D01*
X142650Y89479D01*
Y90146D01*
X142983Y90479D01*
X143316D01*
Y89146D01*
X142316Y91479D02*
X142650D01*
Y91146D01*
Y91812D01*
Y91479D01*
X143649D01*
X143983Y91812D01*
X167294Y103721D02*
X168626D01*
X167960D01*
Y101722D01*
X169293D02*
Y103721D01*
X170293D01*
X170626Y103388D01*
Y102722D01*
X170293Y102388D01*
X169293D01*
X171292Y101722D02*
X171959D01*
X171625D01*
Y103721D01*
X171292Y103388D01*
X172958Y103721D02*
X174291D01*
Y103388D01*
X172958Y102055D01*
Y101722D01*
X175741Y103879D02*
X177074D01*
X176408D01*
Y101880D01*
X177741D02*
Y103879D01*
X178740D01*
X179073Y103546D01*
Y102879D01*
X178740Y102546D01*
X177741D01*
X179740Y101880D02*
X180406D01*
X180073D01*
Y103879D01*
X179740Y103546D01*
X182739Y103879D02*
X182072Y103546D01*
X181406Y102879D01*
Y102213D01*
X181739Y101880D01*
X182406D01*
X182739Y102213D01*
Y102546D01*
X182406Y102879D01*
X181406D01*
X12300Y36099D02*
X13633D01*
X12967D01*
Y34100D01*
X14299D02*
Y36099D01*
X15299D01*
X15632Y35766D01*
Y35100D01*
X15299Y34766D01*
X14299D01*
X16299Y34100D02*
X16965D01*
X16632D01*
Y36099D01*
X16299Y35766D01*
X19298Y36099D02*
X17965D01*
Y35100D01*
X18631Y35433D01*
X18965D01*
X19298Y35100D01*
Y34433D01*
X18965Y34100D01*
X18298D01*
X17965Y34433D01*
X129500Y56801D02*
Y58134D01*
Y57468D01*
X131500D01*
Y58801D02*
X129500D01*
Y59800D01*
X129833Y60133D01*
X130500D01*
X130833Y59800D01*
Y58801D01*
X131500Y60800D02*
Y61466D01*
Y61133D01*
X129500D01*
X129833Y60800D01*
X131500Y63466D02*
X129500D01*
X130500Y62466D01*
Y63799D01*
X128800Y231899D02*
X130133D01*
X129466D01*
Y229900D01*
X130799D02*
Y231899D01*
X131799D01*
X132132Y231566D01*
Y230900D01*
X131799Y230566D01*
X130799D01*
X134132Y229900D02*
X132799D01*
X134132Y231233D01*
Y231566D01*
X133798Y231899D01*
X133132D01*
X132799Y231566D01*
X135798Y229900D02*
Y231899D01*
X134798Y230900D01*
X136131D01*
X205140Y218280D02*
X206473D01*
X205806D01*
Y216281D01*
X207139D02*
Y218280D01*
X208139D01*
X208472Y217947D01*
Y217281D01*
X208139Y216947D01*
X207139D01*
X210471Y216281D02*
X209138D01*
X210471Y217614D01*
Y217947D01*
X210138Y218280D01*
X209472D01*
X209138Y217947D01*
X211138D02*
X211471Y218280D01*
X212137D01*
X212471Y217947D01*
Y217614D01*
X212137Y217281D01*
X211804D01*
X212137D01*
X212471Y216947D01*
Y216614D01*
X212137Y216281D01*
X211471D01*
X211138Y216614D01*
X206034Y226308D02*
X207367D01*
X206701D01*
Y224308D01*
X208034D02*
Y226308D01*
X209034D01*
X209367Y225975D01*
Y225308D01*
X209034Y224975D01*
X208034D01*
X211366Y224308D02*
X210033D01*
X211366Y225641D01*
Y225975D01*
X211033Y226308D01*
X210367D01*
X210033Y225975D01*
X213366Y224308D02*
X212033D01*
X213366Y225641D01*
Y225975D01*
X213032Y226308D01*
X212366D01*
X212033Y225975D01*
X200249Y186319D02*
X201581D01*
X200915D01*
Y184320D01*
X202248D02*
Y186319D01*
X203247D01*
X203581Y185986D01*
Y185320D01*
X203247Y184986D01*
X202248D01*
X205580Y184320D02*
X204247D01*
X205580Y185653D01*
Y185986D01*
X205247Y186319D01*
X204580D01*
X204247Y185986D01*
X206246Y184320D02*
X206913D01*
X206580D01*
Y186319D01*
X206246Y185986D01*
X136886Y206148D02*
X138219D01*
X137553D01*
Y204149D01*
X138886D02*
Y206148D01*
X139885D01*
X140219Y205815D01*
Y205148D01*
X139885Y204815D01*
X138886D01*
X142218Y204149D02*
X140885D01*
X142218Y205482D01*
Y205815D01*
X141885Y206148D01*
X141218D01*
X140885Y205815D01*
X142884D02*
X143218Y206148D01*
X143884D01*
X144217Y205815D01*
Y204482D01*
X143884Y204149D01*
X143218D01*
X142884Y204482D01*
Y205815D01*
X218570Y197800D02*
X219903D01*
X219236D01*
Y195800D01*
X220569D02*
Y197800D01*
X221569D01*
X221902Y197467D01*
Y196800D01*
X221569Y196467D01*
X220569D01*
X222568Y195800D02*
X223235D01*
X222902D01*
Y197800D01*
X222568Y197467D01*
X224235Y196134D02*
X224568Y195800D01*
X225234D01*
X225567Y196134D01*
Y197467D01*
X225234Y197800D01*
X224568D01*
X224235Y197467D01*
Y197133D01*
X224568Y196800D01*
X225567D01*
X74298Y176692D02*
X72965D01*
X73631D01*
Y178691D01*
X72298D02*
Y176692D01*
X71299D01*
X70965Y177025D01*
Y177691D01*
X71299Y178025D01*
X72298D01*
X70299Y178358D02*
X69966Y178691D01*
X69299D01*
X68966Y178358D01*
Y177025D01*
X69299Y176692D01*
X69966D01*
X70299Y177025D01*
Y177358D01*
X69966Y177691D01*
X68966D01*
X59043Y141034D02*
X60375D01*
X59709D01*
Y139034D01*
X61042D02*
Y141034D01*
X62042D01*
X62375Y140700D01*
Y140034D01*
X62042Y139701D01*
X61042D01*
X64374Y141034D02*
X63708Y140700D01*
X63041Y140034D01*
Y139368D01*
X63375Y139034D01*
X64041D01*
X64374Y139368D01*
Y139701D01*
X64041Y140034D01*
X63041D01*
X3800Y156982D02*
X5133D01*
X4466D01*
Y154982D01*
X5799D02*
Y156982D01*
X6799D01*
X7132Y156649D01*
Y155982D01*
X6799Y155649D01*
X5799D01*
X9132Y156982D02*
X7799D01*
Y155982D01*
X8465Y156315D01*
X8798D01*
X9132Y155982D01*
Y155316D01*
X8798Y154982D01*
X8132D01*
X7799Y155316D01*
X67598Y144619D02*
X68930D01*
X68264D01*
Y142619D01*
X69597D02*
Y144619D01*
X70596D01*
X70930Y144286D01*
Y143619D01*
X70596Y143286D01*
X69597D01*
X72929Y142619D02*
X71596D01*
X72929Y143952D01*
Y144286D01*
X72596Y144619D01*
X71929D01*
X71596Y144286D01*
X9675Y189981D02*
X11008D01*
X10342D01*
Y187982D01*
X11675D02*
Y189981D01*
X12674D01*
X13007Y189648D01*
Y188982D01*
X12674Y188649D01*
X11675D01*
X13674Y187982D02*
X14340D01*
X14007D01*
Y189981D01*
X13674Y189648D01*
X205634Y157700D02*
Y159700D01*
X206634D01*
X206967Y159367D01*
Y158700D01*
X206634Y158367D01*
X205634D01*
X206301D02*
X206967Y157700D01*
X207634Y159367D02*
X207967Y159700D01*
X208633D01*
X208966Y159367D01*
Y159033D01*
X208633Y158700D01*
X208300D01*
X208633D01*
X208966Y158367D01*
Y158034D01*
X208633Y157700D01*
X207967D01*
X207634Y158034D01*
X209633Y159367D02*
X209966Y159700D01*
X210633D01*
X210966Y159367D01*
Y158034D01*
X210633Y157700D01*
X209966D01*
X209633Y158034D01*
Y159367D01*
X114134Y215727D02*
Y217726D01*
X115134D01*
X115467Y217393D01*
Y216727D01*
X115134Y216393D01*
X114134D01*
X114800D02*
X115467Y215727D01*
X116133Y217726D02*
X117466D01*
Y217393D01*
X116133Y216060D01*
Y215727D01*
X224928Y151348D02*
Y153348D01*
X225928D01*
X226261Y153015D01*
Y152348D01*
X225928Y152015D01*
X224928D01*
X225595D02*
X226261Y151348D01*
X228261Y153348D02*
X227594Y153015D01*
X226928Y152348D01*
Y151682D01*
X227261Y151348D01*
X227928D01*
X228261Y151682D01*
Y152015D01*
X227928Y152348D01*
X226928D01*
X61209Y208569D02*
X63209D01*
Y207569D01*
X62876Y207236D01*
X62209D01*
X61876Y207569D01*
Y208569D01*
Y207903D02*
X61209Y207236D01*
X62876Y206570D02*
X63209Y206236D01*
Y205570D01*
X62876Y205237D01*
X62542D01*
X62209Y205570D01*
Y205903D01*
Y205570D01*
X61876Y205237D01*
X61543D01*
X61209Y205570D01*
Y206236D01*
X61543Y206570D01*
X63209Y204570D02*
Y203237D01*
X62876D01*
X61543Y204570D01*
X61209D01*
X66694Y228309D02*
Y230309D01*
X67694D01*
X68027Y229976D01*
Y229309D01*
X67694Y228976D01*
X66694D01*
X67361D02*
X68027Y228309D01*
X68694Y229976D02*
X69027Y230309D01*
X69693D01*
X70027Y229976D01*
Y229642D01*
X69693Y229309D01*
X69360D01*
X69693D01*
X70027Y228976D01*
Y228643D01*
X69693Y228309D01*
X69027D01*
X68694Y228643D01*
X72026Y230309D02*
X71360Y229976D01*
X70693Y229309D01*
Y228643D01*
X71026Y228309D01*
X71693D01*
X72026Y228643D01*
Y228976D01*
X71693Y229309D01*
X70693D01*
X92930Y207319D02*
X90931D01*
Y208319D01*
X91264Y208652D01*
X91931D01*
X92264Y208319D01*
Y207319D01*
Y207986D02*
X92930Y208652D01*
X91264Y209319D02*
X90931Y209652D01*
Y210318D01*
X91264Y210652D01*
X91597D01*
X91931Y210318D01*
Y209985D01*
Y210318D01*
X92264Y210652D01*
X92597D01*
X92930Y210318D01*
Y209652D01*
X92597Y209319D01*
X90931Y212651D02*
Y211318D01*
X91931D01*
X91597Y211984D01*
Y212318D01*
X91931Y212651D01*
X92597D01*
X92930Y212318D01*
Y211651D01*
X92597Y211318D01*
X95819Y228231D02*
X97818D01*
Y227231D01*
X97485Y226898D01*
X96819D01*
X96486Y227231D01*
Y228231D01*
Y227565D02*
X95819Y226898D01*
X97485Y226232D02*
X97818Y225899D01*
Y225232D01*
X97485Y224899D01*
X97152D01*
X96819Y225232D01*
Y225565D01*
Y225232D01*
X96486Y224899D01*
X96152D01*
X95819Y225232D01*
Y225899D01*
X96152Y226232D01*
X95819Y223233D02*
X97818D01*
X96819Y224232D01*
Y222900D01*
X76810Y148031D02*
Y150030D01*
X77810D01*
X78143Y149697D01*
Y149031D01*
X77810Y148697D01*
X76810D01*
X77476D02*
X78143Y148031D01*
X78809D02*
X79476D01*
X79142D01*
Y150030D01*
X78809Y149697D01*
X80475Y148364D02*
X80809Y148031D01*
X81475D01*
X81808Y148364D01*
Y149697D01*
X81475Y150030D01*
X80809D01*
X80475Y149697D01*
Y149364D01*
X80809Y149031D01*
X81808D01*
X126134Y200011D02*
Y202010D01*
X127134D01*
X127467Y201677D01*
Y201010D01*
X127134Y200677D01*
X126134D01*
X126801D02*
X127467Y200011D01*
X129466D02*
X128133D01*
X129466Y201343D01*
Y201677D01*
X129133Y202010D01*
X128467D01*
X128133Y201677D01*
X130133D02*
X130466Y202010D01*
X131133D01*
X131466Y201677D01*
Y201343D01*
X131133Y201010D01*
X131466Y200677D01*
Y200344D01*
X131133Y200011D01*
X130466D01*
X130133Y200344D01*
Y200677D01*
X130466Y201010D01*
X130133Y201343D01*
Y201677D01*
X130466Y201010D02*
X131133D01*
X131810Y216560D02*
Y218560D01*
X132809D01*
X133143Y218227D01*
Y217560D01*
X132809Y217227D01*
X131810D01*
X132476D02*
X133143Y216560D01*
X135142D02*
X133809D01*
X135142Y217893D01*
Y218227D01*
X134809Y218560D01*
X134142D01*
X133809Y218227D01*
X135809Y218560D02*
X137141D01*
Y218227D01*
X135809Y216894D01*
Y216560D01*
X148700Y83492D02*
X146700D01*
Y84491D01*
X147034Y84825D01*
X147700D01*
X148033Y84491D01*
Y83492D01*
Y84158D02*
X148700Y84825D01*
Y86824D02*
Y85491D01*
X147367Y86824D01*
X147034D01*
X146700Y86491D01*
Y85824D01*
X147034Y85491D01*
X146700Y88823D02*
X147034Y88157D01*
X147700Y87490D01*
X148366D01*
X148700Y87824D01*
Y88490D01*
X148366Y88823D01*
X148033D01*
X147700Y88490D01*
Y87490D01*
X149070Y76846D02*
X147070D01*
Y77846D01*
X147404Y78179D01*
X148070D01*
X148403Y77846D01*
Y76846D01*
Y77513D02*
X149070Y78179D01*
Y80178D02*
Y78845D01*
X147737Y80178D01*
X147404D01*
X147070Y79845D01*
Y79179D01*
X147404Y78845D01*
X147070Y82178D02*
Y80845D01*
X148070D01*
X147737Y81511D01*
Y81844D01*
X148070Y82178D01*
X148737D01*
X149070Y81844D01*
Y81178D01*
X148737Y80845D01*
X76643Y62700D02*
Y64700D01*
X77643D01*
X77976Y64367D01*
Y63700D01*
X77643Y63367D01*
X76643D01*
X77310D02*
X77976Y62700D01*
X79975D02*
X78643D01*
X79975Y64033D01*
Y64367D01*
X79642Y64700D01*
X78976D01*
X78643Y64367D01*
X81975Y62700D02*
X80642D01*
X81975Y64033D01*
Y64367D01*
X81642Y64700D01*
X80975D01*
X80642Y64367D01*
X53467Y65266D02*
Y67265D01*
X54467D01*
X54800Y66932D01*
Y66266D01*
X54467Y65933D01*
X53467D01*
X54134D02*
X54800Y65266D01*
X56800D02*
X55467D01*
X56800Y66599D01*
Y66932D01*
X56467Y67265D01*
X55800D01*
X55467Y66932D01*
X57466Y65266D02*
X58133D01*
X57799D01*
Y67265D01*
X57466Y66932D01*
X67134Y62700D02*
Y64700D01*
X68134D01*
X68467Y64367D01*
Y63700D01*
X68134Y63367D01*
X67134D01*
X67801D02*
X68467Y62700D01*
X70466D02*
X69134D01*
X70466Y64033D01*
Y64367D01*
X70133Y64700D01*
X69467D01*
X69134Y64367D01*
X71133D02*
X71466Y64700D01*
X72133D01*
X72466Y64367D01*
Y63034D01*
X72133Y62700D01*
X71466D01*
X71133Y63034D01*
Y64367D01*
X112769Y57230D02*
Y59230D01*
X113769D01*
X114102Y58897D01*
Y58230D01*
X113769Y57897D01*
X112769D01*
X113436D02*
X114102Y57230D01*
X114769D02*
X115435D01*
X115102D01*
Y59230D01*
X114769Y58897D01*
X116435D02*
X116768Y59230D01*
X117435D01*
X117768Y58897D01*
Y58563D01*
X117435Y58230D01*
X117768Y57897D01*
Y57564D01*
X117435Y57230D01*
X116768D01*
X116435Y57564D01*
Y57897D01*
X116768Y58230D01*
X116435Y58563D01*
Y58897D01*
X116768Y58230D02*
X117435D01*
X63209Y192403D02*
X61209D01*
Y193402D01*
X61543Y193735D01*
X62209D01*
X62542Y193402D01*
Y192403D01*
Y193069D02*
X63209Y193735D01*
X62876Y194402D02*
X63209Y194735D01*
Y195402D01*
X62876Y195735D01*
X61543D01*
X61209Y195402D01*
Y194735D01*
X61543Y194402D01*
X61876D01*
X62209Y194735D01*
Y195735D01*
X18921Y187273D02*
Y189272D01*
X19921D01*
X20254Y188939D01*
Y188273D01*
X19921Y187939D01*
X18921D01*
X19588D02*
X20254Y187273D01*
X22253Y189272D02*
X20921D01*
Y188273D01*
X21587Y188606D01*
X21920D01*
X22253Y188273D01*
Y187606D01*
X21920Y187273D01*
X21254D01*
X20921Y187606D01*
X53234Y180800D02*
Y182800D01*
X54234D01*
X54567Y182466D01*
Y181800D01*
X54234Y181467D01*
X53234D01*
X53900D02*
X54567Y180800D01*
X56233D02*
Y182800D01*
X55233Y181800D01*
X56566D01*
X17231Y173721D02*
X15232D01*
Y174721D01*
X15565Y175054D01*
X16231D01*
X16565Y174721D01*
Y173721D01*
Y174387D02*
X17231Y175054D01*
X15565Y175720D02*
X15232Y176053D01*
Y176720D01*
X15565Y177053D01*
X15898D01*
X16231Y176720D01*
Y176387D01*
Y176720D01*
X16565Y177053D01*
X16898D01*
X17231Y176720D01*
Y176053D01*
X16898Y175720D01*
X121600Y184299D02*
Y182300D01*
X122933D01*
X123599D02*
X124266D01*
X123933D01*
Y184299D01*
X123599Y183966D01*
X3700Y195500D02*
Y194167D01*
X4700D01*
Y194834D01*
Y194167D01*
X5700D01*
X3700Y196167D02*
X5700D01*
Y197167D01*
X5366Y197500D01*
X5033D01*
X4700Y197167D01*
Y196167D01*
Y197167D01*
X4367Y197500D01*
X4033D01*
X3700Y197167D01*
Y196167D01*
X5700Y198166D02*
Y198833D01*
Y198499D01*
X3700D01*
X4033Y198166D01*
X14125Y160898D02*
X16124D01*
Y161898D01*
X15791Y162231D01*
X14458D01*
X14125Y161898D01*
Y160898D01*
X16124Y162898D02*
Y163564D01*
Y163231D01*
X14125D01*
X14458Y162898D01*
X99641Y212939D02*
Y210940D01*
X100641D01*
X100974Y211273D01*
Y212606D01*
X100641Y212939D01*
X99641D01*
X102640Y210940D02*
Y212939D01*
X101641Y211939D01*
X102973D01*
X83017Y234100D02*
Y232100D01*
X84016D01*
X84349Y232434D01*
Y233767D01*
X84016Y234100D01*
X83017D01*
X85016Y233767D02*
X85349Y234100D01*
X86016D01*
X86349Y233767D01*
Y233433D01*
X86016Y233100D01*
X85682D01*
X86016D01*
X86349Y232767D01*
Y232434D01*
X86016Y232100D01*
X85349D01*
X85016Y232434D01*
X101931Y192841D02*
X101598Y193174D01*
X100932D01*
X100599Y192841D01*
Y191508D01*
X100932Y191175D01*
X101598D01*
X101931Y191508D01*
X102598Y192841D02*
X102931Y193174D01*
X103598D01*
X103931Y192841D01*
Y192508D01*
X103598Y192175D01*
X103264D01*
X103598D01*
X103931Y191841D01*
Y191508D01*
X103598Y191175D01*
X102931D01*
X102598Y191508D01*
X104597Y191175D02*
X105264D01*
X104930D01*
Y193174D01*
X104597Y192841D01*
X75340Y231623D02*
X75007Y231956D01*
X74340D01*
X74007Y231623D01*
Y230290D01*
X74340Y229956D01*
X75007D01*
X75340Y230290D01*
X76007Y231623D02*
X76340Y231956D01*
X77006D01*
X77339Y231623D01*
Y231289D01*
X77006Y230956D01*
X76673D01*
X77006D01*
X77339Y230623D01*
Y230290D01*
X77006Y229956D01*
X76340D01*
X76007Y230290D01*
X78006Y231623D02*
X78339Y231956D01*
X79005D01*
X79339Y231623D01*
Y230290D01*
X79005Y229956D01*
X78339D01*
X78006Y230290D01*
Y231623D01*
X11567Y216367D02*
X11234Y216700D01*
X10567D01*
X10234Y216367D01*
Y215034D01*
X10567Y214700D01*
X11234D01*
X11567Y215034D01*
X13566Y214700D02*
X12234D01*
X13566Y216033D01*
Y216367D01*
X13233Y216700D01*
X12567D01*
X12234Y216367D01*
X14233Y215034D02*
X14566Y214700D01*
X15233D01*
X15566Y215034D01*
Y216367D01*
X15233Y216700D01*
X14566D01*
X14233Y216367D01*
Y216033D01*
X14566Y215700D01*
X15566D01*
X121867Y151117D02*
X121534Y151450D01*
X120867D01*
X120534Y151117D01*
Y149784D01*
X120867Y149451D01*
X121534D01*
X121867Y149784D01*
X123866Y149451D02*
X122534D01*
X123866Y150784D01*
Y151117D01*
X123533Y151450D01*
X122867D01*
X122534Y151117D01*
X124533Y151450D02*
X125866D01*
Y151117D01*
X124533Y149784D01*
Y149451D01*
X138067Y151267D02*
X137734Y151600D01*
X137067D01*
X136734Y151267D01*
Y149934D01*
X137067Y149600D01*
X137734D01*
X138067Y149934D01*
X140067Y149600D02*
X138733D01*
X140067Y150933D01*
Y151267D01*
X139733Y151600D01*
X139067D01*
X138733Y151267D01*
X142066Y151600D02*
X141399Y151267D01*
X140733Y150600D01*
Y149934D01*
X141066Y149600D01*
X141733D01*
X142066Y149934D01*
Y150267D01*
X141733Y150600D01*
X140733D01*
X159271Y136736D02*
X158938Y136402D01*
Y135736D01*
X159271Y135403D01*
X160604D01*
X160937Y135736D01*
Y136402D01*
X160604Y136736D01*
X160937Y138735D02*
Y137402D01*
X159604Y138735D01*
X159271D01*
X158938Y138402D01*
Y137735D01*
X159271Y137402D01*
X158938Y140734D02*
Y139401D01*
X159937D01*
X159604Y140068D01*
Y140401D01*
X159937Y140734D01*
X160604D01*
X160937Y140401D01*
Y139735D01*
X160604Y139401D01*
X174867Y178067D02*
X174534Y178400D01*
X173867D01*
X173534Y178067D01*
Y176734D01*
X173867Y176400D01*
X174534D01*
X174867Y176734D01*
X176866Y176400D02*
X175533D01*
X176866Y177733D01*
Y178067D01*
X176533Y178400D01*
X175867D01*
X175533Y178067D01*
X178533Y176400D02*
Y178400D01*
X177533Y177400D01*
X178866D01*
X165467Y177966D02*
X165134Y178300D01*
X164467D01*
X164134Y177966D01*
Y176634D01*
X164467Y176300D01*
X165134D01*
X165467Y176634D01*
X167466Y176300D02*
X166133D01*
X167466Y177633D01*
Y177966D01*
X167133Y178300D01*
X166467D01*
X166133Y177966D01*
X168133D02*
X168466Y178300D01*
X169133D01*
X169466Y177966D01*
Y177633D01*
X169133Y177300D01*
X168799D01*
X169133D01*
X169466Y176967D01*
Y176634D01*
X169133Y176300D01*
X168466D01*
X168133Y176634D01*
X160134Y144867D02*
X159800Y144534D01*
Y143867D01*
X160134Y143534D01*
X161466D01*
X161800Y143867D01*
Y144534D01*
X161466Y144867D01*
X161800Y146867D02*
Y145534D01*
X160467Y146867D01*
X160134D01*
X159800Y146533D01*
Y145867D01*
X160134Y145534D01*
X161800Y148866D02*
Y147533D01*
X160467Y148866D01*
X160134D01*
X159800Y148533D01*
Y147866D01*
X160134Y147533D01*
X219434Y132266D02*
X219101Y132600D01*
X218435D01*
X218101Y132266D01*
Y130934D01*
X218435Y130600D01*
X219101D01*
X219434Y130934D01*
X221434Y130600D02*
X220101D01*
X221434Y131933D01*
Y132266D01*
X221100Y132600D01*
X220434D01*
X220101Y132266D01*
X222100Y130600D02*
X222766D01*
X222433D01*
Y132600D01*
X222100Y132266D01*
X202326D02*
X201992Y132600D01*
X201326D01*
X200993Y132266D01*
Y130934D01*
X201326Y130600D01*
X201992D01*
X202326Y130934D01*
X204325Y130600D02*
X202992D01*
X204325Y131933D01*
Y132266D01*
X203992Y132600D01*
X203325D01*
X202992Y132266D01*
X204991D02*
X205325Y132600D01*
X205991D01*
X206324Y132266D01*
Y130934D01*
X205991Y130600D01*
X205325D01*
X204991Y130934D01*
Y132266D01*
X208534Y208666D02*
X208201Y209000D01*
X207534D01*
X207201Y208666D01*
Y207334D01*
X207534Y207000D01*
X208201D01*
X208534Y207334D01*
X209200Y207000D02*
X209867D01*
X209533D01*
Y209000D01*
X209200Y208666D01*
X212199Y209000D02*
X211533Y208666D01*
X210866Y208000D01*
Y207334D01*
X211199Y207000D01*
X211866D01*
X212199Y207334D01*
Y207667D01*
X211866Y208000D01*
X210866D01*
X140585Y121795D02*
X140918Y122128D01*
Y122794D01*
X140585Y123127D01*
X139252D01*
X138919Y122794D01*
Y122128D01*
X139252Y121795D01*
X138919Y121128D02*
Y120462D01*
Y120795D01*
X140918D01*
X140585Y121128D01*
X140918Y118129D02*
Y119462D01*
X139918D01*
X140252Y118796D01*
Y118462D01*
X139918Y118129D01*
X139252D01*
X138919Y118462D01*
Y119129D01*
X139252Y119462D01*
X140470Y111251D02*
X140804Y111584D01*
Y112250D01*
X140470Y112583D01*
X139137D01*
X138804Y112250D01*
Y111584D01*
X139137Y111251D01*
X138804Y110584D02*
Y109918D01*
Y110251D01*
X140804D01*
X140470Y110584D01*
X138804Y107918D02*
X140804D01*
X139804Y108918D01*
Y107585D01*
X136229Y95333D02*
X135896Y95666D01*
X135229D01*
X134896Y95333D01*
Y94000D01*
X135229Y93666D01*
X135896D01*
X136229Y94000D01*
X136895Y93666D02*
X137562D01*
X137229D01*
Y95666D01*
X136895Y95333D01*
X138561D02*
X138895Y95666D01*
X139561D01*
X139894Y95333D01*
Y94999D01*
X139561Y94666D01*
X139228D01*
X139561D01*
X139894Y94333D01*
Y94000D01*
X139561Y93666D01*
X138895D01*
X138561Y94000D01*
X148366Y73304D02*
X148700Y73637D01*
Y74304D01*
X148366Y74637D01*
X147034D01*
X146700Y74304D01*
Y73637D01*
X147034Y73304D01*
X146700Y72638D02*
Y71971D01*
Y72304D01*
X148700D01*
X148366Y72638D01*
X146700Y69639D02*
Y70972D01*
X148033Y69639D01*
X148366D01*
X148700Y69972D01*
Y70638D01*
X148366Y70972D01*
X43067Y67366D02*
X42734Y67700D01*
X42067D01*
X41734Y67366D01*
Y66034D01*
X42067Y65700D01*
X42734D01*
X43067Y66034D01*
X43733Y65700D02*
X44400D01*
X44067D01*
Y67700D01*
X43733Y67366D01*
X45399Y65700D02*
X46066D01*
X45733D01*
Y67700D01*
X45399Y67366D01*
X57433Y159733D02*
X57766Y159400D01*
X58433D01*
X58766Y159733D01*
Y161066D01*
X58433Y161400D01*
X57766D01*
X57433Y161066D01*
X56767Y159400D02*
X55434D01*
Y159733D01*
X56767Y161066D01*
Y161400D01*
X57070Y195012D02*
X56737Y195345D01*
X56071D01*
X55737Y195012D01*
Y193679D01*
X56071Y193346D01*
X56737D01*
X57070Y193679D01*
X59070Y195345D02*
X58403Y195012D01*
X57737Y194346D01*
Y193679D01*
X58070Y193346D01*
X58736D01*
X59070Y193679D01*
Y194012D01*
X58736Y194346D01*
X57737D01*
X24182Y195816D02*
X23849Y195483D01*
Y194817D01*
X24182Y194483D01*
X25515D01*
X25848Y194817D01*
Y195483D01*
X25515Y195816D01*
X23849Y197816D02*
Y196483D01*
X24849D01*
X24516Y197149D01*
Y197483D01*
X24849Y197816D01*
X25515D01*
X25848Y197483D01*
Y196816D01*
X25515Y196483D01*
X19667Y216846D02*
X19334Y217179D01*
X18667D01*
X18334Y216846D01*
Y215513D01*
X18667Y215180D01*
X19334D01*
X19667Y215513D01*
X21333Y215180D02*
Y217179D01*
X20333Y216179D01*
X21666D01*
X5370Y216047D02*
X5037Y216380D01*
X4370D01*
X4037Y216047D01*
Y214714D01*
X4370Y214381D01*
X5037D01*
X5370Y214714D01*
X6036Y216047D02*
X6370Y216380D01*
X7036D01*
X7369Y216047D01*
Y215714D01*
X7036Y215380D01*
X6703D01*
X7036D01*
X7369Y215047D01*
Y214714D01*
X7036Y214381D01*
X6370D01*
X6036Y214714D01*
X27328Y212710D02*
X26995Y213043D01*
X26329D01*
X25995Y212710D01*
Y211377D01*
X26329Y211044D01*
X26995D01*
X27328Y211377D01*
X29328Y211044D02*
X27995D01*
X29328Y212376D01*
Y212710D01*
X28994Y213043D01*
X28328D01*
X27995Y212710D01*
X65887Y174400D02*
X66220Y174733D01*
Y175400D01*
X65887Y175733D01*
X64554D01*
X64221Y175400D01*
Y174733D01*
X64554Y174400D01*
X64221Y173733D02*
Y173067D01*
Y173400D01*
X66220D01*
X65887Y173733D01*
X21333Y228968D02*
X20666D01*
X21000D01*
Y227302D01*
X20666Y226969D01*
X20333D01*
X20000Y227302D01*
X21999Y226969D02*
X22666D01*
X22333D01*
Y228968D01*
X21999Y228635D01*
X34801Y209300D02*
X36800D01*
Y210300D01*
X36467Y210633D01*
X35134D01*
X34801Y210300D01*
Y209300D01*
X36800Y212632D02*
Y211299D01*
X35467Y212632D01*
X35134D01*
X34801Y212299D01*
Y211633D01*
X35134Y211299D01*
X29800Y130999D02*
Y129333D01*
X30133Y129000D01*
X30800D01*
X31133Y129333D01*
Y130999D01*
X31799Y130666D02*
X32133Y130999D01*
X32799D01*
X33132Y130666D01*
Y130333D01*
X32799Y130000D01*
X32466D01*
X32799D01*
X33132Y129666D01*
Y129333D01*
X32799Y129000D01*
X32133D01*
X31799Y129333D01*
X178199Y129831D02*
Y128165D01*
X178533Y127832D01*
X179199D01*
X179532Y128165D01*
Y129831D01*
X181532Y127832D02*
X180199D01*
X181532Y129165D01*
Y129498D01*
X181199Y129831D01*
X180532D01*
X180199Y129498D01*
X43900Y169401D02*
Y171067D01*
X43567Y171400D01*
X42900D01*
X42567Y171067D01*
Y169401D01*
X41901Y171400D02*
X41234D01*
X41567D01*
Y169401D01*
X41901Y169734D01*
X200466Y207467D02*
X200799Y207800D01*
Y208467D01*
X200466Y208800D01*
X200133D01*
X199800Y208467D01*
Y207800D01*
X199467Y207467D01*
X199133D01*
X198800Y207800D01*
Y208467D01*
X199133Y208800D01*
X200799Y206801D02*
X198800D01*
Y205801D01*
X199133Y205468D01*
X200466D01*
X200799Y205801D01*
Y206801D01*
X198800Y204801D02*
Y204135D01*
Y204468D01*
X200799D01*
X200466Y204801D01*
X49468Y198321D02*
Y200321D01*
X50468D01*
X50801Y199987D01*
Y199321D01*
X50468Y198988D01*
X49468D01*
X50135D02*
X50801Y198321D01*
X52801D02*
X51468D01*
X52801Y199654D01*
Y199987D01*
X52468Y200321D01*
X51801D01*
X51468Y199987D01*
X34839Y198000D02*
Y199999D01*
X35839D01*
X36172Y199666D01*
Y199000D01*
X35839Y198667D01*
X34839D01*
X35506D02*
X36172Y198000D01*
X36839D02*
X37505D01*
X37172D01*
Y199999D01*
X36839Y199666D01*
X71597Y164903D02*
Y166902D01*
X72596D01*
X72929Y166569D01*
Y165903D01*
X72596Y165570D01*
X71597D01*
X73596Y164903D02*
X74262D01*
X73929D01*
Y166902D01*
X73596Y166569D01*
M02*
