G04*
G04 #@! TF.GenerationSoftware,Altium Limited,Altium Designer,21.1.1 (26)*
G04*
G04 Layer_Physical_Order=2*
G04 Layer_Color=32768*
%FSLAX25Y25*%
%MOIN*%
G70*
G04*
G04 #@! TF.SameCoordinates,4F177341-0937-496B-BE4A-6E5797C68D15*
G04*
G04*
G04 #@! TF.FilePolarity,Negative*
G04*
G01*
G75*
%ADD136C,0.02800*%
%ADD155C,0.04000*%
%ADD156C,0.12630*%
%ADD157C,0.07000*%
%ADD158C,0.04560*%
G04:AMPARAMS|DCode=159|XSize=85.6mil|YSize=85.6mil|CornerRadius=0mil|HoleSize=0mil|Usage=FLASHONLY|Rotation=0.000|XOffset=0mil|YOffset=0mil|HoleType=Round|Shape=Relief|Width=10mil|Gap=10mil|Entries=4|*
%AMTHD159*
7,0,0,0.08560,0.06560,0.01000,45*
%
%ADD159THD159*%
G04:AMPARAMS|DCode=160|XSize=110mil|YSize=110mil|CornerRadius=0mil|HoleSize=0mil|Usage=FLASHONLY|Rotation=0.000|XOffset=0mil|YOffset=0mil|HoleType=Round|Shape=Relief|Width=10mil|Gap=10mil|Entries=4|*
%AMTHD160*
7,0,0,0.11000,0.09000,0.01000,45*
%
%ADD160THD160*%
D136*
X232659Y131035D02*
D03*
X232429Y120008D02*
D03*
Y123521D02*
D03*
X178339Y50234D02*
D03*
X178199Y53328D02*
D03*
X178057Y56711D02*
D03*
X119736Y45546D02*
D03*
X100599Y203957D02*
D03*
X177045Y20810D02*
D03*
X100623Y208225D02*
D03*
X103800Y204671D02*
D03*
X103369Y207979D02*
D03*
X115800Y219512D02*
D03*
X87240Y216253D02*
D03*
X153029Y72849D02*
D03*
X201881Y77531D02*
D03*
X201705Y73830D02*
D03*
X201600Y70177D02*
D03*
Y66229D02*
D03*
X121961Y48786D02*
D03*
X93813Y59009D02*
D03*
X98207Y51378D02*
D03*
X66685Y210656D02*
D03*
X192794Y92957D02*
D03*
X192747Y90166D02*
D03*
X117157Y35056D02*
D03*
X139403Y46784D02*
D03*
X6400Y200461D02*
D03*
X14494Y200198D02*
D03*
X211309Y188500D02*
D03*
X210681Y180881D02*
D03*
X201600Y62257D02*
D03*
X157837Y105655D02*
D03*
X147787Y102261D02*
D03*
X156381Y29288D02*
D03*
X161200D02*
D03*
X168000D02*
D03*
X204915Y46805D02*
D03*
X158560Y61600D02*
D03*
X175228Y56711D02*
D03*
X175176Y53660D02*
D03*
X175192Y50398D02*
D03*
X169164Y64522D02*
D03*
X163813Y69587D02*
D03*
X172015Y100904D02*
D03*
X188500Y91500D02*
D03*
X192816Y95619D02*
D03*
X178402Y98684D02*
D03*
X157400Y174400D02*
D03*
X185353Y122031D02*
D03*
X220350Y207600D02*
D03*
X206600Y198200D02*
D03*
X143274Y221183D02*
D03*
X126650Y212588D02*
D03*
X123200Y217242D02*
D03*
X17100Y184300D02*
D03*
X22950Y179628D02*
D03*
X25848D02*
D03*
X31633Y177230D02*
D03*
X31600Y38281D02*
D03*
X30300Y18181D02*
D03*
X47243Y55072D02*
D03*
X31200Y32081D02*
D03*
X55800Y49000D02*
D03*
X130644Y46084D02*
D03*
X69700Y48000D02*
D03*
X123200Y184100D02*
D03*
X101300Y184300D02*
D03*
X152575Y100203D02*
D03*
X135900Y66266D02*
D03*
X146059Y49290D02*
D03*
X84034Y52561D02*
D03*
X62128Y63700D02*
D03*
Y52364D02*
D03*
X50700Y159500D02*
D03*
X79309Y152742D02*
D03*
X89806Y140782D02*
D03*
Y157439D02*
D03*
X96753Y151043D02*
D03*
X69800Y140227D02*
D03*
X103800Y141865D02*
D03*
X110164Y147498D02*
D03*
X31754Y143511D02*
D03*
X66382Y178982D02*
D03*
X66400Y182400D02*
D03*
D155*
X197539Y236220D02*
X236221Y236221D01*
X236221Y-0D01*
X0Y-0D02*
X236221Y-0D01*
X24016Y55118D02*
X24366Y55157D01*
X24699Y55273D01*
X24998Y55461D01*
X25248Y55710D01*
X25435Y56009D01*
X25552Y56342D01*
X25591Y56693D01*
X25591Y140157D02*
X25591Y56693D01*
X25552Y140508D02*
X25591Y140157D01*
X25435Y140841D02*
X25552Y140508D01*
X25248Y141140D02*
X25435Y140841D01*
X24998Y141389D02*
X25248Y141140D01*
X24699Y141577D02*
X24998Y141389D01*
X24366Y141693D02*
X24699Y141577D01*
X24016Y141732D02*
X24366Y141693D01*
X0Y141732D02*
X24016D01*
X0Y236220D02*
X0Y141732D01*
X0Y236220D02*
X22799Y236216D01*
X23434Y235635D01*
X24177Y235201D01*
X24994Y234933D01*
X25850Y234842D01*
X65220D01*
X66077Y234932D01*
X66895Y235201D01*
X67638Y235637D01*
X68272Y236220D01*
X152067Y236216D01*
X152702Y235635D01*
X153445Y235201D01*
X154262Y234933D01*
X155118Y234842D01*
X194488D01*
X195345Y234932D01*
X196163Y235201D01*
X196906Y235637D01*
X197539Y236220D01*
X0Y-0D02*
Y55118D01*
X24016D01*
D156*
X226969Y9252D02*
D03*
Y226969D02*
D03*
X9252D02*
D03*
Y9252D02*
D03*
D157*
X169400Y17400D02*
D03*
X159400D02*
D03*
X149400D02*
D03*
X46600Y18181D02*
D03*
Y28181D02*
D03*
Y38181D02*
D03*
X71000D02*
D03*
Y28181D02*
D03*
Y18181D02*
D03*
X95652Y38181D02*
D03*
Y28181D02*
D03*
Y18181D02*
D03*
X85300Y178982D02*
D03*
Y188982D02*
D03*
D158*
X179164Y121592D02*
D03*
Y116593D02*
D03*
X174164D02*
D03*
X164164D02*
D03*
X169164D02*
D03*
X164164Y121592D02*
D03*
X159164Y116593D02*
D03*
D159*
X174164Y121592D02*
D03*
X169164D02*
D03*
X159164D02*
D03*
D160*
X46600Y8181D02*
D03*
X71000D02*
D03*
X95652D02*
D03*
X85300Y168982D02*
D03*
M02*
