G04*
G04 #@! TF.GenerationSoftware,Altium Limited,Altium Designer,21.1.1 (26)*
G04*
G04 Layer_Physical_Order=2*
G04 Layer_Color=32768*
%FSLAX25Y25*%
%MOIN*%
G70*
G04*
G04 #@! TF.SameCoordinates,FCF7D8DE-4107-4742-B166-29AFE2BCEEE3*
G04*
G04*
G04 #@! TF.FilePolarity,Negative*
G04*
G01*
G75*
G36*
X236613Y238192D02*
X236990Y238077D01*
X237337Y237892D01*
X237642Y237642D01*
X237892Y237337D01*
X238077Y236990D01*
X238192Y236613D01*
X238230Y236221D01*
X238230Y-0D01*
X238192Y-392D01*
X238077Y-769D01*
X237892Y-1117D01*
X237642Y-1421D01*
X237337Y-1671D01*
X236990Y-1857D01*
X236613Y-1971D01*
X236221Y-2010D01*
X0Y-2010D01*
X-392Y-1971D01*
X-769Y-1857D01*
X-1116Y-1671D01*
X-1421Y-1421D01*
X-1671Y-1117D01*
X-1857Y-769D01*
X-1971Y-392D01*
X-2010Y-0D01*
Y55118D01*
X-1971Y55510D01*
X-1857Y55887D01*
X-1671Y56235D01*
X-1421Y56539D01*
X-1116Y56789D01*
X-769Y56975D01*
X-392Y57089D01*
X0Y57128D01*
X23581D01*
X23581Y139723D01*
X0D01*
X-392Y139761D01*
X-769Y139875D01*
X-1116Y140061D01*
X-1421Y140311D01*
X-1671Y140616D01*
X-1857Y140963D01*
X-1971Y141340D01*
X-2010Y141732D01*
X-2010Y236220D01*
X-2010Y236221D01*
X-2010Y236221D01*
X-1991Y236411D01*
X-1971Y236613D01*
X-1971Y236613D01*
X-1971Y236613D01*
X-1914Y236802D01*
X-1857Y236989D01*
X-1857Y236990D01*
X-1857Y236990D01*
X-1756Y237177D01*
X-1671Y237337D01*
X-1671Y237337D01*
X-1671Y237337D01*
X-1539Y237498D01*
X-1421Y237642D01*
X-1421Y237642D01*
X-1421Y237642D01*
X-1277Y237760D01*
X-1116Y237891D01*
X-1116Y237892D01*
X-1116Y237892D01*
X-956Y237977D01*
X-769Y238077D01*
X-769Y238077D01*
X-769Y238077D01*
X-581Y238134D01*
X-392Y238192D01*
X-392Y238192D01*
X-392Y238192D01*
X-190Y238211D01*
X0Y238230D01*
X0Y238230D01*
X0Y238230D01*
X22800Y238226D01*
X22951Y238211D01*
X23104Y238203D01*
X23147Y238192D01*
X23192Y238188D01*
X23338Y238143D01*
X23486Y238105D01*
X23526Y238086D01*
X23569Y238073D01*
X23703Y238001D01*
X23841Y237935D01*
X23877Y237908D01*
X23916Y237887D01*
X24034Y237790D01*
X24156Y237699D01*
X24633Y237262D01*
X25007Y237044D01*
X25418Y236909D01*
X25956Y236852D01*
X65115D01*
X65654Y236909D01*
X66063Y237043D01*
X66435Y237262D01*
X66911Y237699D01*
X67035Y237793D01*
X67155Y237891D01*
X67192Y237911D01*
X67226Y237936D01*
X67365Y238004D01*
X67503Y238077D01*
X67543Y238089D01*
X67580Y238107D01*
X67731Y238146D01*
X67880Y238192D01*
X67921Y238196D01*
X67962Y238206D01*
X68117Y238215D01*
X68272Y238230D01*
X152067Y238226D01*
X152219Y238211D01*
X152372Y238203D01*
X152415Y238192D01*
X152459Y238188D01*
X152605Y238143D01*
X152753Y238105D01*
X152794Y238086D01*
X152836Y238073D01*
X152971Y238001D01*
X153109Y237935D01*
X153144Y237908D01*
X153183Y237887D01*
X153302Y237790D01*
X153424Y237699D01*
X153901Y237262D01*
X154274Y237044D01*
X154685Y236909D01*
X155224Y236852D01*
X194383D01*
X194921Y236909D01*
X195331Y237043D01*
X195703Y237262D01*
X196179Y237699D01*
X196303Y237793D01*
X196423Y237891D01*
X196460Y237911D01*
X196493Y237936D01*
X196633Y238004D01*
X196770Y238077D01*
X196810Y238089D01*
X196848Y238107D01*
X196999Y238146D01*
X197147Y238192D01*
X197189Y238196D01*
X197230Y238206D01*
X197385Y238215D01*
X197539Y238230D01*
X236221Y238230D01*
X236613Y238192D01*
D02*
G37*
%LPC*%
G36*
X234211Y234211D02*
X233472Y234211D01*
X234211Y234211D01*
D01*
D02*
G37*
G36*
X94554Y234209D02*
X109333Y234209D01*
D01*
X94554Y234209D01*
D02*
G37*
G36*
X204294Y234211D02*
X198323Y234211D01*
X198266Y234158D01*
X198323Y234211D01*
X204294Y234211D01*
D02*
G37*
G36*
X198241Y234136D02*
X198096Y234030D01*
X197952Y233921D01*
X198096Y234030D01*
X198241Y234136D01*
D02*
G37*
G36*
X234211Y234211D02*
X230447Y234211D01*
X208394Y234211D01*
X198703Y234211D01*
X198241Y234136D01*
X197952Y233921D01*
X197952Y233921D01*
X197936Y233914D01*
X197923Y233904D01*
X197180Y233468D01*
X197165Y233461D01*
X197151Y233451D01*
X197151Y233451D01*
X196822Y233303D01*
X196791Y233292D01*
X196791Y233292D01*
X196791Y233292D01*
X196699Y233262D01*
X196017Y233038D01*
X196791Y233292D01*
X196017Y233038D01*
D01*
D01*
X195972Y233023D01*
X195971Y233023D01*
X195956Y233019D01*
X195940Y233013D01*
X195764Y232977D01*
X195588Y232938D01*
X195575Y232936D01*
X195555Y232934D01*
X195554Y232934D01*
X194698Y232844D01*
X194593Y232843D01*
X194488Y232833D01*
X155118D01*
X155013Y232843D01*
X154908Y232844D01*
X154482Y232889D01*
X154052Y232934D01*
Y232934D01*
X154020Y232938D01*
X153666Y233013D01*
X153636Y233023D01*
X153227Y233157D01*
X152818Y233291D01*
X152804Y233296D01*
X152788Y233301D01*
X152457Y233450D01*
X152445Y233459D01*
X152430Y233466D01*
X152348Y233514D01*
X151687Y233901D01*
X151687D01*
X151674Y233910D01*
X151660Y233917D01*
X151515Y234026D01*
X151368Y234132D01*
X151357Y234143D01*
X151345Y234153D01*
X151286Y234207D01*
X109333Y234209D01*
X69436Y234211D01*
X68974Y234136D01*
X68684Y233921D01*
X68684Y233921D01*
X68669Y233914D01*
X68655Y233904D01*
X67912Y233468D01*
X67897Y233461D01*
X67895Y233459D01*
X67897Y233461D01*
X67912Y233468D01*
X67897Y233461D01*
X67883Y233451D01*
X67718Y233379D01*
X67555Y233303D01*
X67523Y233292D01*
X67523Y233292D01*
X67101Y233154D01*
X66705Y233023D01*
X66692Y233019D01*
X66673Y233013D01*
X66320Y232938D01*
X66287Y232934D01*
X66287Y232934D01*
X65430Y232844D01*
X65325Y232843D01*
X65220Y232833D01*
X25850D01*
X25745Y232843D01*
X25640Y232844D01*
X25214Y232889D01*
X24784Y232934D01*
Y232934D01*
X24753Y232938D01*
X24398Y233013D01*
X24368Y233023D01*
X23550Y233291D01*
X23536Y233298D01*
X23520Y233301D01*
X23356Y233377D01*
X23190Y233450D01*
X23177Y233459D01*
X23162Y233466D01*
X22419Y233901D01*
X22419D01*
X22407Y233910D01*
X22392Y233917D01*
X22247Y234026D01*
X22392Y233917D01*
X22407Y233910D01*
X22419Y233901D01*
X22407Y233910D01*
X22392Y233917D01*
X22247Y234026D01*
X22100Y234132D01*
X22090Y234143D01*
X22077Y234153D01*
X22090Y234143D01*
X22090D01*
X22077Y234153D01*
X22077D01*
X22018Y234207D01*
X2363Y234210D01*
X2010Y233857D01*
X2010Y209379D01*
Y209017D01*
Y209000D01*
Y208504D01*
Y196800D01*
Y191782D01*
D01*
Y192243D01*
Y191131D01*
Y188972D01*
X2010Y143742D01*
X24016D01*
X24127Y143731D01*
X24238Y143729D01*
X24589Y143690D01*
X24617Y143684D01*
X24646Y143683D01*
X24810Y143644D01*
X24974Y143609D01*
X25001Y143597D01*
X25029Y143591D01*
X25001Y143597D01*
X24974Y143609D01*
X25001Y143597D01*
X25029Y143591D01*
X25362Y143474D01*
X25388Y143462D01*
X25416Y143455D01*
X25388Y143462D01*
D01*
X25416Y143455D01*
X25566Y143379D01*
X25719Y143309D01*
X25742Y143292D01*
X25768Y143279D01*
X26067Y143091D01*
X26090Y143074D01*
X26115Y143060D01*
X26245Y142953D01*
X26378Y142850D01*
X26245Y142953D01*
D01*
X26378Y142850D01*
X26397Y142829D01*
X26419Y142810D01*
X26669Y142561D01*
X26687Y142539D01*
X26708Y142520D01*
X26812Y142387D01*
X26919Y142256D01*
X26932Y142231D01*
X26950Y142209D01*
X27137Y141910D01*
X27150Y141884D01*
X27167Y141861D01*
X27238Y141708D01*
X27313Y141557D01*
X27321Y141529D01*
X27333Y141503D01*
X27449Y141170D01*
X27456Y141142D01*
X27467Y141116D01*
X27502Y140951D01*
X27542Y140787D01*
X27543Y140759D01*
X27549Y140731D01*
X27588Y140380D01*
X27589Y140269D01*
X27600Y140157D01*
X27600Y56693D01*
X27589Y56582D01*
X27588Y56470D01*
X27549Y56120D01*
X27543Y56091D01*
X27542Y56063D01*
X27502Y55899D01*
X27467Y55734D01*
X27456Y55708D01*
X27449Y55680D01*
X27333Y55347D01*
X27321Y55321D01*
X27313Y55293D01*
X27238Y55142D01*
X27167Y54989D01*
X27150Y54966D01*
X27137Y54941D01*
X27002Y54725D01*
X26950Y54642D01*
X26932Y54619D01*
X26919Y54594D01*
X26919Y54594D01*
X26709Y54330D01*
X26709Y54330D01*
X26687Y54312D01*
X26669Y54289D01*
X26687Y54312D01*
X26709Y54330D01*
X26687Y54312D01*
X26669Y54289D01*
X26419Y54040D01*
X26397Y54022D01*
X26378Y54000D01*
X26245Y53897D01*
X26115Y53790D01*
X26089Y53776D01*
X26067Y53759D01*
X25768Y53571D01*
X25742Y53559D01*
X25719Y53542D01*
X25566Y53471D01*
D01*
X25415Y53396D01*
X25369Y53379D01*
D01*
X25362Y53376D01*
X25029Y53260D01*
X25008Y53253D01*
X24974Y53242D01*
X24646Y53167D01*
X24625Y53164D01*
X24589Y53160D01*
X24238Y53121D01*
X24127Y53119D01*
D01*
X24016Y53108D01*
X2010D01*
Y2010D01*
X217331Y2010D01*
X118110Y2010D01*
X234211Y2010D01*
Y2681D01*
D01*
Y3056D01*
Y3681D01*
D01*
Y3780D01*
Y4347D01*
D01*
Y4580D01*
Y4646D01*
D01*
Y4804D01*
Y5353D01*
D01*
Y5353D01*
Y6261D01*
Y7457D01*
Y8773D01*
Y11717D01*
Y11717D01*
Y11782D01*
Y15380D01*
D01*
Y15567D01*
Y16939D01*
D01*
Y16994D01*
Y18460D01*
Y20017D01*
D01*
Y20531D01*
Y20900D01*
Y24681D01*
D01*
Y25380D01*
Y26830D01*
D01*
Y27888D01*
X234211Y29532D01*
D01*
Y29566D01*
Y30894D01*
D01*
Y30982D01*
Y31681D01*
D01*
Y31803D01*
Y32360D01*
D01*
Y32874D01*
Y33481D01*
D01*
Y33656D01*
Y33869D01*
Y37094D01*
D01*
Y37720D01*
Y38560D01*
D01*
Y39074D01*
Y39468D01*
Y44753D01*
Y44897D01*
Y45291D01*
Y45618D01*
D01*
Y45824D01*
Y45991D01*
Y46012D01*
Y46600D01*
Y48507D01*
Y48278D01*
Y48205D01*
D01*
Y50082D01*
Y49978D01*
D01*
Y50082D01*
Y53607D01*
Y53748D01*
Y56259D01*
D01*
Y56433D01*
Y56470D01*
Y61465D01*
D01*
Y61979D01*
Y62393D01*
Y69865D01*
Y70456D01*
X234211Y118110D01*
Y119344D01*
X233711Y119444D01*
X233616Y119215D01*
X233222Y118822D01*
X232708Y118608D01*
X232151D01*
X231636Y118822D01*
X231242Y119215D01*
X231029Y119730D01*
Y120287D01*
X231242Y120801D01*
X231636Y121195D01*
X232151Y121408D01*
X232708D01*
X233222Y121195D01*
X233616Y120801D01*
X233711Y120573D01*
X234211Y120673D01*
Y122857D01*
X233711Y122957D01*
X233616Y122728D01*
X233222Y122334D01*
X232708Y122121D01*
X232151D01*
X231636Y122334D01*
X231242Y122728D01*
X231029Y123243D01*
Y123800D01*
X231242Y124314D01*
X231636Y124708D01*
X232151Y124921D01*
X232708D01*
X233222Y124708D01*
X233616Y124314D01*
X233711Y124086D01*
X234211Y124185D01*
Y129917D01*
X233711Y130107D01*
X233452Y129849D01*
X232937Y129635D01*
X232380D01*
X231866Y129849D01*
X231472Y130242D01*
X231259Y130757D01*
Y131314D01*
X231472Y131828D01*
X231866Y132222D01*
X232380Y132435D01*
X232937D01*
X233452Y132222D01*
X233711Y131963D01*
X234211Y132154D01*
X234211Y234211D01*
D02*
G37*
G36*
X197151Y233451D02*
X196986Y233379D01*
X196822Y233303D01*
X196806Y233299D01*
X196791Y233292D01*
X196806Y233299D01*
X196822Y233303D01*
X196986Y233379D01*
X197151Y233451D01*
D02*
G37*
G36*
X67555Y233303D02*
X67538Y233299D01*
X67523Y233292D01*
X67538Y233299D01*
X67555Y233303D01*
D02*
G37*
G36*
X23536Y233298D02*
D01*
X23550Y233291D01*
X23536Y233298D01*
D02*
G37*
G36*
X153636Y233023D02*
X153651Y233020D01*
X153666Y233013D01*
X153651Y233020D01*
X153636Y233023D01*
D02*
G37*
G36*
X24368Y233023D02*
X24384Y233020D01*
X24398Y233013D01*
X24384Y233020D01*
X24368Y233023D01*
D02*
G37*
G36*
X66705Y233023D02*
X66688Y233020D01*
X66673Y233013D01*
X66688Y233020D01*
X66705Y233023D01*
D02*
G37*
G36*
X24576Y232977D02*
D01*
X24753Y232938D01*
X24576Y232977D01*
D02*
G37*
G36*
X24753Y232938D02*
X24769Y232937D01*
X24784Y232934D01*
X24769Y232937D01*
X24753Y232938D01*
D02*
G37*
G36*
X66320Y232938D02*
X66303Y232937D01*
X66287Y232934D01*
X66303Y232937D01*
X66320Y232938D01*
D02*
G37*
G36*
X2010Y207946D02*
Y207878D01*
D01*
Y207946D01*
D02*
G37*
G36*
Y207701D02*
Y207432D01*
D01*
Y207701D01*
D02*
G37*
G36*
Y207187D02*
Y207186D01*
D01*
Y207187D01*
D02*
G37*
G36*
Y207038D02*
Y206825D01*
D01*
Y207038D01*
D02*
G37*
G36*
Y206413D02*
Y206200D01*
D01*
Y206413D01*
D02*
G37*
G36*
Y205144D02*
Y204949D01*
D01*
Y205144D01*
D02*
G37*
G36*
Y204529D02*
Y204473D01*
D01*
Y204529D01*
D02*
G37*
G36*
Y204392D02*
Y204235D01*
D01*
Y204392D01*
D02*
G37*
G36*
Y204098D02*
Y204055D01*
D01*
Y204098D01*
D02*
G37*
G36*
Y189900D02*
Y189687D01*
D01*
Y189900D01*
D02*
G37*
G36*
Y187313D02*
Y187100D01*
D01*
Y187313D01*
D02*
G37*
G36*
Y186833D02*
Y186181D01*
D01*
Y186833D01*
D02*
G37*
G36*
Y185500D02*
Y185487D01*
D01*
Y185500D01*
D02*
G37*
G36*
Y182913D02*
Y182900D01*
D01*
Y182913D01*
D02*
G37*
G36*
Y182122D02*
Y181782D01*
D01*
Y182122D01*
D02*
G37*
G36*
Y181028D02*
Y181000D01*
D01*
Y181028D01*
D02*
G37*
G36*
Y166153D02*
Y166153D01*
D01*
Y166153D01*
D02*
G37*
G36*
Y165605D02*
Y165446D01*
D01*
Y165605D01*
D02*
G37*
G36*
Y165446D02*
Y165381D01*
D01*
Y165446D01*
D02*
G37*
G36*
X2010Y160293D02*
Y159778D01*
D01*
Y160293D01*
D02*
G37*
G36*
Y158707D02*
Y158625D01*
D01*
Y158707D01*
D02*
G37*
G36*
Y158232D02*
Y157717D01*
D01*
Y158232D01*
D02*
G37*
G36*
Y156252D02*
Y156039D01*
D01*
Y156252D01*
D02*
G37*
G36*
Y149644D02*
Y148898D01*
D01*
Y149644D01*
D02*
G37*
G36*
Y147776D02*
Y147219D01*
D01*
Y147776D01*
D02*
G37*
G36*
Y146705D02*
Y146311D01*
D01*
Y146705D01*
D02*
G37*
G36*
X26950Y54642D02*
X26932Y54619D01*
X26919Y54594D01*
X26932Y54619D01*
X26950Y54642D01*
D02*
G37*
G36*
X24646Y53167D02*
X24617Y53166D01*
X24589Y53160D01*
X24617Y53166D01*
X24646Y53167D01*
D02*
G37*
%LPD*%
G36*
X228811Y233041D02*
X229960Y232565D01*
X230994Y231874D01*
X231874Y230994D01*
X232565Y229960D01*
X233041Y228811D01*
X233283Y227590D01*
Y226346D01*
X233041Y225127D01*
X232565Y223977D01*
X231874Y222943D01*
X230994Y222063D01*
X229960Y221372D01*
X228811Y220896D01*
X227590Y220654D01*
X226346D01*
X225127Y220896D01*
X223977Y221372D01*
X222943Y222063D01*
X222063Y222943D01*
X221372Y223977D01*
X220896Y225127D01*
X220654Y226346D01*
Y227590D01*
X220896Y228811D01*
X221372Y229960D01*
X222063Y230994D01*
X222943Y231874D01*
X223977Y232565D01*
X225127Y233041D01*
X226346Y233283D01*
X227590D01*
X228811Y233041D01*
D02*
G37*
G36*
X11094D02*
X12243Y232565D01*
X13277Y231874D01*
X14157Y230994D01*
X14848Y229960D01*
X15324Y228811D01*
X15567Y227590D01*
Y226346D01*
X15324Y225127D01*
X14848Y223977D01*
X14157Y222943D01*
X13277Y222063D01*
X12243Y221372D01*
X11094Y220896D01*
X9874Y220654D01*
X8630D01*
X7410Y220896D01*
X6261Y221372D01*
X5226Y222063D01*
X4347Y222943D01*
X3656Y223977D01*
X3180Y225127D01*
X2937Y226346D01*
Y227590D01*
X3180Y228811D01*
X3656Y229960D01*
X4347Y230994D01*
X5226Y231874D01*
X6261Y232565D01*
X7410Y233041D01*
X8630Y233283D01*
X9874D01*
X11094Y233041D01*
D02*
G37*
G36*
X144067Y222370D02*
X144461Y221976D01*
X144674Y221462D01*
Y220905D01*
X144461Y220390D01*
X144067Y219997D01*
X143552Y219783D01*
X142995D01*
X142481Y219997D01*
X142087Y220390D01*
X141874Y220905D01*
Y221462D01*
X142087Y221976D01*
X142481Y222370D01*
X142995Y222584D01*
X143552D01*
X144067Y222370D01*
D02*
G37*
G36*
X116593Y220699D02*
X116987Y220305D01*
X117200Y219791D01*
Y219234D01*
X116987Y218719D01*
X116593Y218325D01*
X116078Y218112D01*
X115522D01*
X115007Y218325D01*
X114613Y218719D01*
X114400Y219234D01*
Y219791D01*
X114613Y220305D01*
X115007Y220699D01*
X115522Y220912D01*
X116078D01*
X116593Y220699D01*
D02*
G37*
G36*
X123993Y218429D02*
X124387Y218035D01*
X124600Y217520D01*
Y216963D01*
X124387Y216449D01*
X123993Y216055D01*
X123478Y215842D01*
X122922D01*
X122407Y216055D01*
X122013Y216449D01*
X121800Y216963D01*
Y217520D01*
X122013Y218035D01*
X122407Y218429D01*
X122922Y218642D01*
X123478D01*
X123993Y218429D01*
D02*
G37*
G36*
X88033Y217440D02*
X88427Y217046D01*
X88640Y216531D01*
Y215974D01*
X88427Y215460D01*
X88033Y215066D01*
X87518Y214853D01*
X86961D01*
X86447Y215066D01*
X86053Y215460D01*
X85840Y215974D01*
Y216531D01*
X86053Y217046D01*
X86447Y217440D01*
X86961Y217653D01*
X87518D01*
X88033Y217440D01*
D02*
G37*
G36*
X2010Y213775D02*
D01*
Y213988D01*
Y213775D01*
D02*
G37*
G36*
X2010Y211843D02*
D01*
Y212056D01*
Y211843D01*
D02*
G37*
G36*
X127443Y213775D02*
X127837Y213381D01*
X128050Y212867D01*
Y212310D01*
X127837Y211795D01*
X127443Y211401D01*
X126929Y211188D01*
X126372D01*
X125857Y211401D01*
X125463Y211795D01*
X125250Y212310D01*
Y212867D01*
X125463Y213381D01*
X125857Y213775D01*
X126372Y213988D01*
X126929D01*
X127443Y213775D01*
D02*
G37*
G36*
X2010Y210934D02*
D01*
Y211401D01*
Y210934D01*
D02*
G37*
G36*
Y209412D02*
D01*
Y209469D01*
Y209412D01*
D02*
G37*
G36*
X67478Y211843D02*
X67872Y211449D01*
X68085Y210934D01*
Y210377D01*
X67872Y209863D01*
X67478Y209469D01*
X66963Y209256D01*
X66406D01*
X65892Y209469D01*
X65498Y209863D01*
X65285Y210377D01*
Y210934D01*
X65498Y211449D01*
X65892Y211843D01*
X66406Y212056D01*
X66963D01*
X67478Y211843D01*
D02*
G37*
G36*
X101416Y209412D02*
X101792Y209036D01*
X101820Y209017D01*
X102374Y208964D01*
X102576Y209166D01*
X103091Y209379D01*
X103648D01*
X104162Y209166D01*
X104556Y208772D01*
X104769Y208258D01*
Y207701D01*
X104556Y207186D01*
X104162Y206792D01*
X103648Y206579D01*
X103091D01*
X102576Y206792D01*
X102200Y207169D01*
X102172Y207187D01*
X101619Y207240D01*
X101416Y207038D01*
X100902Y206825D01*
X100345D01*
X99830Y207038D01*
X99436Y207432D01*
X99223Y207946D01*
Y208504D01*
X99436Y209018D01*
X99830Y209412D01*
X100345Y209625D01*
X100902D01*
X101416Y209412D01*
D02*
G37*
G36*
X221143Y208787D02*
X221537Y208393D01*
X221750Y207878D01*
Y207322D01*
X221537Y206807D01*
X221143Y206413D01*
X220628Y206200D01*
X220072D01*
X219557Y206413D01*
X219163Y206807D01*
X218950Y207322D01*
Y207878D01*
X219163Y208393D01*
X219557Y208787D01*
X220072Y209000D01*
X220628D01*
X221143Y208787D01*
D02*
G37*
G36*
X104593Y205857D02*
X104987Y205464D01*
X105200Y204949D01*
Y204392D01*
X104987Y203878D01*
X104593Y203484D01*
X104078Y203271D01*
X103522D01*
X103007Y203484D01*
X102613Y203878D01*
X102522Y204098D01*
X102498Y204154D01*
X101998Y204055D01*
X101998Y203983D01*
Y203678D01*
X101785Y203164D01*
X101392Y202770D01*
X100877Y202557D01*
X100320D01*
X99805Y202770D01*
X99412Y203164D01*
X99199Y203678D01*
Y204235D01*
X99412Y204750D01*
X99805Y205144D01*
X100320Y205357D01*
X100877D01*
X101392Y205144D01*
X101785Y204750D01*
X101877Y204529D01*
X101900Y204473D01*
X102400Y204573D01*
X102400Y204645D01*
Y204949D01*
X102613Y205464D01*
X103007Y205857D01*
X103522Y206071D01*
X104078D01*
X104593Y205857D01*
D02*
G37*
G36*
X2010Y203271D02*
D01*
Y203484D01*
Y203271D01*
D02*
G37*
G36*
X7193Y201647D02*
X7587Y201254D01*
X7800Y200739D01*
Y200182D01*
X7587Y199668D01*
X7193Y199274D01*
X6679Y199061D01*
X6121D01*
X5607Y199274D01*
X5213Y199668D01*
X5000Y200182D01*
Y200739D01*
X5213Y201254D01*
X5607Y201647D01*
X6121Y201861D01*
X6679D01*
X7193Y201647D01*
D02*
G37*
G36*
X15287Y201385D02*
X15681Y200991D01*
X15894Y200477D01*
Y199920D01*
X15681Y199405D01*
X15287Y199011D01*
X14773Y198798D01*
X14216D01*
X13701Y199011D01*
X13307Y199405D01*
X13094Y199920D01*
Y200477D01*
X13307Y200991D01*
X13701Y201385D01*
X14216Y201598D01*
X14773D01*
X15287Y201385D01*
D02*
G37*
G36*
X207393Y199387D02*
X207787Y198993D01*
X208000Y198478D01*
Y197922D01*
X207787Y197407D01*
X207393Y197013D01*
X206878Y196800D01*
X206322D01*
X205807Y197013D01*
X205413Y197407D01*
X205200Y197922D01*
Y198478D01*
X205413Y198993D01*
X205807Y199387D01*
X206322Y199600D01*
X206878D01*
X207393Y199387D01*
D02*
G37*
G36*
X212102Y189687D02*
X212495Y189293D01*
X212709Y188778D01*
Y188222D01*
X212495Y187707D01*
X212102Y187313D01*
X211587Y187100D01*
X211030D01*
X210516Y187313D01*
X210122Y187707D01*
X209909Y188222D01*
Y188778D01*
X210122Y189293D01*
X210516Y189687D01*
X211030Y189900D01*
X211587D01*
X212102Y189687D01*
D02*
G37*
G36*
X86651Y192243D02*
X87449Y191782D01*
X88101Y191131D01*
X88561Y190333D01*
X88800Y189443D01*
Y188521D01*
X88561Y187631D01*
X88101Y186833D01*
X87449Y186181D01*
X86651Y185720D01*
X85761Y185482D01*
X84839D01*
X83949Y185720D01*
X83151Y186181D01*
X82499Y186833D01*
X82038Y187631D01*
X81800Y188521D01*
Y189443D01*
X82038Y190333D01*
X82499Y191131D01*
X83151Y191782D01*
X83949Y192243D01*
X84839Y192482D01*
X85761D01*
X86651Y192243D01*
D02*
G37*
G36*
X102093Y185487D02*
X102487Y185093D01*
X102700Y184579D01*
Y184021D01*
X102487Y183507D01*
X102093Y183113D01*
X101578Y182900D01*
X101022D01*
X100507Y183113D01*
X100113Y183507D01*
X99900Y184021D01*
Y184579D01*
X100113Y185093D01*
X100507Y185487D01*
X101022Y185700D01*
X101578D01*
X102093Y185487D01*
D02*
G37*
G36*
X17893D02*
X18287Y185093D01*
X18500Y184579D01*
Y184021D01*
X18287Y183507D01*
X17893Y183113D01*
X17379Y182900D01*
X16822D01*
X16307Y183113D01*
X15913Y183507D01*
X15700Y184021D01*
Y184579D01*
X15913Y185093D01*
X16307Y185487D01*
X16822Y185700D01*
X17379D01*
X17893Y185487D01*
D02*
G37*
G36*
X123993Y185287D02*
X124387Y184893D01*
X124600Y184379D01*
Y183821D01*
X124387Y183307D01*
X123993Y182913D01*
X123478Y182700D01*
X122922D01*
X122407Y182913D01*
X122013Y183307D01*
X121800Y183821D01*
Y184379D01*
X122013Y184893D01*
X122407Y185287D01*
X122922Y185500D01*
X123478D01*
X123993Y185287D01*
D02*
G37*
G36*
X67193Y183587D02*
X67587Y183193D01*
X67800Y182678D01*
Y182122D01*
X67587Y181607D01*
X67193Y181213D01*
X66679Y181000D01*
X66122D01*
X65607Y181213D01*
X65213Y181607D01*
X65000Y182122D01*
Y182678D01*
X65213Y183193D01*
X65607Y183587D01*
X66122Y183800D01*
X66679D01*
X67193Y183587D01*
D02*
G37*
G36*
X26641Y180815D02*
X27035Y180421D01*
X27248Y179907D01*
Y179350D01*
X27035Y178835D01*
X26641Y178442D01*
X26127Y178228D01*
X25570D01*
X25055Y178442D01*
X24661Y178835D01*
X24136D01*
X23743Y178442D01*
X23228Y178228D01*
X22671D01*
X22157Y178442D01*
X21763Y178835D01*
X21550Y179350D01*
Y179907D01*
X21763Y180421D01*
X22157Y180815D01*
X22671Y181028D01*
X23228D01*
X23743Y180815D01*
X24136Y180421D01*
X24661D01*
X25055Y180815D01*
X25570Y181028D01*
X26127D01*
X26641Y180815D01*
D02*
G37*
G36*
X211474Y182068D02*
X211868Y181674D01*
X212081Y181159D01*
Y180602D01*
X211868Y180088D01*
X211474Y179694D01*
X210959Y179481D01*
X210402D01*
X209888Y179694D01*
X209494Y180088D01*
X209281Y180602D01*
Y181159D01*
X209494Y181674D01*
X209888Y182068D01*
X210402Y182281D01*
X210959D01*
X211474Y182068D01*
D02*
G37*
G36*
X67175Y180169D02*
X67569Y179775D01*
X67782Y179260D01*
Y178703D01*
X67569Y178189D01*
X67175Y177795D01*
X66660Y177582D01*
X66103D01*
X65589Y177795D01*
X65195Y178189D01*
X64982Y178703D01*
Y179260D01*
X65195Y179775D01*
X65589Y180169D01*
X66103Y180382D01*
X66660D01*
X67175Y180169D01*
D02*
G37*
G36*
X32426Y178417D02*
X32820Y178023D01*
X33033Y177509D01*
Y176952D01*
X32820Y176437D01*
X32426Y176043D01*
X31912Y175830D01*
X31354D01*
X30840Y176043D01*
X30446Y176437D01*
X30233Y176952D01*
Y177509D01*
X30446Y178023D01*
X30840Y178417D01*
X31354Y178630D01*
X31912D01*
X32426Y178417D01*
D02*
G37*
G36*
X86651Y182243D02*
X87449Y181782D01*
X88101Y181131D01*
X88561Y180333D01*
X88800Y179443D01*
Y178521D01*
X88561Y177631D01*
X88101Y176833D01*
X87449Y176181D01*
X86651Y175720D01*
X85761Y175482D01*
X84839D01*
X83949Y175720D01*
X83151Y176181D01*
X82499Y176833D01*
X82038Y177631D01*
X81800Y178521D01*
Y179443D01*
X82038Y180333D01*
X82499Y181131D01*
X83151Y181782D01*
X83949Y182243D01*
X84839Y182482D01*
X85761D01*
X86651Y182243D01*
D02*
G37*
G36*
X158193Y175587D02*
X158587Y175193D01*
X158800Y174679D01*
Y174121D01*
X158587Y173607D01*
X158193Y173213D01*
X157678Y173000D01*
X157122D01*
X156607Y173213D01*
X156213Y173607D01*
X156000Y174121D01*
Y174679D01*
X156213Y175193D01*
X156607Y175587D01*
X157122Y175800D01*
X157678D01*
X158193Y175587D01*
D02*
G37*
G36*
X87423Y174107D02*
X88677Y173383D01*
X88836Y173224D01*
X88128Y172517D01*
X88063Y172583D01*
X87037Y173175D01*
X85892Y173482D01*
X84708D01*
X83563Y173175D01*
X82537Y172583D01*
X82472Y172517D01*
X81765Y173224D01*
X81923Y173383D01*
X83177Y174107D01*
X84576Y174482D01*
X86024D01*
X87423Y174107D01*
D02*
G37*
G36*
X81765Y171810D02*
X81699Y171745D01*
X81107Y170719D01*
X80800Y169574D01*
Y168389D01*
X81107Y167245D01*
X81699Y166219D01*
X81765Y166153D01*
X81057Y165446D01*
X80899Y165605D01*
X80175Y166859D01*
X79800Y168258D01*
Y169706D01*
X80175Y171105D01*
X80899Y172359D01*
X81057Y172517D01*
X81765Y171810D01*
D02*
G37*
G36*
X89701Y172359D02*
X90425Y171105D01*
X90800Y169706D01*
Y168258D01*
X90425Y166859D01*
X89701Y165605D01*
X89543Y165446D01*
X88836Y166153D01*
X88901Y166219D01*
X89493Y167245D01*
X89800Y168389D01*
Y169574D01*
X89493Y170719D01*
X88901Y171745D01*
X88836Y171810D01*
X89543Y172517D01*
X89701Y172359D01*
D02*
G37*
G36*
X82537Y165381D02*
X83563Y164788D01*
X84708Y164482D01*
X85892D01*
X87037Y164788D01*
X88063Y165381D01*
X88128Y165446D01*
X88836Y164739D01*
X88677Y164581D01*
X87423Y163857D01*
X86024Y163482D01*
X84576D01*
X83177Y163857D01*
X81923Y164581D01*
X81764Y164739D01*
X82472Y165446D01*
X82537Y165381D01*
D02*
G37*
G36*
X51493Y160687D02*
X51887Y160293D01*
X52100Y159778D01*
Y159221D01*
X51887Y158707D01*
X51493Y158313D01*
X50978Y158100D01*
X50422D01*
X49907Y158313D01*
X49513Y158707D01*
X49300Y159221D01*
Y159778D01*
X49513Y160293D01*
X49907Y160687D01*
X50422Y160900D01*
X50978D01*
X51493Y160687D01*
D02*
G37*
G36*
X90599Y158625D02*
X90993Y158232D01*
X91206Y157717D01*
Y157160D01*
X90993Y156646D01*
X90599Y156252D01*
X90084Y156039D01*
X89527D01*
X89013Y156252D01*
X88619Y156646D01*
X88406Y157160D01*
Y157717D01*
X88619Y158232D01*
X89013Y158625D01*
X89527Y158839D01*
X90084D01*
X90599Y158625D01*
D02*
G37*
G36*
X80102Y153929D02*
X80496Y153535D01*
X80709Y153020D01*
Y152463D01*
X80496Y151949D01*
X80102Y151555D01*
X79588Y151342D01*
X79031D01*
X78516Y151555D01*
X78122Y151949D01*
X77909Y152463D01*
Y153020D01*
X78122Y153535D01*
X78516Y153929D01*
X79031Y154142D01*
X79588D01*
X80102Y153929D01*
D02*
G37*
G36*
X97546Y152230D02*
X97940Y151837D01*
X98153Y151322D01*
Y150765D01*
X97940Y150250D01*
X97546Y149857D01*
X97032Y149644D01*
X96475D01*
X95960Y149857D01*
X95566Y150250D01*
X95353Y150765D01*
Y151322D01*
X95566Y151837D01*
X95960Y152230D01*
X96475Y152444D01*
X97032D01*
X97546Y152230D01*
D02*
G37*
G36*
X110957Y148685D02*
X111351Y148291D01*
X111564Y147776D01*
Y147219D01*
X111351Y146705D01*
X110957Y146311D01*
X110442Y146098D01*
X109885D01*
X109371Y146311D01*
X108977Y146705D01*
X108764Y147219D01*
Y147776D01*
X108977Y148291D01*
X109371Y148685D01*
X109885Y148898D01*
X110442D01*
X110957Y148685D01*
D02*
G37*
G36*
X25742Y143292D02*
X25768Y143279D01*
X25742Y143292D01*
X25719Y143309D01*
X25742Y143292D01*
D02*
G37*
G36*
X32547Y144698D02*
X32940Y144305D01*
X33154Y143790D01*
Y143233D01*
X32940Y142718D01*
X32547Y142325D01*
X32032Y142111D01*
X31475D01*
X30961Y142325D01*
X30567Y142718D01*
X30354Y143233D01*
Y143790D01*
X30567Y144305D01*
X30961Y144698D01*
X31475Y144911D01*
X32032D01*
X32547Y144698D01*
D02*
G37*
G36*
X104593Y143052D02*
X104987Y142658D01*
X105200Y142143D01*
Y141586D01*
X104987Y141072D01*
X104593Y140678D01*
X104078Y140465D01*
X103522D01*
X103007Y140678D01*
X102613Y141072D01*
X102400Y141586D01*
Y142143D01*
X102613Y142658D01*
X103007Y143052D01*
X103522Y143265D01*
X104078D01*
X104593Y143052D01*
D02*
G37*
G36*
X90599Y141969D02*
X90993Y141575D01*
X91206Y141061D01*
Y140504D01*
X90993Y139989D01*
X90599Y139595D01*
X90084Y139382D01*
X89527D01*
X89013Y139595D01*
X88619Y139989D01*
X88406Y140504D01*
Y141061D01*
X88619Y141575D01*
X89013Y141969D01*
X89527Y142182D01*
X90084D01*
X90599Y141969D01*
D02*
G37*
G36*
X70593Y141414D02*
X70987Y141021D01*
X71200Y140506D01*
Y139949D01*
X70987Y139434D01*
X70593Y139041D01*
X70078Y138828D01*
X69521D01*
X69007Y139041D01*
X68613Y139434D01*
X68400Y139949D01*
Y140506D01*
X68613Y141021D01*
X69007Y141414D01*
X69521Y141628D01*
X70078D01*
X70593Y141414D01*
D02*
G37*
G36*
X175816Y125581D02*
X176792Y125017D01*
X176837Y124972D01*
X176117Y124252D01*
X175430Y124649D01*
X174596Y124873D01*
X173732D01*
X172898Y124649D01*
X172150Y124217D01*
X171664Y123731D01*
X171178Y124217D01*
X170430Y124649D01*
X169596Y124873D01*
X168732D01*
X167898Y124649D01*
X167211Y124252D01*
X166491Y124972D01*
X166536Y125017D01*
X167512Y125581D01*
X168600Y125873D01*
X169728D01*
X170816Y125581D01*
X171664Y125091D01*
X172512Y125581D01*
X173600Y125873D01*
X174727D01*
X175816Y125581D01*
D02*
G37*
G36*
X160816D02*
X161792Y125017D01*
X161837Y124972D01*
X161117Y124252D01*
X160430Y124649D01*
X159596Y124873D01*
X158732D01*
X157898Y124649D01*
X157211Y124252D01*
X156491Y124972D01*
X156536Y125017D01*
X157512Y125581D01*
X158600Y125873D01*
X159728D01*
X160816Y125581D01*
D02*
G37*
G36*
X186146Y123218D02*
X186539Y122825D01*
X186753Y122310D01*
Y121753D01*
X186539Y121239D01*
X186146Y120845D01*
X185631Y120632D01*
X185074D01*
X184560Y120845D01*
X184166Y121239D01*
X183953Y121753D01*
Y122310D01*
X184166Y122825D01*
X184560Y123218D01*
X185074Y123432D01*
X185631D01*
X186146Y123218D01*
D02*
G37*
G36*
X156504Y123545D02*
X156107Y122859D01*
X155884Y122024D01*
Y121161D01*
X156107Y120326D01*
X156504Y119640D01*
X155784Y118920D01*
X155739Y118965D01*
X155176Y119940D01*
X154884Y121029D01*
Y122156D01*
X155176Y123245D01*
X155739Y124221D01*
X155784Y124265D01*
X156504Y123545D01*
D02*
G37*
G36*
X162589Y124221D02*
X162968Y123565D01*
X163710Y123872D01*
X164618D01*
X165360Y123565D01*
X165739Y124221D01*
X165784Y124265D01*
X166504Y123545D01*
X166107Y122859D01*
X165884Y122024D01*
Y121161D01*
X166107Y120326D01*
X166539Y119579D01*
X167150Y118968D01*
X167898Y118536D01*
X168732Y118313D01*
X169596D01*
X170430Y118536D01*
X171178Y118968D01*
X171664Y119454D01*
X172150Y118968D01*
X172898Y118536D01*
X173732Y118313D01*
X174596D01*
X175430Y118536D01*
X176178Y118968D01*
X176789Y119579D01*
X177220Y120326D01*
X177444Y121161D01*
Y122024D01*
X177220Y122859D01*
X176824Y123545D01*
X177544Y124265D01*
X177589Y124221D01*
X177968Y123565D01*
X178710Y123872D01*
X179618D01*
X180456Y123525D01*
X181097Y122884D01*
X181444Y122046D01*
Y121139D01*
X181097Y120301D01*
X180456Y119660D01*
X179690Y119343D01*
X179671Y119216D01*
Y118969D01*
X179690Y118842D01*
X180456Y118525D01*
X181097Y117884D01*
X181444Y117046D01*
Y116139D01*
X181097Y115301D01*
X180456Y114660D01*
X179618Y114313D01*
X178710D01*
X177873Y114660D01*
X177231Y115301D01*
X176914Y116067D01*
X176788Y116086D01*
X176540D01*
X176414Y116067D01*
X176097Y115301D01*
X175455Y114660D01*
X174618Y114313D01*
X173711D01*
X172872Y114660D01*
X172231Y115301D01*
X171914Y116067D01*
X171788Y116086D01*
X171540D01*
X171414Y116067D01*
X171097Y115301D01*
X170456Y114660D01*
X169617Y114313D01*
X168710D01*
X167873Y114660D01*
X167231Y115301D01*
X166914Y116067D01*
X166788Y116086D01*
X166540D01*
X166414Y116067D01*
X166097Y115301D01*
X165455Y114660D01*
X164618Y114313D01*
X163710D01*
X162873Y114660D01*
X162231Y115301D01*
X161914Y116067D01*
X161788Y116086D01*
X161540D01*
X161414Y116067D01*
X161097Y115301D01*
X160456Y114660D01*
X159617Y114313D01*
X158711D01*
X157872Y114660D01*
X157231Y115301D01*
X156884Y116139D01*
Y117046D01*
X157192Y117789D01*
X156536Y118168D01*
X156491Y118213D01*
X157211Y118933D01*
X157898Y118536D01*
X158732Y118313D01*
X159596D01*
X160430Y118536D01*
X161178Y118968D01*
X161789Y119579D01*
X162221Y120326D01*
X162444Y121161D01*
Y122024D01*
X162221Y122859D01*
X161824Y123545D01*
X162544Y124265D01*
X162589Y124221D01*
D02*
G37*
G36*
X158630Y106842D02*
X159023Y106448D01*
X159237Y105933D01*
Y105377D01*
X159023Y104862D01*
X158630Y104468D01*
X158115Y104255D01*
X157558D01*
X157044Y104468D01*
X156650Y104862D01*
X156437Y105377D01*
Y105933D01*
X156650Y106448D01*
X157044Y106842D01*
X157558Y107055D01*
X158115D01*
X158630Y106842D01*
D02*
G37*
G36*
X148581Y103448D02*
X148974Y103054D01*
X149188Y102540D01*
Y101983D01*
X148974Y101468D01*
X148581Y101075D01*
X148066Y100861D01*
X147509D01*
X146994Y101075D01*
X146601Y101468D01*
X146388Y101983D01*
Y102540D01*
X146601Y103054D01*
X146994Y103448D01*
X147509Y103661D01*
X148066D01*
X148581Y103448D01*
D02*
G37*
G36*
X172808Y102091D02*
X173202Y101697D01*
X173415Y101182D01*
Y100626D01*
X173202Y100111D01*
X172808Y99717D01*
X172293Y99504D01*
X171736D01*
X171222Y99717D01*
X170828Y100111D01*
X170615Y100626D01*
Y101182D01*
X170828Y101697D01*
X171222Y102091D01*
X171736Y102304D01*
X172293D01*
X172808Y102091D01*
D02*
G37*
G36*
X153368Y101390D02*
X153762Y100996D01*
X153975Y100481D01*
Y99924D01*
X153762Y99410D01*
X153368Y99016D01*
X152853Y98803D01*
X152296D01*
X151782Y99016D01*
X151388Y99410D01*
X151175Y99924D01*
Y100481D01*
X151388Y100996D01*
X151782Y101390D01*
X152296Y101603D01*
X152853D01*
X153368Y101390D01*
D02*
G37*
G36*
X179195Y99870D02*
X179589Y99476D01*
X179802Y98962D01*
Y98405D01*
X179589Y97890D01*
X179195Y97497D01*
X178680Y97284D01*
X178123D01*
X177609Y97497D01*
X177215Y97890D01*
X177002Y98405D01*
Y98962D01*
X177215Y99476D01*
X177609Y99870D01*
X178123Y100083D01*
X178680D01*
X179195Y99870D01*
D02*
G37*
G36*
X189293Y92687D02*
X189687Y92293D01*
X189900Y91778D01*
Y91221D01*
X189687Y90707D01*
X189293Y90313D01*
X188778Y90100D01*
X188222D01*
X187707Y90313D01*
X187313Y90707D01*
X187100Y91221D01*
Y91778D01*
X187313Y92293D01*
X187707Y92687D01*
X188222Y92900D01*
X188778D01*
X189293Y92687D01*
D02*
G37*
G36*
X193610Y96806D02*
X194003Y96412D01*
X194217Y95897D01*
Y95340D01*
X194003Y94826D01*
X193781Y94603D01*
X193654Y94303D01*
X193773Y93958D01*
X193981Y93750D01*
X194194Y93235D01*
Y92678D01*
X193981Y92164D01*
X193661Y91844D01*
X193604Y91611D01*
X193641Y91251D01*
X193934Y90959D01*
X194147Y90444D01*
Y89887D01*
X193934Y89373D01*
X193540Y88979D01*
X193026Y88766D01*
X192469D01*
X191954Y88979D01*
X191560Y89373D01*
X191347Y89887D01*
Y90444D01*
X191560Y90959D01*
X191880Y91279D01*
X191937Y91511D01*
X191900Y91871D01*
X191607Y92164D01*
X191394Y92678D01*
Y93235D01*
X191607Y93750D01*
X191830Y93972D01*
X191956Y94273D01*
X191838Y94617D01*
X191630Y94826D01*
X191417Y95340D01*
Y95897D01*
X191630Y96412D01*
X192024Y96806D01*
X192538Y97019D01*
X193095D01*
X193610Y96806D01*
D02*
G37*
G36*
X202674Y78718D02*
X203068Y78325D01*
X203281Y77810D01*
Y77253D01*
X203068Y76739D01*
X202674Y76345D01*
X202160Y76131D01*
X201603D01*
X201088Y76345D01*
X200694Y76739D01*
X200481Y77253D01*
Y77810D01*
X200694Y78325D01*
X201088Y78718D01*
X201603Y78931D01*
X202160D01*
X202674Y78718D01*
D02*
G37*
G36*
X202498Y75016D02*
X202892Y74623D01*
X203105Y74108D01*
Y73551D01*
X202892Y73036D01*
X202498Y72643D01*
X201983Y72430D01*
X201426D01*
X200912Y72643D01*
X200518Y73036D01*
X200305Y73551D01*
Y74108D01*
X200518Y74623D01*
X200912Y75016D01*
X201426Y75230D01*
X201983D01*
X202498Y75016D01*
D02*
G37*
G36*
X153822Y74036D02*
X154216Y73642D01*
X154429Y73128D01*
Y72571D01*
X154216Y72056D01*
X153822Y71663D01*
X153308Y71449D01*
X152751D01*
X152236Y71663D01*
X151842Y72056D01*
X151629Y72571D01*
Y73128D01*
X151842Y73642D01*
X152236Y74036D01*
X152751Y74249D01*
X153308D01*
X153822Y74036D01*
D02*
G37*
G36*
X202393Y71364D02*
X202787Y70970D01*
X203000Y70456D01*
Y69899D01*
X202787Y69384D01*
X202393Y68990D01*
X201878Y68777D01*
X201322D01*
X200807Y68990D01*
X200413Y69384D01*
X200200Y69899D01*
Y70456D01*
X200413Y70970D01*
X200807Y71364D01*
X201322Y71577D01*
X201878D01*
X202393Y71364D01*
D02*
G37*
G36*
X164606Y70774D02*
X165000Y70380D01*
X165213Y69865D01*
Y69308D01*
X165000Y68794D01*
X164606Y68400D01*
X164092Y68187D01*
X163535D01*
X163020Y68400D01*
X162627Y68794D01*
X162413Y69308D01*
Y69865D01*
X162627Y70380D01*
X163020Y70774D01*
X163535Y70987D01*
X164092D01*
X164606Y70774D01*
D02*
G37*
G36*
X136693Y67453D02*
X137087Y67059D01*
X137300Y66544D01*
Y65987D01*
X137087Y65473D01*
X136693Y65079D01*
X136179Y64866D01*
X135622D01*
X135107Y65079D01*
X134713Y65473D01*
X134500Y65987D01*
Y66544D01*
X134713Y67059D01*
X135107Y67453D01*
X135622Y67666D01*
X136179D01*
X136693Y67453D01*
D02*
G37*
G36*
X202393Y67415D02*
X202787Y67022D01*
X203000Y66507D01*
Y65950D01*
X202787Y65436D01*
X202393Y65042D01*
X201878Y64829D01*
X201322D01*
X200807Y65042D01*
X200413Y65436D01*
X200200Y65950D01*
Y66507D01*
X200413Y67022D01*
X200807Y67415D01*
X201322Y67629D01*
X201878D01*
X202393Y67415D01*
D02*
G37*
G36*
X169957Y65709D02*
X170351Y65315D01*
X170564Y64800D01*
Y64243D01*
X170351Y63729D01*
X169957Y63335D01*
X169442Y63122D01*
X168886D01*
X168371Y63335D01*
X167977Y63729D01*
X167764Y64243D01*
Y64800D01*
X167977Y65315D01*
X168371Y65709D01*
X168886Y65922D01*
X169442D01*
X169957Y65709D01*
D02*
G37*
G36*
X62921Y64887D02*
X63314Y64493D01*
X63528Y63978D01*
Y63421D01*
X63314Y62907D01*
X62921Y62513D01*
X62406Y62300D01*
X61849D01*
X61335Y62513D01*
X60941Y62907D01*
X60728Y63421D01*
Y63978D01*
X60941Y64493D01*
X61335Y64887D01*
X61849Y65100D01*
X62406D01*
X62921Y64887D01*
D02*
G37*
G36*
X202393Y63444D02*
X202787Y63051D01*
X203000Y62536D01*
Y61979D01*
X202787Y61465D01*
X202393Y61071D01*
X201878Y60857D01*
X201322D01*
X200807Y61071D01*
X200413Y61465D01*
X200200Y61979D01*
Y62536D01*
X200413Y63051D01*
X200807Y63444D01*
X201322Y63657D01*
X201878D01*
X202393Y63444D01*
D02*
G37*
G36*
X159353Y62787D02*
X159747Y62393D01*
X159960Y61879D01*
Y61322D01*
X159747Y60807D01*
X159353Y60413D01*
X158838Y60200D01*
X158281D01*
X157767Y60413D01*
X157373Y60807D01*
X157160Y61322D01*
Y61879D01*
X157373Y62393D01*
X157767Y62787D01*
X158281Y63000D01*
X158838D01*
X159353Y62787D01*
D02*
G37*
G36*
X94606Y60196D02*
X95000Y59803D01*
X95213Y59288D01*
Y58731D01*
X95000Y58216D01*
X94606Y57823D01*
X94092Y57609D01*
X93535D01*
X93020Y57823D01*
X92627Y58216D01*
X92413Y58731D01*
Y59288D01*
X92627Y59803D01*
X93020Y60196D01*
X93535Y60409D01*
X94092D01*
X94606Y60196D01*
D02*
G37*
G36*
X178850Y57898D02*
X179244Y57504D01*
X179457Y56990D01*
Y56433D01*
X179244Y55918D01*
X178850Y55524D01*
X178335Y55311D01*
X177778D01*
X177264Y55524D01*
X176931Y55857D01*
X176642Y55891D01*
X176354Y55857D01*
X176021Y55524D01*
X175831Y55445D01*
Y54904D01*
X175969Y54847D01*
X176363Y54453D01*
X176486Y54157D01*
X177013Y54121D01*
X177406Y54515D01*
X177921Y54728D01*
X178478D01*
X178992Y54515D01*
X179386Y54121D01*
X179599Y53607D01*
Y53050D01*
X179386Y52535D01*
X178992Y52141D01*
X178846Y52081D01*
Y51539D01*
X179132Y51421D01*
X179525Y51027D01*
X179739Y50513D01*
Y49956D01*
X179525Y49441D01*
X179132Y49047D01*
X178617Y48834D01*
X178060D01*
X177546Y49047D01*
X177152Y49441D01*
X177002Y49802D01*
X176477Y49841D01*
X176379Y49605D01*
X175985Y49211D01*
X175471Y48998D01*
X174914D01*
X174399Y49211D01*
X174005Y49605D01*
X173792Y50119D01*
Y50676D01*
X174005Y51191D01*
X174399Y51585D01*
X174860Y51776D01*
X174908Y51975D01*
X174905Y52062D01*
X174860Y52276D01*
X174383Y52473D01*
X173989Y52867D01*
X173776Y53381D01*
Y53938D01*
X173989Y54453D01*
X174383Y54847D01*
X174574Y54926D01*
Y55467D01*
X174435Y55524D01*
X174041Y55918D01*
X173828Y56433D01*
Y56990D01*
X174041Y57504D01*
X174435Y57898D01*
X174950Y58111D01*
X175506D01*
X176021Y57898D01*
X176354Y57565D01*
X176642Y57531D01*
X176931Y57565D01*
X177264Y57898D01*
X177778Y58111D01*
X178335D01*
X178850Y57898D01*
D02*
G37*
%LPC*%
G36*
X27167Y54989D02*
X27150Y54966D01*
D01*
X27167Y54989D01*
D02*
G37*
%LPD*%
G36*
X26397Y54022D02*
X26378Y54000D01*
X26378Y54000D01*
X26378Y54000D01*
D01*
X26397Y54022D01*
X26419Y54040D01*
X26397Y54022D01*
D02*
G37*
G36*
X48036Y56259D02*
X48430Y55866D01*
X48643Y55351D01*
Y54794D01*
X48430Y54279D01*
X48036Y53886D01*
X47522Y53672D01*
X46965D01*
X46450Y53886D01*
X46057Y54279D01*
X45843Y54794D01*
Y55351D01*
X46057Y55866D01*
X46450Y56259D01*
X46965Y56472D01*
X47522D01*
X48036Y56259D01*
D02*
G37*
G36*
X84826Y53748D02*
X85220Y53354D01*
X85434Y52839D01*
Y52282D01*
X85220Y51768D01*
X84826Y51374D01*
X84312Y51161D01*
X83755D01*
X83240Y51374D01*
X82847Y51768D01*
X82634Y52282D01*
Y52839D01*
X82847Y53354D01*
X83240Y53748D01*
X83755Y53961D01*
X84312D01*
X84826Y53748D01*
D02*
G37*
G36*
X62921Y53551D02*
X63314Y53157D01*
X63528Y52642D01*
Y52086D01*
X63314Y51571D01*
X62921Y51177D01*
X62406Y50964D01*
X61849D01*
X61335Y51177D01*
X60941Y51571D01*
X60728Y52086D01*
Y52642D01*
X60941Y53157D01*
X61335Y53551D01*
X61849Y53764D01*
X62406D01*
X62921Y53551D01*
D02*
G37*
G36*
X99000Y52565D02*
X99393Y52171D01*
X99607Y51656D01*
Y51099D01*
X99393Y50585D01*
X99000Y50191D01*
X98485Y49978D01*
X97928D01*
X97414Y50191D01*
X97020Y50585D01*
X96807Y51099D01*
Y51656D01*
X97020Y52171D01*
X97414Y52565D01*
X97928Y52778D01*
X98485D01*
X99000Y52565D01*
D02*
G37*
G36*
X146852Y50476D02*
X147246Y50082D01*
X147459Y49568D01*
Y49011D01*
X147246Y48496D01*
X146852Y48103D01*
X146337Y47890D01*
X145780D01*
X145266Y48103D01*
X144872Y48496D01*
X144659Y49011D01*
Y49568D01*
X144872Y50082D01*
X145266Y50476D01*
X145780Y50690D01*
X146337D01*
X146852Y50476D01*
D02*
G37*
G36*
X56593Y50187D02*
X56987Y49793D01*
X57200Y49279D01*
Y48722D01*
X56987Y48207D01*
X56593Y47813D01*
X56078Y47600D01*
X55522D01*
X55007Y47813D01*
X54613Y48207D01*
X54400Y48722D01*
Y49279D01*
X54613Y49793D01*
X55007Y50187D01*
X55522Y50400D01*
X56078D01*
X56593Y50187D01*
D02*
G37*
G36*
X122754Y49973D02*
X123148Y49579D01*
X123361Y49064D01*
Y48507D01*
X123148Y47993D01*
X122754Y47599D01*
X122239Y47386D01*
X121683D01*
X121168Y47599D01*
X120774Y47993D01*
X120561Y48507D01*
Y49064D01*
X120774Y49579D01*
X121168Y49973D01*
X121683Y50186D01*
X122239D01*
X122754Y49973D01*
D02*
G37*
G36*
X70493Y49187D02*
X70887Y48793D01*
X71100Y48278D01*
Y47721D01*
X70887Y47207D01*
X70493Y46813D01*
X69978Y46600D01*
X69421D01*
X68907Y46813D01*
X68513Y47207D01*
X68300Y47721D01*
Y48278D01*
X68513Y48793D01*
X68907Y49187D01*
X69421Y49400D01*
X69978D01*
X70493Y49187D01*
D02*
G37*
G36*
X205708Y47992D02*
X206102Y47598D01*
X206315Y47083D01*
Y46526D01*
X206102Y46012D01*
X205708Y45618D01*
X205193Y45405D01*
X204637D01*
X204122Y45618D01*
X203728Y46012D01*
X203515Y46526D01*
Y47083D01*
X203728Y47598D01*
X204122Y47992D01*
X204637Y48205D01*
X205193D01*
X205708Y47992D01*
D02*
G37*
G36*
X140196Y47971D02*
X140590Y47577D01*
X140803Y47063D01*
Y46506D01*
X140590Y45991D01*
X140196Y45597D01*
X139682Y45384D01*
X139125D01*
X138610Y45597D01*
X138216Y45991D01*
X138003Y46506D01*
Y47063D01*
X138216Y47577D01*
X138610Y47971D01*
X139125Y48184D01*
X139682D01*
X140196Y47971D01*
D02*
G37*
G36*
X131437Y47271D02*
X131831Y46877D01*
X132044Y46363D01*
Y45806D01*
X131831Y45291D01*
X131437Y44897D01*
X130922Y44684D01*
X130365D01*
X129851Y44897D01*
X129457Y45291D01*
X129244Y45806D01*
Y46363D01*
X129457Y46877D01*
X129851Y47271D01*
X130365Y47484D01*
X130922D01*
X131437Y47271D01*
D02*
G37*
G36*
X120529Y46733D02*
X120923Y46339D01*
X121136Y45824D01*
Y45268D01*
X120923Y44753D01*
X120529Y44359D01*
X120015Y44146D01*
X119458D01*
X118943Y44359D01*
X118550Y44753D01*
X118336Y45268D01*
Y45824D01*
X118550Y46339D01*
X118943Y46733D01*
X119458Y46946D01*
X120015D01*
X120529Y46733D01*
D02*
G37*
G36*
X32393Y39468D02*
X32787Y39074D01*
X33000Y38560D01*
Y38003D01*
X32787Y37488D01*
X32393Y37094D01*
X31879Y36881D01*
X31321D01*
X30807Y37094D01*
X30413Y37488D01*
X30200Y38003D01*
Y38560D01*
X30413Y39074D01*
X30807Y39468D01*
X31321Y39681D01*
X31879D01*
X32393Y39468D01*
D02*
G37*
G36*
X97003Y41443D02*
X97801Y40982D01*
X98452Y40330D01*
X98913Y39532D01*
X99152Y38642D01*
Y37720D01*
X98913Y36830D01*
X98452Y36032D01*
X97801Y35380D01*
X97003Y34920D01*
X96112Y34681D01*
X95191D01*
X94301Y34920D01*
X93502Y35380D01*
X92851Y36032D01*
X92390Y36830D01*
X92152Y37720D01*
Y38642D01*
X92390Y39532D01*
X92851Y40330D01*
X93502Y40982D01*
X94301Y41443D01*
X95191Y41681D01*
X96112D01*
X97003Y41443D01*
D02*
G37*
G36*
X72351D02*
X73149Y40982D01*
X73801Y40330D01*
X74261Y39532D01*
X74500Y38642D01*
Y37720D01*
X74261Y36830D01*
X73801Y36032D01*
X73149Y35380D01*
X72351Y34920D01*
X71461Y34681D01*
X70539D01*
X69649Y34920D01*
X68851Y35380D01*
X68199Y36032D01*
X67738Y36830D01*
X67500Y37720D01*
Y38642D01*
X67738Y39532D01*
X68199Y40330D01*
X68851Y40982D01*
X69649Y41443D01*
X70539Y41681D01*
X71461D01*
X72351Y41443D01*
D02*
G37*
G36*
X47951D02*
X48749Y40982D01*
X49401Y40330D01*
X49861Y39532D01*
X50100Y38642D01*
Y37720D01*
X49861Y36830D01*
X49401Y36032D01*
X48749Y35380D01*
X47951Y34920D01*
X47061Y34681D01*
X46139D01*
X45249Y34920D01*
X44451Y35380D01*
X43799Y36032D01*
X43339Y36830D01*
X43100Y37720D01*
Y38642D01*
X43339Y39532D01*
X43799Y40330D01*
X44451Y40982D01*
X45249Y41443D01*
X46139Y41681D01*
X47061D01*
X47951Y41443D01*
D02*
G37*
G36*
X117950Y36243D02*
X118344Y35849D01*
X118557Y35334D01*
Y34777D01*
X118344Y34263D01*
X117950Y33869D01*
X117435Y33656D01*
X116878D01*
X116364Y33869D01*
X115970Y34263D01*
X115757Y34777D01*
Y35334D01*
X115970Y35849D01*
X116364Y36243D01*
X116878Y36456D01*
X117435D01*
X117950Y36243D01*
D02*
G37*
G36*
X31993Y33268D02*
X32387Y32874D01*
X32600Y32360D01*
Y31803D01*
X32387Y31288D01*
X31993Y30894D01*
X31479Y30681D01*
X30922D01*
X30407Y30894D01*
X30013Y31288D01*
X29800Y31803D01*
Y32360D01*
X30013Y32874D01*
X30407Y33268D01*
X30922Y33481D01*
X31479D01*
X31993Y33268D01*
D02*
G37*
G36*
X168793Y30475D02*
X169187Y30081D01*
X169400Y29566D01*
Y29009D01*
X169187Y28495D01*
X168793Y28101D01*
X168279Y27888D01*
X167721D01*
X167207Y28101D01*
X166813Y28495D01*
X166600Y29009D01*
Y29566D01*
X166813Y30081D01*
X167207Y30475D01*
X167721Y30688D01*
X168279D01*
X168793Y30475D01*
D02*
G37*
G36*
X161993D02*
X162387Y30081D01*
X162600Y29566D01*
Y29009D01*
X162387Y28495D01*
X161993Y28101D01*
X161478Y27888D01*
X160922D01*
X160407Y28101D01*
X160013Y28495D01*
X159800Y29009D01*
Y29566D01*
X160013Y30081D01*
X160407Y30475D01*
X160922Y30688D01*
X161478D01*
X161993Y30475D01*
D02*
G37*
G36*
X157174D02*
X157568Y30081D01*
X157781Y29566D01*
Y29009D01*
X157568Y28495D01*
X157174Y28101D01*
X156660Y27888D01*
X156103D01*
X155588Y28101D01*
X155194Y28495D01*
X154981Y29009D01*
Y29566D01*
X155194Y30081D01*
X155588Y30475D01*
X156103Y30688D01*
X156660D01*
X157174Y30475D01*
D02*
G37*
G36*
X97003Y31443D02*
X97801Y30982D01*
X98452Y30330D01*
X98913Y29532D01*
X99152Y28642D01*
Y27720D01*
X98913Y26830D01*
X98452Y26032D01*
X97801Y25380D01*
X97003Y24920D01*
X96112Y24681D01*
X95191D01*
X94301Y24920D01*
X93502Y25380D01*
X92851Y26032D01*
X92390Y26830D01*
X92152Y27720D01*
Y28642D01*
X92390Y29532D01*
X92851Y30330D01*
X93502Y30982D01*
X94301Y31443D01*
X95191Y31681D01*
X96112D01*
X97003Y31443D01*
D02*
G37*
G36*
X72351D02*
X73149Y30982D01*
X73801Y30330D01*
X74261Y29532D01*
X74500Y28642D01*
Y27720D01*
X74261Y26830D01*
X73801Y26032D01*
X73149Y25380D01*
X72351Y24920D01*
X71461Y24681D01*
X70539D01*
X69649Y24920D01*
X68851Y25380D01*
X68199Y26032D01*
X67738Y26830D01*
X67500Y27720D01*
Y28642D01*
X67738Y29532D01*
X68199Y30330D01*
X68851Y30982D01*
X69649Y31443D01*
X70539Y31681D01*
X71461D01*
X72351Y31443D01*
D02*
G37*
G36*
X47951D02*
X48749Y30982D01*
X49401Y30330D01*
X49861Y29532D01*
X50100Y28642D01*
Y27720D01*
X49861Y26830D01*
X49401Y26032D01*
X48749Y25380D01*
X47951Y24920D01*
X47061Y24681D01*
X46139D01*
X45249Y24920D01*
X44451Y25380D01*
X43799Y26032D01*
X43339Y26830D01*
X43100Y27720D01*
Y28642D01*
X43339Y29532D01*
X43799Y30330D01*
X44451Y30982D01*
X45249Y31443D01*
X46139Y31681D01*
X47061D01*
X47951Y31443D01*
D02*
G37*
G36*
X177838Y21997D02*
X178232Y21603D01*
X178445Y21089D01*
Y20531D01*
X178232Y20017D01*
X177838Y19623D01*
X177324Y19410D01*
X176767D01*
X176252Y19623D01*
X175858Y20017D01*
X175645Y20531D01*
Y21089D01*
X175858Y21603D01*
X176252Y21997D01*
X176767Y22210D01*
X177324D01*
X177838Y21997D01*
D02*
G37*
G36*
X31093Y19368D02*
X31487Y18974D01*
X31700Y18460D01*
Y17903D01*
X31487Y17388D01*
X31093Y16994D01*
X30579Y16781D01*
X30022D01*
X29507Y16994D01*
X29113Y17388D01*
X28900Y17903D01*
Y18460D01*
X29113Y18974D01*
X29507Y19368D01*
X30022Y19581D01*
X30579D01*
X31093Y19368D01*
D02*
G37*
G36*
X97003Y21443D02*
X97801Y20982D01*
X98452Y20330D01*
X98913Y19532D01*
X99152Y18642D01*
Y17720D01*
X98913Y16830D01*
X98452Y16032D01*
X97801Y15380D01*
X97003Y14920D01*
X96112Y14681D01*
X95191D01*
X94301Y14920D01*
X93502Y15380D01*
X92851Y16032D01*
X92390Y16830D01*
X92152Y17720D01*
Y18642D01*
X92390Y19532D01*
X92851Y20330D01*
X93502Y20982D01*
X94301Y21443D01*
X95191Y21681D01*
X96112D01*
X97003Y21443D01*
D02*
G37*
G36*
X72351D02*
X73149Y20982D01*
X73801Y20330D01*
X74261Y19532D01*
X74500Y18642D01*
Y17720D01*
X74261Y16830D01*
X73801Y16032D01*
X73149Y15380D01*
X72351Y14920D01*
X71461Y14681D01*
X70539D01*
X69649Y14920D01*
X68851Y15380D01*
X68199Y16032D01*
X67738Y16830D01*
X67500Y17720D01*
Y18642D01*
X67738Y19532D01*
X68199Y20330D01*
X68851Y20982D01*
X69649Y21443D01*
X70539Y21681D01*
X71461D01*
X72351Y21443D01*
D02*
G37*
G36*
X47951D02*
X48749Y20982D01*
X49401Y20330D01*
X49861Y19532D01*
X50100Y18642D01*
Y17720D01*
X49861Y16830D01*
X49401Y16032D01*
X48749Y15380D01*
X47951Y14920D01*
X47061Y14681D01*
X46139D01*
X45249Y14920D01*
X44451Y15380D01*
X43799Y16032D01*
X43339Y16830D01*
X43100Y17720D01*
Y18642D01*
X43339Y19532D01*
X43799Y20330D01*
X44451Y20982D01*
X45249Y21443D01*
X46139Y21681D01*
X47061D01*
X47951Y21443D01*
D02*
G37*
G36*
X170751Y20662D02*
X171549Y20201D01*
X172201Y19549D01*
X172661Y18751D01*
X172900Y17861D01*
Y16939D01*
X172661Y16049D01*
X172201Y15251D01*
X171549Y14599D01*
X170751Y14139D01*
X169861Y13900D01*
X168939D01*
X168049Y14139D01*
X167251Y14599D01*
X166599Y15251D01*
X166139Y16049D01*
X165900Y16939D01*
Y17861D01*
X166139Y18751D01*
X166599Y19549D01*
X167251Y20201D01*
X168049Y20662D01*
X168939Y20900D01*
X169861D01*
X170751Y20662D01*
D02*
G37*
G36*
X160751D02*
X161549Y20201D01*
X162201Y19549D01*
X162662Y18751D01*
X162900Y17861D01*
Y16939D01*
X162662Y16049D01*
X162201Y15251D01*
X161549Y14599D01*
X160751Y14139D01*
X159861Y13900D01*
X158939D01*
X158049Y14139D01*
X157251Y14599D01*
X156599Y15251D01*
X156139Y16049D01*
X155900Y16939D01*
Y17861D01*
X156139Y18751D01*
X156599Y19549D01*
X157251Y20201D01*
X158049Y20662D01*
X158939Y20900D01*
X159861D01*
X160751Y20662D01*
D02*
G37*
G36*
X150751D02*
X151549Y20201D01*
X152201Y19549D01*
X152662Y18751D01*
X152900Y17861D01*
Y16939D01*
X152662Y16049D01*
X152201Y15251D01*
X151549Y14599D01*
X150751Y14139D01*
X149861Y13900D01*
X148939D01*
X148049Y14139D01*
X147251Y14599D01*
X146599Y15251D01*
X146139Y16049D01*
X145900Y16939D01*
Y17861D01*
X146139Y18751D01*
X146599Y19549D01*
X147251Y20201D01*
X148049Y20662D01*
X148939Y20900D01*
X149861D01*
X150751Y20662D01*
D02*
G37*
G36*
X48723Y13306D02*
X49977Y12582D01*
X50135Y12424D01*
X49428Y11717D01*
X49363Y11782D01*
X48337Y12374D01*
X47192Y12681D01*
X46008D01*
X44863Y12374D01*
X43837Y11782D01*
X43772Y11717D01*
X43064Y12424D01*
X43223Y12582D01*
X44477Y13306D01*
X45876Y13681D01*
X47324D01*
X48723Y13306D01*
D02*
G37*
G36*
X97774D02*
X99029Y12582D01*
X99187Y12424D01*
X98480Y11717D01*
X98415Y11782D01*
X97388Y12374D01*
X96244Y12681D01*
X95059D01*
X93915Y12374D01*
X92888Y11782D01*
X92823Y11717D01*
X92116Y12424D01*
X92274Y12582D01*
X93529Y13306D01*
X94928Y13681D01*
X96376D01*
X97774Y13306D01*
D02*
G37*
G36*
X73123D02*
X74377Y12582D01*
X74536Y12424D01*
X73828Y11717D01*
X73763Y11782D01*
X72737Y12374D01*
X71592Y12681D01*
X70408D01*
X69263Y12374D01*
X68237Y11782D01*
X68172Y11717D01*
X67465Y12424D01*
X67623Y12582D01*
X68877Y13306D01*
X70276Y13681D01*
X71724D01*
X73123Y13306D01*
D02*
G37*
G36*
X92116Y11010D02*
X92051Y10944D01*
X91458Y9918D01*
X91152Y8773D01*
Y7589D01*
X91458Y6444D01*
X92051Y5418D01*
X92116Y5353D01*
X91409Y4646D01*
X91250Y4804D01*
X90526Y6058D01*
X90152Y7457D01*
Y8905D01*
X90526Y10304D01*
X91250Y11558D01*
X91409Y11717D01*
X92116Y11010D01*
D02*
G37*
G36*
X67465D02*
X67399Y10944D01*
X66807Y9918D01*
X66500Y8773D01*
Y7589D01*
X66807Y6444D01*
X67399Y5418D01*
X67464Y5353D01*
X66757Y4646D01*
X66599Y4804D01*
X65875Y6058D01*
X65500Y7457D01*
Y8905D01*
X65875Y10304D01*
X66599Y11558D01*
X66757Y11717D01*
X67465Y11010D01*
D02*
G37*
G36*
X43064D02*
X42999Y10944D01*
X42407Y9918D01*
X42100Y8773D01*
Y7589D01*
X42407Y6444D01*
X42999Y5418D01*
X43064Y5353D01*
X42357Y4646D01*
X42199Y4804D01*
X41475Y6058D01*
X41100Y7457D01*
Y8905D01*
X41475Y10304D01*
X42199Y11558D01*
X42357Y11717D01*
X43064Y11010D01*
D02*
G37*
G36*
X100053Y11558D02*
X100777Y10304D01*
X101152Y8905D01*
Y7457D01*
X100777Y6058D01*
X100053Y4804D01*
X99894Y4646D01*
X99187Y5353D01*
X99252Y5418D01*
X99845Y6444D01*
X100152Y7589D01*
Y8773D01*
X99845Y9918D01*
X99252Y10944D01*
X99187Y11010D01*
X99894Y11717D01*
X100053Y11558D01*
D02*
G37*
G36*
X75401D02*
X76125Y10304D01*
X76500Y8905D01*
Y7457D01*
X76125Y6058D01*
X75401Y4804D01*
X75243Y4646D01*
X74536Y5353D01*
X74601Y5418D01*
X75193Y6444D01*
X75500Y7589D01*
Y8773D01*
X75193Y9918D01*
X74601Y10944D01*
X74536Y11010D01*
X75243Y11717D01*
X75401Y11558D01*
D02*
G37*
G36*
X51001D02*
X51725Y10304D01*
X52100Y8905D01*
Y7457D01*
X51725Y6058D01*
X51001Y4804D01*
X50843Y4646D01*
X50135Y5353D01*
X50201Y5418D01*
X50793Y6444D01*
X51100Y7589D01*
Y8773D01*
X50793Y9918D01*
X50201Y10944D01*
X50135Y11010D01*
X50843Y11717D01*
X51001Y11558D01*
D02*
G37*
G36*
X228811Y15324D02*
X229960Y14848D01*
X230994Y14157D01*
X231874Y13277D01*
X232565Y12243D01*
X233041Y11094D01*
X233283Y9874D01*
Y8630D01*
X233041Y7410D01*
X232565Y6261D01*
X231874Y5226D01*
X230994Y4347D01*
X229960Y3656D01*
X228811Y3180D01*
X227590Y2937D01*
X226346D01*
X225127Y3180D01*
X223977Y3656D01*
X222943Y4347D01*
X222063Y5226D01*
X221372Y6261D01*
X220896Y7410D01*
X220654Y8630D01*
Y9874D01*
X220896Y11094D01*
X221372Y12243D01*
X222063Y13277D01*
X222943Y14157D01*
X223977Y14848D01*
X225127Y15324D01*
X226346Y15567D01*
X227590D01*
X228811Y15324D01*
D02*
G37*
G36*
X11094D02*
X12243Y14848D01*
X13277Y14157D01*
X14157Y13277D01*
X14848Y12243D01*
X15324Y11094D01*
X15567Y9874D01*
Y8630D01*
X15324Y7410D01*
X14848Y6261D01*
X14157Y5226D01*
X13277Y4347D01*
X12243Y3656D01*
X11094Y3180D01*
X9874Y2937D01*
X8630D01*
X7410Y3180D01*
X6261Y3656D01*
X5226Y4347D01*
X4347Y5226D01*
X3656Y6261D01*
X3180Y7410D01*
X2937Y8630D01*
Y9874D01*
X3180Y11094D01*
X3656Y12243D01*
X4347Y13277D01*
X5226Y14157D01*
X6261Y14848D01*
X7410Y15324D01*
X8630Y15567D01*
X9874D01*
X11094Y15324D01*
D02*
G37*
G36*
X92888Y4580D02*
X93915Y3988D01*
X95059Y3681D01*
X96244D01*
X97388Y3988D01*
X98415Y4580D01*
X98480Y4646D01*
X99187Y3938D01*
X99029Y3780D01*
X97774Y3056D01*
X96376Y2681D01*
X94928D01*
X93529Y3056D01*
X92274Y3780D01*
X92116Y3938D01*
X92823Y4646D01*
X92888Y4580D01*
D02*
G37*
G36*
X68237D02*
X69263Y3988D01*
X70408Y3681D01*
X71592D01*
X72737Y3988D01*
X73763Y4580D01*
X73828Y4646D01*
X74536Y3938D01*
X74377Y3780D01*
X73123Y3056D01*
X71724Y2681D01*
X70276D01*
X68877Y3056D01*
X67623Y3780D01*
X67464Y3938D01*
X68172Y4646D01*
X68237Y4580D01*
D02*
G37*
G36*
X43837D02*
X44863Y3988D01*
X46008Y3681D01*
X47192D01*
X48337Y3988D01*
X49363Y4580D01*
X49428Y4646D01*
X50135Y3938D01*
X49977Y3780D01*
X48723Y3056D01*
X47324Y2681D01*
X45876D01*
X44477Y3056D01*
X43223Y3780D01*
X43064Y3938D01*
X43772Y4646D01*
X43837Y4580D01*
D02*
G37*
M02*
