G04*
G04 #@! TF.GenerationSoftware,Altium Limited,Altium Designer,21.1.1 (26)*
G04*
G04 Layer_Color=32896*
%FSLAX25Y25*%
%MOIN*%
G70*
G04*
G04 #@! TF.SameCoordinates,4F177341-0937-496B-BE4A-6E5797C68D15*
G04*
G04*
G04 #@! TF.FilePolarity,Positive*
G04*
G01*
G75*
%ADD144C,0.02000*%
D144*
X236221Y236221D02*
X236221Y-300D01*
X197539Y236220D02*
X236221Y236221D01*
X0Y-300D02*
X236221Y-300D01*
X25248Y141140D02*
X25435Y140841D01*
X24998Y141389D02*
X25248Y141140D01*
X67638Y235637D02*
X68273Y236222D01*
X152066Y236218D02*
X152702Y235635D01*
X68273Y236222D02*
X152066Y236218D01*
X0Y236220D02*
X0Y141732D01*
X0Y236220D02*
X22799Y236216D01*
X0Y141732D02*
X24016D01*
X22799Y236216D02*
X23434Y235635D01*
X24177Y235201D01*
X24016Y141732D02*
X24366Y141693D01*
X24699Y141577D01*
X24177Y235201D02*
X24994Y234933D01*
X24699Y141577D02*
X24998Y141389D01*
X24994Y234933D02*
X25850Y234842D01*
X65220D01*
X66077Y234932D01*
X66895Y235201D01*
X67638Y235637D01*
X152702Y235635D02*
X153445Y235201D01*
X154262Y234933D01*
X156817Y235201D01*
X159064D01*
X163560D01*
X165808D01*
X183791D01*
X192782D01*
X195345Y234932D01*
X196163Y235201D01*
X196906Y235637D01*
X197539Y236220D01*
X0Y-300D02*
Y55118D01*
X24016D01*
X24366Y55157D01*
X24699Y55273D01*
X24998Y55461D01*
X25248Y55710D01*
X25435Y56009D01*
X25552Y56342D01*
X25591Y56693D01*
X25591Y140157D02*
X25591Y56693D01*
X25552Y140508D02*
X25591Y140157D01*
X25435Y140841D02*
X25552Y140508D01*
M02*
