G04*
G04 #@! TF.GenerationSoftware,Altium Limited,Altium Designer,21.1.1 (26)*
G04*
G04 Layer_Physical_Order=1*
G04 Layer_Color=255*
%FSLAX25Y25*%
%MOIN*%
G70*
G04*
G04 #@! TF.SameCoordinates,4F177341-0937-496B-BE4A-6E5797C68D15*
G04*
G04*
G04 #@! TF.FilePolarity,Positive*
G04*
G01*
G75*
%ADD13C,0.01000*%
%ADD18C,0.05000*%
%ADD19R,0.02953X0.03347*%
%ADD20R,0.03347X0.02953*%
%ADD21R,0.01860X0.01843*%
%ADD22R,0.04724X0.04724*%
%ADD23R,0.05512X0.04134*%
%ADD24R,0.03937X0.03543*%
%ADD25R,0.02559X0.04134*%
%ADD26R,0.03543X0.03937*%
%ADD27R,0.02559X0.02165*%
G04:AMPARAMS|DCode=28|XSize=9.84mil|YSize=23.62mil|CornerRadius=1.97mil|HoleSize=0mil|Usage=FLASHONLY|Rotation=90.000|XOffset=0mil|YOffset=0mil|HoleType=Round|Shape=RoundedRectangle|*
%AMROUNDEDRECTD28*
21,1,0.00984,0.01968,0,0,90.0*
21,1,0.00591,0.02362,0,0,90.0*
1,1,0.00394,0.00984,0.00295*
1,1,0.00394,0.00984,-0.00295*
1,1,0.00394,-0.00984,-0.00295*
1,1,0.00394,-0.00984,0.00295*
%
%ADD28ROUNDEDRECTD28*%
G04:AMPARAMS|DCode=29|XSize=9.84mil|YSize=23.62mil|CornerRadius=1.97mil|HoleSize=0mil|Usage=FLASHONLY|Rotation=180.000|XOffset=0mil|YOffset=0mil|HoleType=Round|Shape=RoundedRectangle|*
%AMROUNDEDRECTD29*
21,1,0.00984,0.01968,0,0,180.0*
21,1,0.00591,0.02362,0,0,180.0*
1,1,0.00394,-0.00295,0.00984*
1,1,0.00394,0.00295,0.00984*
1,1,0.00394,0.00295,-0.00984*
1,1,0.00394,-0.00295,-0.00984*
%
%ADD29ROUNDEDRECTD29*%
%ADD30R,0.03543X0.02756*%
G04:AMPARAMS|DCode=31|XSize=9.45mil|YSize=23.62mil|CornerRadius=1.98mil|HoleSize=0mil|Usage=FLASHONLY|Rotation=0.000|XOffset=0mil|YOffset=0mil|HoleType=Round|Shape=RoundedRectangle|*
%AMROUNDEDRECTD31*
21,1,0.00945,0.01965,0,0,0.0*
21,1,0.00548,0.02362,0,0,0.0*
1,1,0.00397,0.00274,-0.00983*
1,1,0.00397,-0.00274,-0.00983*
1,1,0.00397,-0.00274,0.00983*
1,1,0.00397,0.00274,0.00983*
%
%ADD31ROUNDEDRECTD31*%
G04:AMPARAMS|DCode=32|XSize=23.62mil|YSize=9.45mil|CornerRadius=1.98mil|HoleSize=0mil|Usage=FLASHONLY|Rotation=0.000|XOffset=0mil|YOffset=0mil|HoleType=Round|Shape=RoundedRectangle|*
%AMROUNDEDRECTD32*
21,1,0.02362,0.00548,0,0,0.0*
21,1,0.01965,0.00945,0,0,0.0*
1,1,0.00397,0.00983,-0.00274*
1,1,0.00397,-0.00983,-0.00274*
1,1,0.00397,-0.00983,0.00274*
1,1,0.00397,0.00983,0.00274*
%
%ADD32ROUNDEDRECTD32*%
%ADD33R,0.06299X0.09843*%
%ADD34R,0.01575X0.00984*%
%ADD35R,0.04724X0.07480*%
%ADD36R,0.06299X0.07480*%
%ADD37R,0.08268X0.07874*%
%ADD38R,0.01575X0.05315*%
%ADD39R,0.05709X0.04528*%
%ADD40R,0.05512X0.03937*%
%ADD41R,0.02756X0.03543*%
%ADD42R,0.02756X0.02362*%
%ADD43R,0.02756X0.03937*%
%ADD44R,0.02953X0.02559*%
%ADD45R,0.04331X0.04331*%
%ADD46R,0.02165X0.02559*%
%ADD47R,0.02165X0.01772*%
%ADD48R,0.10236X0.02953*%
%ADD49R,0.01772X0.02165*%
%ADD50R,0.07284X0.13386*%
%ADD51R,0.07480X0.04331*%
%ADD52R,0.04606X0.07087*%
%ADD53R,0.02953X0.04331*%
%ADD54R,0.03347X0.04331*%
%ADD55R,0.06102X0.05315*%
%ADD56R,0.04724X0.03937*%
%ADD57R,0.07480X0.05315*%
%ADD58R,0.04528X0.05709*%
%ADD59R,0.04134X0.02559*%
G04:AMPARAMS|DCode=60|XSize=23.62mil|YSize=9.84mil|CornerRadius=1.97mil|HoleSize=0mil|Usage=FLASHONLY|Rotation=90.000|XOffset=0mil|YOffset=0mil|HoleType=Round|Shape=RoundedRectangle|*
%AMROUNDEDRECTD60*
21,1,0.02362,0.00591,0,0,90.0*
21,1,0.01968,0.00984,0,0,90.0*
1,1,0.00394,0.00295,0.00984*
1,1,0.00394,0.00295,-0.00984*
1,1,0.00394,-0.00295,-0.00984*
1,1,0.00394,-0.00295,0.00984*
%
%ADD60ROUNDEDRECTD60*%
G04:AMPARAMS|DCode=61|XSize=74.8mil|YSize=23.62mil|CornerRadius=5.91mil|HoleSize=0mil|Usage=FLASHONLY|Rotation=270.000|XOffset=0mil|YOffset=0mil|HoleType=Round|Shape=RoundedRectangle|*
%AMROUNDEDRECTD61*
21,1,0.07480,0.01181,0,0,270.0*
21,1,0.06299,0.02362,0,0,270.0*
1,1,0.01181,-0.00591,-0.03150*
1,1,0.01181,-0.00591,0.03150*
1,1,0.01181,0.00591,0.03150*
1,1,0.01181,0.00591,-0.03150*
%
%ADD61ROUNDEDRECTD61*%
%ADD62R,0.03740X0.01575*%
%ADD63R,0.02047X0.02047*%
%ADD64R,0.02047X0.02047*%
%ADD65R,0.02559X0.02953*%
%ADD66R,0.02441X0.02441*%
%ADD67R,0.04528X0.03937*%
%ADD68R,0.02756X0.04724*%
%ADD69R,0.04724X0.02756*%
%ADD70R,0.07874X0.07874*%
%ADD71R,0.04724X0.04724*%
%ADD137C,0.02000*%
G04:AMPARAMS|DCode=138|XSize=66.93mil|YSize=66.93mil|CornerRadius=2.01mil|HoleSize=0mil|Usage=FLASHONLY|Rotation=90.000|XOffset=0mil|YOffset=0mil|HoleType=Round|Shape=RoundedRectangle|*
%AMROUNDEDRECTD138*
21,1,0.06693,0.06291,0,0,90.0*
21,1,0.06291,0.06693,0,0,90.0*
1,1,0.00402,0.03146,0.03146*
1,1,0.00402,0.03146,-0.03146*
1,1,0.00402,-0.03146,-0.03146*
1,1,0.00402,-0.03146,0.03146*
%
%ADD138ROUNDEDRECTD138*%
%ADD139C,0.07760*%
%ADD140C,0.04000*%
G04:AMPARAMS|DCode=141|XSize=43.31mil|YSize=11.81mil|CornerRadius=1.95mil|HoleSize=0mil|Usage=FLASHONLY|Rotation=90.000|XOffset=0mil|YOffset=0mil|HoleType=Round|Shape=RoundedRectangle|*
%AMROUNDEDRECTD141*
21,1,0.04331,0.00791,0,0,90.0*
21,1,0.03941,0.01181,0,0,90.0*
1,1,0.00390,0.00396,0.01970*
1,1,0.00390,0.00396,-0.01970*
1,1,0.00390,-0.00396,-0.01970*
1,1,0.00390,-0.00396,0.01970*
%
%ADD141ROUNDEDRECTD141*%
%ADD142C,0.03000*%
%ADD143C,0.00800*%
%ADD144C,0.02000*%
%ADD145C,0.00900*%
%ADD146C,0.01800*%
%ADD147C,0.01500*%
%ADD148C,0.14173*%
%ADD149C,0.07087*%
%ADD150R,0.07087X0.07087*%
%ADD151R,0.03960X0.03960*%
%ADD152C,0.03960*%
%ADD153R,0.07087X0.07087*%
%ADD154C,0.02500*%
G36*
X222728Y233380D02*
X222069Y232939D01*
X220998Y231868D01*
X220157Y230609D01*
X219577Y229211D01*
X219282Y227726D01*
Y226211D01*
X219577Y224726D01*
X220157Y223327D01*
X220998Y222069D01*
X222069Y220998D01*
X223327Y220157D01*
X224726Y219577D01*
X226211Y219282D01*
X227726D01*
X229211Y219577D01*
X230609Y220157D01*
X231868Y220998D01*
X232816Y221946D01*
X232872Y221943D01*
X233300Y221778D01*
X233316Y221765D01*
Y220379D01*
Y215688D01*
Y210974D01*
Y205978D01*
Y201010D01*
Y196140D01*
Y191129D01*
Y186438D01*
Y181800D01*
Y176890D01*
Y172791D01*
Y167780D01*
Y163973D01*
Y158220D01*
X233002Y158082D01*
X232816Y158046D01*
X232429Y158206D01*
X216269Y158206D01*
X215810Y158016D01*
X215620Y157557D01*
Y154650D01*
X215620Y154379D01*
X215161Y154180D01*
X212325D01*
Y153360D01*
X209636D01*
X209429Y153567D01*
X209321Y153860D01*
X209483Y154198D01*
X209483Y154243D01*
Y155383D01*
X205717D01*
Y154243D01*
X205717Y154198D01*
X205871Y153876D01*
X205791Y153670D01*
X205361Y153495D01*
X205072Y153724D01*
X205061Y153859D01*
Y157039D01*
X204594D01*
Y161434D01*
X206340D01*
Y166965D01*
X200809D01*
Y161434D01*
X202555D01*
Y157039D01*
X202089D01*
Y153673D01*
X204372D01*
X204523Y153173D01*
X204380Y153078D01*
X203658Y152356D01*
X188142D01*
X187935Y152856D01*
X189057Y153978D01*
X193028D01*
Y153020D01*
X197772D01*
Y153978D01*
X198546D01*
Y153673D01*
X201517D01*
Y157039D01*
X198546D01*
Y156017D01*
X197772D01*
Y156976D01*
X193028D01*
Y156017D01*
X191050D01*
X190999Y156140D01*
X190902Y156517D01*
X191086Y156793D01*
X191164Y157183D01*
Y157989D01*
X192220D01*
X192220Y161703D01*
X192420Y162120D01*
X192420Y162165D01*
Y163699D01*
X190144D01*
X187868D01*
Y162165D01*
X187868Y162131D01*
Y162120D01*
D01*
Y162120D01*
X188068Y161703D01*
X188068Y161620D01*
Y157989D01*
X187758Y157617D01*
X187722D01*
X187332Y157540D01*
X187002Y157319D01*
X186044Y156361D01*
X184762D01*
X184450Y156299D01*
X184186Y156123D01*
X184010Y155859D01*
X183948Y155547D01*
Y154999D01*
X184010Y154688D01*
X184186Y154424D01*
Y154154D01*
X184010Y153890D01*
X183948Y153579D01*
Y153031D01*
X184010Y152719D01*
X184186Y152455D01*
Y152186D01*
X184010Y151922D01*
X183948Y151610D01*
Y151062D01*
X184010Y150751D01*
X184075Y150653D01*
X184001Y150511D01*
X183559Y150494D01*
X183559Y146273D01*
X184001Y146256D01*
X184075Y146114D01*
X184010Y146016D01*
X183948Y145705D01*
Y145157D01*
X184010Y144845D01*
X184186Y144581D01*
Y144312D01*
X184010Y144048D01*
X183948Y143736D01*
Y143188D01*
X184010Y142877D01*
X184042Y142488D01*
X183821Y142157D01*
X183744Y141768D01*
Y141700D01*
X183244Y141548D01*
X183195Y141621D01*
X182865Y141842D01*
X182701Y141875D01*
Y140419D01*
X183493D01*
Y140421D01*
X183993Y140573D01*
X184042Y140500D01*
X184372Y140279D01*
X184762Y140202D01*
X185245D01*
Y141494D01*
X185745D01*
Y141994D01*
X187700D01*
X187691Y142037D01*
D01*
X187668Y142157D01*
X187447Y142488D01*
X187479Y142877D01*
X187541Y143188D01*
Y143736D01*
X187506Y143911D01*
X187729Y144301D01*
X187838Y144411D01*
X188881D01*
X188963Y144214D01*
X188976Y144209D01*
X188982Y144196D01*
X189204Y144114D01*
X189422Y144024D01*
X223510D01*
X223558Y144044D01*
X223609Y144031D01*
X223782Y144136D01*
X223970Y144214D01*
X223990Y144262D01*
X224034Y144289D01*
X224069Y144337D01*
X224080Y144381D01*
X224134Y144581D01*
X224166Y144623D01*
X224578Y144819D01*
X224690Y144831D01*
X230913D01*
Y146715D01*
X231113Y146848D01*
X232429D01*
X232816Y147008D01*
X233316Y146813D01*
Y143133D01*
Y138252D01*
Y133556D01*
X232855Y133146D01*
X232830Y133142D01*
X232659Y133177D01*
X231839Y133013D01*
X231145Y132549D01*
X230681Y131855D01*
X230518Y131035D01*
Y130936D01*
X230486Y130914D01*
X229985Y131181D01*
Y137350D01*
X230913D01*
Y142684D01*
X224201D01*
Y138126D01*
X223863Y137766D01*
X223701Y137766D01*
X218444D01*
Y135990D01*
X223863D01*
Y136991D01*
X224201Y137350D01*
X224363Y137350D01*
X225703D01*
Y129791D01*
X225311D01*
X224522Y129580D01*
X223816Y129172D01*
X223238Y128595D01*
X222830Y127888D01*
X222619Y127100D01*
Y126283D01*
X222830Y125495D01*
X222888Y125395D01*
X222950Y125081D01*
X223414Y124387D01*
X224109Y123923D01*
X224423Y123860D01*
X224522Y123803D01*
X225311Y123591D01*
X226127D01*
X226916Y123803D01*
X227623Y124211D01*
X228200Y124788D01*
X228283Y124933D01*
X230126D01*
X230264Y124960D01*
X230565Y124510D01*
X230451Y124341D01*
X230288Y123521D01*
Y120008D01*
X230451Y119189D01*
X230915Y118494D01*
X231610Y118030D01*
X232429Y117867D01*
X232816Y117944D01*
X233316Y117534D01*
X233316Y116253D01*
Y110254D01*
Y105678D01*
Y101446D01*
Y96803D01*
Y91707D01*
Y87480D01*
Y82677D01*
Y77684D01*
Y72809D01*
Y67829D01*
Y62927D01*
Y58004D01*
Y53129D01*
Y48352D01*
Y43373D01*
Y38381D01*
Y33584D01*
Y28727D01*
Y24038D01*
Y19454D01*
Y14456D01*
X233297Y14440D01*
X232948Y14287D01*
X232816Y14275D01*
X231868Y15223D01*
X230609Y16064D01*
X229211Y16643D01*
X227726Y16939D01*
X226211D01*
X224726Y16643D01*
X223327Y16064D01*
X222069Y15223D01*
X220998Y14152D01*
X220157Y12893D01*
X219577Y11494D01*
X219282Y10009D01*
Y8495D01*
X219577Y7010D01*
X220157Y5611D01*
X220662Y4855D01*
X220426Y4414D01*
X98734Y4414D01*
X98527Y4914D01*
X99127Y5514D01*
X99699Y6505D01*
X99995Y7609D01*
Y7681D01*
X95652D01*
X91308D01*
Y7609D01*
X91604Y6505D01*
X92176Y5514D01*
X92777Y4914D01*
X92569Y4414D01*
X83587D01*
X74082D01*
X73875Y4914D01*
X74476Y5514D01*
X75047Y6505D01*
X75343Y7609D01*
Y7681D01*
X71000D01*
X66657D01*
Y7609D01*
X66953Y6505D01*
X67524Y5514D01*
X68125Y4914D01*
X67918Y4414D01*
X49682D01*
X49475Y4914D01*
X50076Y5514D01*
X50647Y6505D01*
X50943Y7609D01*
Y7681D01*
X46600D01*
X42257D01*
Y7609D01*
X42553Y6505D01*
X43124Y5514D01*
X43725Y4914D01*
X43518Y4414D01*
X40084D01*
X15794D01*
X15559Y4855D01*
X16064Y5611D01*
X16643Y7010D01*
X16939Y8495D01*
Y10009D01*
X16643Y11494D01*
X16064Y12893D01*
X15223Y14152D01*
X14152Y15223D01*
X12893Y16064D01*
X11494Y16643D01*
X10009Y16939D01*
X8495D01*
X7010Y16643D01*
X5611Y16064D01*
X4352Y15223D01*
X3281Y14152D01*
X2721Y13313D01*
X2221Y13465D01*
X2221Y54098D01*
X24016D01*
X24072Y54110D01*
X24129Y54105D01*
X24479Y54144D01*
X24589Y54179D01*
X24702Y54195D01*
X25036Y54311D01*
X25134Y54369D01*
X25242Y54410D01*
X25419Y54522D01*
X26744D01*
X26744Y145234D01*
X2221D01*
Y148658D01*
X2721Y148724D01*
X2725Y148709D01*
X3159Y147956D01*
X3774Y147342D01*
X4526Y146907D01*
X5300Y146700D01*
Y149982D01*
Y153265D01*
X4526Y153058D01*
X3774Y152623D01*
X3159Y152009D01*
X2725Y151256D01*
X2721Y151241D01*
X2221Y151307D01*
Y181990D01*
X2721Y182094D01*
X2747Y182032D01*
X2841Y181807D01*
X2845Y181805D01*
X2847Y181800D01*
X3074Y181710D01*
X3300Y181616D01*
X8372D01*
X8453Y181650D01*
X8540Y181639D01*
X8675Y181742D01*
X8831Y181807D01*
X8865Y181888D01*
X8935Y181941D01*
X8959Y181984D01*
X9455Y182049D01*
X9678Y181826D01*
X10385Y181418D01*
X11174Y181206D01*
X11990D01*
X12778Y181418D01*
X13485Y181826D01*
X13709Y182049D01*
X14205Y181984D01*
X14229Y181941D01*
X14299Y181888D01*
X14332Y181807D01*
X14489Y181742D01*
X14624Y181639D01*
X14711Y181650D01*
X14792Y181616D01*
X19426D01*
X19632Y181702D01*
X22567D01*
X22631Y181228D01*
X22043Y180985D01*
X21593Y180535D01*
X21350Y179947D01*
Y179310D01*
X21593Y178722D01*
X21995Y178320D01*
X21965Y178095D01*
X21842Y177820D01*
X18657D01*
Y172683D01*
X20009D01*
Y168454D01*
X19812Y168257D01*
X19591Y167926D01*
X19513Y167536D01*
Y165594D01*
X17362D01*
Y159669D01*
X23287D01*
Y165594D01*
X21553D01*
Y167113D01*
X21750Y167311D01*
X21971Y167642D01*
X22049Y168032D01*
Y172683D01*
X23401D01*
Y177566D01*
X23401Y177820D01*
X23686Y178202D01*
X23856Y178272D01*
X24072Y178488D01*
X24399Y178670D01*
X24725Y178488D01*
X24912Y178302D01*
X24957Y177820D01*
X24957Y177820D01*
X24957Y177820D01*
Y172683D01*
X29700D01*
Y175611D01*
X31881D01*
X32272Y175688D01*
X32602Y175909D01*
X33759Y177066D01*
X36583D01*
Y176813D01*
X38170D01*
Y175813D01*
X36583D01*
Y175021D01*
X36783D01*
Y174548D01*
X36763Y174450D01*
Y173933D01*
X34106Y171275D01*
X31997D01*
X31607Y171198D01*
X31276Y170977D01*
X28080Y167780D01*
X27859Y167450D01*
X27781Y167060D01*
Y165594D01*
X25630D01*
Y159669D01*
X31554D01*
Y165594D01*
X29820D01*
Y166637D01*
X32420Y169236D01*
X34135D01*
X34500Y169236D01*
X34500Y168810D01*
Y163922D01*
X35360D01*
Y152917D01*
X34500D01*
Y147583D01*
X36580D01*
X41390Y142774D01*
Y139276D01*
X46527D01*
Y144019D01*
X43029D01*
X38259Y148788D01*
Y152917D01*
X37399D01*
Y163922D01*
X38259D01*
Y169256D01*
X35677D01*
X35470Y169756D01*
X38504Y172789D01*
X38725Y173120D01*
X38790Y173450D01*
X39535D01*
Y173250D01*
X39535D01*
D01*
X42985D01*
Y173325D01*
Y178971D01*
X43985D01*
Y173250D01*
X47128D01*
D01*
X47435D01*
X47780Y172893D01*
Y167804D01*
X47386Y167410D01*
X46924Y167601D01*
Y169456D01*
X45344D01*
Y166589D01*
Y163722D01*
X46180D01*
Y159030D01*
X46258Y158640D01*
X46479Y158309D01*
X61355Y143433D01*
Y138426D01*
X60994Y138329D01*
X60287Y137921D01*
X59710Y137344D01*
X59302Y136637D01*
X59090Y135849D01*
Y135032D01*
X59302Y134244D01*
X59710Y133537D01*
X60287Y132960D01*
X60994Y132552D01*
X61355Y132455D01*
Y128548D01*
X61411Y128265D01*
X61218Y127909D01*
X61094Y127765D01*
X58434D01*
Y121841D01*
X62389D01*
Y126332D01*
X62850Y126532D01*
X63158Y126283D01*
Y121841D01*
X67114D01*
Y127765D01*
X64600D01*
X63394Y128971D01*
Y132325D01*
X63942Y132872D01*
X64094Y132960D01*
X64671Y133537D01*
X65079Y134244D01*
X65290Y135032D01*
Y135849D01*
X65079Y136637D01*
X64671Y137344D01*
X64094Y137921D01*
X63394Y138325D01*
Y143855D01*
X63317Y144246D01*
X63211Y144403D01*
X63209Y144407D01*
X63096Y144576D01*
X50234Y157438D01*
X50294Y157625D01*
X50479Y157900D01*
X51018D01*
X51606Y158144D01*
X52056Y158594D01*
X52300Y159182D01*
Y159818D01*
X52056Y160406D01*
X51873Y160589D01*
Y161278D01*
X53127Y162531D01*
X56429D01*
Y167668D01*
X55077D01*
Y169020D01*
X56626D01*
Y173764D01*
X51489D01*
Y169020D01*
X53038D01*
Y167668D01*
X51685D01*
Y163973D01*
X50133Y162421D01*
X49912Y162090D01*
X49834Y161700D01*
Y160873D01*
X49794Y160856D01*
X49344Y160406D01*
X49100Y159818D01*
Y159279D01*
X48825Y159094D01*
X48638Y159034D01*
X48220Y159452D01*
Y165360D01*
X49521Y166661D01*
X49742Y166992D01*
X49820Y167382D01*
Y173450D01*
X50187D01*
Y177066D01*
X51489D01*
Y175320D01*
X56626D01*
Y176672D01*
X58232D01*
Y175320D01*
X63368D01*
Y176890D01*
X63490Y176970D01*
X64481Y177962D01*
X65139D01*
X65475Y177625D01*
X66063Y177382D01*
X66700D01*
X67288Y177625D01*
X67738Y178076D01*
X67982Y178664D01*
Y179300D01*
X67738Y179888D01*
X67288Y180338D01*
X67099Y180417D01*
Y180958D01*
X67306Y181044D01*
X67756Y181494D01*
X68000Y182082D01*
Y182718D01*
X67756Y183306D01*
X67306Y183756D01*
X66718Y184000D01*
X66082D01*
X65494Y183756D01*
X65157Y183420D01*
X60621D01*
Y185026D01*
X58443D01*
X56265D01*
Y183420D01*
X54909D01*
Y187897D01*
X54120D01*
Y188460D01*
X55472D01*
Y192416D01*
X50728D01*
Y188460D01*
X52080D01*
Y187897D01*
X50953D01*
Y183154D01*
X51012D01*
X51219Y182654D01*
X50649Y182084D01*
X50295Y182231D01*
X50187Y182330D01*
Y184492D01*
X48855D01*
X48429Y184918D01*
X48356Y185027D01*
X47770Y185613D01*
X47439Y185834D01*
X47049Y185912D01*
X45570D01*
Y187267D01*
X45627Y187279D01*
X49468D01*
Y192022D01*
X44331D01*
Y189022D01*
X44298Y189000D01*
X43975Y188677D01*
X43650Y188583D01*
X43325Y188677D01*
X43002Y189000D01*
X42968Y189022D01*
Y192022D01*
X37832D01*
Y187279D01*
X41673D01*
X41730Y187267D01*
Y185948D01*
X41694Y185912D01*
X39921D01*
X39531Y185834D01*
X39200Y185613D01*
X38614Y185027D01*
X38541Y184918D01*
X38116Y184492D01*
X36783D01*
Y182648D01*
X30669D01*
Y186839D01*
X30222D01*
X30078Y187279D01*
X30078D01*
Y192022D01*
X29208D01*
Y192628D01*
X30166D01*
Y197261D01*
X30434Y197761D01*
X31454Y197761D01*
X31722Y197372D01*
Y192722D01*
X31722Y192628D01*
X31496Y192222D01*
X31434D01*
Y190150D01*
X33612D01*
X35790D01*
Y192175D01*
X35790Y192222D01*
X35678Y192676D01*
X35678Y192722D01*
Y193980D01*
X37832D01*
Y193578D01*
X42968D01*
Y196750D01*
X43044Y196800D01*
X43286Y197043D01*
X43834Y197067D01*
X43936Y197003D01*
X44331Y196608D01*
Y193578D01*
X49468D01*
Y194930D01*
X50728D01*
Y193972D01*
X55472D01*
Y197927D01*
X50728D01*
Y196969D01*
X49468D01*
Y198321D01*
X45627D01*
X45611Y198324D01*
Y199932D01*
X46825D01*
Y202700D01*
Y205469D01*
X45307D01*
Y206130D01*
X46789Y207612D01*
X49303D01*
Y211174D01*
X46789D01*
X44991Y212972D01*
Y215211D01*
X47489D01*
Y215011D01*
X48576D01*
Y218468D01*
Y221926D01*
X47489D01*
Y221726D01*
X37453D01*
Y216340D01*
X37010Y216028D01*
X36687Y216179D01*
Y219248D01*
X32254D01*
Y215011D01*
X32389D01*
X32620Y214511D01*
X32575Y214413D01*
Y214413D01*
X31975Y213122D01*
X31969Y212980D01*
X31914Y212848D01*
X31914Y205837D01*
X31477Y205400D01*
X30869D01*
Y207400D01*
X25332D01*
Y205400D01*
X24319D01*
X23954Y205249D01*
X23454Y205457D01*
Y207320D01*
X16546D01*
X16546Y207320D01*
X16046Y207320D01*
X15669Y207320D01*
X15458Y207233D01*
X15242Y207160D01*
X14911Y206872D01*
X10199D01*
X10187Y206901D01*
X10091Y207133D01*
X10091Y207133D01*
X10091Y207133D01*
X9859Y207229D01*
X9632Y207324D01*
X9169Y207324D01*
X9053Y207276D01*
X8928Y207278D01*
X8907Y207270D01*
X8468Y207122D01*
X8468Y207122D01*
X3331D01*
Y202753D01*
X3294Y202738D01*
X3073Y202657D01*
X2721Y202333D01*
X2221Y202528D01*
Y222756D01*
X2721Y222907D01*
X3281Y222069D01*
X4352Y220998D01*
X5611Y220157D01*
X7010Y219577D01*
X8495Y219282D01*
X10009D01*
X11494Y219577D01*
X12893Y220157D01*
X14152Y220998D01*
X15223Y222069D01*
X16064Y223327D01*
X16643Y224726D01*
X16939Y226211D01*
Y227726D01*
X16643Y229211D01*
X16064Y230609D01*
X15223Y231868D01*
X14152Y232939D01*
X13493Y233380D01*
X13644Y233880D01*
X23507D01*
X23867Y233540D01*
X23867Y233380D01*
Y229500D01*
X31766D01*
Y233100D01*
D01*
Y233323D01*
X31766Y233540D01*
X32149Y233823D01*
X37067D01*
X37450Y233540D01*
X37450Y233323D01*
Y229500D01*
X40612D01*
Y229000D01*
X41112D01*
Y224460D01*
X43643D01*
X43774Y224460D01*
X44142D01*
X44274Y224460D01*
X46805D01*
Y229000D01*
X47305D01*
Y229500D01*
X50467D01*
Y233323D01*
X50467Y233540D01*
X50850Y233823D01*
X55768D01*
X56150Y233540D01*
X56150Y233323D01*
Y229500D01*
X64050D01*
Y232800D01*
D01*
Y233323D01*
X64050Y233540D01*
X64433Y233823D01*
X65220D01*
X65273Y233833D01*
X65327Y233828D01*
X65813Y233880D01*
X154527D01*
X155011Y233828D01*
X155065Y233834D01*
X155118Y233823D01*
X194488D01*
X194541Y233833D01*
X194595Y233828D01*
X195081Y233880D01*
X222576D01*
X222728Y233380D01*
D02*
G37*
G36*
X9631Y206674D02*
Y205000D01*
X15168D01*
Y206235D01*
X15668Y206671D01*
X16346Y206670D01*
Y204957D01*
X20000D01*
Y204457D01*
X20500D01*
Y201393D01*
X20587D01*
X20587Y198804D01*
X14682Y198804D01*
Y191317D01*
X14365Y191000D01*
X24700D01*
Y187484D01*
X24569Y187039D01*
X22498D01*
Y184270D01*
X21998D01*
Y183770D01*
X19426D01*
Y182266D01*
X14792D01*
X14503Y182766D01*
X14657Y183033D01*
X14864Y183806D01*
X11582D01*
X8299D01*
X8507Y183033D01*
X8661Y182766D01*
X8372Y182266D01*
X3300D01*
X3019Y201725D01*
X3512Y202179D01*
X5400D01*
Y204750D01*
X5900D01*
Y205250D01*
X8669D01*
Y206321D01*
X8925Y206577D01*
X9168Y206674D01*
X9631Y206674D01*
D02*
G37*
G36*
X37253Y215100D02*
Y215011D01*
X40070D01*
X40423Y214657D01*
X40418Y211659D01*
X36789Y211659D01*
Y206538D01*
X36789Y206250D01*
X36940Y206100D01*
X37227Y206100D01*
X40067Y206100D01*
X40420Y205746D01*
X40420Y203894D01*
X39951D01*
Y201913D01*
Y199932D01*
X40064D01*
X40418Y199578D01*
X40418Y198410D01*
X27661Y198410D01*
X26623Y197372D01*
X26210D01*
Y196959D01*
X25200Y195949D01*
X25200Y191816D01*
X18619Y191816D01*
Y193181D01*
X19300D01*
Y195950D01*
X19800D01*
Y196450D01*
X23356D01*
Y198000D01*
X24319D01*
Y204750D01*
X31746D01*
X32564Y205569D01*
X32564Y212848D01*
X33209Y214237D01*
X33211Y214266D01*
X33230Y214287D01*
X33221Y214511D01*
X33230Y214734D01*
X33514Y215044D01*
X33572Y215100D01*
X37253Y215100D01*
D02*
G37*
G36*
X232429Y157557D02*
X232429Y147498D01*
X231113D01*
Y150365D01*
X228057D01*
Y147498D01*
X227057D01*
Y150365D01*
X224001D01*
Y150217D01*
X223863Y149774D01*
X219956D01*
X219827Y150221D01*
X219827D01*
Y151800D01*
X217945D01*
Y152300D01*
X217444D01*
Y154379D01*
X216269D01*
Y157557D01*
X232429Y157557D01*
D02*
G37*
G36*
X212325Y150420D02*
X215630D01*
X215784Y150274D01*
X215583Y149774D01*
X212026D01*
Y147998D01*
X217945D01*
Y147498D01*
X218444D01*
Y145221D01*
X223292D01*
X223539Y144792D01*
X223546Y144721D01*
X223510Y144673D01*
X189422D01*
X189218Y149828D01*
X189688Y150317D01*
X204081D01*
X204471Y150394D01*
X204779Y150600D01*
X212325D01*
Y150420D01*
D02*
G37*
G36*
X229336Y132484D02*
Y131181D01*
X229374Y131091D01*
X229364Y130993D01*
X229465Y130869D01*
X229526Y130722D01*
X229617Y130684D01*
X229679Y130609D01*
X230179Y130341D01*
X230277Y130332D01*
X230359Y130277D01*
X230481Y130301D01*
X230518Y130286D01*
X230560Y130304D01*
X230671Y130293D01*
X230674Y130293D01*
X230750Y130355D01*
X230846Y130374D01*
X230878Y130396D01*
X230915Y130451D01*
X230977Y130476D01*
X231018Y130575D01*
X231058Y130608D01*
X231059Y130610D01*
X231065Y130674D01*
X231155Y130809D01*
X231142Y130874D01*
X231167Y130936D01*
Y130971D01*
X231293Y131601D01*
X231613Y132081D01*
X232093Y132402D01*
X232508Y132484D01*
X233097D01*
X233450Y132130D01*
X233405Y118899D01*
X233396Y118881D01*
X233068Y118613D01*
X232903Y118545D01*
X232752Y118590D01*
X232723Y118575D01*
X232689Y118581D01*
X232429Y118529D01*
X231863Y118642D01*
X231384Y118963D01*
X231063Y119442D01*
X230938Y120072D01*
Y123457D01*
X231063Y124087D01*
X231105Y124150D01*
X231130Y124276D01*
X231202Y124384D01*
X231176Y124510D01*
X231202Y124637D01*
X231130Y124744D01*
X231105Y124871D01*
X230804Y125321D01*
X230697Y125393D01*
X230625Y125500D01*
X230498Y125526D01*
X230391Y125597D01*
X230264Y125572D01*
X230137Y125597D01*
X230062Y125582D01*
X229249D01*
X228945Y125979D01*
X229001Y126191D01*
X225719D01*
Y127191D01*
X229001D01*
X228794Y127965D01*
X228360Y128718D01*
X227745Y129332D01*
X226993Y129767D01*
X226353Y129938D01*
Y132103D01*
X226853Y132484D01*
X229336D01*
D02*
G37*
%LPC*%
G36*
X194128Y232274D02*
X191525D01*
Y232074D01*
X183873D01*
Y232274D01*
X181900D01*
Y229309D01*
Y226344D01*
X183873D01*
Y226544D01*
X186054D01*
X186183Y226351D01*
X192155Y220379D01*
X192486Y220158D01*
X192876Y220080D01*
X212504D01*
X212551Y219903D01*
X212959Y219197D01*
X213537Y218619D01*
X214243Y218211D01*
X214252Y218209D01*
Y217691D01*
X214243Y217689D01*
X213537Y217281D01*
X212959Y216703D01*
X212551Y215997D01*
X212504Y215820D01*
X190937D01*
X180875Y225882D01*
X180900Y225942D01*
Y229309D01*
Y232274D01*
X178926D01*
Y232074D01*
X157473D01*
Y226544D01*
X161382D01*
X161573Y226082D01*
X157694Y222203D01*
X144517D01*
X144180Y222540D01*
X143592Y222783D01*
X142956D01*
X142367Y222540D01*
X141917Y222090D01*
X141678Y221512D01*
X138850Y218684D01*
X137912Y219621D01*
X137582Y219842D01*
X137230Y219912D01*
X133597Y223545D01*
X133689Y223703D01*
X133900Y224492D01*
Y225308D01*
X133689Y226097D01*
X133281Y226803D01*
X132703Y227381D01*
X131997Y227789D01*
X131208Y228000D01*
X130392D01*
X129603Y227789D01*
X128897Y227381D01*
X128319Y226803D01*
X127911Y226097D01*
X127700Y225308D01*
Y224492D01*
X127911Y223703D01*
X128024Y223508D01*
X123358Y218842D01*
X122882D01*
X122294Y218598D01*
X121844Y218148D01*
X121600Y217560D01*
Y216923D01*
X121844Y216335D01*
X122294Y215885D01*
X122882Y215642D01*
X123518D01*
X124106Y215885D01*
X124556Y216335D01*
X124800Y216923D01*
Y217400D01*
X129482Y222081D01*
X129603Y222011D01*
X130392Y221800D01*
X131208D01*
X131997Y222011D01*
X132155Y222103D01*
X136079Y218179D01*
X136410Y217958D01*
X136761Y217888D01*
X137830Y216819D01*
Y215573D01*
X136183D01*
Y211027D01*
X140335D01*
Y215573D01*
X139869D01*
Y216819D01*
X142728Y219678D01*
X142956Y219584D01*
X143592D01*
X144180Y219827D01*
X144517Y220164D01*
X158116D01*
X158507Y220241D01*
X158837Y220462D01*
X164798Y226423D01*
X164878Y226544D01*
X167680D01*
Y222600D01*
X167758Y222210D01*
X167979Y221879D01*
X200049Y189809D01*
X200380Y189587D01*
X200770Y189510D01*
X203664D01*
X203711Y189333D01*
X204119Y188626D01*
X204697Y188049D01*
X205403Y187641D01*
X206192Y187429D01*
X207008D01*
X207797Y187641D01*
X208503Y188049D01*
X208612Y188158D01*
X208800Y187970D01*
X209130Y187749D01*
X209521Y187672D01*
X209920D01*
X209952Y187594D01*
X210402Y187144D01*
X210990Y186900D01*
X211627D01*
X212215Y187144D01*
X212665Y187594D01*
X212909Y188182D01*
Y188818D01*
X212665Y189406D01*
X212215Y189856D01*
X211627Y190100D01*
X210990D01*
X210402Y189856D01*
X210044Y189866D01*
X209700Y190121D01*
Y190938D01*
X209489Y191726D01*
X209081Y192433D01*
X208503Y193010D01*
X207797Y193418D01*
X207008Y193630D01*
X206192D01*
X205403Y193418D01*
X204697Y193010D01*
X204119Y192433D01*
X203711Y191726D01*
X203664Y191549D01*
X201193D01*
X169720Y223022D01*
Y226544D01*
X171936D01*
X172017Y226423D01*
X195861Y202579D01*
X196192Y202358D01*
X196582Y202280D01*
X204348D01*
Y200731D01*
X205580D01*
Y199443D01*
X205244Y199106D01*
X205000Y198518D01*
Y197882D01*
X205244Y197294D01*
X205694Y196844D01*
X206282Y196600D01*
X206918D01*
X206996Y196632D01*
X207550Y196079D01*
X207880Y195858D01*
X208271Y195780D01*
X211564D01*
X211611Y195603D01*
X212019Y194897D01*
X212597Y194319D01*
X213303Y193911D01*
X214092Y193700D01*
X214908D01*
X215697Y193911D01*
X216403Y194319D01*
X216981Y194897D01*
X217389Y195603D01*
X217600Y196392D01*
Y197208D01*
X217389Y197997D01*
X216981Y198703D01*
X216403Y199281D01*
X215697Y199689D01*
X214908Y199900D01*
X214092D01*
X213303Y199689D01*
X212597Y199281D01*
X212019Y198703D01*
X211611Y197997D01*
X211564Y197820D01*
X208693D01*
X208200Y198312D01*
Y198518D01*
X207956Y199106D01*
X207620Y199443D01*
Y200731D01*
X209091D01*
Y205869D01*
X204348D01*
Y204320D01*
X197004D01*
X175242Y226082D01*
X175433Y226544D01*
X177393D01*
X177521Y226351D01*
X189794Y214079D01*
X190124Y213858D01*
X190514Y213780D01*
X212504D01*
X212551Y213603D01*
X212959Y212897D01*
X213537Y212319D01*
X214243Y211911D01*
X215032Y211700D01*
X215848D01*
X216636Y211911D01*
X216795Y212003D01*
X219139Y209659D01*
Y208652D01*
X218994Y208506D01*
X218750Y207918D01*
Y207282D01*
X218994Y206694D01*
X219444Y206244D01*
X220032Y206000D01*
X220668D01*
X221256Y206244D01*
X221706Y206694D01*
X221950Y207282D01*
Y207918D01*
X221706Y208506D01*
X221256Y208956D01*
X221178Y208989D01*
Y210081D01*
X221101Y210471D01*
X220880Y210802D01*
X218237Y213445D01*
X218329Y213603D01*
X218540Y214392D01*
Y215208D01*
X218329Y215997D01*
X218239Y216152D01*
X218639Y216459D01*
X230280Y204818D01*
Y201922D01*
X210839Y182481D01*
X210362D01*
X209774Y182237D01*
X209324Y181787D01*
X209081Y181199D01*
Y180562D01*
X209324Y179974D01*
X209774Y179524D01*
X210362Y179281D01*
X210999D01*
X211587Y179524D01*
X212037Y179974D01*
X212281Y180562D01*
Y181039D01*
X232021Y200779D01*
X232242Y201110D01*
X232320Y201500D01*
Y205240D01*
X232242Y205630D01*
X232021Y205961D01*
X218237Y219745D01*
X218329Y219903D01*
X218540Y220692D01*
Y221508D01*
X218329Y222297D01*
X217920Y223003D01*
X217343Y223581D01*
X216636Y223989D01*
X215848Y224200D01*
X215032D01*
X214243Y223989D01*
X213537Y223581D01*
X212959Y223003D01*
X212551Y222297D01*
X212504Y222120D01*
X193298D01*
X192292Y223126D01*
X192483Y223588D01*
X194128D01*
Y227931D01*
Y232274D01*
D02*
G37*
G36*
X153912D02*
X150561D01*
Y229317D01*
X153912D01*
Y232274D01*
D02*
G37*
G36*
X149561D02*
X146210D01*
Y229317D01*
X149561D01*
Y232274D01*
D02*
G37*
G36*
X197731D02*
X195128D01*
Y228431D01*
X197731D01*
Y232274D01*
D02*
G37*
G36*
X75998Y228702D02*
X72843D01*
Y227750D01*
X72629Y227339D01*
X72350D01*
X72343D01*
X70360D01*
Y224768D01*
Y222196D01*
X72629Y222196D01*
X72921Y222575D01*
X73129Y222575D01*
X74394D01*
X74608Y222371D01*
X74741Y222078D01*
X74791Y221958D01*
Y221829D01*
X74514Y221416D01*
X73043D01*
Y217855D01*
X72543Y217589D01*
X72429Y217667D01*
Y220840D01*
X67292D01*
Y216097D01*
X70790D01*
X71597Y215290D01*
Y214152D01*
X71674Y213761D01*
X71895Y213431D01*
X71953Y213373D01*
Y212034D01*
X71971Y211944D01*
X71575Y211549D01*
X71486Y211567D01*
X70741D01*
X70695Y211598D01*
X70305Y211676D01*
X67928D01*
X67591Y212012D01*
X67003Y212256D01*
X66367D01*
X65778Y212012D01*
X65328Y211562D01*
X65085Y210974D01*
Y210338D01*
X65328Y209750D01*
X65778Y209299D01*
X66367Y209056D01*
X67003D01*
X67591Y209299D01*
X67833Y209541D01*
X68264Y209509D01*
X68559Y209075D01*
X68542Y208991D01*
X70502D01*
Y207991D01*
X68542D01*
X68578Y207806D01*
X68779Y207506D01*
X68578Y207206D01*
X68542Y207022D01*
X70502D01*
Y206022D01*
X68527D01*
X68526Y206012D01*
X68265Y205574D01*
X68193Y205514D01*
X68098Y205496D01*
X67767Y205275D01*
X66463Y203970D01*
X60424D01*
Y205322D01*
X55287D01*
Y200579D01*
X60424D01*
Y201931D01*
X66885D01*
X67275Y202008D01*
X67606Y202229D01*
X68911Y203534D01*
X69167D01*
X69207Y203508D01*
X69517Y203446D01*
X71486D01*
X71575Y203464D01*
X71971Y203068D01*
X71953Y202979D01*
Y201010D01*
X72015Y200699D01*
X72041Y200660D01*
Y200579D01*
X71678Y200216D01*
X71457Y199885D01*
X71379Y199495D01*
Y196769D01*
X69569D01*
Y198121D01*
X64432D01*
Y193378D01*
X69569D01*
Y194730D01*
X70315D01*
X70644Y194230D01*
X70612Y194069D01*
Y184564D01*
X70435Y184517D01*
X69728Y184109D01*
X69151Y183532D01*
X68743Y182825D01*
X68532Y182036D01*
Y181220D01*
X68743Y180432D01*
X69151Y179725D01*
X69728Y179148D01*
X70435Y178740D01*
X71224Y178528D01*
X72040D01*
X72828Y178740D01*
X73535Y179148D01*
X74112Y179725D01*
X74521Y180432D01*
X74732Y181220D01*
Y182036D01*
X74521Y182825D01*
X74112Y183532D01*
X73535Y184109D01*
X72828Y184517D01*
X72651Y184564D01*
Y193264D01*
X72777Y193348D01*
X73245Y193816D01*
X73466Y194147D01*
X73544Y194537D01*
Y195750D01*
X73466Y196140D01*
X73419Y196211D01*
Y199073D01*
X73782Y199436D01*
X74003Y199767D01*
X74033Y199919D01*
X74349Y200195D01*
X74580Y200228D01*
X74734Y200198D01*
X75324D01*
X75478Y200228D01*
X75886Y199988D01*
X75978Y199887D01*
Y196614D01*
X76056Y196224D01*
X76277Y195893D01*
X78524Y193646D01*
Y191519D01*
X78601Y191129D01*
X78822Y190798D01*
X81157Y188463D01*
Y188436D01*
X81439Y187382D01*
X81985Y186438D01*
X82756Y185666D01*
X83701Y185121D01*
X84755Y184838D01*
X85846D01*
X86899Y185121D01*
X87844Y185666D01*
X88616Y186438D01*
X88819Y186791D01*
X98016D01*
X98406Y186868D01*
X98737Y187089D01*
X101621Y189973D01*
X101842Y190304D01*
X101920Y190694D01*
Y194546D01*
X103764D01*
Y201329D01*
X105069D01*
X105447Y201485D01*
X111016D01*
X111394Y201329D01*
X112244D01*
X112703Y201519D01*
X112807Y201769D01*
X119156D01*
Y206334D01*
X119599Y206701D01*
X119693Y206793D01*
X119815Y206843D01*
X119863Y206960D01*
X119954Y207049D01*
X120134Y207474D01*
X120135Y207606D01*
X120186Y207727D01*
X120188Y208966D01*
X120154Y209050D01*
X120165Y209141D01*
X120062Y209272D01*
X119999Y209425D01*
X119915Y209460D01*
X119859Y209532D01*
X119359Y209815D01*
X119194Y209835D01*
X119156Y209851D01*
Y214583D01*
X116820D01*
Y218269D01*
X117156Y218606D01*
X117400Y219194D01*
Y219830D01*
X117156Y220419D01*
X116706Y220869D01*
X116118Y221112D01*
X115482D01*
X114894Y220869D01*
X114444Y220419D01*
X114200Y219830D01*
Y219194D01*
X114444Y218606D01*
X114780Y218269D01*
Y214583D01*
X112444D01*
Y210552D01*
X112207Y210136D01*
X111547Y210135D01*
X111194Y210489D01*
Y215677D01*
X105269D01*
Y213608D01*
X99201D01*
Y214960D01*
X94064D01*
Y210554D01*
X94064Y210217D01*
X93813Y209834D01*
X93605Y209515D01*
X93591Y209439D01*
X93539Y209382D01*
X93547Y209203D01*
X93514Y209026D01*
X93557Y208963D01*
X93561Y208886D01*
X93794Y208386D01*
X93879Y208308D01*
X93923Y208202D01*
X94056Y208147D01*
X94064Y208139D01*
Y207309D01*
X88512D01*
X86641Y209180D01*
X86310Y209401D01*
X85920Y209479D01*
X84256D01*
X84097Y209510D01*
X83827D01*
X83529Y209959D01*
X81525D01*
Y210959D01*
X83485D01*
X83448Y211143D01*
X83228Y211473D01*
X83190Y211498D01*
X83342Y211999D01*
X90023D01*
X90414Y212076D01*
X90745Y212297D01*
X91213Y212766D01*
X91434Y213096D01*
X91512Y213487D01*
Y218524D01*
X94629D01*
Y223267D01*
X89686D01*
X89567Y223554D01*
X89108Y223744D01*
X87941D01*
X87618Y223610D01*
X81817D01*
Y223481D01*
X81544Y223274D01*
X81366Y223207D01*
X81165D01*
X80966Y223239D01*
X80923Y223207D01*
X80921D01*
Y223175D01*
X80152D01*
Y223229D01*
Y225139D01*
X76498D01*
Y225639D01*
X75998D01*
Y228702D01*
D02*
G37*
G36*
X80152D02*
X76998D01*
Y226139D01*
X80152D01*
Y228702D01*
D02*
G37*
G36*
X153912Y228317D02*
X150561D01*
Y225359D01*
X153912D01*
Y228317D01*
D02*
G37*
G36*
X149561D02*
X146210D01*
Y225359D01*
X149561D01*
Y228317D01*
D02*
G37*
G36*
X69360Y227339D02*
X67092D01*
Y225268D01*
X69360D01*
Y227339D01*
D02*
G37*
G36*
X119242Y230083D02*
X118558D01*
X117896Y229906D01*
X117304Y229563D01*
X116820Y229079D01*
X116477Y228486D01*
X116300Y227825D01*
Y227140D01*
X116477Y226479D01*
X116820Y225886D01*
X117304Y225402D01*
X117896Y225060D01*
X118558Y224883D01*
X119242D01*
X119904Y225060D01*
X120496Y225402D01*
X120981Y225886D01*
X121323Y226479D01*
X121500Y227140D01*
Y227825D01*
X121323Y228486D01*
X120981Y229079D01*
X120496Y229563D01*
X119904Y229906D01*
X119242Y230083D01*
D02*
G37*
G36*
X87742Y231878D02*
X81817D01*
Y225953D01*
X87742D01*
Y227282D01*
X89492D01*
Y224823D01*
X94629D01*
Y229566D01*
X89492D01*
Y229321D01*
X87742D01*
Y231878D01*
D02*
G37*
G36*
X50467Y228500D02*
X47805D01*
Y224460D01*
X50467D01*
Y224918D01*
D01*
Y228500D01*
D02*
G37*
G36*
X40112D02*
X37450D01*
Y224460D01*
X40112D01*
Y228500D01*
D02*
G37*
G36*
X197731Y227431D02*
X195128D01*
Y223588D01*
X197731D01*
Y227431D01*
D02*
G37*
G36*
X69360Y224268D02*
X67092D01*
Y222196D01*
X69360D01*
Y224268D01*
D02*
G37*
G36*
X64050Y228500D02*
X56150D01*
Y224485D01*
X51229D01*
Y220248D01*
X61097D01*
Y224460D01*
X64050D01*
Y228500D01*
D02*
G37*
G36*
X31766D02*
X23867D01*
Y224460D01*
X26820D01*
Y220248D01*
X36687D01*
Y224485D01*
X31766D01*
Y228500D01*
D02*
G37*
G36*
X50664Y221926D02*
X49576D01*
Y218969D01*
X50664D01*
Y221926D01*
D02*
G37*
G36*
X61097Y219248D02*
X56663D01*
Y215011D01*
X61097D01*
Y219248D01*
D02*
G37*
G36*
X55663D02*
X51229D01*
Y215011D01*
X55663D01*
Y219248D01*
D02*
G37*
G36*
X50664Y217969D02*
X49576D01*
Y215011D01*
X50664D01*
Y217969D01*
D02*
G37*
G36*
X31254Y219248D02*
X26820D01*
Y215011D01*
X31254D01*
Y219248D01*
D02*
G37*
G36*
X135217Y215573D02*
X131065D01*
Y213608D01*
X127894D01*
X127557Y213945D01*
X126969Y214188D01*
X126332D01*
X125744Y213945D01*
X125294Y213495D01*
X125050Y212907D01*
Y212270D01*
X125294Y211682D01*
X125631Y211345D01*
Y207473D01*
X125165D01*
Y205088D01*
X124961Y204952D01*
X105328Y185320D01*
X102543D01*
X102206Y185656D01*
X101618Y185900D01*
X100982D01*
X100394Y185656D01*
X99944Y185206D01*
X99700Y184618D01*
Y183982D01*
X99944Y183394D01*
X100394Y182944D01*
X100982Y182700D01*
X101618D01*
X102206Y182944D01*
X102543Y183280D01*
X105750D01*
X106141Y183358D01*
X106471Y183579D01*
X125819Y202927D01*
X129317D01*
Y207473D01*
X127670D01*
Y211345D01*
X127894Y211569D01*
X131065D01*
Y211027D01*
X135217D01*
Y215573D01*
D02*
G37*
G36*
X23654Y214607D02*
X20500D01*
Y212043D01*
X23654D01*
Y214607D01*
D02*
G37*
G36*
X19500D02*
X16346D01*
Y212043D01*
X19500D01*
Y214607D01*
D02*
G37*
G36*
X8669Y213621D02*
X6400D01*
Y211550D01*
X8669D01*
Y213621D01*
D02*
G37*
G36*
X5400D02*
X3131D01*
Y211550D01*
X5400D01*
Y213621D01*
D02*
G37*
G36*
X15168Y213371D02*
X12900D01*
Y211299D01*
X15168D01*
Y213371D01*
D02*
G37*
G36*
X11900D02*
X9631D01*
Y211299D01*
X11900D01*
Y213371D01*
D02*
G37*
G36*
X60624Y211821D02*
X58356D01*
Y209750D01*
X60624D01*
Y211821D01*
D02*
G37*
G36*
X57356D02*
X55087D01*
Y209750D01*
X57356D01*
Y211821D01*
D02*
G37*
G36*
X23654Y211043D02*
X20500D01*
Y208479D01*
X23654D01*
Y211043D01*
D02*
G37*
G36*
X19500D02*
X16346D01*
Y208479D01*
X19500D01*
Y211043D01*
D02*
G37*
G36*
X8669Y210550D02*
X6400D01*
Y208478D01*
X8669D01*
Y210550D01*
D02*
G37*
G36*
X5400D02*
X3131D01*
Y208478D01*
X5400D01*
Y210550D01*
D02*
G37*
G36*
X30869Y210472D02*
X28600D01*
Y208400D01*
X30869D01*
Y210472D01*
D02*
G37*
G36*
X27600D02*
X25332D01*
Y208400D01*
X27600D01*
Y210472D01*
D02*
G37*
G36*
X15168Y210299D02*
X12900D01*
Y208228D01*
X15168D01*
Y208347D01*
Y210299D01*
D02*
G37*
G36*
X11900D02*
X9631D01*
Y208228D01*
X11900D01*
Y210299D01*
D02*
G37*
G36*
X60624Y208750D02*
X58356D01*
Y206678D01*
X60624D01*
Y208750D01*
D02*
G37*
G36*
X57356D02*
X55087D01*
Y206678D01*
X57356D01*
Y208750D01*
D02*
G37*
G36*
X140908Y208300D02*
X140092D01*
X139303Y208089D01*
X138597Y207681D01*
X138019Y207103D01*
X137611Y206397D01*
X137564Y206220D01*
X134435D01*
Y207473D01*
X130283D01*
Y202927D01*
X134435D01*
Y204180D01*
X137564D01*
X137611Y204003D01*
X138019Y203297D01*
X138597Y202719D01*
X139303Y202311D01*
X140092Y202100D01*
X140908D01*
X141697Y202311D01*
X142403Y202719D01*
X142981Y203297D01*
X143389Y204003D01*
X143408Y204077D01*
X146410D01*
Y202528D01*
X152334D01*
Y207665D01*
X146410D01*
Y206116D01*
X143464D01*
X143389Y206397D01*
X142981Y207103D01*
X142403Y207681D01*
X141697Y208089D01*
X140908Y208300D01*
D02*
G37*
G36*
X215591Y206068D02*
X213519D01*
Y203800D01*
X215591D01*
Y206068D01*
D02*
G37*
G36*
X212519D02*
X210447D01*
Y203800D01*
X212519D01*
Y206068D01*
D02*
G37*
G36*
X49503Y205469D02*
X47825D01*
Y203200D01*
X49503D01*
Y205469D01*
D02*
G37*
G36*
X215591Y202800D02*
X213519D01*
Y200532D01*
X215591D01*
Y202800D01*
D02*
G37*
G36*
X212519D02*
X210447D01*
Y200532D01*
X212519D01*
Y202800D01*
D02*
G37*
G36*
X49503Y202200D02*
X47825D01*
Y199932D01*
X49503D01*
Y202200D01*
D02*
G37*
G36*
X152534Y193298D02*
X149872D01*
Y191030D01*
X152534D01*
Y193298D01*
D02*
G37*
G36*
X148872D02*
X146210D01*
Y191030D01*
X148872D01*
Y193298D01*
D02*
G37*
G36*
X69769Y192022D02*
X67500D01*
Y189950D01*
X69769D01*
Y192022D01*
D02*
G37*
G36*
X66500D02*
X64231D01*
Y189950D01*
X66500D01*
Y192022D01*
D02*
G37*
G36*
X152534Y190030D02*
X149872D01*
Y187761D01*
X152534D01*
Y190030D01*
D02*
G37*
G36*
X148872D02*
X146210D01*
Y187761D01*
X148872D01*
Y190030D01*
D02*
G37*
G36*
X35790Y189150D02*
X34112D01*
Y187079D01*
X35790D01*
Y189150D01*
D02*
G37*
G36*
X33112D02*
X31434D01*
Y187079D01*
X33112D01*
Y189150D01*
D02*
G37*
G36*
X69769Y188950D02*
X67500D01*
Y186879D01*
X69769D01*
Y188950D01*
D02*
G37*
G36*
X66500D02*
X64231D01*
Y186879D01*
X66500D01*
Y188950D01*
D02*
G37*
G36*
X60621Y188097D02*
X58943D01*
Y186026D01*
X60621D01*
Y188097D01*
D02*
G37*
G36*
X57943D02*
X56265D01*
Y186026D01*
X57943D01*
Y188097D01*
D02*
G37*
G36*
X190996Y189948D02*
X182315D01*
Y183433D01*
X190996D01*
Y189948D01*
D02*
G37*
G36*
X167492D02*
X158811D01*
Y183433D01*
X167492D01*
Y189948D01*
D02*
G37*
G36*
X85846Y183125D02*
X84755D01*
X83701Y182843D01*
X82756Y182297D01*
X81985Y181526D01*
X81439Y180581D01*
X81157Y179527D01*
Y178436D01*
X81439Y177383D01*
X81985Y176438D01*
X82756Y175666D01*
X83701Y175121D01*
X84755Y174838D01*
X85846D01*
X86899Y175121D01*
X87844Y175666D01*
X88616Y176438D01*
X89161Y177383D01*
X89443Y178436D01*
Y179527D01*
X89161Y180581D01*
X88616Y181526D01*
X87844Y182297D01*
X86899Y182843D01*
X85846Y183125D01*
D02*
G37*
G36*
X63569Y173964D02*
X61300D01*
Y171892D01*
X63569D01*
Y173964D01*
D02*
G37*
G36*
X60300D02*
X58031D01*
Y171892D01*
X60300D01*
Y173964D01*
D02*
G37*
G36*
X206540Y174251D02*
X204075D01*
Y171786D01*
X206540D01*
Y174251D01*
D02*
G37*
G36*
X203075D02*
X200609D01*
Y171786D01*
X203075D01*
Y174251D01*
D02*
G37*
G36*
X179163Y174044D02*
X176697D01*
Y171579D01*
X179163D01*
Y174044D01*
D02*
G37*
G36*
X175697D02*
X173232D01*
Y171579D01*
X175697D01*
Y174044D01*
D02*
G37*
G36*
X169565D02*
X167100D01*
Y171579D01*
X169565D01*
Y174044D01*
D02*
G37*
G36*
X166100D02*
X163635D01*
Y171579D01*
X166100D01*
Y174044D01*
D02*
G37*
G36*
X198316Y172833D02*
X196245D01*
Y171155D01*
X198316D01*
Y172833D01*
D02*
G37*
G36*
X195245D02*
X193173D01*
Y171155D01*
X195245D01*
Y172833D01*
D02*
G37*
G36*
X89643Y173325D02*
X85800D01*
Y169482D01*
X89643D01*
Y173325D01*
D02*
G37*
G36*
X84800D02*
X80957D01*
Y169482D01*
X84800D01*
Y173325D01*
D02*
G37*
G36*
X63569Y170892D02*
X61300D01*
Y168821D01*
X63569D01*
Y170892D01*
D02*
G37*
G36*
X60300D02*
X58031D01*
Y168821D01*
X60300D01*
Y170892D01*
D02*
G37*
G36*
X198316Y170155D02*
X196245D01*
Y168477D01*
X198316D01*
Y168982D01*
Y170155D01*
D02*
G37*
G36*
X195245D02*
X193173D01*
Y168982D01*
Y168477D01*
X195245D01*
Y170155D01*
D02*
G37*
G36*
X206540Y170786D02*
X204075D01*
Y168321D01*
X206540D01*
Y168982D01*
Y170786D01*
D02*
G37*
G36*
X203075D02*
X200609D01*
Y168982D01*
Y168321D01*
X203075D01*
Y170786D01*
D02*
G37*
G36*
X179163Y170579D02*
X176697D01*
Y168114D01*
X179163D01*
Y168982D01*
Y170579D01*
D02*
G37*
G36*
X175697D02*
X173232D01*
Y168982D01*
Y168114D01*
X175697D01*
Y170579D01*
D02*
G37*
G36*
X169565D02*
X167100D01*
Y168114D01*
X169565D01*
Y168982D01*
Y170579D01*
D02*
G37*
G36*
X166100D02*
X163635D01*
Y168982D01*
Y168114D01*
X166100D01*
Y170579D01*
D02*
G37*
G36*
X44344Y169456D02*
X42765D01*
Y167089D01*
X44344D01*
Y169456D01*
D02*
G37*
G36*
X62928Y167868D02*
X60856D01*
Y165600D01*
X62928D01*
Y167868D01*
D02*
G37*
G36*
X59856D02*
X57785D01*
Y165600D01*
X59856D01*
Y167868D01*
D02*
G37*
G36*
X192420Y166279D02*
X190644D01*
Y164699D01*
X192420D01*
Y166279D01*
D02*
G37*
G36*
X189644D02*
X187868D01*
Y164699D01*
X189644D01*
Y166279D01*
D02*
G37*
G36*
X89643Y168482D02*
X85800D01*
Y164638D01*
X89643D01*
Y168482D01*
D02*
G37*
G36*
X84800D02*
X80957D01*
Y164638D01*
X84800D01*
Y168482D01*
D02*
G37*
G36*
X44344Y166089D02*
X42765D01*
Y163722D01*
X44344D01*
Y166089D01*
D02*
G37*
G36*
X62928Y164600D02*
X60856D01*
Y162331D01*
X62928D01*
Y164600D01*
D02*
G37*
G36*
X59856D02*
X57785D01*
Y162331D01*
X59856D01*
Y164600D01*
D02*
G37*
G36*
X198116Y167121D02*
X193373D01*
Y163165D01*
X194380D01*
Y162487D01*
X193028D01*
Y158531D01*
X197772D01*
Y162487D01*
X196420D01*
Y163165D01*
X198116D01*
Y167121D01*
D02*
G37*
G36*
X182701Y158804D02*
Y157348D01*
X183493D01*
Y157831D01*
X183416Y158220D01*
X183195Y158551D01*
X182865Y158771D01*
X182701Y158804D01*
D02*
G37*
G36*
X181701D02*
X181538Y158771D01*
X181207Y158551D01*
X180987Y158220D01*
X180943Y158001D01*
X181000Y157863D01*
Y157754D01*
X181000D01*
Y157348D01*
X181701D01*
Y158804D01*
D02*
G37*
G36*
X209483Y157569D02*
X208100D01*
Y156383D01*
X209483D01*
Y157569D01*
D02*
G37*
G36*
X207100D02*
X205717D01*
Y156383D01*
X207100D01*
Y157569D01*
D02*
G37*
G36*
X123518Y185700D02*
X122882D01*
X122294Y185456D01*
X121844Y185006D01*
X121600Y184418D01*
Y183782D01*
X121844Y183194D01*
X122180Y182857D01*
Y175563D01*
X117361Y170744D01*
X117140Y170413D01*
X117062Y170023D01*
Y136648D01*
X114018Y133603D01*
X113556Y133795D01*
Y137389D01*
X106844D01*
Y134620D01*
X104811D01*
Y135814D01*
X101052D01*
Y135151D01*
X100182D01*
X99716Y135232D01*
X99716Y135651D01*
Y140566D01*
X93004D01*
Y138120D01*
X92837D01*
X92447Y138042D01*
X92116Y137821D01*
X91586Y137291D01*
X91043Y137455D01*
X91019Y137580D01*
X91632Y138193D01*
X91853Y138524D01*
X91931Y138914D01*
Y139577D01*
X91853Y139967D01*
X91632Y140298D01*
X91406Y140524D01*
Y141101D01*
X91162Y141689D01*
X90918Y141933D01*
X91052Y142433D01*
X91052D01*
Y147767D01*
X84340D01*
Y142433D01*
X86676D01*
Y141205D01*
X84690Y139219D01*
X84469Y138888D01*
X84392Y138498D01*
Y127765D01*
X82055D01*
Y121841D01*
X86011D01*
Y125305D01*
X86280Y125563D01*
X86780Y125422D01*
Y121841D01*
X90736D01*
Y127765D01*
X90316D01*
Y131480D01*
X90780D01*
Y133601D01*
X92585Y135406D01*
X93004Y135232D01*
Y135232D01*
X93590D01*
X93610Y135207D01*
X93772Y134732D01*
X92774Y133735D01*
X92553Y133404D01*
X92476Y133014D01*
Y127765D01*
X91504D01*
Y121841D01*
X95460D01*
Y127765D01*
X94515D01*
Y132592D01*
X95035Y133112D01*
X101052D01*
Y132575D01*
X100170D01*
X99780Y132497D01*
X99449Y132276D01*
X97486Y130312D01*
X97265Y129982D01*
X97187Y129591D01*
Y127765D01*
X96229D01*
Y121841D01*
X100185D01*
Y127765D01*
X99226D01*
Y129169D01*
X100593Y130535D01*
X113411D01*
X113802Y130613D01*
X114132Y130834D01*
X117920Y134622D01*
X118382Y134430D01*
Y132616D01*
X123800D01*
Y134892D01*
Y137169D01*
X119102D01*
Y140490D01*
X146011Y140490D01*
X148998D01*
Y137281D01*
X149188Y136822D01*
X149648Y136632D01*
X161528D01*
X161988Y136822D01*
X162093Y137078D01*
X166472D01*
Y139414D01*
X167987D01*
X168377Y139492D01*
X168707Y139713D01*
X169469Y140474D01*
X171448D01*
X171458Y140468D01*
X171770Y140406D01*
X173735D01*
X174047Y140468D01*
X174311Y140644D01*
X174487Y140908D01*
X174549Y141220D01*
Y141768D01*
X174487Y142079D01*
X174311Y142343D01*
Y142613D01*
X174487Y142877D01*
X174549Y143188D01*
Y143736D01*
X174487Y144048D01*
X174311Y144312D01*
Y144581D01*
X174487Y144845D01*
X174549Y145157D01*
Y145705D01*
X174487Y146016D01*
X174422Y146114D01*
X174496Y146256D01*
X174937Y146273D01*
Y150494D01*
X174496Y150511D01*
X174422Y150653D01*
X174487Y150751D01*
X174549Y151062D01*
Y151610D01*
X174487Y151922D01*
X174311Y152186D01*
Y152455D01*
X174487Y152719D01*
X174549Y153031D01*
Y153579D01*
X174487Y153890D01*
X174311Y154154D01*
Y154424D01*
X174487Y154688D01*
X174543Y154968D01*
X174914Y155340D01*
X175413D01*
X175446Y155290D01*
X175710Y155113D01*
X176022Y155051D01*
X176570D01*
X176881Y155113D01*
X177145Y155290D01*
X177322Y155554D01*
X177384Y155865D01*
Y157831D01*
X177322Y158142D01*
X177315Y158152D01*
Y161227D01*
X178963D01*
Y166758D01*
X173432D01*
Y165012D01*
X169365D01*
Y166758D01*
X163835D01*
Y165012D01*
X162830D01*
X160197Y167645D01*
X160289Y167803D01*
X160500Y168592D01*
Y169408D01*
X160289Y170197D01*
X159881Y170903D01*
X159303Y171481D01*
X158597Y171889D01*
X158420Y171936D01*
Y173157D01*
X158756Y173494D01*
X159000Y174082D01*
Y174718D01*
X158756Y175306D01*
X158306Y175756D01*
X157718Y176000D01*
X157082D01*
X156494Y175756D01*
X156044Y175306D01*
X155800Y174718D01*
Y174082D01*
X156044Y173494D01*
X156380Y173157D01*
Y171936D01*
X156203Y171889D01*
X155497Y171481D01*
X154919Y170903D01*
X154511Y170197D01*
X154300Y169408D01*
Y168592D01*
X154511Y167803D01*
X154919Y167097D01*
X155497Y166519D01*
X156203Y166111D01*
X156992Y165900D01*
X157808D01*
X158597Y166111D01*
X158755Y166203D01*
X161687Y163271D01*
X162017Y163050D01*
X162408Y162973D01*
X163835D01*
Y161227D01*
X169365D01*
Y162973D01*
X173432D01*
Y161227D01*
X175276D01*
Y158152D01*
X175270Y158142D01*
X175208Y157831D01*
Y157379D01*
X174492D01*
X174102Y157301D01*
X173771Y157080D01*
X173052Y156361D01*
X171770D01*
X171458Y156299D01*
X171194Y156123D01*
X171018Y155859D01*
X170956Y155547D01*
Y154999D01*
X170990Y154824D01*
X170768Y154435D01*
X170659Y154324D01*
X169976D01*
Y155086D01*
X167005D01*
Y151720D01*
X167005D01*
X166981Y151642D01*
X166901D01*
X166433Y152132D01*
Y155086D01*
X163911D01*
Y155180D01*
X163848Y155332D01*
X163829Y155495D01*
X163756Y155553D01*
X163721Y155639D01*
X163569Y155702D01*
X163440Y155804D01*
X152749Y158859D01*
X152749D01*
X152504Y158929D01*
X152481Y158926D01*
X152462Y158940D01*
X151986Y159042D01*
X151942Y159079D01*
Y172424D01*
X152380Y172789D01*
X152477Y172882D01*
X152601Y172934D01*
X152648Y173048D01*
X152737Y173134D01*
X152921Y173558D01*
X152924Y173692D01*
X152975Y173817D01*
Y175733D01*
X152785Y176192D01*
X152326Y176382D01*
X139968D01*
X139848Y176333D01*
X139719D01*
X139392Y176197D01*
X139300Y176106D01*
X139181Y176057D01*
X139131Y175937D01*
X139040Y175846D01*
Y175717D01*
X138991Y175597D01*
Y153105D01*
X139181Y152646D01*
X139640Y152455D01*
X152026D01*
X152875Y151606D01*
X152665Y151108D01*
X133415D01*
X132319Y152204D01*
Y173258D01*
X132129Y173717D01*
X132007Y173839D01*
X131547Y174030D01*
X130291D01*
X129832Y173839D01*
X129642Y173380D01*
Y173193D01*
X123347D01*
X123156Y173655D01*
X123921Y174420D01*
X124142Y174750D01*
X124220Y175141D01*
Y182857D01*
X124556Y183194D01*
X124800Y183782D01*
Y184418D01*
X124556Y185006D01*
X124106Y185456D01*
X123518Y185700D01*
D02*
G37*
G36*
X183493Y156348D02*
X182701D01*
Y154892D01*
X182865Y154925D01*
X183195Y155146D01*
X183416Y155476D01*
X183493Y155865D01*
Y156348D01*
D02*
G37*
G36*
X181701D02*
X181000D01*
Y155455D01*
X181207Y155146D01*
X181538Y154925D01*
X181701Y154892D01*
Y156348D01*
D02*
G37*
G36*
X46924Y153117D02*
X45344D01*
Y150750D01*
X46924D01*
Y153117D01*
D02*
G37*
G36*
X44344D02*
X42765D01*
Y150750D01*
X44344D01*
Y153117D01*
D02*
G37*
G36*
X6300Y153265D02*
Y150482D01*
X9082D01*
X8875Y151256D01*
X8441Y152009D01*
X7826Y152623D01*
X7074Y153058D01*
X6300Y153265D01*
D02*
G37*
G36*
X90124Y159039D02*
X89488D01*
X88900Y158795D01*
X88450Y158345D01*
X88206Y157757D01*
Y157120D01*
X88450Y156532D01*
X88786Y156195D01*
Y155247D01*
X84340D01*
Y149913D01*
X91052D01*
Y155247D01*
X90826D01*
Y156195D01*
X91162Y156532D01*
X91406Y157120D01*
Y157757D01*
X91162Y158345D01*
X90712Y158795D01*
X90124Y159039D01*
D02*
G37*
G36*
X46924Y149750D02*
X45344D01*
Y147383D01*
X46924D01*
Y149750D01*
D02*
G37*
G36*
X44344D02*
X42765D01*
Y147383D01*
X44344D01*
Y149750D01*
D02*
G37*
G36*
X9082Y149482D02*
X6300D01*
Y146700D01*
X7074Y146907D01*
X7826Y147342D01*
X8441Y147956D01*
X8875Y148709D01*
X9082Y149482D01*
D02*
G37*
G36*
X97071Y152644D02*
X96435D01*
X95847Y152400D01*
X95397Y151950D01*
X95153Y151362D01*
Y150725D01*
X95397Y150137D01*
X95734Y149800D01*
Y148047D01*
X93004D01*
Y142713D01*
X99716D01*
Y148047D01*
X97773D01*
Y149800D01*
X98110Y150137D01*
X98353Y150725D01*
Y151362D01*
X98110Y151950D01*
X97659Y152400D01*
X97071Y152644D01*
D02*
G37*
G36*
X54769Y144121D02*
X52500D01*
Y142050D01*
X54769D01*
Y144121D01*
D02*
G37*
G36*
X51500D02*
X49231D01*
Y142050D01*
X51500D01*
Y144121D01*
D02*
G37*
G36*
X79627Y154342D02*
X78991D01*
X78403Y154098D01*
X77953Y153648D01*
X77709Y153060D01*
Y152424D01*
X77953Y151836D01*
X78289Y151499D01*
Y146178D01*
X75953D01*
Y140845D01*
X82665D01*
Y146178D01*
X80329D01*
Y151499D01*
X80665Y151836D01*
X80909Y152424D01*
Y153060D01*
X80665Y153648D01*
X80215Y154098D01*
X79627Y154342D01*
D02*
G37*
G36*
X181701Y141875D02*
X181538Y141842D01*
X181207Y141621D01*
X181000Y141312D01*
X181000Y140419D01*
X181701D01*
Y141875D01*
D02*
G37*
G36*
X187700Y140994D02*
X186244D01*
Y140202D01*
X186727D01*
X187117Y140279D01*
X187447Y140500D01*
X187668Y140830D01*
X187700Y140994D01*
D02*
G37*
G36*
X110482Y149098D02*
X109845D01*
X109257Y148854D01*
X108807Y148404D01*
X108564Y147816D01*
Y147179D01*
X108807Y146591D01*
X109180Y146218D01*
Y144869D01*
X106844D01*
Y139535D01*
X113556D01*
Y144869D01*
X111220D01*
Y146291D01*
X111520Y146591D01*
X111764Y147179D01*
Y147816D01*
X111520Y148404D01*
X111070Y148854D01*
X110482Y149098D01*
D02*
G37*
G36*
X32072Y145111D02*
X31435D01*
X30847Y144868D01*
X30397Y144418D01*
X30154Y143830D01*
Y143193D01*
X30397Y142605D01*
X30847Y142155D01*
X31435Y141911D01*
X31912D01*
X32625Y141198D01*
X32956Y140977D01*
X33346Y140899D01*
X33994D01*
Y138980D01*
X38541D01*
Y143133D01*
X33994D01*
Y143133D01*
X33518Y143189D01*
X33354Y143353D01*
Y143830D01*
X33110Y144418D01*
X32660Y144868D01*
X32072Y145111D01*
D02*
G37*
G36*
X54769Y141050D02*
X52500D01*
Y138978D01*
X54769D01*
Y141050D01*
D02*
G37*
G36*
X51500D02*
X49231D01*
Y138978D01*
X51500D01*
Y141050D01*
D02*
G37*
G36*
X183493Y139419D02*
X182701D01*
Y137963D01*
X182865Y137996D01*
X183195Y138216D01*
X183416Y138547D01*
X183493Y138936D01*
Y139419D01*
D02*
G37*
G36*
X181701D02*
X181000D01*
Y139013D01*
X181000Y138904D01*
X180943Y138766D01*
X180987Y138547D01*
X181207Y138216D01*
X181538Y137996D01*
X181701Y137963D01*
Y139419D01*
D02*
G37*
G36*
X104118Y143465D02*
X103482D01*
X102894Y143221D01*
X102444Y142771D01*
X102200Y142183D01*
Y141546D01*
X102232Y141468D01*
X102210Y141446D01*
X101989Y141115D01*
X101911Y140725D01*
Y139751D01*
X101052D01*
Y136386D01*
X104811D01*
Y139751D01*
X103951D01*
Y140265D01*
X104118D01*
X104706Y140508D01*
X105156Y140958D01*
X105400Y141546D01*
Y142183D01*
X105156Y142771D01*
X104706Y143221D01*
X104118Y143465D01*
D02*
G37*
G36*
X217444Y137766D02*
X212026D01*
Y135990D01*
X217444D01*
Y137766D01*
D02*
G37*
G36*
X209999Y137766D02*
X204581D01*
Y135990D01*
X209999D01*
Y137766D01*
D02*
G37*
G36*
X203581D02*
X198163D01*
Y135990D01*
X203581D01*
Y137766D01*
D02*
G37*
G36*
X145118Y137372D02*
X139700D01*
Y135595D01*
X145118D01*
Y137372D01*
D02*
G37*
G36*
X138700D02*
X133282D01*
Y135595D01*
X138700D01*
Y137372D01*
D02*
G37*
G36*
X130218Y137169D02*
X124800D01*
Y135392D01*
X130218D01*
Y137169D01*
D02*
G37*
G36*
X166672Y135722D02*
X164600D01*
Y134044D01*
X166672D01*
Y134606D01*
D01*
Y135722D01*
D02*
G37*
G36*
X163600D02*
X161528D01*
Y134624D01*
D01*
Y134044D01*
X163600D01*
Y135722D01*
D02*
G37*
G36*
X172470Y136270D02*
X170398D01*
Y134002D01*
X172470D01*
Y136270D01*
D02*
G37*
G36*
X169398D02*
X167326D01*
Y134337D01*
D01*
Y134002D01*
X169398D01*
Y136270D01*
D02*
G37*
G36*
X223863Y134990D02*
X218444D01*
Y133213D01*
X223863D01*
Y134990D01*
D02*
G37*
G36*
X217444D02*
X212026D01*
Y134132D01*
Y133213D01*
X217444D01*
Y134990D01*
D02*
G37*
G36*
X209999Y134990D02*
X204581D01*
Y133213D01*
X209999D01*
Y134132D01*
Y134990D01*
D02*
G37*
G36*
X203581D02*
X198163D01*
Y134132D01*
Y133213D01*
X203581D01*
Y134990D01*
D02*
G37*
G36*
X145118Y134595D02*
X139700D01*
Y132819D01*
X145118D01*
Y134595D01*
D02*
G37*
G36*
X138700D02*
X133282D01*
Y132819D01*
X138700D01*
Y134595D01*
D02*
G37*
G36*
X130218Y134392D02*
X124800D01*
Y132616D01*
X130218D01*
Y134392D01*
D02*
G37*
G36*
X166672Y133044D02*
X164600D01*
Y131366D01*
X166672D01*
Y133044D01*
D02*
G37*
G36*
X163600D02*
X161528D01*
Y131366D01*
X163600D01*
Y133044D01*
D02*
G37*
G36*
X176570Y141716D02*
X176022D01*
X175710Y141654D01*
X175446Y141477D01*
X175270Y141213D01*
X175208Y140902D01*
Y138936D01*
X175270Y138625D01*
X175276Y138615D01*
Y136070D01*
X173826D01*
Y130933D01*
X178569D01*
Y136070D01*
X177315D01*
Y138615D01*
X177322Y138625D01*
X177384Y138936D01*
Y140902D01*
X177322Y141213D01*
X177145Y141477D01*
X176881Y141654D01*
X176570Y141716D01*
D02*
G37*
G36*
X172470Y133002D02*
X170398D01*
Y130733D01*
X172470D01*
Y133002D01*
D02*
G37*
G36*
X169398D02*
X167326D01*
Y130733D01*
X169398D01*
Y133002D01*
D02*
G37*
G36*
X34243Y127965D02*
X32565D01*
Y125303D01*
X34243D01*
Y127965D01*
D02*
G37*
G36*
X76763D02*
X75085D01*
Y125303D01*
X76763D01*
Y127965D01*
D02*
G37*
G36*
X124007D02*
X122329D01*
Y125303D01*
X124007D01*
Y127965D01*
D02*
G37*
G36*
X121329D02*
X119651D01*
Y125303D01*
X121329D01*
Y127965D01*
D02*
G37*
G36*
X31565D02*
X29887D01*
Y125303D01*
X31565D01*
Y127965D01*
D02*
G37*
G36*
X74085D02*
X72407D01*
Y125303D01*
X74085D01*
Y127965D01*
D02*
G37*
G36*
X138109Y127117D02*
X135840D01*
Y125045D01*
X138109D01*
Y127117D01*
D02*
G37*
G36*
X134840D02*
X132572D01*
Y125045D01*
X134840D01*
Y127117D01*
D02*
G37*
G36*
X158664Y124337D02*
X158091Y124183D01*
X157457Y123817D01*
X156939Y123300D01*
X156573Y122666D01*
X156420Y122092D01*
X158664D01*
Y124337D01*
D02*
G37*
G36*
X138109Y124045D02*
X135840D01*
Y121974D01*
X138109D01*
Y124045D01*
D02*
G37*
G36*
X134840D02*
X132572D01*
Y121974D01*
X134840D01*
Y124045D01*
D02*
G37*
G36*
X119082Y127765D02*
X115126D01*
Y121841D01*
X119082D01*
Y127765D01*
D02*
G37*
G36*
X114358D02*
X110402D01*
Y121841D01*
X114358D01*
Y127765D01*
D02*
G37*
G36*
X109633D02*
X105677D01*
Y121841D01*
X109633D01*
Y127765D01*
D02*
G37*
G36*
X104909D02*
X100953D01*
Y121841D01*
X104909D01*
Y127765D01*
D02*
G37*
G36*
X82665Y138698D02*
X75953D01*
Y133364D01*
X81223D01*
X81280Y133307D01*
Y130794D01*
X80706Y130219D01*
X80143D01*
X79753Y130142D01*
X79422Y129921D01*
X78588Y129086D01*
X78367Y128755D01*
X78289Y128365D01*
Y127765D01*
X77331D01*
Y121841D01*
X81287D01*
Y127765D01*
X81287Y127765D01*
X81375Y128229D01*
X81519Y128258D01*
X81849Y128479D01*
X83021Y129650D01*
X83242Y129981D01*
X83320Y130371D01*
Y133729D01*
X83242Y134119D01*
X83021Y134450D01*
X82665Y134806D01*
Y138698D01*
D02*
G37*
G36*
X70118Y141827D02*
X69482D01*
X68894Y141584D01*
X68444Y141134D01*
X68200Y140546D01*
Y139909D01*
X68444Y139321D01*
X68877Y138888D01*
Y138252D01*
X68700Y138205D01*
X67993Y137796D01*
X67416Y137219D01*
X67008Y136512D01*
X66797Y135724D01*
Y134908D01*
X67008Y134119D01*
X67416Y133412D01*
X67993Y132835D01*
X68700Y132427D01*
X68877Y132380D01*
Y127765D01*
X67882D01*
Y121841D01*
X71838D01*
Y127765D01*
X70916D01*
Y132380D01*
X71093Y132427D01*
X71800Y132835D01*
X72378Y133412D01*
X72786Y134119D01*
X72997Y134908D01*
Y135724D01*
X72786Y136512D01*
X72378Y137219D01*
X71800Y137796D01*
X71093Y138205D01*
X70916Y138252D01*
Y139081D01*
X71156Y139321D01*
X71400Y139909D01*
Y140546D01*
X71156Y141134D01*
X70706Y141584D01*
X70118Y141827D01*
D02*
G37*
G36*
X57665Y127765D02*
X53709D01*
Y121841D01*
X57665D01*
Y127765D01*
D02*
G37*
G36*
X38541Y138015D02*
X33994D01*
Y133862D01*
X36833D01*
X41082Y129614D01*
X41412Y129393D01*
X41803Y129315D01*
X46662D01*
X47750Y128227D01*
X47559Y127765D01*
X44260D01*
Y121841D01*
X48216D01*
Y127001D01*
X48677Y127202D01*
X48985Y126953D01*
Y121841D01*
X52940D01*
Y127765D01*
X51096D01*
X50978Y127883D01*
X50978Y127883D01*
X48526Y130335D01*
X51070Y132879D01*
X54568D01*
Y137622D01*
X49431D01*
Y134124D01*
X48126Y132819D01*
X46527Y134418D01*
Y137720D01*
X41390D01*
Y132976D01*
X45085D01*
X46207Y131854D01*
X46000Y131354D01*
X42225D01*
X38541Y135038D01*
Y138015D01*
D02*
G37*
G36*
X43492Y127765D02*
X39536D01*
Y121841D01*
X43492D01*
Y127765D01*
D02*
G37*
G36*
X38767D02*
X34811D01*
Y121841D01*
X38767D01*
Y127765D01*
D02*
G37*
G36*
X124007Y124303D02*
X122329D01*
Y121641D01*
X124007D01*
Y124303D01*
D02*
G37*
G36*
X121329D02*
X119651D01*
Y121641D01*
X121329D01*
Y124303D01*
D02*
G37*
G36*
X76763D02*
X75085D01*
Y121641D01*
X76763D01*
Y124303D01*
D02*
G37*
G36*
X74085D02*
X72407D01*
Y121641D01*
X74085D01*
Y124303D01*
D02*
G37*
G36*
X34243D02*
X32565D01*
Y121641D01*
X34243D01*
Y124303D01*
D02*
G37*
G36*
X31565D02*
X29887D01*
Y121641D01*
X31565D01*
Y124303D01*
D02*
G37*
G36*
X174664Y124337D02*
Y121592D01*
X173664D01*
Y124337D01*
X173091Y124183D01*
X172457Y123817D01*
X171956Y123316D01*
X171885Y123255D01*
X171443D01*
X171372Y123316D01*
X170871Y123817D01*
X170237Y124183D01*
X169664Y124337D01*
Y121592D01*
X168664D01*
Y124337D01*
X168091Y124183D01*
X167457Y123817D01*
X166939Y123300D01*
X166837Y123122D01*
X166260Y123122D01*
X166228Y123177D01*
X165748Y123657D01*
X165160Y123997D01*
X164504Y124172D01*
X163824D01*
X163168Y123997D01*
X162580Y123657D01*
X162100Y123177D01*
X162068Y123122D01*
X161491Y123122D01*
X161389Y123300D01*
X160871Y123817D01*
X160237Y124183D01*
X159664Y124337D01*
Y121592D01*
X159164D01*
Y121092D01*
X156420D01*
X156573Y120519D01*
X156939Y119886D01*
X157457Y119368D01*
X157634Y119266D01*
X157634Y118688D01*
X157580Y118657D01*
X157099Y118177D01*
X156760Y117588D01*
X156584Y116932D01*
Y116253D01*
X156760Y115597D01*
X157099Y115008D01*
X157580Y114528D01*
X158168Y114188D01*
X158824Y114013D01*
X159504D01*
X160160Y114188D01*
X160748Y114528D01*
X161229Y115008D01*
X161375Y115263D01*
X161953D01*
X162100Y115008D01*
X162580Y114528D01*
X163168Y114188D01*
X163824Y114013D01*
X164504D01*
X165160Y114188D01*
X165748Y114528D01*
X166228Y115008D01*
X166375Y115263D01*
X166953D01*
X167099Y115008D01*
X167580Y114528D01*
X168168Y114188D01*
X168824Y114013D01*
X169504D01*
X170160Y114188D01*
X170465Y114364D01*
X170520Y114356D01*
X170951Y114068D01*
Y109657D01*
X170774Y109609D01*
X170067Y109201D01*
X169490Y108624D01*
X169082Y107917D01*
X168870Y107129D01*
Y106312D01*
X169082Y105524D01*
X169490Y104817D01*
X170067Y104240D01*
X170774Y103832D01*
X170871Y103806D01*
Y102023D01*
X170658Y101810D01*
X170415Y101222D01*
Y100586D01*
X170658Y99998D01*
X171108Y99547D01*
X171697Y99304D01*
X172333D01*
X172921Y99547D01*
X173371Y99998D01*
X173615Y100586D01*
Y101222D01*
X173371Y101810D01*
X173114Y102067D01*
Y103818D01*
X173167Y103832D01*
X173874Y104240D01*
X174451Y104817D01*
X174859Y105524D01*
X175070Y106312D01*
Y107129D01*
X174859Y107917D01*
X174451Y108624D01*
X173874Y109201D01*
X173167Y109609D01*
X172990Y109657D01*
Y113799D01*
X173380Y114131D01*
X173824Y114013D01*
X174504D01*
X175160Y114188D01*
X175748Y114528D01*
X176228Y115008D01*
X176375Y115263D01*
X176953D01*
X177100Y115008D01*
X177580Y114528D01*
X177959Y114309D01*
Y110084D01*
X177596Y109987D01*
X176890Y109579D01*
X176312Y109002D01*
X175904Y108295D01*
X175693Y107507D01*
Y106690D01*
X175904Y105902D01*
X176312Y105195D01*
X176890Y104618D01*
X177578Y104220D01*
Y100074D01*
X177495Y100040D01*
X177045Y99590D01*
X176802Y99002D01*
Y98365D01*
X177045Y97777D01*
X177495Y97327D01*
X178084Y97083D01*
X178720D01*
X179308Y97327D01*
X179758Y97777D01*
X180002Y98365D01*
Y99002D01*
X179758Y99590D01*
X179617Y99731D01*
Y104110D01*
X179990Y104210D01*
X180696Y104618D01*
X181274Y105195D01*
X181682Y105902D01*
X181893Y106690D01*
Y107507D01*
X181682Y108295D01*
X181274Y109002D01*
X180696Y109579D01*
X179998Y109982D01*
Y114145D01*
X180160Y114188D01*
X180748Y114528D01*
X181228Y115008D01*
X181568Y115597D01*
X181744Y116253D01*
Y116932D01*
X181568Y117588D01*
X181228Y118177D01*
X180893Y118512D01*
X181097Y119012D01*
X181744D01*
Y120910D01*
X184212D01*
X184446Y120675D01*
X185034Y120431D01*
X185671D01*
X186259Y120675D01*
X186709Y121125D01*
X186953Y121713D01*
Y122350D01*
X186709Y122938D01*
X186259Y123388D01*
X185671Y123632D01*
X185034D01*
X184446Y123388D01*
X184212Y123153D01*
X181744D01*
Y124172D01*
X176584D01*
Y123811D01*
X176084Y123604D01*
X175871Y123817D01*
X175237Y124183D01*
X174664Y124337D01*
D02*
G37*
G36*
X130464Y124009D02*
X124540D01*
Y120054D01*
X130464D01*
Y124009D01*
D02*
G37*
G36*
X150170Y126326D02*
X141490D01*
Y120807D01*
X140050Y119368D01*
X137909D01*
Y120618D01*
X132772D01*
Y118429D01*
X130464D01*
Y119285D01*
X124540D01*
Y115329D01*
X130464D01*
Y116185D01*
X132772D01*
Y115874D01*
X137909D01*
Y117124D01*
X140515D01*
X140515Y117124D01*
X140944Y117210D01*
X141308Y117453D01*
X144651Y120796D01*
X150170D01*
Y126326D01*
D02*
G37*
G36*
Y116484D02*
X141490D01*
Y113646D01*
X137968D01*
Y114998D01*
X132831D01*
Y113602D01*
X130464D01*
Y114561D01*
X124540D01*
Y110605D01*
X130464D01*
Y111563D01*
X132831D01*
Y110254D01*
X137968D01*
Y111606D01*
X141490D01*
Y110953D01*
X150170D01*
Y116484D01*
D02*
G37*
G36*
X138168Y108898D02*
X135900D01*
Y106827D01*
X138168D01*
Y108898D01*
D02*
G37*
G36*
X134900D02*
X132631D01*
Y106827D01*
X134900D01*
Y108898D01*
D02*
G37*
G36*
X130464Y109836D02*
X124540D01*
Y105880D01*
X130464D01*
Y109836D01*
D02*
G37*
G36*
X138168Y105827D02*
X135900D01*
Y103755D01*
X138168D01*
Y105827D01*
D02*
G37*
G36*
X134900D02*
X132631D01*
Y103755D01*
X134900D01*
Y105827D01*
D02*
G37*
G36*
X61577Y107275D02*
X57341D01*
Y103038D01*
X61577D01*
Y107275D01*
D02*
G37*
G36*
X47608D02*
X43371D01*
Y103038D01*
X47608D01*
Y107275D01*
D02*
G37*
G36*
X112337Y106464D02*
X108100D01*
Y102227D01*
X112337D01*
Y106464D01*
D02*
G37*
G36*
X101097D02*
X96860D01*
Y102227D01*
X101097D01*
Y106464D01*
D02*
G37*
G36*
X107100D02*
X102863D01*
Y102227D01*
X107100D01*
Y106464D01*
D02*
G37*
G36*
X95860D02*
X91623D01*
Y102227D01*
X95860D01*
Y106464D01*
D02*
G37*
G36*
X130464Y105112D02*
X124540D01*
Y101156D01*
X130464D01*
Y105112D01*
D02*
G37*
G36*
X158155Y107255D02*
X157518D01*
X156930Y107011D01*
X156480Y106561D01*
X156237Y105973D01*
Y105337D01*
X156480Y104749D01*
X156530Y104699D01*
Y101540D01*
X154604Y99613D01*
X154196Y99872D01*
X154175Y99892D01*
Y100521D01*
X153931Y101109D01*
X153594Y101446D01*
Y103766D01*
X153517Y104156D01*
X153296Y104487D01*
X152105Y105678D01*
X151774Y105899D01*
X151384Y105976D01*
X143274D01*
X142884Y105899D01*
X142553Y105678D01*
X136304Y99429D01*
X130464D01*
Y100387D01*
X124540D01*
Y96431D01*
X130464D01*
Y97390D01*
X136727D01*
X137117Y97467D01*
X137448Y97689D01*
X143696Y103937D01*
X146493D01*
X146701Y103437D01*
X146431Y103168D01*
X146383Y103051D01*
X144761D01*
X144371Y102974D01*
X144040Y102753D01*
X135992Y94705D01*
X130464D01*
Y95663D01*
X124540D01*
Y91707D01*
X130464D01*
Y92665D01*
X136028D01*
X136235Y92165D01*
X135933Y91864D01*
X135525Y91157D01*
X135477Y90980D01*
X133309D01*
X132919Y90902D01*
X132588Y90681D01*
X131887Y89980D01*
X130464D01*
Y90939D01*
X124540D01*
Y86983D01*
X130464D01*
Y87941D01*
X132309D01*
X132699Y88019D01*
X133030Y88240D01*
X133731Y88941D01*
X135477D01*
X135525Y88763D01*
X135933Y88057D01*
X136510Y87480D01*
X137217Y87071D01*
X137607Y86967D01*
Y86449D01*
X137006Y86288D01*
X136299Y85880D01*
X135722Y85303D01*
X135314Y84596D01*
X135266Y84419D01*
X131123D01*
X130585Y84957D01*
X130464Y85038D01*
Y86214D01*
X124540D01*
Y82258D01*
X130464D01*
Y82258D01*
X130629Y82394D01*
X130701Y82380D01*
X135266D01*
X135314Y82203D01*
X135722Y81496D01*
X136299Y80919D01*
X137006Y80510D01*
X137794Y80299D01*
X138610D01*
X139399Y80510D01*
X140106Y80919D01*
X140683Y81496D01*
X141091Y82203D01*
X141302Y82991D01*
Y83807D01*
X141091Y84596D01*
X140683Y85303D01*
X140106Y85880D01*
X139399Y86288D01*
X139008Y86392D01*
Y86910D01*
X139610Y87071D01*
X140317Y87480D01*
X140894Y88057D01*
X141302Y88763D01*
X141350Y88941D01*
X148176D01*
X150029Y87087D01*
Y83589D01*
X151382D01*
Y81379D01*
X150915D01*
Y76833D01*
X154475D01*
X154682Y76333D01*
X152798Y74449D01*
X152711D01*
X152123Y74206D01*
X151673Y73756D01*
X151429Y73168D01*
Y72604D01*
X150796Y71971D01*
X150575Y71640D01*
X150498Y71250D01*
Y70652D01*
X148876D01*
Y67011D01*
X149677D01*
Y65324D01*
X149102D01*
Y62076D01*
X150180D01*
Y59843D01*
X150145Y59836D01*
X149751Y59573D01*
X149488Y59180D01*
X149396Y58715D01*
Y52416D01*
X149488Y51951D01*
X149751Y51557D01*
X150145Y51294D01*
X150609Y51202D01*
X151791D01*
X152255Y51294D01*
X152649Y51557D01*
X152912Y51951D01*
X153004Y52416D01*
Y58715D01*
X152912Y59180D01*
X152649Y59573D01*
X152255Y59836D01*
X152220Y59843D01*
Y61876D01*
X153375D01*
Y63700D01*
Y65524D01*
X152051D01*
X151716Y65885D01*
Y67011D01*
X152220D01*
Y66811D01*
X153740D01*
Y68831D01*
Y70852D01*
X153695D01*
X153595Y71352D01*
X153936Y71493D01*
X154386Y71943D01*
X154629Y72531D01*
Y73168D01*
X154562Y73329D01*
X158066Y76833D01*
X160186D01*
Y81379D01*
X156034D01*
Y77684D01*
X155568Y77219D01*
X155068Y77426D01*
Y81379D01*
X153421D01*
Y83589D01*
X154772D01*
Y88726D01*
X151274D01*
X149319Y90681D01*
X148988Y90902D01*
X148598Y90980D01*
X141350D01*
X141302Y91157D01*
X141097Y91512D01*
X141386Y92012D01*
X141884D01*
Y91932D01*
X146627D01*
Y95774D01*
X146646Y95872D01*
Y96023D01*
X147483Y96860D01*
X147983Y96653D01*
Y95001D01*
X150554D01*
X153126D01*
Y97183D01*
X154635D01*
X155025Y97261D01*
X155356Y97482D01*
X158271Y100397D01*
X158492Y100728D01*
X158570Y101118D01*
Y104227D01*
X158743Y104298D01*
X159193Y104749D01*
X159437Y105337D01*
Y105973D01*
X159193Y106561D01*
X158743Y107011D01*
X158155Y107255D01*
D02*
G37*
G36*
X112337Y101227D02*
X108100D01*
Y96990D01*
X112337D01*
Y101227D01*
D02*
G37*
G36*
X107100D02*
X102863D01*
Y96990D01*
X107100D01*
Y101227D01*
D02*
G37*
G36*
X101097D02*
X96860D01*
Y96990D01*
X101097D01*
Y101227D01*
D02*
G37*
G36*
X95860D02*
X91623D01*
Y96990D01*
X95860D01*
Y101227D01*
D02*
G37*
G36*
X196497Y97512D02*
X191140D01*
X190681Y97322D01*
X189308Y95949D01*
X183533D01*
X183340Y95869D01*
X183158Y95821D01*
X182693Y95815D01*
X182298Y95950D01*
X182215Y95949D01*
X178048D01*
X177588Y95759D01*
X177398Y95300D01*
Y95186D01*
X177007Y94922D01*
X176898Y94922D01*
X175428D01*
Y92055D01*
Y89188D01*
X176898D01*
X177007Y89188D01*
X177398Y88924D01*
Y82380D01*
X177476Y82192D01*
X177525Y81994D01*
X177892Y81495D01*
X177937Y81468D01*
X177957Y81420D01*
X178145Y81343D01*
X178318Y81238D01*
X178368Y81251D01*
X178417Y81231D01*
X189241Y81253D01*
X189461Y80753D01*
Y75960D01*
X189422D01*
X188963Y75769D01*
X188773Y75310D01*
Y72849D01*
X188838Y72692D01*
X188860Y72523D01*
X189094Y72120D01*
X189163Y72067D01*
X189197Y71987D01*
X189354Y71921D01*
X189488Y71818D01*
X189856Y71458D01*
Y67896D01*
X189489Y67536D01*
X189354Y67433D01*
X189197Y67368D01*
X189163Y67287D01*
X189094Y67234D01*
X188860Y66831D01*
X188838Y66662D01*
X188773Y66505D01*
Y65146D01*
X187427D01*
Y62378D01*
Y59610D01*
X189499D01*
Y60650D01*
X189961Y60842D01*
X190858Y59944D01*
X190978Y59895D01*
X191069Y59803D01*
X191198D01*
X191317Y59754D01*
X191671Y59401D01*
X191677Y59390D01*
X191724Y59278D01*
Y59149D01*
X191815Y59057D01*
X191865Y58938D01*
X192252Y58550D01*
X192712Y58360D01*
X211644D01*
X212104Y58550D01*
X212294Y59009D01*
Y80445D01*
X212104Y80904D01*
X211648Y81359D01*
X211189Y81549D01*
X197447D01*
X197093Y82050D01*
X197122Y82131D01*
X197121Y82161D01*
X197139Y82185D01*
X197108Y82405D01*
X197096Y82627D01*
X197074Y82647D01*
X197070Y82677D01*
X196809Y83120D01*
X196741Y83171D01*
X196708Y83250D01*
X196549Y83316D01*
X196412Y83419D01*
X196172Y83852D01*
Y87555D01*
X196610Y87920D01*
X196707Y88014D01*
X196832Y88065D01*
X196879Y88179D01*
X196968Y88265D01*
X197152Y88689D01*
X197155Y88824D01*
X197206Y88948D01*
Y96803D01*
X197016Y97263D01*
X196956Y97322D01*
X196497Y97512D01*
D02*
G37*
G36*
X174428Y94922D02*
X172848D01*
Y92631D01*
Y92555D01*
X174428D01*
Y92557D01*
Y94922D01*
D02*
G37*
G36*
X153126Y94001D02*
X151054D01*
Y91732D01*
X153126D01*
Y94001D01*
D02*
G37*
G36*
X150054D02*
X147983D01*
Y91732D01*
X150054D01*
Y94001D01*
D02*
G37*
G36*
X112337Y94952D02*
X108100D01*
Y90715D01*
X112337D01*
Y94952D01*
D02*
G37*
G36*
X101097D02*
X96860D01*
Y90715D01*
X101097D01*
Y94952D01*
D02*
G37*
G36*
X107100D02*
X102863D01*
Y90715D01*
X107100D01*
Y94952D01*
D02*
G37*
G36*
X95860D02*
X91623D01*
Y90715D01*
X95860D01*
Y94952D01*
D02*
G37*
G36*
X61577Y93447D02*
X57341D01*
Y89210D01*
X61577D01*
Y93447D01*
D02*
G37*
G36*
X56340Y107275D02*
X48608D01*
Y102538D01*
X48108D01*
Y102038D01*
X43371D01*
Y97801D01*
Y94447D01*
X48108D01*
Y93947D01*
X48608D01*
Y89210D01*
X56340D01*
Y93947D01*
X56840D01*
Y94447D01*
X61577D01*
Y97801D01*
Y102038D01*
X56840D01*
Y102538D01*
X56340D01*
Y107275D01*
D02*
G37*
G36*
X47608Y93447D02*
X43371D01*
Y89210D01*
X47608D01*
Y93447D01*
D02*
G37*
G36*
X174428Y91555D02*
X172848D01*
Y89188D01*
X174428D01*
Y91555D01*
D02*
G37*
G36*
X112337Y89715D02*
X108100D01*
Y85478D01*
X112337D01*
Y89715D01*
D02*
G37*
G36*
X107100D02*
X102863D01*
Y85478D01*
X107100D01*
Y89715D01*
D02*
G37*
G36*
X101097D02*
X96860D01*
Y85478D01*
X101097D01*
Y89715D01*
D02*
G37*
G36*
X95860D02*
X91623D01*
Y85478D01*
X95860D01*
Y89715D01*
D02*
G37*
G36*
X143508Y81602D02*
X142692D01*
X141903Y81391D01*
X141196Y80982D01*
X140619Y80405D01*
X140211Y79698D01*
X140164Y79521D01*
X131297D01*
X130585Y80233D01*
X130464Y80314D01*
Y81490D01*
X124540D01*
Y77534D01*
X130464D01*
X130464Y77534D01*
X130874Y77482D01*
X130943Y77482D01*
X140164D01*
X140211Y77305D01*
X140619Y76598D01*
X141016Y76202D01*
X140809Y75702D01*
X139923D01*
Y72547D01*
X142987D01*
X146050D01*
Y75702D01*
X145391D01*
X145184Y76202D01*
X145580Y76598D01*
X145988Y77305D01*
X146200Y78094D01*
Y78910D01*
X145988Y79698D01*
X145580Y80405D01*
X145003Y80982D01*
X144296Y81391D01*
X143508Y81602D01*
D02*
G37*
G36*
X177007Y78583D02*
X175428D01*
Y76217D01*
X177007D01*
Y78583D01*
D02*
G37*
G36*
X174428D02*
X172848D01*
Y76217D01*
X174428D01*
Y78583D01*
D02*
G37*
G36*
X168343Y94722D02*
X164584D01*
Y92631D01*
X164281D01*
X164173Y92557D01*
X163744Y92472D01*
X163380Y92229D01*
X163380Y92229D01*
X159877Y88726D01*
X156328D01*
Y83589D01*
X161072D01*
Y86748D01*
X164122Y89798D01*
X164584Y89607D01*
Y89388D01*
X164832D01*
Y78383D01*
X164584D01*
Y73050D01*
X168343D01*
Y78383D01*
X168095D01*
Y89388D01*
X168343D01*
Y92631D01*
Y94722D01*
D02*
G37*
G36*
X177007Y75217D02*
X175428D01*
Y72850D01*
X177007D01*
Y75217D01*
D02*
G37*
G36*
X174428D02*
X172848D01*
Y72850D01*
X174428D01*
Y75217D01*
D02*
G37*
G36*
X34243Y75209D02*
X32565D01*
Y72547D01*
X34243D01*
Y75209D01*
D02*
G37*
G36*
X109833D02*
X108156D01*
Y72547D01*
X109833D01*
Y75209D01*
D02*
G37*
G36*
X76763D02*
X75085D01*
Y72547D01*
X76763D01*
Y75209D01*
D02*
G37*
G36*
X124007D02*
X122329D01*
Y72547D01*
X124007D01*
Y75209D01*
D02*
G37*
G36*
X121329D02*
X119651D01*
Y72547D01*
X121329D01*
Y75209D01*
D02*
G37*
G36*
X31565D02*
X29887D01*
Y72547D01*
X31565D01*
Y75209D01*
D02*
G37*
G36*
X107156D02*
X105477D01*
Y72547D01*
X107156D01*
Y75209D01*
D02*
G37*
G36*
X74085D02*
X72407D01*
Y72547D01*
X74085D01*
Y75209D01*
D02*
G37*
G36*
X86011Y75010D02*
X82055D01*
Y71545D01*
X81787Y71287D01*
X81287Y71429D01*
Y75010D01*
X77331D01*
Y69085D01*
X78289D01*
Y68251D01*
X73967Y63929D01*
X73797D01*
X73406Y63851D01*
X73076Y63630D01*
X70827Y61381D01*
X67132D01*
Y56638D01*
X72268D01*
Y59939D01*
X74219Y61890D01*
X74389D01*
X74779Y61967D01*
X75110Y62188D01*
X77503Y64581D01*
X77891Y64262D01*
X77758Y64063D01*
X77680Y63673D01*
Y61232D01*
X76131D01*
Y56488D01*
X81269D01*
Y61232D01*
X79720D01*
Y63250D01*
X83376Y66907D01*
X83597Y67238D01*
X83675Y67628D01*
Y69085D01*
X86011D01*
Y75010D01*
D02*
G37*
G36*
X168395Y71809D02*
X167578D01*
X166790Y71597D01*
X166083Y71189D01*
X165605Y70711D01*
X165429Y70623D01*
X164973Y70689D01*
X164720Y70943D01*
X164132Y71187D01*
X163495D01*
X162907Y70943D01*
X162457Y70493D01*
X162213Y69905D01*
Y69428D01*
X160479Y67694D01*
X160258Y67363D01*
X160180Y66973D01*
Y62949D01*
X159680Y62742D01*
X159466Y62956D01*
X158878Y63200D01*
X158242D01*
X157653Y62956D01*
X157203Y62506D01*
X156960Y61918D01*
Y61282D01*
X157203Y60694D01*
X157265Y60632D01*
X156562Y59929D01*
X155609D01*
X155145Y59836D01*
X154751Y59573D01*
X154488Y59180D01*
X154396Y58715D01*
Y52416D01*
X154488Y51951D01*
X154751Y51557D01*
X155145Y51294D01*
X155609Y51202D01*
X156791D01*
X157255Y51294D01*
X157649Y51557D01*
X157912Y51951D01*
X158004Y52416D01*
Y58487D01*
X159071Y59553D01*
X159375Y59698D01*
X159513Y59603D01*
X159558Y59284D01*
X159488Y59180D01*
X159396Y58715D01*
Y52416D01*
X159488Y51951D01*
X159751Y51557D01*
X160145Y51294D01*
X160609Y51202D01*
X161791D01*
X162255Y51294D01*
X162649Y51557D01*
X162912Y51951D01*
X163004Y52416D01*
Y58715D01*
X162912Y59180D01*
X162649Y59573D01*
X162255Y59836D01*
X162220Y59843D01*
Y66551D01*
X163655Y67987D01*
X164132D01*
X164421Y68106D01*
X164996Y67865D01*
X165007Y67849D01*
X165098Y67512D01*
X165506Y66805D01*
X166083Y66228D01*
X166790Y65820D01*
X167386Y65660D01*
X167652Y65229D01*
X167675Y65109D01*
X167564Y64840D01*
Y64364D01*
X165479Y62279D01*
X165258Y61948D01*
X165180Y61558D01*
Y59843D01*
X165145Y59836D01*
X164751Y59573D01*
X164488Y59180D01*
X164396Y58715D01*
Y52416D01*
X164488Y51951D01*
X164751Y51557D01*
X165145Y51294D01*
X165609Y51202D01*
X166791D01*
X167255Y51294D01*
X167649Y51557D01*
X167912Y51951D01*
X168004Y52416D01*
Y58715D01*
X167912Y59180D01*
X167649Y59573D01*
X167255Y59836D01*
X167220Y59843D01*
Y61136D01*
X169006Y62922D01*
X169482D01*
X170070Y63165D01*
X170520Y63615D01*
X170764Y64204D01*
Y64840D01*
X170520Y65428D01*
X170146Y65803D01*
X170071Y65927D01*
X170078Y66416D01*
X170467Y66805D01*
X170875Y67512D01*
X171087Y68300D01*
Y69117D01*
X170875Y69905D01*
X170467Y70612D01*
X169890Y71189D01*
X169183Y71597D01*
X168395Y71809D01*
D02*
G37*
G36*
X67114Y75010D02*
X63158D01*
Y70640D01*
X62850Y70391D01*
X62389Y70592D01*
Y75010D01*
X58434D01*
Y71627D01*
X58145Y71401D01*
X57665Y71614D01*
Y75010D01*
X53709D01*
Y69085D01*
X56633D01*
X56824Y68623D01*
X55849Y67648D01*
X54625D01*
X54235Y67570D01*
X53904Y67349D01*
X51345Y64790D01*
X51124Y64459D01*
X51075Y64209D01*
X50569Y63704D01*
X50107Y63895D01*
Y64654D01*
X44379D01*
Y57746D01*
X46224D01*
Y56316D01*
X45887Y55979D01*
X45643Y55391D01*
Y54754D01*
X45887Y54166D01*
X46337Y53716D01*
X46925Y53472D01*
X47562D01*
X48150Y53716D01*
X48600Y54166D01*
X48843Y54754D01*
Y55391D01*
X48600Y55979D01*
X48263Y56316D01*
Y57746D01*
X50107D01*
Y60398D01*
X50228Y60479D01*
X52732Y62982D01*
X52961Y62946D01*
X53232Y62803D01*
Y59428D01*
X58368D01*
Y62927D01*
X64527Y69085D01*
X67114D01*
Y75010D01*
D02*
G37*
G36*
X156261Y70852D02*
X154740D01*
Y69332D01*
X156261D01*
Y70852D01*
D02*
G37*
G36*
X119082Y75010D02*
X115126D01*
Y69085D01*
X119082D01*
Y75010D01*
D02*
G37*
G36*
X114358D02*
X110402D01*
Y69085D01*
X114358D01*
Y75010D01*
D02*
G37*
G36*
X95460D02*
X91504D01*
Y69085D01*
X95460D01*
Y75010D01*
D02*
G37*
G36*
X90736D02*
X86780D01*
Y69085D01*
X90736D01*
Y75010D01*
D02*
G37*
G36*
X52940D02*
X48985D01*
Y69085D01*
X52940D01*
Y75010D01*
D02*
G37*
G36*
X48216D02*
X44260D01*
Y69085D01*
X48216D01*
Y75010D01*
D02*
G37*
G36*
X43492D02*
X39536D01*
Y69085D01*
X43492D01*
Y75010D01*
D02*
G37*
G36*
X38767D02*
X34811D01*
Y69085D01*
X38767D01*
Y75010D01*
D02*
G37*
G36*
X124007Y71547D02*
X122329D01*
Y68885D01*
X124007D01*
Y71547D01*
D02*
G37*
G36*
X121329D02*
X119651D01*
Y68885D01*
X121329D01*
Y71547D01*
D02*
G37*
G36*
X109833D02*
X108156D01*
Y68885D01*
X109833D01*
Y71547D01*
D02*
G37*
G36*
X107156D02*
X105477D01*
Y68885D01*
X107156D01*
Y71547D01*
D02*
G37*
G36*
X76763D02*
X75085D01*
Y68885D01*
X76763D01*
Y71547D01*
D02*
G37*
G36*
X74085D02*
X72407D01*
Y68885D01*
X74085D01*
Y71547D01*
D02*
G37*
G36*
X34243D02*
X32565D01*
Y68885D01*
X34243D01*
Y71547D01*
D02*
G37*
G36*
X31565D02*
X29887D01*
Y68885D01*
X31565D01*
Y71547D01*
D02*
G37*
G36*
X146050D02*
X143487D01*
Y68393D01*
X146050D01*
Y71547D01*
D02*
G37*
G36*
X142487D02*
X139923D01*
Y68393D01*
X142487D01*
Y71547D01*
D02*
G37*
G36*
X156261Y68331D02*
X154740D01*
Y66811D01*
X156261D01*
Y68331D01*
D02*
G37*
G36*
X186331Y72246D02*
X180604D01*
Y67109D01*
X182666D01*
X182747Y66988D01*
X182758Y66976D01*
Y64947D01*
X178654D01*
X178620Y65029D01*
X178550Y65244D01*
X178121Y65743D01*
X178097Y65755D01*
X178087Y65780D01*
X177879Y65866D01*
X177678Y65967D01*
X177652Y65959D01*
X177627Y65969D01*
X173046Y65959D01*
X172816Y65863D01*
X172588Y65769D01*
X172588Y65768D01*
X172587Y65768D01*
X172493Y65539D01*
X172398Y65310D01*
Y40081D01*
X172448Y39962D01*
Y39832D01*
X172529Y39636D01*
X172620Y39544D01*
X172670Y39425D01*
X172789Y39375D01*
X172881Y39284D01*
X173010D01*
X173129Y39235D01*
X179662D01*
X180121Y39425D01*
X180311Y39884D01*
Y41688D01*
X180311Y41955D01*
X180770Y42155D01*
X183991D01*
Y45556D01*
X184499Y46063D01*
X184720Y46394D01*
X184798Y46784D01*
Y48994D01*
X184890Y49094D01*
X185298Y49335D01*
X185451Y49304D01*
X186042D01*
X186353Y49366D01*
X186616Y49542D01*
X186792Y49806D01*
X186847Y50081D01*
X189798D01*
X190299Y49581D01*
Y47067D01*
X191159D01*
Y45700D01*
X189697D01*
Y40563D01*
X192420D01*
Y39414D01*
X191958D01*
Y36049D01*
X194500D01*
X194843Y36049D01*
X195025Y35969D01*
X195301Y35739D01*
X195301Y35675D01*
Y35280D01*
X195491Y34821D01*
X195951Y34631D01*
X201976Y34631D01*
X202198Y34723D01*
X202422Y34808D01*
X202426Y34817D01*
X202435Y34821D01*
X202527Y35043D01*
X202625Y35262D01*
X202649Y36139D01*
X202646Y36148D01*
X202649Y36157D01*
Y43680D01*
X202810D01*
X203201Y43758D01*
X203531Y43979D01*
X204757Y45205D01*
X205233D01*
X205821Y45448D01*
X206272Y45898D01*
X206515Y46486D01*
Y47123D01*
X206272Y47711D01*
X205821Y48161D01*
X205233Y48405D01*
X204597D01*
X204009Y48161D01*
X203559Y47711D01*
X203315Y47123D01*
Y46882D01*
X203052Y46679D01*
X202505Y46836D01*
X202459Y46946D01*
X202000Y47136D01*
X198589D01*
Y48061D01*
Y48643D01*
X196509D01*
Y49143D01*
X196009D01*
Y51420D01*
X194874D01*
D01*
X194475D01*
X194429Y51420D01*
X194012Y51220D01*
X193929Y51220D01*
X191544D01*
X190942Y51822D01*
X190611Y52043D01*
X190221Y52120D01*
X186847D01*
X186792Y52396D01*
X186652Y52605D01*
X186859Y52744D01*
X187079Y53073D01*
X187156Y53461D01*
Y53463D01*
Y54931D01*
X185746D01*
Y55431D01*
X185246D01*
Y58444D01*
X184798Y58784D01*
Y59610D01*
X186427D01*
Y62378D01*
Y65146D01*
X184798D01*
Y67109D01*
X186331D01*
Y72246D01*
D02*
G37*
G36*
X71838Y75010D02*
X67882D01*
Y69085D01*
X68680D01*
Y64720D01*
X63371D01*
X63034Y65056D01*
X62446Y65300D01*
X61809D01*
X61221Y65056D01*
X60771Y64606D01*
X60528Y64018D01*
Y63382D01*
X60771Y62794D01*
X60964Y62601D01*
X60943Y62101D01*
X60221D01*
Y58735D01*
X63980D01*
Y62101D01*
X63955D01*
X63719Y62601D01*
X63785Y62680D01*
X69114D01*
X69504Y62758D01*
X69835Y62979D01*
X70421Y63565D01*
X70642Y63896D01*
X70720Y64286D01*
Y69085D01*
X71838D01*
Y75010D01*
D02*
G37*
G36*
X154375Y65524D02*
Y64200D01*
X155698D01*
Y65524D01*
X154375D01*
D02*
G37*
G36*
X155698Y63200D02*
X154375D01*
Y61876D01*
X155698D01*
Y63200D01*
D02*
G37*
G36*
X43220Y64854D02*
X40657D01*
Y61700D01*
X43220D01*
Y64854D01*
D02*
G37*
G36*
X39657D02*
X37093D01*
Y61700D01*
X39657D01*
Y64854D01*
D02*
G37*
G36*
X100185Y75010D02*
X96229D01*
Y69085D01*
X97187D01*
Y60692D01*
X96327D01*
Y60029D01*
X95056D01*
X94720Y60366D01*
X94132Y60609D01*
X93495D01*
X92907Y60366D01*
X92457Y59916D01*
X92213Y59328D01*
Y58691D01*
X92457Y58103D01*
X92907Y57653D01*
X93495Y57409D01*
X94132D01*
X94720Y57653D01*
X95056Y57990D01*
X96327D01*
Y57327D01*
X100086D01*
Y60692D01*
X99226D01*
Y69085D01*
X100185D01*
Y75010D01*
D02*
G37*
G36*
X104909D02*
X100953D01*
Y69085D01*
X101911D01*
Y61657D01*
X101937Y61527D01*
Y58838D01*
X107862D01*
Y64762D01*
X103951D01*
Y69085D01*
X104909D01*
Y75010D01*
D02*
G37*
G36*
X43220Y60700D02*
X40657D01*
Y57546D01*
X43220D01*
Y60700D01*
D02*
G37*
G36*
X39657D02*
X37093D01*
Y57546D01*
X39657D01*
Y60700D01*
D02*
G37*
G36*
X130464Y76765D02*
X124540D01*
Y72809D01*
X130464D01*
Y73768D01*
X132738D01*
X133036Y73469D01*
Y68593D01*
X134880D01*
Y67509D01*
X134544Y67172D01*
X134300Y66584D01*
Y65948D01*
X134380Y65753D01*
Y63420D01*
X134203Y63373D01*
X133497Y62965D01*
X132919Y62388D01*
X132511Y61681D01*
X132300Y60892D01*
Y60076D01*
X132511Y59288D01*
X132919Y58581D01*
X133497Y58004D01*
X134203Y57595D01*
X134992Y57384D01*
X135808D01*
X136597Y57595D01*
X137303Y58004D01*
X137881Y58581D01*
X138289Y59288D01*
X138500Y60076D01*
Y60892D01*
X138289Y61681D01*
X137881Y62388D01*
X137303Y62965D01*
X136597Y63373D01*
X136420Y63420D01*
Y64749D01*
X136806Y64909D01*
X137256Y65359D01*
X137500Y65948D01*
Y66584D01*
X137256Y67172D01*
X136920Y67509D01*
Y68593D01*
X138764D01*
Y75502D01*
X133888D01*
X133881Y75508D01*
X133550Y75729D01*
X133160Y75807D01*
X130464D01*
Y76765D01*
D02*
G37*
G36*
X186246Y58396D02*
Y55932D01*
X187156D01*
Y57402D01*
X187079Y57790D01*
X186859Y58119D01*
X186530Y58339D01*
X186246Y58396D01*
D02*
G37*
G36*
X197513Y57325D02*
X195146D01*
Y55746D01*
X197513D01*
Y57325D01*
D02*
G37*
G36*
X194146D02*
X191779D01*
Y56801D01*
Y55746D01*
X194146D01*
Y57325D01*
D02*
G37*
G36*
X197513Y54746D02*
X195146D01*
Y53166D01*
X197513D01*
Y54746D01*
D02*
G37*
G36*
X194146D02*
X191779D01*
Y53166D01*
X194146D01*
Y54746D01*
D02*
G37*
G36*
X107862Y56494D02*
X101937D01*
Y53520D01*
X101911Y53390D01*
X101937Y53259D01*
Y50570D01*
X107862D01*
Y52370D01*
X111147D01*
Y51052D01*
X115891D01*
Y56189D01*
X111147D01*
Y54409D01*
X107862D01*
Y56494D01*
D02*
G37*
G36*
X81269Y54932D02*
X76131D01*
Y50189D01*
X81269D01*
Y51541D01*
X82790D01*
X83127Y51204D01*
X83715Y50961D01*
X84352D01*
X84940Y51204D01*
X85390Y51654D01*
X85633Y52243D01*
Y52879D01*
X85390Y53467D01*
X84940Y53917D01*
X84352Y54161D01*
X83715D01*
X83127Y53917D01*
X82790Y53580D01*
X81269D01*
Y54932D01*
D02*
G37*
G36*
X63980Y58164D02*
X60221D01*
Y54798D01*
X61108D01*
Y53607D01*
X60771Y53270D01*
X60528Y52682D01*
Y52046D01*
X60771Y51458D01*
X61221Y51007D01*
X61809Y50764D01*
X62446D01*
X63034Y51007D01*
X63484Y51458D01*
X63728Y52046D01*
Y52682D01*
X63484Y53270D01*
X63147Y53607D01*
Y54798D01*
X63980D01*
Y58164D01*
D02*
G37*
G36*
X100086Y56755D02*
X96327D01*
Y53390D01*
X97187D01*
Y52621D01*
X96850Y52284D01*
X96607Y51696D01*
Y51060D01*
X96850Y50472D01*
X97300Y50021D01*
X97888Y49778D01*
X98525D01*
X99113Y50021D01*
X99563Y50472D01*
X99807Y51060D01*
Y51696D01*
X99563Y52284D01*
X99226Y52621D01*
Y53390D01*
X100086D01*
Y56755D01*
D02*
G37*
G36*
X198589Y51420D02*
X197009D01*
Y49643D01*
X198589D01*
Y51420D01*
D02*
G37*
G36*
X137832Y56489D02*
X137015D01*
X136227Y56278D01*
X135520Y55870D01*
X134943Y55293D01*
X134535Y54586D01*
X134324Y53798D01*
Y52981D01*
X134535Y52193D01*
X134943Y51486D01*
X135520Y50909D01*
X136227Y50501D01*
X137015Y50289D01*
X137832D01*
X138620Y50501D01*
X139327Y50909D01*
X139904Y51486D01*
X140312Y52193D01*
X140360Y52370D01*
X141536D01*
X144459Y49448D01*
Y48971D01*
X144702Y48383D01*
X145152Y47933D01*
X145740Y47690D01*
X146377D01*
X146965Y47933D01*
X147415Y48383D01*
X147659Y48971D01*
Y49608D01*
X147415Y50196D01*
X146965Y50646D01*
X146377Y50889D01*
X145901D01*
X142680Y54110D01*
X142349Y54331D01*
X141959Y54409D01*
X140360D01*
X140312Y54586D01*
X139904Y55293D01*
X139327Y55870D01*
X138620Y56278D01*
X137832Y56489D01*
D02*
G37*
G36*
X58368Y57872D02*
X53232D01*
Y53129D01*
X54780D01*
Y50243D01*
X54444Y49906D01*
X54200Y49318D01*
Y48682D01*
X54444Y48094D01*
X54894Y47644D01*
X55482Y47400D01*
X56118D01*
X56706Y47644D01*
X57156Y48094D01*
X57400Y48682D01*
Y49318D01*
X57156Y49906D01*
X56820Y50243D01*
Y53129D01*
X58368D01*
Y57872D01*
D02*
G37*
G36*
X122190Y56189D02*
X117446D01*
Y51052D01*
X118798D01*
Y50452D01*
X118876Y50062D01*
X119097Y49731D01*
X120361Y48467D01*
X120605Y47879D01*
X121055Y47429D01*
X121184Y47376D01*
X121314Y46791D01*
X120763Y46782D01*
X120643Y46902D01*
X120055Y47146D01*
X119418D01*
X118830Y46902D01*
X118618Y46691D01*
X118615Y46690D01*
X118284Y46469D01*
X115909Y44094D01*
X115688Y43763D01*
X115611Y43373D01*
Y37746D01*
X115169D01*
X114778Y37669D01*
X114448Y37448D01*
X113979Y36979D01*
X113758Y36648D01*
X113680Y36258D01*
Y33974D01*
X113758Y33584D01*
X113979Y33253D01*
X114897Y32335D01*
X115228Y32114D01*
X115618Y32036D01*
X118091D01*
X118481Y32114D01*
X118812Y32335D01*
X118846Y32368D01*
X119896D01*
Y32001D01*
X124836D01*
Y36919D01*
X125036D01*
Y38006D01*
X122366D01*
X119696D01*
Y36919D01*
X119451Y36520D01*
X119358Y36502D01*
X119027Y36281D01*
X118935Y36188D01*
X118287D01*
X118063Y36412D01*
X117883Y36487D01*
X117572Y36922D01*
X117650Y37312D01*
Y42951D01*
X118871Y44172D01*
X119418Y43946D01*
X120055D01*
X120643Y44190D01*
X120878Y44424D01*
X121643D01*
X121643Y44424D01*
X122013Y44498D01*
X123001D01*
Y44098D01*
X126062D01*
Y46764D01*
X126062Y47141D01*
X126062Y47641D01*
Y50308D01*
X123001D01*
X123001Y50308D01*
Y50308D01*
X122501Y50294D01*
X122279Y50386D01*
X121643D01*
X121630Y50381D01*
X121459Y50552D01*
X121666Y51052D01*
X122190D01*
Y56189D01*
D02*
G37*
G36*
X72268Y55082D02*
X67132D01*
Y50339D01*
X68680D01*
Y49243D01*
X68344Y48906D01*
X68100Y48318D01*
Y47682D01*
X68344Y47094D01*
X68794Y46644D01*
X69382Y46400D01*
X70018D01*
X70606Y46644D01*
X71056Y47094D01*
X71300Y47682D01*
Y48318D01*
X71056Y48906D01*
X70720Y49243D01*
Y50339D01*
X72268D01*
Y55082D01*
D02*
G37*
G36*
X138657Y43850D02*
X137334D01*
Y42526D01*
X138657D01*
Y43850D01*
D02*
G37*
G36*
X136334D02*
X135010D01*
Y42526D01*
X136334D01*
Y43850D01*
D02*
G37*
G36*
X139721Y48384D02*
X139085D01*
X138497Y48141D01*
X138047Y47691D01*
X137803Y47102D01*
Y46466D01*
X138047Y45878D01*
X138384Y45541D01*
Y45259D01*
X138461Y44869D01*
X138682Y44538D01*
X139848Y43372D01*
Y41449D01*
X143607D01*
Y44814D01*
X141290D01*
X140493Y45611D01*
X140760Y45878D01*
X141003Y46466D01*
Y47102D01*
X140760Y47691D01*
X140310Y48141D01*
X139721Y48384D01*
D02*
G37*
G36*
X125036Y40094D02*
X122866D01*
Y39006D01*
X125036D01*
Y40094D01*
D02*
G37*
G36*
X121866D02*
X119696D01*
Y39006D01*
X121866D01*
Y40094D01*
D02*
G37*
G36*
X224621Y43411D02*
X223937D01*
X223275Y43234D01*
X222682Y42892D01*
X222199Y42408D01*
X221856Y41815D01*
X221679Y41154D01*
Y40469D01*
X221856Y39808D01*
X222199Y39215D01*
X222682Y38731D01*
X223275Y38389D01*
X223937Y38212D01*
X224621D01*
X225283Y38389D01*
X225875Y38731D01*
X226360Y39215D01*
X226702Y39808D01*
X226879Y40469D01*
Y41154D01*
X226702Y41815D01*
X226360Y42408D01*
X225875Y42892D01*
X225283Y43234D01*
X224621Y43411D01*
D02*
G37*
G36*
X130962Y47684D02*
X130325D01*
X129737Y47441D01*
X129287Y46991D01*
X129044Y46402D01*
Y45926D01*
X127043Y43925D01*
X126822Y43595D01*
X126744Y43204D01*
Y37305D01*
X126822Y36914D01*
X127043Y36584D01*
X127629Y35998D01*
X127959Y35777D01*
X128164Y35736D01*
Y34975D01*
X127964D01*
Y33888D01*
X130634D01*
X133304D01*
Y34975D01*
X133104D01*
Y37487D01*
X135210D01*
Y37253D01*
X138458D01*
Y38175D01*
X139848D01*
Y37512D01*
X143607D01*
Y40877D01*
X139848D01*
Y40214D01*
X138657D01*
Y41526D01*
X135010D01*
Y40202D01*
X135210D01*
Y39526D01*
X133104D01*
Y39894D01*
X128783D01*
Y42782D01*
X130486Y44484D01*
X130962D01*
X131550Y44728D01*
X132000Y45178D01*
X132244Y45766D01*
Y46402D01*
X132000Y46991D01*
X131550Y47441D01*
X130962Y47684D01*
D02*
G37*
G36*
X151791Y40802D02*
X151700D01*
Y36735D01*
X153208D01*
Y39384D01*
X153100Y39927D01*
X152793Y40387D01*
X152333Y40694D01*
X151791Y40802D01*
D02*
G37*
G36*
X150700D02*
X150609D01*
X150067Y40694D01*
X149607Y40387D01*
X149300Y39927D01*
X149192Y39384D01*
Y36735D01*
X150700D01*
Y40802D01*
D02*
G37*
G36*
X25208Y44581D02*
X24392D01*
X23603Y44370D01*
X22897Y43962D01*
X22319Y43385D01*
X21911Y42678D01*
X21700Y41889D01*
Y41073D01*
X21911Y40284D01*
X22319Y39578D01*
X22897Y39000D01*
X23603Y38592D01*
X24392Y38381D01*
X25208D01*
X25997Y38592D01*
X26155Y38684D01*
X27279Y37560D01*
X27610Y37339D01*
X28000Y37262D01*
X30357D01*
X30694Y36925D01*
X31282Y36681D01*
X31918D01*
X32506Y36925D01*
X32956Y37375D01*
X33200Y37963D01*
Y38599D01*
X32956Y39187D01*
X32506Y39638D01*
X31918Y39881D01*
X31282D01*
X30694Y39638D01*
X30357Y39301D01*
X28422D01*
X27597Y40126D01*
X27689Y40284D01*
X27900Y41073D01*
Y41889D01*
X27689Y42678D01*
X27281Y43385D01*
X26703Y43962D01*
X25997Y44370D01*
X25208Y44581D01*
D02*
G37*
G36*
X99795Y42324D02*
X91508D01*
Y34038D01*
X99795D01*
Y42324D01*
D02*
G37*
G36*
X75143D02*
X66857D01*
Y34038D01*
X75143D01*
Y42324D01*
D02*
G37*
G36*
X50743D02*
X42457D01*
Y34038D01*
X50743D01*
Y42324D01*
D02*
G37*
G36*
X133304Y32888D02*
X131134D01*
Y31801D01*
X133304D01*
Y32888D01*
D02*
G37*
G36*
X130134D02*
X127964D01*
Y31801D01*
X130134D01*
Y32888D01*
D02*
G37*
G36*
X153208Y35735D02*
X151700D01*
Y31667D01*
X151791D01*
X152333Y31775D01*
X152793Y32083D01*
X153100Y32542D01*
X153208Y33085D01*
Y35735D01*
D02*
G37*
G36*
X150700D02*
X149192D01*
Y33085D01*
X149300Y32542D01*
X149607Y32083D01*
X150067Y31775D01*
X150609Y31667D01*
X150700D01*
Y35735D01*
D02*
G37*
G36*
X25008Y35181D02*
X24192D01*
X23403Y34970D01*
X22697Y34562D01*
X22119Y33985D01*
X21711Y33278D01*
X21500Y32489D01*
Y31673D01*
X21711Y30885D01*
X22119Y30178D01*
X22697Y29601D01*
X23403Y29192D01*
X24192Y28981D01*
X25008D01*
X25797Y29192D01*
X26503Y29601D01*
X27081Y30178D01*
X27489Y30885D01*
X27536Y31062D01*
X29957D01*
X30294Y30725D01*
X30882Y30481D01*
X31518D01*
X32106Y30725D01*
X32556Y31175D01*
X32800Y31763D01*
Y32399D01*
X32556Y32987D01*
X32106Y33437D01*
X31518Y33681D01*
X30882D01*
X30294Y33437D01*
X29957Y33101D01*
X27536D01*
X27489Y33278D01*
X27081Y33985D01*
X26503Y34562D01*
X25797Y34970D01*
X25008Y35181D01*
D02*
G37*
G36*
X14800Y32382D02*
Y29600D01*
X17582D01*
X17375Y30374D01*
X16941Y31126D01*
X16326Y31741D01*
X15574Y32175D01*
X14800Y32382D01*
D02*
G37*
G36*
X13800D02*
X13026Y32175D01*
X12274Y31741D01*
X11659Y31126D01*
X11225Y30374D01*
X11018Y29600D01*
X13800D01*
Y32382D01*
D02*
G37*
G36*
X166791Y40598D02*
X165609D01*
X165145Y40506D01*
X164751Y40243D01*
X164488Y39849D01*
X164396Y39384D01*
Y33085D01*
X164488Y32620D01*
X164751Y32227D01*
X165145Y31964D01*
X165361Y31920D01*
Y30907D01*
X165439Y30516D01*
X165660Y30186D01*
X166400Y29446D01*
Y28969D01*
X166644Y28381D01*
X167094Y27931D01*
X167682Y27688D01*
X168318D01*
X168906Y27931D01*
X169356Y28381D01*
X169600Y28969D01*
Y29606D01*
X169356Y30194D01*
X168906Y30644D01*
X168318Y30888D01*
X167842D01*
X167401Y31329D01*
Y32061D01*
X167649Y32227D01*
X167912Y32620D01*
X168004Y33085D01*
Y39384D01*
X167912Y39849D01*
X167649Y40243D01*
X167255Y40506D01*
X166791Y40598D01*
D02*
G37*
G36*
X161791D02*
X160609D01*
X160145Y40506D01*
X159751Y40243D01*
X159488Y39849D01*
X159396Y39384D01*
Y33085D01*
X159488Y32620D01*
X159751Y32227D01*
X160145Y31964D01*
X160180Y31956D01*
Y30531D01*
X159844Y30194D01*
X159600Y29606D01*
Y28969D01*
X159844Y28381D01*
X160294Y27931D01*
X160882Y27688D01*
X161518D01*
X162106Y27931D01*
X162556Y28381D01*
X162800Y28969D01*
Y29606D01*
X162556Y30194D01*
X162220Y30531D01*
Y31956D01*
X162255Y31964D01*
X162649Y32227D01*
X162912Y32620D01*
X163004Y33085D01*
Y39384D01*
X162912Y39849D01*
X162649Y40243D01*
X162255Y40506D01*
X161791Y40598D01*
D02*
G37*
G36*
X156791D02*
X155609D01*
X155145Y40506D01*
X154751Y40243D01*
X154488Y39849D01*
X154396Y39384D01*
Y33085D01*
X154488Y32620D01*
X154751Y32227D01*
X155145Y31964D01*
X155361Y31920D01*
Y30531D01*
X155025Y30194D01*
X154781Y29606D01*
Y28969D01*
X155025Y28381D01*
X155475Y27931D01*
X156063Y27688D01*
X156699D01*
X157287Y27931D01*
X157738Y28381D01*
X157981Y28969D01*
Y29606D01*
X157738Y30194D01*
X157401Y30531D01*
Y32061D01*
X157649Y32227D01*
X157912Y32620D01*
X158004Y33085D01*
Y39384D01*
X157912Y39849D01*
X157649Y40243D01*
X157255Y40506D01*
X156791Y40598D01*
D02*
G37*
G36*
X17582Y28600D02*
X14800D01*
Y25818D01*
X15574Y26025D01*
X16326Y26459D01*
X16941Y27074D01*
X17375Y27826D01*
X17582Y28600D01*
D02*
G37*
G36*
X13800D02*
X11018D01*
X11225Y27826D01*
X11659Y27074D01*
X12274Y26459D01*
X13026Y26025D01*
X13800Y25818D01*
Y28600D01*
D02*
G37*
G36*
X96197Y32324D02*
X95106D01*
X94052Y32042D01*
X93107Y31497D01*
X92336Y30725D01*
X91791Y29780D01*
X91508Y28727D01*
Y27636D01*
X91791Y26582D01*
X92336Y25637D01*
X93107Y24866D01*
X94052Y24320D01*
X95106Y24038D01*
X96197D01*
X97251Y24320D01*
X98196Y24866D01*
X98967Y25637D01*
X99512Y26582D01*
X99795Y27636D01*
Y28727D01*
X99512Y29780D01*
X98967Y30725D01*
X98196Y31497D01*
X97251Y32042D01*
X96197Y32324D01*
D02*
G37*
G36*
X71545D02*
X70455D01*
X69401Y32042D01*
X68456Y31497D01*
X67685Y30725D01*
X67139Y29780D01*
X66857Y28727D01*
Y27636D01*
X67139Y26582D01*
X67685Y25637D01*
X68456Y24866D01*
X69401Y24320D01*
X70455Y24038D01*
X71545D01*
X72599Y24320D01*
X73544Y24866D01*
X74316Y25637D01*
X74861Y26582D01*
X75143Y27636D01*
Y28727D01*
X74861Y29780D01*
X74316Y30725D01*
X73544Y31497D01*
X72599Y32042D01*
X71545Y32324D01*
D02*
G37*
G36*
X47146D02*
X46055D01*
X45001Y32042D01*
X44056Y31497D01*
X43284Y30725D01*
X42739Y29780D01*
X42457Y28727D01*
Y27636D01*
X42739Y26582D01*
X43284Y25637D01*
X44056Y24866D01*
X45001Y24320D01*
X46055Y24038D01*
X47146D01*
X48199Y24320D01*
X49144Y24866D01*
X49916Y25637D01*
X50461Y26582D01*
X50743Y27636D01*
Y28727D01*
X50461Y29780D01*
X49916Y30725D01*
X49144Y31497D01*
X48199Y32042D01*
X47146Y32324D01*
D02*
G37*
G36*
X177364Y22410D02*
X176727D01*
X176139Y22166D01*
X175689Y21716D01*
X175445Y21128D01*
Y20492D01*
X175689Y19904D01*
X176139Y19454D01*
X176727Y19210D01*
X177364D01*
X177952Y19454D01*
X178402Y19904D01*
X178645Y20492D01*
Y21128D01*
X178402Y21716D01*
X177952Y22166D01*
X177364Y22410D01*
D02*
G37*
G36*
X30618Y19781D02*
X29982D01*
X29394Y19537D01*
X28944Y19087D01*
X28700Y18499D01*
Y17863D01*
X28944Y17275D01*
X29394Y16825D01*
X29982Y16581D01*
X30618D01*
X31206Y16825D01*
X31656Y17275D01*
X31900Y17863D01*
Y18499D01*
X31656Y19087D01*
X31206Y19537D01*
X30618Y19781D01*
D02*
G37*
G36*
X96197Y22324D02*
X95106D01*
X94052Y22042D01*
X93107Y21497D01*
X92336Y20725D01*
X91791Y19780D01*
X91508Y18727D01*
Y17636D01*
X91791Y16582D01*
X92336Y15637D01*
X93107Y14866D01*
X94052Y14320D01*
X95106Y14038D01*
X96197D01*
X97251Y14320D01*
X98196Y14866D01*
X98967Y15637D01*
X99512Y16582D01*
X99795Y17636D01*
Y18727D01*
X99512Y19780D01*
X98967Y20725D01*
X98196Y21497D01*
X97251Y22042D01*
X96197Y22324D01*
D02*
G37*
G36*
X71545D02*
X70455D01*
X69401Y22042D01*
X68456Y21497D01*
X67685Y20725D01*
X67139Y19780D01*
X66857Y18727D01*
Y17636D01*
X67139Y16582D01*
X67685Y15637D01*
X68456Y14866D01*
X69401Y14320D01*
X70455Y14038D01*
X71545D01*
X72599Y14320D01*
X73544Y14866D01*
X74316Y15637D01*
X74861Y16582D01*
X75143Y17636D01*
Y18727D01*
X74861Y19780D01*
X74316Y20725D01*
X73544Y21497D01*
X72599Y22042D01*
X71545Y22324D01*
D02*
G37*
G36*
X47146D02*
X46055D01*
X45001Y22042D01*
X44056Y21497D01*
X43284Y20725D01*
X42739Y19780D01*
X42457Y18727D01*
Y17636D01*
X42739Y16582D01*
X43284Y15637D01*
X44056Y14866D01*
X45001Y14320D01*
X46055Y14038D01*
X47146D01*
X48199Y14320D01*
X49144Y14866D01*
X49916Y15637D01*
X50461Y16582D01*
X50743Y17636D01*
Y18727D01*
X50461Y19780D01*
X49916Y20725D01*
X49144Y21497D01*
X48199Y22042D01*
X47146Y22324D01*
D02*
G37*
G36*
X169946Y21543D02*
X168854D01*
X167801Y21261D01*
X166856Y20716D01*
X166085Y19944D01*
X165539Y18999D01*
X165257Y17945D01*
Y16854D01*
X165539Y15801D01*
X166085Y14856D01*
X166856Y14085D01*
X167801Y13539D01*
X168854Y13257D01*
X169946D01*
X170999Y13539D01*
X171944Y14085D01*
X172715Y14856D01*
X173261Y15801D01*
X173543Y16854D01*
Y17945D01*
X173261Y18999D01*
X172715Y19944D01*
X171944Y20716D01*
X170999Y21261D01*
X169946Y21543D01*
D02*
G37*
G36*
X159945D02*
X158854D01*
X157801Y21261D01*
X156856Y20716D01*
X156085Y19944D01*
X155539Y18999D01*
X155257Y17945D01*
Y16854D01*
X155539Y15801D01*
X156085Y14856D01*
X156856Y14085D01*
X157801Y13539D01*
X158854Y13257D01*
X159945D01*
X160999Y13539D01*
X161944Y14085D01*
X162715Y14856D01*
X163261Y15801D01*
X163543Y16854D01*
Y17945D01*
X163261Y18999D01*
X162715Y19944D01*
X161944Y20716D01*
X160999Y21261D01*
X159945Y21543D01*
D02*
G37*
G36*
X153543D02*
X145257D01*
Y13257D01*
X153543D01*
Y21543D01*
D02*
G37*
G36*
X96223Y12524D02*
X96152D01*
Y8681D01*
X99995D01*
Y8753D01*
X99699Y9858D01*
X99127Y10848D01*
X98318Y11657D01*
X97328Y12228D01*
X96223Y12524D01*
D02*
G37*
G36*
X71572D02*
X71500D01*
Y8681D01*
X75343D01*
Y8753D01*
X75047Y9858D01*
X74476Y10848D01*
X73667Y11657D01*
X72676Y12228D01*
X71572Y12524D01*
D02*
G37*
G36*
X47172D02*
X47100D01*
Y8681D01*
X50943D01*
Y8753D01*
X50647Y9858D01*
X50076Y10848D01*
X49267Y11657D01*
X48276Y12228D01*
X47172Y12524D01*
D02*
G37*
G36*
X95152D02*
X95080D01*
X93975Y12228D01*
X92985Y11657D01*
X92176Y10848D01*
X91604Y9858D01*
X91308Y8753D01*
Y8681D01*
X95152D01*
Y12524D01*
D02*
G37*
G36*
X70500D02*
X70428D01*
X69324Y12228D01*
X68333Y11657D01*
X67524Y10848D01*
X66953Y9858D01*
X66657Y8753D01*
Y8681D01*
X70500D01*
Y12524D01*
D02*
G37*
G36*
X46100D02*
X46028D01*
X44924Y12228D01*
X43933Y11657D01*
X43124Y10848D01*
X42553Y9858D01*
X42257Y8753D01*
Y8681D01*
X46100D01*
Y12524D01*
D02*
G37*
G36*
X25042Y10600D02*
X24358D01*
X23696Y10423D01*
X23104Y10080D01*
X22619Y9596D01*
X22277Y9004D01*
X22100Y8342D01*
Y7658D01*
X22277Y6996D01*
X22619Y6404D01*
X23104Y5920D01*
X23696Y5577D01*
X24358Y5400D01*
X25042D01*
X25704Y5577D01*
X26296Y5920D01*
X26781Y6404D01*
X27123Y6996D01*
X27300Y7658D01*
Y8342D01*
X27123Y9004D01*
X26781Y9596D01*
X26296Y10080D01*
X25704Y10423D01*
X25042Y10600D01*
D02*
G37*
%LPD*%
G36*
X89108Y214511D02*
X79880D01*
X79836Y214577D01*
X79572Y214753D01*
X79261Y214815D01*
X78671D01*
X78360Y214753D01*
X78104Y214582D01*
X78012Y214721D01*
X77682Y214941D01*
X77446Y214988D01*
X77495Y215488D01*
X80152D01*
Y218052D01*
X76498D01*
Y218552D01*
X75998D01*
Y221616D01*
X75582D01*
X75391Y222078D01*
X76088Y222775D01*
X79668D01*
X79693Y222716D01*
X80152Y222526D01*
X80921D01*
X81117Y222607D01*
X81617Y222300D01*
Y221148D01*
X84779D01*
X87941D01*
Y223095D01*
X89108D01*
Y214511D01*
D02*
G37*
G36*
X112444Y209249D02*
Y209249D01*
X119040D01*
X119539Y208967D01*
X119536Y207728D01*
X119356Y207303D01*
X116300D01*
Y204436D01*
X115800D01*
Y203936D01*
X112244D01*
Y201978D01*
X111394D01*
Y203947D01*
X108231D01*
X105069D01*
Y201978D01*
X94015Y201978D01*
Y203438D01*
X94064Y203917D01*
X99201D01*
Y208661D01*
X94383D01*
X94149Y209161D01*
X94357Y209480D01*
X112207Y209486D01*
X112444Y209249D01*
D02*
G37*
G36*
X86909Y202796D02*
X87239Y202575D01*
X87629Y202498D01*
X93366D01*
Y201978D01*
X93149Y201654D01*
X90750D01*
Y198500D01*
X93813D01*
X96877D01*
Y201329D01*
X98036D01*
Y194546D01*
X99880D01*
Y191116D01*
X97594Y188830D01*
X89443D01*
Y189527D01*
X89161Y190581D01*
X88616Y191526D01*
X87844Y192297D01*
X86899Y192843D01*
X85846Y193125D01*
X84755D01*
X83701Y192843D01*
X82756Y192297D01*
X81985Y191526D01*
X81822Y191243D01*
X81326Y191178D01*
X80563Y191941D01*
Y194069D01*
X80485Y194459D01*
X80264Y194790D01*
X78017Y197037D01*
Y199692D01*
X78466Y199990D01*
Y201994D01*
X78966D01*
Y202495D01*
X80278D01*
Y202784D01*
X80445Y203075D01*
X80735Y203242D01*
X81025D01*
Y204554D01*
X81525D01*
Y205053D01*
X83549D01*
X83792Y205390D01*
X84282Y205423D01*
X86909Y202796D01*
D02*
G37*
%LPC*%
G36*
X80152Y221616D02*
X76998D01*
Y219052D01*
X80152D01*
Y221616D01*
D02*
G37*
G36*
X87941Y220148D02*
X85279D01*
Y217485D01*
X87941D01*
Y220148D01*
D02*
G37*
G36*
X84279D02*
X81617D01*
Y217485D01*
X84279D01*
Y220148D01*
D02*
G37*
G36*
X111394Y207610D02*
X108731D01*
Y204947D01*
X111394D01*
Y207610D01*
D02*
G37*
G36*
X107731D02*
X105069D01*
Y204947D01*
X107731D01*
Y207610D01*
D02*
G37*
G36*
X115300Y207303D02*
X112244D01*
Y204936D01*
X115300D01*
Y207303D01*
D02*
G37*
G36*
X83485Y204053D02*
X82025D01*
Y203242D01*
X82509D01*
X82898Y203319D01*
X83228Y203540D01*
X83448Y203869D01*
X83485Y204053D01*
D02*
G37*
G36*
X80278Y201495D02*
X79466D01*
Y200035D01*
X79650Y200071D01*
X79980Y200291D01*
X80200Y200621D01*
X80278Y201010D01*
Y201495D01*
D02*
G37*
G36*
X96877Y197500D02*
X94313D01*
Y194346D01*
X96877D01*
Y197500D01*
D02*
G37*
G36*
X93313D02*
X90750D01*
Y195146D01*
Y194346D01*
X93313D01*
Y197500D01*
D02*
G37*
%LPD*%
G36*
X131670Y173258D02*
Y151935D01*
X133146Y150459D01*
X152869D01*
Y142028D01*
X153933Y140964D01*
X161528D01*
Y139556D01*
X164100D01*
Y138556D01*
X161528D01*
Y137281D01*
X149648D01*
Y141140D01*
X146011D01*
X119102Y141140D01*
Y144624D01*
X123800D01*
Y146900D01*
Y149176D01*
X119102D01*
Y169600D01*
X120946Y171445D01*
X121408Y171253D01*
Y166400D01*
X125850D01*
X130291D01*
Y173380D01*
X131547D01*
X131670Y173258D01*
D02*
G37*
G36*
X152326Y173817D02*
X152142Y173393D01*
X151826Y173393D01*
X148200D01*
Y165900D01*
Y158407D01*
X151849D01*
X152326Y158305D01*
X152570Y158235D01*
X163261Y155180D01*
Y153903D01*
X164947D01*
Y152903D01*
X163261D01*
X163261Y151521D01*
X162779Y151477D01*
X162773D01*
Y149799D01*
X165345D01*
X167916D01*
Y151221D01*
X167916Y151477D01*
X168315Y151720D01*
X169976D01*
Y152285D01*
X170464D01*
X170754Y151836D01*
X172752D01*
Y150836D01*
X170797D01*
X170829Y150673D01*
X171044Y150352D01*
X170829Y150031D01*
X170797Y149868D01*
X172752D01*
Y148868D01*
X170797D01*
X170829Y148704D01*
X171044Y148383D01*
X170829Y148063D01*
X170797Y147899D01*
X172752D01*
Y146899D01*
X170797D01*
X170829Y146736D01*
X170853Y146700D01*
X170586Y146200D01*
X165709Y146200D01*
X154293Y146200D01*
Y151106D01*
X152295Y153105D01*
X139640D01*
Y175597D01*
X139968Y175733D01*
X152326D01*
Y173817D01*
D02*
G37*
%LPC*%
G36*
X130291Y165400D02*
X126350D01*
Y158407D01*
X130291D01*
Y165400D01*
D02*
G37*
G36*
X125350D02*
X121408D01*
Y158407D01*
X125350D01*
Y165400D01*
D02*
G37*
G36*
X145118Y149380D02*
X139700D01*
Y147603D01*
X145118D01*
Y149380D01*
D02*
G37*
G36*
X138700D02*
X133282D01*
Y147603D01*
X138700D01*
Y149380D01*
D02*
G37*
G36*
X130218Y149176D02*
X124800D01*
Y147400D01*
X130218D01*
Y149176D01*
D02*
G37*
G36*
X145118Y146603D02*
X139700D01*
Y144827D01*
X145118D01*
Y146603D01*
D02*
G37*
G36*
X138700D02*
X133282D01*
Y144827D01*
X138700D01*
Y146603D01*
D02*
G37*
G36*
X130218Y146400D02*
X124800D01*
Y144624D01*
X130218D01*
Y146400D01*
D02*
G37*
G36*
X147200Y173393D02*
X143258D01*
Y166400D01*
X147200D01*
Y173393D01*
D02*
G37*
G36*
Y165400D02*
X143258D01*
Y158407D01*
X147200D01*
Y165400D01*
D02*
G37*
G36*
X167916Y148799D02*
X165845D01*
Y147121D01*
X167916D01*
Y148799D01*
D02*
G37*
G36*
X164845D02*
X162773D01*
Y147121D01*
X164845D01*
Y148799D01*
D02*
G37*
%LPD*%
G36*
X196557Y96803D02*
Y88948D01*
X196372Y88524D01*
X196057Y88524D01*
X193316D01*
Y85657D01*
Y82790D01*
X196249Y82790D01*
X196510Y82348D01*
X196358Y81917D01*
X178415Y81880D01*
X178048Y82380D01*
Y95300D01*
X182298D01*
X182363Y94800D01*
X181642Y94607D01*
X180889Y94172D01*
X180275Y93558D01*
X179840Y92805D01*
X179633Y92032D01*
X182915D01*
X186198D01*
X185991Y92805D01*
X185556Y93558D01*
X184942Y94172D01*
X184189Y94607D01*
X183467Y94800D01*
X183533Y95300D01*
X189577D01*
X191140Y96863D01*
X196497D01*
X196557Y96803D01*
D02*
G37*
G36*
X211644Y80445D02*
Y59009D01*
X192712D01*
X192324Y59397D01*
X192515Y59859D01*
X194146D01*
Y61439D01*
X191779D01*
Y60595D01*
X191317Y60404D01*
X189422Y62299D01*
Y66505D01*
X189656Y66909D01*
X189922Y66909D01*
X192220D01*
Y69677D01*
Y72446D01*
X189922D01*
X189656Y72446D01*
X189422Y72849D01*
Y75310D01*
X192316D01*
Y78177D01*
X192816D01*
Y78677D01*
X196372D01*
Y80900D01*
X211189D01*
X211644Y80445D01*
D02*
G37*
%LPC*%
G36*
X186198Y91031D02*
X183415D01*
Y88249D01*
X184189Y88456D01*
X184942Y88891D01*
X185556Y89505D01*
X185991Y90258D01*
X186198Y91031D01*
D02*
G37*
G36*
X182415D02*
X179633D01*
X179840Y90258D01*
X180275Y89505D01*
X180889Y88891D01*
X181642Y88456D01*
X182415Y88249D01*
Y91031D01*
D02*
G37*
G36*
X192316Y88524D02*
X189261D01*
Y86157D01*
X192316D01*
Y88524D01*
D02*
G37*
G36*
Y85157D02*
X189261D01*
Y82790D01*
X192316D01*
Y85157D01*
D02*
G37*
G36*
X196372Y77677D02*
X193316D01*
Y75310D01*
X196372D01*
Y77677D01*
D02*
G37*
G36*
X193220Y72446D02*
Y70177D01*
X195783D01*
Y72446D01*
X193220D01*
D02*
G37*
G36*
X195783Y69177D02*
X193220D01*
Y66909D01*
X195783D01*
Y69177D01*
D02*
G37*
G36*
X197513Y64018D02*
X195146D01*
Y62438D01*
X197513D01*
Y64018D01*
D02*
G37*
G36*
X194146D02*
X191779D01*
Y62438D01*
X194146D01*
Y64018D01*
D02*
G37*
G36*
X197513Y61439D02*
X195146D01*
Y59859D01*
X197513D01*
Y61439D01*
D02*
G37*
%LPD*%
G36*
X178057Y64821D02*
Y62878D01*
X180628D01*
Y62378D01*
X181128D01*
Y59610D01*
X182341D01*
Y58528D01*
X182309Y58502D01*
Y55431D01*
X181809D01*
Y54931D01*
X180399D01*
Y53461D01*
X180476Y53073D01*
X180696Y52744D01*
X180737Y52716D01*
X180575Y52474D01*
X180498Y52085D01*
Y51601D01*
X181809D01*
Y50601D01*
X180498D01*
Y50116D01*
X180575Y49728D01*
X180795Y49398D01*
X181125Y49178D01*
X181514Y49100D01*
X181746D01*
X181953Y48600D01*
X179861Y46508D01*
X178281D01*
Y44232D01*
Y41955D01*
X179662D01*
Y39884D01*
X173129D01*
X173048Y40081D01*
Y65310D01*
X177628Y65320D01*
X178057Y64821D01*
D02*
G37*
G36*
X202000Y36157D02*
X201976Y35280D01*
X195951Y35280D01*
Y35849D01*
X196487D01*
Y37732D01*
Y39614D01*
X195951D01*
Y40363D01*
X197868D01*
Y43132D01*
Y45900D01*
X196651D01*
X196422Y46400D01*
X196497Y46487D01*
X202000D01*
Y36157D01*
D02*
G37*
%LPC*%
G36*
X180128Y61878D02*
X178057D01*
Y59610D01*
X180128D01*
Y61878D01*
D02*
G37*
G36*
X181309Y58396D02*
X181026Y58339D01*
X180696Y58119D01*
X180476Y57790D01*
X180399Y57402D01*
Y55932D01*
X181309D01*
Y58396D01*
D02*
G37*
G36*
X177281Y46508D02*
X175701D01*
Y44732D01*
X177281D01*
Y46508D01*
D02*
G37*
G36*
Y43731D02*
X175701D01*
Y41955D01*
X177281D01*
Y43731D01*
D02*
G37*
G36*
X200939Y45900D02*
X198868D01*
Y43632D01*
X200939D01*
Y45900D01*
D02*
G37*
G36*
Y42632D02*
X198868D01*
Y40363D01*
X200939D01*
Y42632D01*
D02*
G37*
G36*
X198673Y39614D02*
X197487D01*
Y38232D01*
X198673D01*
Y39614D01*
D02*
G37*
G36*
Y37231D02*
X197487D01*
Y35849D01*
X198673D01*
Y37231D01*
D02*
G37*
G36*
X8669Y204250D02*
X6400D01*
Y202179D01*
X8669D01*
Y204250D01*
D02*
G37*
G36*
X15168Y204000D02*
X12900D01*
Y201928D01*
X15168D01*
Y204000D01*
D02*
G37*
G36*
X11900D02*
X9631D01*
Y201928D01*
X11900D01*
Y204000D01*
D02*
G37*
G36*
X19500Y203957D02*
X16346D01*
Y201393D01*
X19500D01*
Y203957D01*
D02*
G37*
G36*
X13120Y198718D02*
X10064D01*
Y196450D01*
X13120D01*
Y198718D01*
D02*
G37*
G36*
X9064D02*
X6008D01*
Y196450D01*
X9064D01*
Y198718D01*
D02*
G37*
G36*
X13120Y195450D02*
X10064D01*
Y193181D01*
X13120D01*
Y195450D01*
D02*
G37*
G36*
X9064D02*
X6008D01*
Y193181D01*
X9064D01*
Y195450D01*
D02*
G37*
G36*
X12082Y187589D02*
Y184806D01*
X14864D01*
X14657Y185580D01*
X14222Y186333D01*
X13608Y186947D01*
X12856Y187381D01*
X12082Y187589D01*
D02*
G37*
G36*
X11082D02*
X10308Y187381D01*
X9556Y186947D01*
X8941Y186333D01*
X8507Y185580D01*
X8299Y184806D01*
X11082D01*
Y187589D01*
D02*
G37*
G36*
X21498Y187039D02*
X19426D01*
Y184770D01*
X21498D01*
Y187039D01*
D02*
G37*
G36*
X38951Y203894D02*
X37273D01*
Y202413D01*
X38951D01*
Y203894D01*
D02*
G37*
G36*
X30869Y204172D02*
X28600D01*
Y202101D01*
X30869D01*
Y204172D01*
D02*
G37*
G36*
X27600D02*
X25332D01*
Y202101D01*
X27600D01*
Y204172D01*
D02*
G37*
G36*
X38951Y201413D02*
X37273D01*
Y199932D01*
X38951D01*
Y201413D01*
D02*
G37*
G36*
X30869Y201101D02*
X28600D01*
Y199029D01*
X30869D01*
Y201101D01*
D02*
G37*
G36*
X27600D02*
X25332D01*
Y199029D01*
X27600D01*
Y201101D01*
D02*
G37*
G36*
X23356Y195450D02*
X20300D01*
Y193181D01*
X23356D01*
Y195450D01*
D02*
G37*
G36*
X219827Y154379D02*
X218444D01*
Y152800D01*
X219827D01*
Y154379D01*
D02*
G37*
G36*
X209999Y149774D02*
X204581D01*
Y147998D01*
X209999D01*
Y149774D01*
D02*
G37*
G36*
X203581D02*
X198163D01*
Y147998D01*
X203581D01*
Y149774D01*
D02*
G37*
G36*
X217444Y146998D02*
X212026D01*
Y145221D01*
X217444D01*
Y146998D01*
D02*
G37*
G36*
X209999Y146998D02*
X204581D01*
Y145221D01*
X209999D01*
Y146998D01*
D02*
G37*
G36*
X203581D02*
X198163D01*
Y145221D01*
X203581D01*
Y146998D01*
D02*
G37*
%LPD*%
D13*
X119736Y45546D02*
X121643D01*
X121717Y45619D01*
X124531D01*
X64685Y59290D02*
X67595Y62200D01*
X64685Y48675D02*
Y59290D01*
X118630Y37270D02*
X118790D01*
X11562Y149963D02*
X11582Y149943D01*
X5819Y149963D02*
X11562D01*
X5800Y149982D02*
X5819Y149963D01*
X164173Y91435D02*
X166463D01*
X158895Y86157D02*
X164173Y91435D01*
X122140Y66176D02*
Y71736D01*
X121829Y72047D02*
X122140Y71736D01*
Y66176D02*
X122332Y65984D01*
X107701D02*
Y72002D01*
X107656Y72047D02*
X107701Y72002D01*
Y65984D02*
X107747Y65939D01*
X32065Y72047D02*
X32208Y71904D01*
Y65939D02*
Y71904D01*
Y65939D02*
X32351Y65796D01*
X10024Y29100D02*
X14300D01*
X9252Y29601D02*
X9523D01*
X10024Y29100D01*
X145598Y228817D02*
X150061D01*
X144515Y229900D02*
X145598Y228817D01*
X143861Y190530D02*
X149372D01*
X176197Y171079D02*
X176462Y171344D01*
X151203Y29923D02*
Y36232D01*
X151200Y36235D02*
X151203Y36232D01*
Y29923D02*
X151206Y29920D01*
X118790Y37270D02*
X119739Y38219D01*
X122079D01*
X122366Y38506D01*
X32065Y124803D02*
Y130800D01*
X54903Y212412D02*
X56077D01*
X57287Y213621D02*
X57557D01*
X56077Y212412D02*
X57287Y213621D01*
X121829Y124803D02*
Y131366D01*
Y124803D02*
X121984Y124647D01*
X199213Y49430D02*
X199405Y49239D01*
X197520Y49920D02*
X198009Y49430D01*
X199213D01*
X134401Y117307D02*
X135340Y118246D01*
X140515D01*
X145830Y123561D01*
X179164Y121592D02*
X179603Y122031D01*
X185353D01*
X57659Y209250D02*
X57856D01*
X49076Y216598D02*
Y218468D01*
X50854Y212935D02*
Y213206D01*
X50395Y213665D02*
X50854Y213206D01*
X127502Y117307D02*
X134401D01*
X150554Y94501D02*
X151023Y94032D01*
X158558D01*
X67595Y62200D02*
X69735D01*
X74585Y72047D02*
X74592Y72040D01*
Y67057D02*
Y72040D01*
X69735Y62200D02*
X74592Y67057D01*
X171993Y100926D02*
X172015Y100904D01*
X171970Y106720D02*
X171993Y106698D01*
Y100926D02*
Y106698D01*
X62100Y60418D02*
Y63673D01*
X62128Y63700D01*
D18*
X225719Y126691D02*
D03*
X140500Y205200D02*
D03*
X143100Y78502D02*
D03*
X138202Y83399D02*
D03*
X157400Y169000D02*
D03*
X171970Y106720D02*
D03*
X130800Y224900D02*
D03*
X214500Y196800D02*
D03*
X206600Y190530D02*
D03*
X215440Y221100D02*
D03*
Y214800D02*
D03*
X137424Y53390D02*
D03*
X135400Y60484D02*
D03*
X138414Y89960D02*
D03*
X167987Y68709D02*
D03*
X178793Y107098D02*
D03*
X182915Y91531D02*
D03*
X14300Y29100D02*
D03*
X24600Y32081D02*
D03*
X24800Y41481D02*
D03*
X5800Y149982D02*
D03*
X69897Y135316D02*
D03*
X62190Y135441D02*
D03*
X11582Y184306D02*
D03*
X71632Y181628D02*
D03*
D19*
X132359Y205200D02*
D03*
X127241D02*
D03*
X138259Y213300D02*
D03*
X133141D02*
D03*
X152992Y79106D02*
D03*
X158110D02*
D03*
D20*
X36268Y135939D02*
D03*
Y141057D02*
D03*
D21*
X124531Y48786D02*
D03*
Y45619D02*
D03*
D22*
X108231Y204447D02*
D03*
Y212715D02*
D03*
X84779Y228915D02*
D03*
Y220648D02*
D03*
X104900Y61800D02*
D03*
Y53532D02*
D03*
D23*
X115800Y204436D02*
D03*
Y211916D02*
D03*
X227557Y140017D02*
D03*
Y147498D02*
D03*
X79309Y143511D02*
D03*
Y136031D02*
D03*
X110200Y142202D02*
D03*
Y134722D02*
D03*
X96360Y145380D02*
D03*
Y137899D02*
D03*
X192816Y85657D02*
D03*
Y78177D02*
D03*
X87696Y152580D02*
D03*
Y145100D02*
D03*
D24*
X96633Y206289D02*
D03*
Y212588D02*
D03*
X69860Y218468D02*
D03*
Y224768D02*
D03*
X5900Y211050D02*
D03*
Y204750D02*
D03*
X12400Y210799D02*
D03*
Y204500D02*
D03*
X28100Y207900D02*
D03*
Y201601D02*
D03*
X92061Y227194D02*
D03*
Y220895D02*
D03*
X40400Y189650D02*
D03*
Y195950D02*
D03*
X46900D02*
D03*
Y189650D02*
D03*
X57856Y202950D02*
D03*
Y209250D02*
D03*
X135340Y124545D02*
D03*
Y118246D02*
D03*
X135400Y106327D02*
D03*
Y112626D02*
D03*
X78700Y52561D02*
D03*
Y58860D02*
D03*
X69700Y52710D02*
D03*
Y59009D02*
D03*
X43958Y141647D02*
D03*
Y135348D02*
D03*
X55800Y55501D02*
D03*
Y61800D02*
D03*
X52000Y141550D02*
D03*
Y135250D02*
D03*
X54057Y171392D02*
D03*
Y177691D02*
D03*
X60800Y171392D02*
D03*
Y177691D02*
D03*
X67000Y189450D02*
D03*
Y195750D02*
D03*
D25*
X166463Y75717D02*
D03*
Y92055D02*
D03*
X174928Y75717D02*
D03*
Y92055D02*
D03*
X44844Y166589D02*
D03*
Y150250D02*
D03*
X36380Y166589D02*
D03*
Y150250D02*
D03*
D26*
X119818Y53621D02*
D03*
X113519D02*
D03*
X169898Y133502D02*
D03*
X176197D02*
D03*
X213019Y203300D02*
D03*
X206720D02*
D03*
X192068Y43132D02*
D03*
X198368D02*
D03*
X150554Y94501D02*
D03*
X144255D02*
D03*
X186927Y62378D02*
D03*
X180628D02*
D03*
X152401Y86157D02*
D03*
X158700D02*
D03*
X27328Y175251D02*
D03*
X21029D02*
D03*
X28297Y184270D02*
D03*
X21998D02*
D03*
X60356Y165100D02*
D03*
X54057D02*
D03*
D27*
X98207Y55072D02*
D03*
Y59009D02*
D03*
X102931Y134132D02*
D03*
Y138068D02*
D03*
X141727Y43132D02*
D03*
Y39195D02*
D03*
X62100Y60418D02*
D03*
Y56481D02*
D03*
X88900Y133163D02*
D03*
Y137100D02*
D03*
D28*
X70502Y204554D02*
D03*
Y206522D02*
D03*
Y208490D02*
D03*
Y210459D02*
D03*
X81525D02*
D03*
Y208490D02*
D03*
Y206522D02*
D03*
Y204554D02*
D03*
D29*
X73061Y213018D02*
D03*
X75029D02*
D03*
X76998D02*
D03*
X78966D02*
D03*
Y201994D02*
D03*
X76998D02*
D03*
X75029D02*
D03*
X73061D02*
D03*
D30*
X164100Y139056D02*
D03*
Y133544D02*
D03*
X53100Y190438D02*
D03*
Y195950D02*
D03*
X195745Y165143D02*
D03*
Y170655D02*
D03*
X195400Y154998D02*
D03*
Y160510D02*
D03*
X165345Y143787D02*
D03*
Y149299D02*
D03*
D31*
X176296Y156848D02*
D03*
Y139919D02*
D03*
X182201D02*
D03*
Y156848D02*
D03*
D32*
X172752Y155273D02*
D03*
Y153305D02*
D03*
Y151336D02*
D03*
Y149368D02*
D03*
Y147399D02*
D03*
Y145431D02*
D03*
Y143462D02*
D03*
Y141494D02*
D03*
X185745D02*
D03*
Y143462D02*
D03*
Y145431D02*
D03*
Y147399D02*
D03*
Y149368D02*
D03*
Y151336D02*
D03*
Y153305D02*
D03*
Y155273D02*
D03*
D33*
X43485Y178971D02*
D03*
D34*
X48800Y183400D02*
D03*
Y181628D02*
D03*
Y179857D02*
D03*
Y178085D02*
D03*
Y176313D02*
D03*
Y174542D02*
D03*
X38170D02*
D03*
Y176313D02*
D03*
Y178085D02*
D03*
Y179857D02*
D03*
Y181628D02*
D03*
Y183400D02*
D03*
D35*
X47305Y229000D02*
D03*
X40612D02*
D03*
D36*
X60100D02*
D03*
X27817D02*
D03*
D37*
X56163Y219748D02*
D03*
X31754D02*
D03*
D38*
X49076Y218468D02*
D03*
X46517D02*
D03*
X43958D02*
D03*
X41399D02*
D03*
X38840D02*
D03*
D39*
X76498Y225639D02*
D03*
Y218552D02*
D03*
X20000Y211543D02*
D03*
Y204457D02*
D03*
D40*
X9564Y195950D02*
D03*
X19800D02*
D03*
D41*
X28188Y195000D02*
D03*
X33700D02*
D03*
X52931Y185526D02*
D03*
X58443D02*
D03*
X33612Y189650D02*
D03*
X28100D02*
D03*
D42*
X39451Y209393D02*
D03*
X47325D02*
D03*
X39451Y201913D02*
D03*
D43*
X47325Y202700D02*
D03*
D44*
X190144Y164199D02*
D03*
Y159869D02*
D03*
D45*
X203575Y164199D02*
D03*
Y171286D02*
D03*
X176197Y171079D02*
D03*
Y163993D02*
D03*
X166600Y171079D02*
D03*
Y163993D02*
D03*
D46*
X217945Y152300D02*
D03*
X214007D02*
D03*
D47*
X207600Y155883D02*
D03*
Y152340D02*
D03*
D48*
X204081Y147498D02*
D03*
Y135490D02*
D03*
X217945Y135490D02*
D03*
Y147498D02*
D03*
X139200Y135095D02*
D03*
Y147103D02*
D03*
X124300Y146900D02*
D03*
Y134892D02*
D03*
D49*
X200031Y155356D02*
D03*
X203575D02*
D03*
X164947Y153403D02*
D03*
X168491D02*
D03*
X196987Y37732D02*
D03*
X193444D02*
D03*
D50*
X147700Y165900D02*
D03*
X125850D02*
D03*
D51*
X145830Y113718D02*
D03*
Y123561D02*
D03*
D52*
X194628Y227931D02*
D03*
D53*
X189864Y229309D02*
D03*
D54*
X185730D02*
D03*
X181400D02*
D03*
X177069D02*
D03*
X172738D02*
D03*
X168407D02*
D03*
X164077D02*
D03*
X159746D02*
D03*
D55*
X150061Y228817D02*
D03*
D56*
X149372Y190530D02*
D03*
Y205097D02*
D03*
D57*
X163152Y186691D02*
D03*
X186655D02*
D03*
D58*
X100900Y198000D02*
D03*
X93813D02*
D03*
X142987Y72047D02*
D03*
X135900D02*
D03*
X40157Y61200D02*
D03*
X47243D02*
D03*
D59*
X194646Y61939D02*
D03*
Y55246D02*
D03*
D60*
X185746Y51101D02*
D03*
X183778D02*
D03*
X181809D02*
D03*
D61*
X166200Y55565D02*
D03*
X161200D02*
D03*
X156200D02*
D03*
X151200D02*
D03*
Y36235D02*
D03*
X156200D02*
D03*
X161200D02*
D03*
X166200D02*
D03*
D62*
X130634Y33388D02*
D03*
Y35947D02*
D03*
Y38506D02*
D03*
X122366Y33388D02*
D03*
Y35947D02*
D03*
Y38506D02*
D03*
D63*
X136834Y42026D02*
D03*
Y38876D02*
D03*
D64*
X150725Y63700D02*
D03*
X153875D02*
D03*
D65*
X182112Y44232D02*
D03*
X177781D02*
D03*
X192178Y49143D02*
D03*
X196509D02*
D03*
D66*
X150697Y68831D02*
D03*
X154240D02*
D03*
D67*
X192720Y69677D02*
D03*
X183468D02*
D03*
D68*
X32065Y72047D02*
D03*
X36789D02*
D03*
X41514D02*
D03*
X46238D02*
D03*
X50963D02*
D03*
X55687D02*
D03*
X60411D02*
D03*
X65136D02*
D03*
X69860D02*
D03*
X74585D02*
D03*
X79309D02*
D03*
X84034D02*
D03*
X88758D02*
D03*
X93482D02*
D03*
X98207D02*
D03*
X102931D02*
D03*
X107656D02*
D03*
X112380D02*
D03*
X117104D02*
D03*
X121829D02*
D03*
Y124803D02*
D03*
X117104D02*
D03*
X112380D02*
D03*
X107656D02*
D03*
X102931D02*
D03*
X98207D02*
D03*
X93482D02*
D03*
X88758D02*
D03*
X84034D02*
D03*
X79309D02*
D03*
X74585D02*
D03*
X69860D02*
D03*
X65136D02*
D03*
X60411D02*
D03*
X55687D02*
D03*
X50963D02*
D03*
X46238D02*
D03*
X41514D02*
D03*
X36789D02*
D03*
X32065D02*
D03*
D69*
X127502Y74787D02*
D03*
Y84236D02*
D03*
Y88961D02*
D03*
Y93685D02*
D03*
Y98409D02*
D03*
Y103134D02*
D03*
Y107858D02*
D03*
Y112583D02*
D03*
Y117307D02*
D03*
Y122031D02*
D03*
Y79512D02*
D03*
D70*
X107600Y90215D02*
D03*
X96360D02*
D03*
X107600Y101727D02*
D03*
X96360D02*
D03*
X56840Y93947D02*
D03*
X48108D02*
D03*
X56840Y102538D02*
D03*
X48108D02*
D03*
D71*
X20324Y162631D02*
D03*
X28592D02*
D03*
D137*
X232659Y131035D02*
D03*
X232429Y120008D02*
D03*
Y123521D02*
D03*
X178339Y50234D02*
D03*
X178199Y53328D02*
D03*
X178057Y56711D02*
D03*
X119736Y45546D02*
D03*
X64685Y48675D02*
D03*
X100599Y203957D02*
D03*
X118630Y37270D02*
D03*
X177045Y20810D02*
D03*
X21800Y219952D02*
D03*
X19819Y218749D02*
D03*
X17362Y218803D02*
D03*
X14365Y218468D02*
D03*
X28300Y137795D02*
D03*
Y127953D02*
D03*
Y118110D02*
D03*
Y108268D02*
D03*
Y98425D02*
D03*
Y88583D02*
D03*
Y78740D02*
D03*
Y68898D02*
D03*
Y59055D02*
D03*
X13485Y144510D02*
D03*
X23328D02*
D03*
X13780Y52500D02*
D03*
X23622D02*
D03*
X3643Y144510D02*
D03*
X3937Y52500D02*
D03*
X66685Y231850D02*
D03*
X100623Y208225D02*
D03*
X103800Y204671D02*
D03*
X103369Y207979D02*
D03*
X115800Y219512D02*
D03*
X85411Y210459D02*
D03*
X87240Y216253D02*
D03*
X149921Y74509D02*
D03*
X159004Y65426D02*
D03*
X179370Y75128D02*
D03*
X153029Y72849D02*
D03*
X135340Y128600D02*
D03*
X122332Y65984D02*
D03*
X107747Y65939D02*
D03*
X32351Y65796D02*
D03*
X157108Y132621D02*
D03*
X147155Y132494D02*
D03*
X150554Y132566D02*
D03*
X85039Y198128D02*
D03*
X190358Y135785D02*
D03*
X190221Y139211D02*
D03*
X201881Y77531D02*
D03*
X201705Y73830D02*
D03*
X201600Y70177D02*
D03*
Y66229D02*
D03*
X40157Y55118D02*
D03*
X121961Y48786D02*
D03*
X93813Y59009D02*
D03*
X98207Y51378D02*
D03*
X23288Y223064D02*
D03*
X77982Y205538D02*
D03*
X74045D02*
D03*
Y209475D02*
D03*
X77982D02*
D03*
X76013Y207506D02*
D03*
X88758Y198128D02*
D03*
X66685Y210656D02*
D03*
X63887Y168424D02*
D03*
X194312Y135785D02*
D03*
X194229Y139211D02*
D03*
X9252Y29601D02*
D03*
X217444Y203332D02*
D03*
X199673Y217242D02*
D03*
X199356Y228295D02*
D03*
X144515Y229900D02*
D03*
X143861Y190530D02*
D03*
X186655Y171786D02*
D03*
X183300Y174136D02*
D03*
X183219Y170498D02*
D03*
X210713Y156184D02*
D03*
X192794Y92957D02*
D03*
X192747Y90166D02*
D03*
X151206Y29920D02*
D03*
X134401Y33494D02*
D03*
X117157Y35056D02*
D03*
X136764Y46343D02*
D03*
X139403Y46784D02*
D03*
X139246Y104444D02*
D03*
X32065Y130800D02*
D03*
X11582Y149943D02*
D03*
X6400Y200461D02*
D03*
X14494Y200198D02*
D03*
X61736Y189555D02*
D03*
X62470Y213247D02*
D03*
X57557Y213621D02*
D03*
X52472Y209985D02*
D03*
X65425Y149600D02*
D03*
X211309Y188500D02*
D03*
X210681Y180881D02*
D03*
X201600Y62257D02*
D03*
X157837Y105655D02*
D03*
X147787Y102261D02*
D03*
X156381Y29288D02*
D03*
X161200D02*
D03*
X168000D02*
D03*
X204915Y46805D02*
D03*
X202000Y54400D02*
D03*
X158560Y61600D02*
D03*
X175228Y56711D02*
D03*
X175176Y53660D02*
D03*
X175192Y50398D02*
D03*
X169164Y64522D02*
D03*
X163813Y69587D02*
D03*
X172015Y100904D02*
D03*
X188500Y91500D02*
D03*
X192816Y95619D02*
D03*
X178402Y98684D02*
D03*
X171084Y95872D02*
D03*
X153875Y132616D02*
D03*
X157400Y174400D02*
D03*
X179248Y153403D02*
D03*
X176197Y150450D02*
D03*
X179248D02*
D03*
X182300D02*
D03*
X176197Y146317D02*
D03*
X179248D02*
D03*
X182300D02*
D03*
X179248Y143364D02*
D03*
X185353Y122031D02*
D03*
X52495Y213300D02*
D03*
X66583Y229211D02*
D03*
X65136Y219748D02*
D03*
X65009Y222540D02*
D03*
X220350Y207600D02*
D03*
X206600Y198200D02*
D03*
X143274Y221183D02*
D03*
X126650Y212588D02*
D03*
X123200Y217242D02*
D03*
X17100Y184300D02*
D03*
X22950Y179628D02*
D03*
X25848D02*
D03*
X41517Y182514D02*
D03*
Y178971D02*
D03*
Y175428D02*
D03*
X45454D02*
D03*
Y178971D02*
D03*
Y182514D02*
D03*
X33614Y185395D02*
D03*
X31633Y177230D02*
D03*
X31600Y38281D02*
D03*
X30300Y18181D02*
D03*
X48108Y93947D02*
D03*
X47243Y55072D02*
D03*
X31200Y32081D02*
D03*
X48108Y102538D02*
D03*
X55800Y49000D02*
D03*
X108700Y7900D02*
D03*
X130644Y46084D02*
D03*
X69700Y48000D02*
D03*
X123200Y184100D02*
D03*
X101300Y184300D02*
D03*
X152575Y100203D02*
D03*
X135900Y66266D02*
D03*
X146059Y49290D02*
D03*
X56840Y93947D02*
D03*
X96360Y101727D02*
D03*
X84034Y52561D02*
D03*
X62128Y63700D02*
D03*
X107600Y101727D02*
D03*
X96360Y90215D02*
D03*
X107600D02*
D03*
X62128Y52364D02*
D03*
X50700Y159500D02*
D03*
X79309Y152742D02*
D03*
X89806Y140782D02*
D03*
Y157439D02*
D03*
X56840Y102538D02*
D03*
X25352Y168990D02*
D03*
X96753Y151043D02*
D03*
X69800Y140227D02*
D03*
X103800Y141865D02*
D03*
X110164Y147498D02*
D03*
X31754Y143511D02*
D03*
X61490Y48675D02*
D03*
X77341Y167810D02*
D03*
X66382Y178982D02*
D03*
X66400Y182400D02*
D03*
D138*
X76013Y207506D02*
D03*
D139*
X179248Y148383D02*
D03*
D140*
X118900Y227483D02*
D03*
X224279Y40811D02*
D03*
X24700Y8000D02*
D03*
D141*
X181809Y55431D02*
D03*
X183778D02*
D03*
X185746D02*
D03*
D142*
X227844Y128817D02*
Y139730D01*
X224928Y125901D02*
X227844Y128817D01*
X224928Y125901D02*
Y125901D01*
X226102Y127074D02*
X230126D01*
X232659Y129607D01*
Y131035D01*
X232429Y120008D02*
Y123521D01*
X227557Y140017D02*
X227844Y139730D01*
D143*
X226126Y138586D02*
X227557Y140017D01*
X118541Y45284D02*
X119005Y45748D01*
X121961Y48786D02*
X124531D01*
X116630Y43373D02*
X118541Y45284D01*
X116630Y37312D02*
Y43373D01*
X100636Y203994D02*
X102798D01*
X103475Y204671D02*
X103800D01*
X100599Y203957D02*
X100636Y203994D01*
X102798D02*
X103475Y204671D01*
X115169Y36727D02*
X116044D01*
X114700Y36258D02*
X115169Y36727D01*
X119748Y35560D02*
X121979D01*
X114700Y33974D02*
Y36258D01*
X117270Y35169D02*
X119357D01*
X117157Y35056D02*
X117270Y35169D01*
X116044Y36727D02*
X116630Y37312D01*
X119357Y35169D02*
X119748Y35560D01*
X76998Y213731D02*
X77021D01*
X75029Y213018D02*
X76998D01*
X75029Y217084D02*
X76498Y218552D01*
X75029Y213018D02*
Y217084D01*
X77474Y214498D02*
X79229Y216253D01*
X90023Y213018D02*
X90492Y213487D01*
X77474Y214183D02*
Y214498D01*
X77021Y213731D02*
X77474Y214183D01*
X78966Y213018D02*
X90023D01*
X76998D02*
Y213731D01*
X79229Y216253D02*
X87240D01*
X54586Y229000D02*
X60100D01*
X47305D02*
X54586D01*
X138414Y89960D02*
Y90946D01*
X140500Y93032D01*
X142884D01*
X142983Y93131D01*
Y93229D01*
X138414Y89960D02*
X139394D01*
X148598D01*
X137126D02*
X138414D01*
X87629Y203517D02*
X99015D01*
X84625Y206522D02*
X87629Y203517D01*
X107802Y204447D02*
X110164D01*
X110387Y204671D01*
X115800Y211916D02*
Y219512D01*
X11031Y217358D02*
X11326Y217652D01*
X84097Y208490D02*
X84129Y208459D01*
X85920D02*
X88090Y206289D01*
X81525Y208490D02*
X84097D01*
X81525Y210459D02*
X85411D01*
X84129Y208459D02*
X85920D01*
X90492Y213487D02*
Y219524D01*
X96633Y212588D02*
X110037D01*
X110164Y212715D01*
X88090Y206289D02*
X96633D01*
X129864Y84236D02*
X130701Y83399D01*
X138202D01*
X127502Y84236D02*
X129864D01*
X130874Y78502D02*
X143100D01*
X129864Y79512D02*
X130874Y78502D01*
X127502Y79512D02*
X129864D01*
X152401Y79106D02*
Y86157D01*
X152401Y86157D02*
X152401Y86157D01*
X148598Y89960D02*
X152401Y86157D01*
X133309Y89960D02*
X137126D01*
X132309Y88961D02*
X133309Y89960D01*
X147321Y73830D02*
X147771Y74279D01*
X149692D01*
X149921Y74509D01*
X158341Y64763D02*
X159004Y65426D01*
X144769Y73830D02*
X147321D01*
X158016Y64763D02*
X158341D01*
X156953Y63700D02*
X158016Y64763D01*
X154240Y68831D02*
X158309Y64763D01*
X175517Y75128D02*
X179370D01*
X174928Y75717D02*
X175517Y75128D01*
X153259Y73468D02*
X158701Y78909D01*
X153029Y72849D02*
X153259Y73079D01*
X158701Y78909D02*
Y79106D01*
X153259Y73079D02*
Y73468D01*
X151517Y69652D02*
Y71250D01*
X150697Y68831D02*
X151517Y69652D01*
X153029Y72762D02*
Y72849D01*
X151517Y71250D02*
X153029Y72762D01*
X135340Y128600D02*
X135340Y128600D01*
Y124545D02*
Y128600D01*
X82817Y218685D02*
X84779Y220648D01*
X90492Y219524D02*
X91864Y220895D01*
X92061D01*
X193357Y136854D02*
X194608Y135603D01*
Y135490D02*
Y135603D01*
X193357Y136854D02*
Y138281D01*
X40157Y55118D02*
Y61200D01*
X119818Y50452D02*
X121230Y49041D01*
X119818Y50452D02*
Y53621D01*
X121230Y48988D02*
Y49041D01*
X102931Y61657D02*
Y72047D01*
X93813Y59009D02*
X98207D01*
Y51378D02*
Y55072D01*
X69860Y218468D02*
X70057D01*
X71429Y216900D02*
Y217097D01*
X72616Y214152D02*
Y215713D01*
X73061Y213018D02*
Y213707D01*
X72616Y214152D02*
X73061Y213707D01*
X70057Y218468D02*
X71429Y217097D01*
Y216900D02*
X72616Y215713D01*
X37783Y173510D02*
Y174450D01*
X31997Y170256D02*
X34528D01*
X37783Y173510D01*
X36380Y150250D02*
Y166589D01*
Y149226D02*
Y150250D01*
Y149226D02*
X43958Y141647D01*
X142987Y72047D02*
X144769Y73830D01*
X23288Y223064D02*
X23777Y222575D01*
X82116Y206522D02*
X84625D01*
X66885Y202950D02*
X68488Y204554D01*
X57856Y202950D02*
X66885D01*
X68488Y204554D02*
X70502D01*
X73061Y200157D02*
Y201994D01*
X72399Y199495D02*
X73061Y200157D01*
X72399Y195750D02*
Y199495D01*
X82354Y201994D02*
X83887Y200461D01*
X78966Y201994D02*
X82354D01*
X81525Y201937D02*
Y204554D01*
X69417Y208398D02*
X70410D01*
X69365Y208347D02*
X69417Y208398D01*
X70410D02*
X70502Y208490D01*
X64668Y208347D02*
X69365D01*
X64748Y206522D02*
X70502D01*
X66685Y210656D02*
X70305D01*
X70502Y210459D01*
X72056Y194069D02*
X72524Y194537D01*
X67000Y195750D02*
X72524D01*
X71632Y194069D02*
X72056D01*
X72524Y194537D02*
Y195750D01*
X75029Y201994D02*
X76998D01*
Y196614D02*
Y201994D01*
X60356Y165297D02*
X61728Y166668D01*
X62190D02*
X62197Y166675D01*
X63418D02*
X63887Y167143D01*
X61728Y166668D02*
X62190D01*
X63887Y167143D02*
Y169704D01*
X62197Y166675D02*
X63418D01*
X60800Y171392D02*
X62019Y170173D01*
X63418D02*
X63887Y169704D01*
X62019Y170173D02*
X63418D01*
X60356Y165100D02*
Y165297D01*
X213019Y203300D02*
X213051Y203332D01*
X217444D01*
X181400Y227144D02*
Y229309D01*
X191302Y217242D02*
X199673D01*
X194992Y228295D02*
X199356D01*
X194628Y227931D02*
X194992Y228295D01*
X181400Y227144D02*
X191302Y217242D01*
X186655Y167317D02*
Y171786D01*
X182201Y162863D02*
X186655Y167317D01*
X182201Y156848D02*
Y162863D01*
X190144Y164199D02*
X190172Y164227D01*
Y169010D02*
X190200Y169038D01*
Y170655D01*
X196138D01*
X207600Y155883D02*
X207750Y156034D01*
X210562D02*
X210713Y156184D01*
X207750Y156034D02*
X210562D01*
X194608Y135490D02*
X204081D01*
X192771Y92933D02*
X192805Y92968D01*
X192771Y90189D02*
Y92933D01*
X192805Y95608D02*
X192816Y95619D01*
X192805Y92968D02*
Y95608D01*
X192747Y90166D02*
X192771Y90189D01*
X192747Y85727D02*
Y90166D01*
X191617Y92692D02*
X192727D01*
X188516Y91516D02*
X188730Y91730D01*
X190654D02*
X191617Y92692D01*
X188730Y91730D02*
X190654D01*
X188500Y91532D02*
X188516Y91516D01*
X192747Y85727D02*
X192816Y85657D01*
X130634Y33388D02*
X130687Y33441D01*
X134348D02*
X134401Y33494D01*
X130687Y33441D02*
X134348D01*
X114700Y33974D02*
X115618Y33056D01*
X118423Y33388D02*
X122366D01*
X121979Y35560D02*
X122366Y35947D01*
X115618Y33056D02*
X118091D01*
X118423Y33388D01*
X136799Y42061D02*
X136834Y42026D01*
X136764Y46343D02*
X136799Y46308D01*
Y42061D02*
Y46308D01*
X139403Y45259D02*
Y46784D01*
Y45259D02*
X141531Y43132D01*
X153875Y63700D02*
X156953D01*
X127502Y88961D02*
X132309D01*
X136414Y93685D02*
X144761Y102032D01*
X147558D01*
X127502Y93685D02*
X136414D01*
X143274Y104957D02*
X151384D01*
X138922Y104444D02*
X139246D01*
X136968Y104955D02*
X138410D01*
X136968D02*
Y105014D01*
X138410Y104955D02*
X138922Y104444D01*
X136171Y105811D02*
X136968Y105014D01*
X147558Y102032D02*
X147787Y102261D01*
X136727Y98409D02*
X143274Y104957D01*
X8776Y195950D02*
X9564D01*
X7208Y197518D02*
X8776Y195950D01*
X6400Y200136D02*
Y200461D01*
X14494Y200198D02*
X15151D01*
X18096Y204457D02*
X20000D01*
X18096Y203144D02*
Y204457D01*
X12400Y204500D02*
X18096D01*
X62470Y213247D02*
X62795D01*
X64156Y214608D02*
X64343D01*
X62795Y213247D02*
X64156Y214608D01*
X64343D02*
X65136Y215401D01*
X60100Y229000D02*
Y229015D01*
X47325Y203291D02*
X52242Y208208D01*
X47325Y202700D02*
Y203291D01*
X52242Y209756D02*
X52472Y209985D01*
X52242Y208208D02*
Y209756D01*
X4332Y212421D02*
X5703Y211050D01*
X5900D01*
X40612Y229000D02*
X47305D01*
X40612Y227869D02*
Y229000D01*
X27817Y229000D02*
X40612D01*
X26866Y229950D02*
X27817Y229000D01*
X29675Y212877D02*
Y213202D01*
X33612Y185392D02*
Y189650D01*
Y185392D02*
X33614Y185395D01*
X33612Y189257D02*
Y189650D01*
X135340Y124545D02*
X135375Y124580D01*
X163122Y132566D02*
X165472D01*
X169898Y133305D02*
Y133502D01*
X138997Y134892D02*
X139200Y135095D01*
X204081Y151336D02*
X205101Y152357D01*
X207583D01*
X207600Y152340D01*
X213967D01*
X214007Y152300D01*
X187722Y156598D02*
X189558D01*
X190144Y157183D01*
Y159869D01*
X190200Y170655D02*
Y174400D01*
X195400Y160510D02*
Y164799D01*
X195745Y165143D01*
X203575Y155356D02*
Y164199D01*
X176296Y156848D02*
Y163894D01*
X24600Y32081D02*
X31200D01*
X28000Y38281D02*
X31600D01*
X24800Y41481D02*
X28000Y38281D01*
X129551Y35947D02*
X130634D01*
X128779Y36719D02*
X129551Y35947D01*
X128350Y36719D02*
X128779D01*
X127764Y37305D02*
X128350Y36719D01*
X130634Y38506D02*
X136464D01*
X136834Y38876D01*
X137152Y39195D01*
X141727D01*
X127764Y37305D02*
Y43204D01*
X166381Y30907D02*
X168000Y29288D01*
X166381Y30907D02*
Y33494D01*
X156381Y29288D02*
Y36054D01*
X161200Y29288D02*
Y36235D01*
X166200Y33676D02*
X166381Y33494D01*
X166200Y33676D02*
Y36235D01*
X156200D02*
X156381Y36054D01*
X193440Y37735D02*
X193444Y37732D01*
X177745Y40849D02*
X177781Y40885D01*
X193440Y37735D02*
Y41760D01*
X196987Y37732D02*
X196996Y37740D01*
Y41760D01*
X177781Y40885D02*
Y44232D01*
X141531Y43132D02*
X141727D01*
X182112Y44232D02*
X182891Y45011D01*
X127764Y43204D02*
X130644Y46084D01*
X182891Y45011D02*
Y45898D01*
X177781Y44232D02*
Y47072D01*
X182891Y45898D02*
X183778Y46784D01*
Y51101D01*
X141959Y53390D02*
X146059Y49290D01*
X192068Y43132D02*
X193440Y41760D01*
X196509Y49143D02*
Y49340D01*
X185746Y51101D02*
X190221D01*
X192068Y43132D02*
X192178Y43241D01*
X190221Y51101D02*
X192178Y49143D01*
Y43241D02*
Y49143D01*
X69700Y48000D02*
Y52710D01*
X78700Y52561D02*
X84034D01*
X55800Y49000D02*
Y55501D01*
X62128Y52364D02*
Y56454D01*
X62100Y56481D02*
X62128Y56454D01*
X142983Y93229D02*
X145627Y95872D01*
Y96446D01*
X147384Y98203D01*
X150554Y94501D02*
Y94698D01*
X135356Y112583D02*
X135400Y112626D01*
X144737D01*
X145830Y113718D01*
X84034Y124803D02*
X85411Y126181D01*
X88758Y124803D02*
X89296Y125341D01*
X93482Y124803D02*
X93495Y124816D01*
X147384Y98203D02*
X154635D01*
X151384Y104957D02*
X152575Y103766D01*
Y100203D02*
Y103766D01*
X197891Y43155D02*
X199436Y44700D01*
X202810D02*
X204915Y46805D01*
X196996Y41760D02*
X198368Y43132D01*
X199436Y44700D02*
X202810D01*
X84336Y228301D02*
X90954D01*
X92061Y227194D01*
X69897Y59009D02*
X73797Y62909D01*
X169164Y121592D02*
X174164D01*
X171970Y106720D02*
Y114289D01*
X174164Y116482D01*
Y116593D01*
X178979Y107284D02*
Y116407D01*
X179164Y116593D01*
X102400Y133600D02*
X102931Y134132D01*
X94613D02*
X102152D01*
Y133848D02*
Y134132D01*
Y133848D02*
X102400Y133600D01*
X31754Y143511D02*
X33346Y141919D01*
X35996D01*
X36268Y135348D02*
X36366Y135250D01*
X36268Y135348D02*
X36789D01*
X41803Y130335D01*
X43958Y135348D02*
X44155D01*
X41803Y130335D02*
X47085D01*
X62375Y137884D02*
X63900Y136359D01*
X52000Y141550D02*
Y141763D01*
X63900Y134272D02*
Y135316D01*
X62375Y137884D02*
Y143855D01*
X85411Y138498D02*
X87696Y140782D01*
X85411Y126181D02*
Y138498D01*
X89806Y140682D02*
Y140782D01*
X85800Y168100D02*
X86074Y167826D01*
X79309Y143511D02*
Y152742D01*
X77341Y167810D02*
X85800D01*
X88900Y137100D02*
X89097D01*
X88900Y133163D02*
X89296Y132767D01*
Y125341D02*
Y132767D01*
X98207Y129591D02*
X100170Y131555D01*
X88900Y133163D02*
X92837Y137100D01*
X93495Y124816D02*
Y133014D01*
X94613Y134132D01*
X92837Y137100D02*
X95561D01*
X96360Y137899D01*
X98207Y124803D02*
Y129591D01*
X90911Y138914D02*
Y139577D01*
X89097Y137100D02*
X90911Y138914D01*
X54057Y177691D02*
X54057Y177691D01*
X60800D01*
X62769D01*
X64059Y178982D01*
X66382D01*
X71632Y181628D02*
Y194069D01*
X83252Y187810D02*
X98016D01*
X53100Y185695D02*
Y190438D01*
X52407Y182400D02*
X66400D01*
X69800Y140227D02*
X69897Y140131D01*
X66400Y147482D02*
X74127Y139756D01*
X62375Y128548D02*
Y132747D01*
X63900Y134272D01*
X69897Y124840D02*
Y135316D01*
Y140131D01*
X62375Y128548D02*
X65136Y125787D01*
X74127Y125261D02*
X74585Y124803D01*
X74127Y125261D02*
Y139756D01*
X44155Y135348D02*
X47748Y131755D01*
X47085Y130335D02*
X48505Y131755D01*
X47748D02*
X48505D01*
X47085Y130335D02*
X50257Y127162D01*
X48505Y131755D02*
X52000Y135250D01*
X50257Y127162D02*
Y127162D01*
Y127162D02*
X50963Y126457D01*
Y124803D02*
Y126457D01*
X79309Y124803D02*
X79309Y124803D01*
X79998Y136031D02*
X82300Y133729D01*
X80143Y129200D02*
X81128D01*
X82300Y130371D01*
X79309Y124803D02*
Y128365D01*
Y136031D02*
X79998D01*
X82300Y130371D02*
Y133729D01*
X79309Y128365D02*
X80143Y129200D01*
X96360Y145380D02*
X96753Y145773D01*
Y151043D01*
X87696Y152580D02*
X88139D01*
X87696Y140782D02*
Y145559D01*
X89806Y154247D02*
Y157439D01*
X88139Y152580D02*
X89806Y154247D01*
Y140682D02*
X90911Y139577D01*
X76498Y225639D02*
X76673Y225814D01*
X206600Y198200D02*
X206871D01*
X208271Y196800D01*
X214500D01*
X215440Y214800D02*
X220159Y210081D01*
Y207791D02*
Y210081D01*
Y207791D02*
X220350Y207600D01*
X215440Y221100D02*
X231300Y205240D01*
Y201500D02*
Y205240D01*
X211117Y188691D02*
X211309Y188500D01*
X209521Y188691D02*
X211117D01*
X207769Y190443D02*
X209521Y188691D01*
X207720Y190395D02*
X207855Y190530D01*
X207682D02*
X207769Y190443D01*
X200770Y190530D02*
X206600D01*
X207682D01*
X210681Y180881D02*
X231300Y201500D01*
X206600Y198200D02*
Y203180D01*
X168700Y222600D02*
X200770Y190530D01*
X196582Y203300D02*
X206720D01*
X206600Y203180D02*
X206720Y203300D01*
X138850Y213300D02*
Y217242D01*
X136800Y218900D02*
X137191D01*
X138850Y217242D01*
X142791Y221183D01*
X130800Y224842D02*
Y224900D01*
X123200Y217242D02*
X130800Y224842D01*
Y224900D02*
X136800Y218900D01*
X142791Y221183D02*
X143274D01*
X158116D01*
X164077Y227144D01*
Y229309D01*
X190514Y214800D02*
X215440D01*
X186904Y227072D02*
X192876Y221100D01*
X178242Y227072D02*
Y228136D01*
X186904Y227072D02*
Y228136D01*
X192876Y221100D02*
X215440D01*
X178242Y227072D02*
X190514Y214800D01*
X172738Y227144D02*
X196582Y203300D01*
X168407Y229309D02*
X168700Y229016D01*
X172738Y227144D02*
Y229309D01*
X177069D02*
X178242Y228136D01*
X185730Y229309D02*
X186904Y228136D01*
X126650Y212588D02*
X131839D01*
X132550Y213300D01*
X132950Y205200D02*
X140500D01*
X140603Y205097D01*
X149372D01*
X168700Y222600D02*
Y229016D01*
X28592Y181628D02*
Y183975D01*
X22950Y179628D02*
Y179951D01*
X24627Y181628D01*
X25848Y179628D02*
X26076Y179857D01*
X24627Y181628D02*
X28592D01*
X20324Y162631D02*
X20533Y162840D01*
Y167536D01*
X21029Y168032D01*
X28592Y162631D02*
X28801Y162840D01*
Y167060D01*
X31997Y170256D01*
X50854Y161700D02*
X54057Y164903D01*
Y171392D01*
X21029Y168032D02*
Y175251D01*
X27817Y170585D02*
X33545Y176313D01*
X31633Y177230D02*
X31863Y177001D01*
X27328Y175251D02*
Y175259D01*
X28700Y176630D02*
X31881D01*
X27328Y175259D02*
X28700Y176630D01*
X31881D02*
X33336Y178085D01*
X31863Y176649D02*
X31881Y176630D01*
X31863Y176649D02*
Y177001D01*
X43485Y178971D02*
X44732Y177724D01*
X37875Y174542D02*
X38170D01*
X37783Y174450D02*
X37875Y174542D01*
X33336Y178085D02*
X38170D01*
X33545Y176313D02*
X38170D01*
X42281Y188279D02*
X42750Y187810D01*
X38170Y183400D02*
X38465D01*
X39335Y184270D01*
Y184306D01*
X39921Y184892D01*
X42116D01*
X42750Y185526D01*
Y187810D01*
X53663Y178085D02*
X54057Y177691D01*
X48800Y167382D02*
Y174542D01*
Y178085D02*
X48935Y177950D01*
X48800Y179857D02*
X49292D01*
X48800Y178085D02*
X53663D01*
X44550Y185361D02*
Y187810D01*
Y185361D02*
X45019Y184892D01*
X44550Y187810D02*
X45019Y188279D01*
Y184892D02*
X47049D01*
X47635Y184306D01*
Y184270D02*
Y184306D01*
Y184270D02*
X48505Y183400D01*
X48800D01*
X49292Y179857D02*
X49472Y180036D01*
X50043D01*
X52407Y182400D01*
X52931Y185526D02*
X53100Y185695D01*
X44732Y149031D02*
Y165369D01*
X47200Y159030D02*
X62375Y143855D01*
X47200Y159030D02*
Y165782D01*
X48800Y167382D01*
X44732Y149031D02*
X52000Y141763D01*
X50700Y159500D02*
X50854Y159654D01*
Y161700D01*
X41942Y177428D02*
X43485Y178971D01*
X26076Y179857D02*
X38170D01*
X28592Y181628D02*
X38170D01*
X11582Y184306D02*
X17094D01*
X17100Y184300D01*
X21968D01*
X21998Y184270D01*
X102400Y133600D02*
X109078D01*
X100170Y131555D02*
X113411D01*
X109078Y133600D02*
X110200Y134722D01*
X113411Y131555D02*
X118082Y136225D01*
X102931Y138068D02*
Y140725D01*
X103800Y141594D01*
Y141865D01*
X110164Y147498D02*
X110200Y147461D01*
Y142202D02*
Y147461D01*
X124300Y146900D02*
X124503Y147103D01*
X124300Y146900D02*
X124624D01*
X124503Y147103D02*
X125100D01*
X124624Y146900D02*
X125100Y147376D01*
Y147103D02*
X139200D01*
X150125D01*
X151297Y145932D01*
Y140227D02*
Y145932D01*
Y140227D02*
X152468Y139056D01*
X172752Y145431D02*
Y147399D01*
X164100Y139056D02*
X165478Y140434D01*
X165345Y143787D02*
X165670Y143462D01*
X165478Y140434D02*
X167987D01*
X169046Y141494D01*
X165670Y143462D02*
X172752D01*
X169046Y141494D02*
X172752D01*
X176197Y133502D02*
X176296Y133600D01*
Y139919D01*
X182201Y136199D02*
Y139919D01*
Y136199D02*
X182300Y136100D01*
X172752Y147399D02*
Y149368D01*
X185745Y145431D02*
X193040D01*
X217945Y147498D02*
Y152300D01*
X160197Y153403D02*
X164947D01*
X164979D01*
X165061Y153321D01*
Y149582D02*
Y153321D01*
Y149582D02*
X165345Y149299D01*
X165413Y149368D01*
X168491Y153403D02*
X168589Y153305D01*
X165413Y149368D02*
X172752D01*
Y151336D01*
Y155273D02*
X173406D01*
X174492Y156359D01*
X175807D01*
X176296Y156848D01*
X101300Y184300D02*
X105750D01*
X118082Y170023D02*
X123200Y175141D01*
Y184100D01*
X125100Y165150D02*
X125850Y165900D01*
X157400Y169000D02*
Y174400D01*
Y169000D02*
X162408Y163993D01*
X166600D01*
X176197D01*
X176296Y163894D01*
X185745Y153305D02*
X186942D01*
X186426Y155301D02*
X187722Y156598D01*
X186942Y153305D02*
X188635Y154998D01*
X185745Y149368D02*
X193006D01*
X188635Y154998D02*
X195400D01*
X193006Y149368D02*
X193040Y149334D01*
X185745Y151336D02*
X204081D01*
X195400Y154998D02*
X199673D01*
X200031Y155356D01*
X217945Y147498D02*
X227557D01*
X185745Y147399D02*
X193040D01*
X193040Y145431D02*
Y147399D01*
X193040Y147399D01*
Y149334D01*
Y147399D02*
X195009D01*
X195107Y147498D01*
X217945D02*
X217945Y147498D01*
X118082Y136225D02*
Y170023D01*
X125100Y147376D02*
Y165150D01*
X168589Y153305D02*
X172752D01*
X65136Y124803D02*
Y125787D01*
X69860Y124803D02*
X69897Y124840D01*
X127502Y112583D02*
X135356D01*
X127502Y98409D02*
X136727D01*
X79309Y67829D02*
Y72047D01*
X73797Y62909D02*
X74389D01*
X69700Y71887D02*
X69860Y72047D01*
X69114Y63700D02*
X69700Y64286D01*
Y71887D01*
X62128Y63700D02*
X69114D01*
X74389Y62909D02*
X79309Y67829D01*
X79543Y191519D02*
X83252Y187810D01*
X76998Y196614D02*
X79543Y194069D01*
Y191519D02*
Y194069D01*
X76673Y225814D02*
Y230956D01*
X76998D01*
X44591Y197790D02*
Y200313D01*
Y197790D02*
X45060Y197321D01*
X45019Y188279D02*
X45528D01*
X45060Y197321D02*
X45528D01*
Y188279D02*
X46900Y189650D01*
X45528Y197321D02*
X46900Y195950D01*
X53100D01*
X98016Y187810D02*
X100900Y190694D01*
X105750Y184300D02*
X125682Y204232D01*
X100900Y190694D02*
Y198000D01*
X126650Y205003D02*
Y212588D01*
X125682Y204232D02*
X125879D01*
X126650Y205003D01*
X166200Y61558D02*
X169164Y64522D01*
X194743Y62218D02*
Y67537D01*
X194646Y61939D02*
X194648Y61937D01*
X194646Y61939D02*
Y62121D01*
X194743Y62218D01*
X186927Y62378D02*
X188299Y61006D01*
X176652Y62378D02*
X180628D01*
X183468Y67709D02*
X183778Y67398D01*
X181809Y55431D02*
Y61197D01*
X180628Y62378D02*
X181809Y61197D01*
X183468Y67709D02*
Y69677D01*
X183778Y55431D02*
Y67398D01*
X175228Y56711D02*
Y60954D01*
X176652Y62378D01*
X185746Y55431D02*
Y61197D01*
X186927Y62378D01*
X194332Y54931D02*
X194646Y55246D01*
X156200Y55565D02*
Y58124D01*
X158560Y60484D01*
Y61600D01*
X161200Y55565D02*
Y66973D01*
X163813Y69587D01*
X166200Y55565D02*
Y61558D01*
X164043Y69357D02*
X167338D01*
X163813Y69587D02*
X164043Y69357D01*
X167338D02*
X167987Y68709D01*
X182915Y91532D02*
X188500D01*
X182915Y91531D02*
X182915Y91532D01*
X192720Y69677D02*
X192816Y69774D01*
X193983Y68297D02*
X194743Y67537D01*
X192720Y69677D02*
X193015D01*
X193983Y68709D01*
Y68297D02*
Y68709D01*
X206228Y61937D02*
X207400Y60765D01*
X194648Y61937D02*
X206228D01*
X192816Y69774D02*
Y78177D01*
X178402Y98684D02*
X178597Y98879D01*
Y106903D01*
X178979Y107284D01*
X154635Y98203D02*
X157550Y101118D01*
Y105043D01*
X157837Y105330D01*
Y105655D01*
X78700Y58860D02*
Y63673D01*
X47243Y55072D02*
Y61200D01*
X49507D01*
X52066Y63759D01*
Y64069D01*
X54625Y66628D01*
X56271D01*
X58665Y69022D01*
Y70301D01*
X60411Y72047D01*
X55800Y61800D02*
X65136Y71136D01*
Y72047D01*
X82656Y70669D02*
X84034Y72047D01*
X78700Y63673D02*
X82656Y67628D01*
Y70669D01*
X98207Y59009D02*
Y72047D01*
X102931Y53390D02*
X111940D01*
X112950Y54400D01*
X135400Y60484D02*
Y65766D01*
X135900Y66266D01*
X137424Y53390D02*
X141959D01*
X150697Y63728D02*
X150725Y63700D01*
X151200Y63225D01*
Y55565D02*
Y63225D01*
X127502Y74787D02*
X133160D01*
X135900Y72047D01*
Y66266D02*
Y72047D01*
X150697Y63728D02*
Y68831D01*
X69700Y59009D02*
X69897D01*
X5900Y204750D02*
X6150Y204500D01*
X12400D01*
X27328Y200829D02*
X28100Y201601D01*
X19800Y195950D02*
X20587D01*
X28100Y189650D02*
X28188Y189739D01*
Y195000D01*
X33700D02*
X39450D01*
X40400Y195950D01*
Y196150D02*
X41772Y197521D01*
X40400Y189650D02*
X41772Y188279D01*
X42281D01*
X41772Y197521D02*
X42323D01*
X42791Y197990D01*
X42488Y199425D02*
X42791Y199121D01*
Y197990D02*
Y199121D01*
X28100Y201601D02*
X28297D01*
X39203Y201862D02*
X39400D01*
X39451Y201913D01*
Y204228D01*
X39648Y209393D02*
X42488Y206553D01*
Y199425D02*
Y206553D01*
X44288Y200617D02*
Y206553D01*
Y200617D02*
X44591Y200313D01*
X38840Y213760D02*
Y218468D01*
X39451Y209393D02*
X39648D01*
X42171Y211916D01*
X41787Y214884D02*
Y218081D01*
Y214884D02*
X42171Y214500D01*
Y211916D02*
Y214500D01*
X43971Y212550D02*
Y217283D01*
X44288Y217600D01*
X43971Y212550D02*
X47128Y209393D01*
X47325D01*
X44288Y206553D02*
X47128Y209393D01*
X41399Y218468D02*
X41787Y218081D01*
D144*
X174928Y75717D02*
Y92055D01*
X166463Y75717D02*
Y91435D01*
Y92055D01*
X174164Y121592D02*
X174265Y121694D01*
X178851Y120587D02*
Y121280D01*
X179164Y121592D01*
X174265Y127650D02*
X174366Y127751D01*
D145*
X69978Y218468D02*
X71299Y217147D01*
X69860Y218468D02*
X69978D01*
D146*
X58443Y185526D02*
X58921Y186004D01*
X61736Y189462D02*
X61791Y189516D01*
X66934D02*
X67000Y189450D01*
X61791Y189516D02*
X66934D01*
X58921Y186397D02*
X61698Y189175D01*
X58921Y186004D02*
Y186397D01*
X61698Y189516D02*
X61736Y189555D01*
X61698Y189175D02*
Y189516D01*
D147*
X124300Y134892D02*
X138997D01*
X159164Y121592D02*
Y128100D01*
X174265Y121694D02*
Y127650D01*
D148*
X226969Y9252D02*
D03*
Y226969D02*
D03*
X9252D02*
D03*
Y9252D02*
D03*
D149*
X169400Y17400D02*
D03*
X159400D02*
D03*
X46600Y8181D02*
D03*
Y18181D02*
D03*
Y28181D02*
D03*
X71000D02*
D03*
Y18181D02*
D03*
Y8181D02*
D03*
X95652Y28181D02*
D03*
Y18181D02*
D03*
Y8181D02*
D03*
X85300Y178982D02*
D03*
Y188982D02*
D03*
D150*
X149400Y17400D02*
D03*
D151*
X179164Y121592D02*
D03*
D152*
X174164D02*
D03*
X179164Y116593D02*
D03*
X174164D02*
D03*
X164164D02*
D03*
X169164D02*
D03*
X164164Y121592D02*
D03*
X169164D02*
D03*
X159164D02*
D03*
Y116593D02*
D03*
D153*
X46600Y38181D02*
D03*
X71000D02*
D03*
X95652D02*
D03*
X85300Y168982D02*
D03*
D154*
X174366Y127751D02*
D03*
X159164Y128100D02*
D03*
M02*
