G04*
G04 #@! TF.GenerationSoftware,Altium Limited,Altium Designer,21.1.1 (26)*
G04*
G04 Layer_Physical_Order=2*
G04 Layer_Color=32768*
%FSLAX25Y25*%
%MOIN*%
G70*
G04*
G04 #@! TF.SameCoordinates,FCD48BD9-1D8E-434E-9894-015CF6D0DE38*
G04*
G04*
G04 #@! TF.FilePolarity,Negative*
G04*
G01*
G75*
G36*
X236613Y238192D02*
X236990Y238077D01*
X237337Y237892D01*
X237642Y237642D01*
X237892Y237337D01*
X238077Y236990D01*
X238192Y236613D01*
X238230Y236221D01*
X238230Y-0D01*
X238192Y-392D01*
X238077Y-769D01*
X237892Y-1117D01*
X237642Y-1421D01*
X237337Y-1671D01*
X236990Y-1857D01*
X236613Y-1971D01*
X236221Y-2010D01*
X0Y-2010D01*
X-392Y-1971D01*
X-769Y-1857D01*
X-1116Y-1671D01*
X-1421Y-1421D01*
X-1671Y-1117D01*
X-1857Y-769D01*
X-1971Y-392D01*
X-2010Y-0D01*
Y55118D01*
X-1971Y55510D01*
X-1857Y55887D01*
X-1671Y56235D01*
X-1421Y56539D01*
X-1116Y56789D01*
X-769Y56975D01*
X-392Y57089D01*
X0Y57128D01*
X23581D01*
X23581Y139723D01*
X0D01*
X-392Y139761D01*
X-769Y139875D01*
X-1116Y140061D01*
X-1421Y140311D01*
X-1671Y140616D01*
X-1857Y140963D01*
X-1971Y141340D01*
X-2010Y141732D01*
X-2010Y236220D01*
X-2010Y236221D01*
X-2010Y236221D01*
X-1991Y236411D01*
X-1971Y236613D01*
X-1971Y236613D01*
X-1971Y236613D01*
X-1914Y236802D01*
X-1857Y236989D01*
X-1857Y236990D01*
X-1857Y236990D01*
X-1756Y237177D01*
X-1671Y237337D01*
X-1671Y237337D01*
X-1671Y237337D01*
X-1539Y237498D01*
X-1421Y237642D01*
X-1421Y237642D01*
X-1421Y237642D01*
X-1277Y237760D01*
X-1116Y237891D01*
X-1116Y237892D01*
X-1116Y237892D01*
X-956Y237977D01*
X-769Y238077D01*
X-769Y238077D01*
X-769Y238077D01*
X-581Y238134D01*
X-392Y238192D01*
X-392Y238192D01*
X-392Y238192D01*
X-190Y238211D01*
X0Y238230D01*
X0Y238230D01*
X0Y238230D01*
X22800Y238226D01*
X22951Y238211D01*
X23104Y238203D01*
X23147Y238192D01*
X23192Y238188D01*
X23338Y238143D01*
X23486Y238105D01*
X23526Y238086D01*
X23569Y238073D01*
X23703Y238001D01*
X23841Y237935D01*
X23877Y237908D01*
X23916Y237887D01*
X24034Y237790D01*
X24156Y237699D01*
X24633Y237262D01*
X25007Y237044D01*
X25418Y236909D01*
X25956Y236852D01*
X65115D01*
X65654Y236909D01*
X66063Y237043D01*
X66435Y237262D01*
X66911Y237699D01*
X67035Y237793D01*
X67155Y237891D01*
X67192Y237911D01*
X67226Y237936D01*
X67365Y238004D01*
X67503Y238077D01*
X67543Y238089D01*
X67580Y238107D01*
X67731Y238146D01*
X67880Y238192D01*
X67921Y238196D01*
X67962Y238206D01*
X68117Y238215D01*
X68272Y238230D01*
X152067Y238226D01*
X152219Y238211D01*
X152372Y238203D01*
X152415Y238192D01*
X152459Y238188D01*
X152605Y238143D01*
X152753Y238105D01*
X152794Y238086D01*
X152836Y238073D01*
X152971Y238001D01*
X153109Y237935D01*
X153144Y237908D01*
X153183Y237887D01*
X153302Y237790D01*
X153424Y237699D01*
X153901Y237262D01*
X154274Y237044D01*
X154685Y236909D01*
X155224Y236852D01*
X194383D01*
X194921Y236909D01*
X195331Y237043D01*
X195703Y237262D01*
X196179Y237699D01*
X196303Y237793D01*
X196423Y237891D01*
X196460Y237911D01*
X196493Y237936D01*
X196633Y238004D01*
X196770Y238077D01*
X196810Y238089D01*
X196848Y238107D01*
X196999Y238146D01*
X197147Y238192D01*
X197189Y238196D01*
X197230Y238206D01*
X197385Y238215D01*
X197539Y238230D01*
X236221Y238230D01*
X236613Y238192D01*
D02*
G37*
%LPC*%
G36*
X234211Y234211D02*
X233472Y234211D01*
X234211Y234211D01*
D01*
D02*
G37*
G36*
X94554Y234209D02*
X109333Y234209D01*
D01*
X94554Y234209D01*
D02*
G37*
G36*
X204294Y234211D02*
X198323Y234211D01*
X198266Y234158D01*
X198323Y234211D01*
X204294Y234211D01*
D02*
G37*
G36*
X198241Y234136D02*
X198096Y234030D01*
X197952Y233921D01*
X198096Y234030D01*
X198241Y234136D01*
D02*
G37*
G36*
X234211Y234211D02*
X230447Y234211D01*
X208394Y234211D01*
X198703Y234211D01*
X198241Y234136D01*
X197952Y233921D01*
X197952Y233921D01*
X197936Y233914D01*
X197923Y233904D01*
X197180Y233468D01*
X197165Y233461D01*
X197151Y233451D01*
X197151Y233451D01*
X196822Y233303D01*
X196791Y233292D01*
X196791Y233292D01*
X196791Y233292D01*
X196699Y233262D01*
X196017Y233038D01*
X196791Y233292D01*
X196017Y233038D01*
D01*
D01*
X195972Y233023D01*
X195971Y233023D01*
X195956Y233019D01*
X195940Y233013D01*
X195764Y232977D01*
X195588Y232938D01*
X195575Y232936D01*
X195555Y232934D01*
X195554Y232934D01*
X194698Y232844D01*
X194593Y232843D01*
X194488Y232833D01*
X155118D01*
X155013Y232843D01*
X154908Y232844D01*
X154482Y232889D01*
X154052Y232934D01*
Y232934D01*
X154020Y232938D01*
X153666Y233013D01*
X153636Y233023D01*
X153227Y233157D01*
X152818Y233291D01*
X152804Y233296D01*
X152788Y233301D01*
X152457Y233450D01*
X152445Y233459D01*
X152430Y233466D01*
X152348Y233514D01*
X151687Y233901D01*
X151687D01*
X151674Y233910D01*
X151660Y233917D01*
X151515Y234026D01*
X151368Y234132D01*
X151357Y234143D01*
X151345Y234153D01*
X151286Y234207D01*
X109333Y234209D01*
X69436Y234211D01*
X68974Y234136D01*
X68684Y233921D01*
X68684Y233921D01*
X68669Y233914D01*
X68655Y233904D01*
X67912Y233468D01*
X67897Y233461D01*
X67895Y233459D01*
X67897Y233461D01*
X67912Y233468D01*
X67897Y233461D01*
X67883Y233451D01*
X67718Y233379D01*
X67555Y233303D01*
X67523Y233292D01*
X67523Y233292D01*
X67101Y233154D01*
X66705Y233023D01*
X66692Y233019D01*
X66673Y233013D01*
X66320Y232938D01*
X66287Y232934D01*
X66287Y232934D01*
X65430Y232844D01*
X65325Y232843D01*
X65220Y232833D01*
X25850D01*
X25745Y232843D01*
X25640Y232844D01*
X25214Y232889D01*
X24784Y232934D01*
Y232934D01*
X24753Y232938D01*
X24398Y233013D01*
X24368Y233023D01*
X23550Y233291D01*
X23536Y233298D01*
X23520Y233301D01*
X23356Y233377D01*
X23190Y233450D01*
X23177Y233459D01*
X23162Y233466D01*
X22419Y233901D01*
X22419D01*
X22407Y233910D01*
X22392Y233917D01*
X22247Y234026D01*
X22392Y233917D01*
X22407Y233910D01*
X22419Y233901D01*
X22407Y233910D01*
X22392Y233917D01*
X22247Y234026D01*
X22100Y234132D01*
X22090Y234143D01*
X22077Y234153D01*
X22090Y234143D01*
X22090D01*
X22077Y234153D01*
X22077D01*
X22018Y234207D01*
X2363Y234210D01*
X2010Y233857D01*
X2010Y212008D01*
Y211975D01*
Y207979D01*
Y207600D01*
Y206281D01*
Y205276D01*
D01*
Y205217D01*
Y204503D01*
Y204503D01*
Y204124D01*
Y203982D01*
Y201888D01*
D01*
Y201779D01*
Y200198D01*
D01*
Y200461D01*
Y199519D01*
Y198200D01*
D01*
Y197654D01*
Y192392D01*
D01*
Y192039D01*
Y190747D01*
D01*
Y188972D01*
D01*
X2010Y143742D01*
X24016D01*
X24127Y143731D01*
X24238Y143729D01*
X24589Y143690D01*
X24617Y143684D01*
X24646Y143683D01*
X24810Y143644D01*
X24974Y143609D01*
X25001Y143597D01*
X25029Y143591D01*
X25001Y143597D01*
X24974Y143609D01*
X25001Y143597D01*
X25029Y143591D01*
X25362Y143474D01*
X25388Y143462D01*
X25416Y143455D01*
X25388Y143462D01*
D01*
X25416Y143455D01*
X25566Y143379D01*
X25719Y143309D01*
X25742Y143292D01*
X25768Y143279D01*
X26067Y143091D01*
X26090Y143074D01*
X26115Y143060D01*
X26245Y142953D01*
X26378Y142850D01*
X26245Y142953D01*
D01*
X26378Y142850D01*
X26397Y142829D01*
X26419Y142810D01*
X26669Y142561D01*
X26687Y142539D01*
X26708Y142520D01*
X26812Y142387D01*
X26919Y142256D01*
X26932Y142231D01*
X26950Y142209D01*
X27137Y141910D01*
X27150Y141884D01*
X27167Y141861D01*
X27238Y141708D01*
X27313Y141557D01*
X27321Y141529D01*
X27333Y141503D01*
X27449Y141170D01*
X27456Y141142D01*
X27467Y141116D01*
X27502Y140951D01*
X27542Y140787D01*
X27543Y140759D01*
X27549Y140731D01*
X27588Y140380D01*
X27589Y140269D01*
X27600Y140157D01*
X27600Y56693D01*
X27589Y56582D01*
X27588Y56470D01*
X27549Y56120D01*
X27543Y56091D01*
X27542Y56063D01*
X27502Y55899D01*
X27467Y55734D01*
X27456Y55708D01*
X27449Y55680D01*
X27333Y55347D01*
X27321Y55321D01*
X27313Y55293D01*
X27238Y55142D01*
X27167Y54989D01*
X27150Y54966D01*
X27137Y54941D01*
X27002Y54725D01*
X26950Y54642D01*
X26932Y54619D01*
X26919Y54594D01*
X26919Y54594D01*
X26709Y54330D01*
X26709Y54330D01*
X26687Y54312D01*
X26669Y54289D01*
X26687Y54312D01*
X26709Y54330D01*
X26687Y54312D01*
X26669Y54289D01*
X26419Y54040D01*
X26397Y54022D01*
X26378Y54000D01*
X26245Y53897D01*
X26115Y53790D01*
X26089Y53776D01*
X26067Y53759D01*
X25768Y53571D01*
X25742Y53559D01*
X25719Y53542D01*
X25566Y53471D01*
D01*
X25415Y53396D01*
X25369Y53379D01*
D01*
X25362Y53376D01*
X25029Y53260D01*
X25008Y53253D01*
X24974Y53242D01*
X24646Y53167D01*
X24625Y53164D01*
X24589Y53160D01*
X24238Y53121D01*
X24127Y53119D01*
D01*
X24016Y53108D01*
X2010D01*
Y2010D01*
X217331Y2010D01*
X118110Y2010D01*
X234211Y2010D01*
D01*
Y3642D01*
D01*
Y3951D01*
Y3976D01*
D01*
Y4659D01*
Y5407D01*
D01*
Y6745D01*
Y8014D01*
D01*
Y8181D01*
Y9617D01*
D01*
Y10490D01*
Y11698D01*
D01*
Y11704D01*
Y12112D01*
Y14343D01*
D01*
Y14528D01*
Y15476D01*
D01*
Y15597D01*
Y15635D01*
Y16754D01*
Y17172D01*
Y17267D01*
D01*
Y17635D01*
Y18181D01*
D01*
Y18727D01*
Y19491D01*
D01*
Y19801D01*
Y19896D01*
D01*
Y20264D01*
Y20810D01*
D01*
Y21356D01*
Y21591D01*
D01*
Y21711D01*
Y21819D01*
Y22129D01*
Y24651D01*
Y24771D01*
Y26416D01*
Y27860D01*
Y28181D01*
Y29095D01*
X234211Y30677D01*
Y31072D01*
Y31238D01*
Y32627D01*
Y33400D01*
Y34651D01*
Y35056D01*
Y35602D01*
D01*
Y36375D01*
Y36416D01*
D01*
Y36854D01*
Y38181D01*
Y41238D01*
D01*
Y41591D01*
Y44118D01*
D01*
Y44227D01*
Y46681D01*
D01*
Y46805D01*
Y46865D01*
D01*
Y46973D01*
Y47330D01*
Y47814D01*
D01*
Y47971D01*
Y47991D01*
Y48743D01*
Y48915D01*
Y48970D01*
Y49546D01*
D01*
Y49768D01*
Y49852D01*
D01*
Y49951D01*
Y50009D01*
Y52782D01*
D01*
Y52805D01*
Y53164D01*
Y53167D01*
Y53328D01*
Y53559D01*
Y53571D01*
Y53660D01*
D01*
Y53683D01*
Y54040D01*
Y54094D01*
Y54941D01*
D01*
Y54966D01*
Y55130D01*
D01*
Y55142D01*
Y55284D01*
Y58139D01*
Y59009D01*
Y59556D01*
Y66229D01*
D01*
Y66266D01*
Y67238D01*
Y68159D01*
D01*
Y68268D01*
X234211Y90166D01*
Y91277D01*
Y102223D01*
Y103271D01*
Y118110D01*
Y119038D01*
X234116Y119113D01*
X233445Y119008D01*
X233439Y118999D01*
X232976Y118690D01*
X232429Y118581D01*
X231883Y118690D01*
X231420Y118999D01*
X231111Y119462D01*
X231002Y120008D01*
X231111Y120555D01*
X231420Y121018D01*
X231883Y121327D01*
X232429Y121436D01*
X232976Y121327D01*
X233439Y121018D01*
X233445Y121009D01*
X234116Y120904D01*
X234211Y120978D01*
Y122551D01*
X234116Y122626D01*
X233445Y122521D01*
X233439Y122512D01*
X232976Y122202D01*
X232429Y122094D01*
X231883Y122202D01*
X231420Y122512D01*
X231111Y122975D01*
X231002Y123521D01*
X231111Y124067D01*
X231420Y124530D01*
X231883Y124840D01*
X232429Y124949D01*
X232976Y124840D01*
X233439Y124530D01*
X233445Y124522D01*
X234116Y124416D01*
X234211Y124491D01*
Y129938D01*
X233711Y130090D01*
X233668Y130026D01*
X233205Y129717D01*
X232659Y129608D01*
X232113Y129717D01*
X231650Y130026D01*
X231340Y130489D01*
X231231Y131035D01*
X231340Y131582D01*
X231650Y132045D01*
X232113Y132354D01*
X232659Y132463D01*
X233205Y132354D01*
X233668Y132045D01*
X233711Y131981D01*
X234211Y132133D01*
X234211Y234211D01*
D02*
G37*
G36*
X197151Y233451D02*
X196986Y233379D01*
X196822Y233303D01*
X196806Y233299D01*
X196791Y233292D01*
X196806Y233299D01*
X196822Y233303D01*
X196986Y233379D01*
X197151Y233451D01*
D02*
G37*
G36*
X67555Y233303D02*
X67538Y233299D01*
X67523Y233292D01*
X67538Y233299D01*
X67555Y233303D01*
D02*
G37*
G36*
X23536Y233298D02*
D01*
X23550Y233291D01*
X23536Y233298D01*
D02*
G37*
G36*
X153636Y233023D02*
X153651Y233020D01*
X153666Y233013D01*
X153651Y233020D01*
X153636Y233023D01*
D02*
G37*
G36*
X24368Y233023D02*
X24384Y233020D01*
X24398Y233013D01*
X24384Y233020D01*
X24368Y233023D01*
D02*
G37*
G36*
X66705Y233023D02*
X66688Y233020D01*
X66673Y233013D01*
X66688Y233020D01*
X66705Y233023D01*
D02*
G37*
G36*
X24576Y232977D02*
D01*
X24753Y232938D01*
X24576Y232977D01*
D02*
G37*
G36*
X24753Y232938D02*
X24769Y232937D01*
X24784Y232934D01*
X24769Y232937D01*
X24753Y232938D01*
D02*
G37*
G36*
X66320Y232938D02*
X66303Y232937D01*
X66287Y232934D01*
X66303Y232937D01*
X66320Y232938D01*
D02*
G37*
G36*
X2010Y216232D02*
Y215923D01*
D01*
Y216232D01*
D02*
G37*
G36*
X2010Y211202D02*
Y210110D01*
D01*
Y211202D01*
D02*
G37*
G36*
Y207216D02*
D01*
D01*
D01*
D02*
G37*
G36*
Y207187D02*
Y207054D01*
D01*
Y207187D01*
D02*
G37*
G36*
Y204646D02*
Y204503D01*
D01*
Y204646D01*
D02*
G37*
G36*
Y197191D02*
Y196881D01*
D01*
Y197191D01*
D02*
G37*
G36*
Y188068D02*
Y187954D01*
D01*
Y188068D01*
D02*
G37*
G36*
Y185572D02*
Y185527D01*
D01*
Y185572D01*
D02*
G37*
G36*
Y182673D02*
Y182512D01*
D01*
Y182673D01*
D02*
G37*
G36*
Y181890D02*
Y181854D01*
D01*
Y181890D01*
D02*
G37*
G36*
Y178240D02*
Y178201D01*
D01*
Y178240D01*
D02*
G37*
G36*
X2010Y159500D02*
Y158954D01*
D01*
Y159500D01*
D02*
G37*
G36*
Y157439D02*
Y156892D01*
D01*
Y157439D01*
D02*
G37*
G36*
Y154061D02*
Y153751D01*
D01*
Y154061D01*
D02*
G37*
G36*
Y153288D02*
Y152742D01*
D01*
Y153288D01*
D02*
G37*
G36*
Y152196D02*
Y152053D01*
D01*
Y152196D01*
D02*
G37*
G36*
Y151423D02*
Y151043D01*
D01*
Y151423D01*
D02*
G37*
G36*
Y149725D02*
Y149616D01*
D01*
Y149725D01*
D02*
G37*
G36*
Y148507D02*
Y148044D01*
D01*
Y148507D01*
D02*
G37*
G36*
Y146488D02*
Y146179D01*
D01*
Y146488D01*
D02*
G37*
G36*
Y146070D02*
Y144939D01*
D01*
Y146070D01*
D02*
G37*
G36*
Y144521D02*
Y144058D01*
D01*
Y144521D01*
D02*
G37*
G36*
X26950Y54642D02*
X26932Y54619D01*
X26919Y54594D01*
X26932Y54619D01*
X26950Y54642D01*
D02*
G37*
G36*
X24646Y53167D02*
X24617Y53166D01*
X24589Y53160D01*
X24617Y53166D01*
X24646Y53167D01*
D02*
G37*
%LPD*%
G36*
X228206Y233192D02*
X229397Y232831D01*
X230494Y232245D01*
X231455Y231455D01*
X232245Y230494D01*
X232831Y229397D01*
X233192Y228206D01*
X233314Y226969D01*
X233192Y225730D01*
X232831Y224540D01*
X232245Y223443D01*
X231455Y222481D01*
X230494Y221692D01*
X229397Y221106D01*
X228206Y220745D01*
X226969Y220623D01*
X225730Y220745D01*
X224540Y221106D01*
X223443Y221692D01*
X222481Y222481D01*
X221692Y223443D01*
X221106Y224540D01*
X220745Y225730D01*
X220623Y226969D01*
X220745Y228206D01*
X221106Y229397D01*
X221692Y230494D01*
X222481Y231455D01*
X223443Y232245D01*
X224540Y232831D01*
X225730Y233192D01*
X226969Y233314D01*
X228206Y233192D01*
D02*
G37*
G36*
X10490D02*
X11680Y232831D01*
X12777Y232245D01*
X13739Y231455D01*
X14528Y230494D01*
X15114Y229397D01*
X15476Y228206D01*
X15597Y226969D01*
X15476Y225730D01*
X15114Y224540D01*
X14528Y223443D01*
X13739Y222481D01*
X12777Y221692D01*
X11680Y221106D01*
X10490Y220745D01*
X9252Y220623D01*
X8014Y220745D01*
X6824Y221106D01*
X5727Y221692D01*
X4765Y222481D01*
X3976Y223443D01*
X3390Y224540D01*
X3028Y225730D01*
X2906Y226969D01*
X3028Y228206D01*
X3390Y229397D01*
X3976Y230494D01*
X4765Y231455D01*
X5727Y232245D01*
X6824Y232831D01*
X8014Y233192D01*
X9252Y233314D01*
X10490Y233192D01*
D02*
G37*
G36*
X143820Y222502D02*
X144283Y222193D01*
X144593Y221730D01*
X144701Y221183D01*
X144593Y220637D01*
X144283Y220174D01*
X143820Y219865D01*
X143274Y219756D01*
X142727Y219865D01*
X142264Y220174D01*
X141955Y220637D01*
X141846Y221183D01*
X141955Y221730D01*
X142264Y222193D01*
X142727Y222502D01*
X143274Y222611D01*
X143820Y222502D01*
D02*
G37*
G36*
X116346Y220831D02*
X116809Y220522D01*
X117119Y220058D01*
X117227Y219512D01*
X117119Y218966D01*
X116809Y218503D01*
X116346Y218193D01*
X115800Y218085D01*
X115254Y218193D01*
X114791Y218503D01*
X114481Y218966D01*
X114373Y219512D01*
X114481Y220058D01*
X114791Y220522D01*
X115254Y220831D01*
X115800Y220940D01*
X116346Y220831D01*
D02*
G37*
G36*
X123746Y218561D02*
X124209Y218251D01*
X124519Y217788D01*
X124627Y217242D01*
X124519Y216695D01*
X124209Y216232D01*
X123746Y215923D01*
X123200Y215814D01*
X122654Y215923D01*
X122191Y216232D01*
X121881Y216695D01*
X121773Y217242D01*
X121881Y217788D01*
X122191Y218251D01*
X122654Y218561D01*
X123200Y218669D01*
X123746Y218561D01*
D02*
G37*
G36*
X87786Y217571D02*
X88249Y217262D01*
X88559Y216799D01*
X88667Y216253D01*
X88559Y215706D01*
X88249Y215243D01*
X87786Y214934D01*
X87240Y214825D01*
X86694Y214934D01*
X86230Y215243D01*
X85921Y215706D01*
X85812Y216253D01*
X85921Y216799D01*
X86230Y217262D01*
X86694Y217571D01*
X87240Y217680D01*
X87786Y217571D01*
D02*
G37*
G36*
X127197Y213907D02*
X127660Y213598D01*
X127969Y213135D01*
X128078Y212588D01*
X127969Y212042D01*
X127660Y211579D01*
X127197Y211269D01*
X126650Y211161D01*
X126104Y211269D01*
X125641Y211579D01*
X125332Y212042D01*
X125223Y212588D01*
X125332Y213135D01*
X125641Y213598D01*
X126104Y213907D01*
X126650Y214016D01*
X127197Y213907D01*
D02*
G37*
G36*
X67231Y211975D02*
X67694Y211665D01*
X68004Y211202D01*
X68112Y210656D01*
X68004Y210110D01*
X67694Y209647D01*
X67231Y209337D01*
X66685Y209228D01*
X66139Y209337D01*
X65675Y209647D01*
X65366Y210110D01*
X65257Y210656D01*
X65366Y211202D01*
X65675Y211665D01*
X66139Y211975D01*
X66685Y212083D01*
X67231Y211975D01*
D02*
G37*
%LPC*%
G36*
X2010Y209027D02*
Y208988D01*
D01*
Y209027D01*
D02*
G37*
G36*
Y208988D02*
Y208919D01*
D01*
Y208988D01*
D02*
G37*
%LPD*%
G36*
X101170Y209544D02*
X101633Y209234D01*
X101778Y209017D01*
X102360Y208988D01*
X102823Y209298D01*
X103369Y209407D01*
X103915Y209298D01*
X104378Y208988D01*
X104688Y208525D01*
X104797Y207979D01*
X104688Y207433D01*
X104378Y206970D01*
X103915Y206660D01*
X103369Y206552D01*
X102823Y206660D01*
X102360Y206970D01*
X102215Y207187D01*
X101633Y207216D01*
X101170Y206906D01*
X100623Y206798D01*
X100077Y206906D01*
X99614Y207216D01*
X99304Y207679D01*
X99196Y208225D01*
X99304Y208771D01*
X99614Y209234D01*
X100077Y209544D01*
X100623Y209652D01*
X101170Y209544D01*
D02*
G37*
G36*
X220896Y208919D02*
X221359Y208609D01*
X221669Y208146D01*
X221777Y207600D01*
X221669Y207054D01*
X221359Y206591D01*
X220896Y206281D01*
X220350Y206173D01*
X219804Y206281D01*
X219341Y206591D01*
X219031Y207054D01*
X218923Y207600D01*
X219031Y208146D01*
X219341Y208609D01*
X219804Y208919D01*
X220350Y209027D01*
X220896Y208919D01*
D02*
G37*
G36*
X104346Y205989D02*
X104809Y205680D01*
X105119Y205217D01*
X105227Y204671D01*
X105119Y204124D01*
X104809Y203661D01*
X104346Y203352D01*
X103800Y203243D01*
X103254Y203352D01*
X102791Y203661D01*
X102481Y204124D01*
X102021Y203982D01*
X102026Y203957D01*
X101917Y203410D01*
X101608Y202947D01*
X101145Y202638D01*
X100599Y202529D01*
X100052Y202638D01*
X99589Y202947D01*
X99280Y203410D01*
X99171Y203957D01*
X99280Y204503D01*
X99589Y204966D01*
X100052Y205276D01*
X100599Y205384D01*
X101145Y205276D01*
X101608Y204966D01*
X101917Y204503D01*
X102378Y204646D01*
X102373Y204671D01*
X102481Y205217D01*
X102791Y205680D01*
X103254Y205989D01*
X103800Y206098D01*
X104346Y205989D01*
D02*
G37*
G36*
X2010Y199627D02*
D01*
Y199652D01*
Y199627D01*
D02*
G37*
G36*
X6946Y201779D02*
X7409Y201470D01*
X7719Y201007D01*
X7827Y200461D01*
X7719Y199914D01*
X7409Y199451D01*
X6946Y199142D01*
X6400Y199033D01*
X5854Y199142D01*
X5391Y199451D01*
X5081Y199914D01*
X4973Y200461D01*
X5081Y201007D01*
X5391Y201470D01*
X5854Y201779D01*
X6400Y201888D01*
X6946Y201779D01*
D02*
G37*
G36*
X15041Y201517D02*
X15504Y201207D01*
X15813Y200744D01*
X15922Y200198D01*
X15813Y199652D01*
X15504Y199189D01*
X15041Y198879D01*
X14494Y198771D01*
X13948Y198879D01*
X13485Y199189D01*
X13175Y199652D01*
X13067Y200198D01*
X13175Y200744D01*
X13485Y201207D01*
X13948Y201517D01*
X14494Y201625D01*
X15041Y201517D01*
D02*
G37*
G36*
X207146Y199519D02*
X207609Y199209D01*
X207919Y198746D01*
X208027Y198200D01*
X207919Y197654D01*
X207609Y197191D01*
X207146Y196881D01*
X206600Y196773D01*
X206054Y196881D01*
X205591Y197191D01*
X205281Y197654D01*
X205173Y198200D01*
X205281Y198746D01*
X205591Y199209D01*
X206054Y199519D01*
X206600Y199627D01*
X207146Y199519D01*
D02*
G37*
G36*
X2010Y189046D02*
D01*
Y189895D01*
Y189046D01*
D02*
G37*
G36*
X211855Y189819D02*
X212318Y189509D01*
X212627Y189046D01*
X212736Y188500D01*
X212627Y187954D01*
X212318Y187491D01*
X211855Y187181D01*
X211309Y187073D01*
X210762Y187181D01*
X210299Y187491D01*
X209990Y187954D01*
X209881Y188500D01*
X209990Y189046D01*
X210299Y189509D01*
X210762Y189819D01*
X211309Y189927D01*
X211855Y189819D01*
D02*
G37*
G36*
X86214Y192392D02*
X87065Y192039D01*
X87796Y191478D01*
X88357Y190747D01*
X88710Y189895D01*
X88830Y188982D01*
X88710Y188068D01*
X88357Y187217D01*
X87796Y186486D01*
X87065Y185924D01*
X86214Y185572D01*
X85300Y185452D01*
X84386Y185572D01*
X83535Y185924D01*
X82804Y186486D01*
X82243Y187217D01*
X81890Y188068D01*
X81770Y188982D01*
X81890Y189895D01*
X82243Y190747D01*
X82804Y191478D01*
X83535Y192039D01*
X84386Y192392D01*
X85300Y192512D01*
X86214Y192392D01*
D02*
G37*
G36*
X101846Y185619D02*
X102309Y185309D01*
X102619Y184846D01*
X102727Y184300D01*
X102619Y183754D01*
X102309Y183291D01*
X101846Y182981D01*
X101300Y182873D01*
X100754Y182981D01*
X100291Y183291D01*
X99981Y183754D01*
X99873Y184300D01*
X99981Y184846D01*
X100291Y185309D01*
X100754Y185619D01*
X101300Y185727D01*
X101846Y185619D01*
D02*
G37*
G36*
X17646D02*
X18109Y185309D01*
X18419Y184846D01*
X18527Y184300D01*
X18419Y183754D01*
X18109Y183291D01*
X17646Y182981D01*
X17100Y182873D01*
X16554Y182981D01*
X16091Y183291D01*
X15781Y183754D01*
X15673Y184300D01*
X15781Y184846D01*
X16091Y185309D01*
X16554Y185619D01*
X17100Y185727D01*
X17646Y185619D01*
D02*
G37*
G36*
X123746Y185419D02*
X124209Y185109D01*
X124519Y184646D01*
X124627Y184100D01*
X124519Y183554D01*
X124209Y183091D01*
X123746Y182781D01*
X123200Y182673D01*
X122654Y182781D01*
X122191Y183091D01*
X121881Y183554D01*
X121773Y184100D01*
X121881Y184646D01*
X122191Y185109D01*
X122654Y185419D01*
X123200Y185527D01*
X123746Y185419D01*
D02*
G37*
G36*
X66946Y183719D02*
X67409Y183409D01*
X67719Y182946D01*
X67827Y182400D01*
X67719Y181854D01*
X67409Y181391D01*
X66946Y181081D01*
X66400Y180973D01*
X65854Y181081D01*
X65391Y181391D01*
X65081Y181854D01*
X64973Y182400D01*
X65081Y182946D01*
X65391Y183409D01*
X65854Y183719D01*
X66400Y183827D01*
X66946Y183719D01*
D02*
G37*
G36*
X26394Y180947D02*
X26857Y180638D01*
X27167Y180175D01*
X27275Y179628D01*
X27167Y179082D01*
X26857Y178619D01*
X26394Y178310D01*
X25848Y178201D01*
X25302Y178310D01*
X24839Y178619D01*
X24691Y178840D01*
X24106D01*
X23959Y178619D01*
X23496Y178310D01*
X22950Y178201D01*
X22403Y178310D01*
X21940Y178619D01*
X21631Y179082D01*
X21522Y179628D01*
X21631Y180175D01*
X21940Y180638D01*
X22403Y180947D01*
X22950Y181056D01*
X23496Y180947D01*
X23959Y180638D01*
X24106Y180417D01*
X24691D01*
X24839Y180638D01*
X25302Y180947D01*
X25848Y181056D01*
X26394Y180947D01*
D02*
G37*
G36*
X211227Y182200D02*
X211690Y181890D01*
X212000Y181427D01*
X212108Y180881D01*
X212000Y180334D01*
X211690Y179871D01*
X211227Y179562D01*
X210681Y179453D01*
X210135Y179562D01*
X209671Y179871D01*
X209362Y180334D01*
X209253Y180881D01*
X209362Y181427D01*
X209671Y181890D01*
X210135Y182200D01*
X210681Y182308D01*
X211227Y182200D01*
D02*
G37*
G36*
X66928Y180301D02*
X67391Y179991D01*
X67701Y179528D01*
X67809Y178982D01*
X67701Y178436D01*
X67391Y177972D01*
X66928Y177663D01*
X66382Y177554D01*
X65835Y177663D01*
X65372Y177972D01*
X65063Y178436D01*
X64954Y178982D01*
X65063Y179528D01*
X65372Y179991D01*
X65835Y180301D01*
X66382Y180409D01*
X66928Y180301D01*
D02*
G37*
G36*
X32179Y178549D02*
X32642Y178240D01*
X32952Y177777D01*
X33060Y177230D01*
X32952Y176684D01*
X32642Y176221D01*
X32179Y175911D01*
X31633Y175803D01*
X31087Y175911D01*
X30624Y176221D01*
X30314Y176684D01*
X30206Y177230D01*
X30314Y177777D01*
X30624Y178240D01*
X31087Y178549D01*
X31633Y178658D01*
X32179Y178549D01*
D02*
G37*
G36*
X86214Y182392D02*
X87065Y182039D01*
X87796Y181478D01*
X88357Y180747D01*
X88710Y179895D01*
X88830Y178982D01*
X88710Y178068D01*
X88357Y177217D01*
X87796Y176486D01*
X87065Y175925D01*
X86214Y175572D01*
X85300Y175452D01*
X84386Y175572D01*
X83535Y175925D01*
X82804Y176486D01*
X82243Y177217D01*
X81890Y178068D01*
X81770Y178982D01*
X81890Y179895D01*
X82243Y180747D01*
X82804Y181478D01*
X83535Y182039D01*
X84386Y182392D01*
X85300Y182512D01*
X86214Y182392D01*
D02*
G37*
G36*
X157946Y175719D02*
X158409Y175409D01*
X158719Y174946D01*
X158827Y174400D01*
X158719Y173854D01*
X158409Y173391D01*
X157946Y173081D01*
X157400Y172973D01*
X156854Y173081D01*
X156391Y173391D01*
X156081Y173854D01*
X155973Y174400D01*
X156081Y174946D01*
X156391Y175409D01*
X156854Y175719D01*
X157400Y175827D01*
X157946Y175719D01*
D02*
G37*
G36*
X86736Y174340D02*
X88074Y173786D01*
X88823Y173211D01*
X88109Y172498D01*
X87569Y172913D01*
X86475Y173366D01*
X85300Y173521D01*
X84125Y173366D01*
X83031Y172913D01*
X82491Y172498D01*
X81777Y173211D01*
X82526Y173786D01*
X83864Y174340D01*
X85300Y174529D01*
X86736Y174340D01*
D02*
G37*
G36*
X81784Y171791D02*
X81369Y171251D01*
X80916Y170157D01*
X80761Y168982D01*
X80916Y167807D01*
X81369Y166712D01*
X81784Y166173D01*
X81070Y165459D01*
X80496Y166208D01*
X79942Y167546D01*
X79752Y168982D01*
X79942Y170418D01*
X80496Y171756D01*
X81070Y172504D01*
X81784Y171791D01*
D02*
G37*
G36*
X90104Y171756D02*
X90658Y170418D01*
X90847Y168982D01*
X90658Y167546D01*
X90104Y166208D01*
X89530Y165459D01*
X88816Y166173D01*
X89231Y166712D01*
X89684Y167807D01*
X89839Y168982D01*
X89684Y170157D01*
X89231Y171251D01*
X88816Y171791D01*
X89530Y172504D01*
X90104Y171756D01*
D02*
G37*
G36*
X83031Y165051D02*
X84125Y164598D01*
X85300Y164443D01*
X86475Y164598D01*
X87569Y165051D01*
X88109Y165465D01*
X88823Y164752D01*
X88074Y164178D01*
X86736Y163623D01*
X85300Y163434D01*
X83864Y163623D01*
X82526Y164178D01*
X81777Y164752D01*
X82491Y165465D01*
X83031Y165051D01*
D02*
G37*
G36*
X51246Y160819D02*
X51709Y160509D01*
X52019Y160046D01*
X52127Y159500D01*
X52019Y158954D01*
X51709Y158491D01*
X51246Y158181D01*
X50700Y158073D01*
X50154Y158181D01*
X49691Y158491D01*
X49381Y158954D01*
X49273Y159500D01*
X49381Y160046D01*
X49691Y160509D01*
X50154Y160819D01*
X50700Y160927D01*
X51246Y160819D01*
D02*
G37*
G36*
X90352Y158757D02*
X90815Y158448D01*
X91125Y157985D01*
X91233Y157439D01*
X91125Y156892D01*
X90815Y156429D01*
X90352Y156120D01*
X89806Y156011D01*
X89260Y156120D01*
X88797Y156429D01*
X88487Y156892D01*
X88379Y157439D01*
X88487Y157985D01*
X88797Y158448D01*
X89260Y158757D01*
X89806Y158866D01*
X90352Y158757D01*
D02*
G37*
G36*
X79855Y154061D02*
X80318Y153751D01*
X80628Y153288D01*
X80737Y152742D01*
X80628Y152196D01*
X80318Y151733D01*
X79855Y151423D01*
X79309Y151314D01*
X78763Y151423D01*
X78300Y151733D01*
X77990Y152196D01*
X77882Y152742D01*
X77990Y153288D01*
X78300Y153751D01*
X78763Y154061D01*
X79309Y154169D01*
X79855Y154061D01*
D02*
G37*
G36*
X97299Y152362D02*
X97763Y152053D01*
X98072Y151590D01*
X98181Y151043D01*
X98072Y150497D01*
X97763Y150034D01*
X97299Y149725D01*
X96753Y149616D01*
X96207Y149725D01*
X95744Y150034D01*
X95434Y150497D01*
X95326Y151043D01*
X95434Y151590D01*
X95744Y152053D01*
X96207Y152362D01*
X96753Y152471D01*
X97299Y152362D01*
D02*
G37*
G36*
X110710Y148816D02*
X111173Y148507D01*
X111483Y148044D01*
X111591Y147498D01*
X111483Y146951D01*
X111173Y146488D01*
X110710Y146179D01*
X110164Y146070D01*
X109617Y146179D01*
X109154Y146488D01*
X108845Y146951D01*
X108736Y147498D01*
X108845Y148044D01*
X109154Y148507D01*
X109617Y148816D01*
X110164Y148925D01*
X110710Y148816D01*
D02*
G37*
G36*
X25742Y143292D02*
X25768Y143279D01*
X25742Y143292D01*
X25719Y143309D01*
X25742Y143292D01*
D02*
G37*
G36*
X32300Y144830D02*
X32763Y144521D01*
X33072Y144058D01*
X33181Y143511D01*
X33072Y142965D01*
X32763Y142502D01*
X32300Y142193D01*
X31754Y142084D01*
X31207Y142193D01*
X30744Y142502D01*
X30435Y142965D01*
X30326Y143511D01*
X30435Y144058D01*
X30744Y144521D01*
X31207Y144830D01*
X31754Y144939D01*
X32300Y144830D01*
D02*
G37*
G36*
X104346Y143184D02*
X104809Y142874D01*
X105119Y142411D01*
X105227Y141865D01*
X105119Y141319D01*
X104809Y140855D01*
X104346Y140546D01*
X103800Y140437D01*
X103254Y140546D01*
X102791Y140855D01*
X102481Y141319D01*
X102373Y141865D01*
X102481Y142411D01*
X102791Y142874D01*
X103254Y143184D01*
X103800Y143292D01*
X104346Y143184D01*
D02*
G37*
G36*
X90352Y142101D02*
X90815Y141792D01*
X91125Y141329D01*
X91233Y140782D01*
X91125Y140236D01*
X90815Y139773D01*
X90352Y139463D01*
X89806Y139355D01*
X89260Y139463D01*
X88797Y139773D01*
X88487Y140236D01*
X88379Y140782D01*
X88487Y141329D01*
X88797Y141792D01*
X89260Y142101D01*
X89806Y142210D01*
X90352Y142101D01*
D02*
G37*
G36*
X70346Y141546D02*
X70809Y141237D01*
X71119Y140774D01*
X71227Y140227D01*
X71119Y139681D01*
X70809Y139218D01*
X70346Y138909D01*
X69800Y138800D01*
X69254Y138909D01*
X68791Y139218D01*
X68481Y139681D01*
X68373Y140227D01*
X68481Y140774D01*
X68791Y141237D01*
X69254Y141546D01*
X69800Y141655D01*
X70346Y141546D01*
D02*
G37*
G36*
X175281Y125762D02*
X176322Y125331D01*
X176816Y124952D01*
X176103Y124239D01*
X175818Y124458D01*
X175020Y124788D01*
X174164Y124901D01*
X173308Y124788D01*
X172510Y124458D01*
X171825Y123932D01*
X171664Y123723D01*
X171503Y123932D01*
X170818Y124458D01*
X170020Y124788D01*
X169164Y124901D01*
X168308Y124788D01*
X167510Y124458D01*
X167225Y124239D01*
X166512Y124952D01*
X167006Y125331D01*
X168047Y125762D01*
X169164Y125909D01*
X170281Y125762D01*
X171323Y125331D01*
X171664Y125069D01*
X172005Y125331D01*
X173047Y125762D01*
X174164Y125909D01*
X175281Y125762D01*
D02*
G37*
G36*
X160281D02*
X161322Y125331D01*
X161816Y124952D01*
X161103Y124239D01*
X160818Y124458D01*
X160020Y124788D01*
X159164Y124901D01*
X158308Y124788D01*
X157510Y124458D01*
X157225Y124239D01*
X156512Y124952D01*
X157006Y125331D01*
X158047Y125762D01*
X159164Y125909D01*
X160281Y125762D01*
D02*
G37*
G36*
X185899Y123350D02*
X186362Y123041D01*
X186671Y122578D01*
X186780Y122031D01*
X186671Y121485D01*
X186362Y121022D01*
X185899Y120713D01*
X185353Y120604D01*
X184806Y120713D01*
X184343Y121022D01*
X184034Y121485D01*
X183925Y122031D01*
X184034Y122578D01*
X184343Y123041D01*
X184806Y123350D01*
X185353Y123459D01*
X185899Y123350D01*
D02*
G37*
G36*
X156518Y123532D02*
X156299Y123247D01*
X155968Y122449D01*
X155856Y121592D01*
X155968Y120736D01*
X156299Y119938D01*
X156518Y119653D01*
X155805Y118940D01*
X155425Y119434D01*
X154994Y120475D01*
X154847Y121592D01*
X154994Y122710D01*
X155425Y123751D01*
X155804Y124245D01*
X156518Y123532D01*
D02*
G37*
G36*
X162903Y123751D02*
X163169Y123670D01*
X163274Y123740D01*
X164164Y123917D01*
X165054Y123740D01*
X165159Y123670D01*
X165425Y123751D01*
X165804Y124245D01*
X166518Y123532D01*
X166299Y123247D01*
X165968Y122449D01*
X165856Y121592D01*
X165968Y120736D01*
X166299Y119938D01*
X166825Y119253D01*
X167510Y118728D01*
X168308Y118397D01*
X169164Y118284D01*
X170020Y118397D01*
X170818Y118728D01*
X171503Y119253D01*
X171664Y119463D01*
X171825Y119253D01*
X172510Y118728D01*
X173308Y118397D01*
X174164Y118284D01*
X175020Y118397D01*
X175818Y118728D01*
X176503Y119253D01*
X177029Y119938D01*
X177360Y120736D01*
X177472Y121592D01*
X177360Y122449D01*
X177029Y123247D01*
X176810Y123532D01*
X177524Y124245D01*
X177903Y123751D01*
X178169Y123670D01*
X178274Y123740D01*
X179164Y123917D01*
X180054Y123740D01*
X180808Y123236D01*
X181312Y122482D01*
X181489Y121592D01*
X181312Y120703D01*
X180808Y119949D01*
X180054Y119445D01*
X179564Y119347D01*
Y118838D01*
X180054Y118740D01*
X180808Y118236D01*
X181312Y117482D01*
X181489Y116593D01*
X181312Y115703D01*
X180808Y114949D01*
X180054Y114445D01*
X179164Y114268D01*
X178274Y114445D01*
X177520Y114949D01*
X177016Y115703D01*
X176919Y116192D01*
X176409D01*
X176312Y115703D01*
X175808Y114949D01*
X175054Y114445D01*
X174164Y114268D01*
X173274Y114445D01*
X172520Y114949D01*
X172016Y115703D01*
X171919Y116192D01*
X171409D01*
X171312Y115703D01*
X170808Y114949D01*
X170054Y114445D01*
X169164Y114268D01*
X168274Y114445D01*
X167520Y114949D01*
X167016Y115703D01*
X166919Y116192D01*
X166409D01*
X166312Y115703D01*
X165808Y114949D01*
X165054Y114445D01*
X164164Y114268D01*
X163274Y114445D01*
X162520Y114949D01*
X162016Y115703D01*
X161919Y116192D01*
X161409D01*
X161312Y115703D01*
X160808Y114949D01*
X160054Y114445D01*
X159164Y114268D01*
X158274Y114445D01*
X157520Y114949D01*
X157016Y115703D01*
X156839Y116593D01*
X157016Y117482D01*
X157087Y117587D01*
X157006Y117854D01*
X156512Y118233D01*
X157225Y118946D01*
X157510Y118728D01*
X158308Y118397D01*
X159164Y118284D01*
X160020Y118397D01*
X160818Y118728D01*
X161503Y119253D01*
X162029Y119938D01*
X162360Y120736D01*
X162472Y121592D01*
X162360Y122449D01*
X162029Y123247D01*
X161810Y123532D01*
X162523Y124245D01*
X162903Y123751D01*
D02*
G37*
G36*
X158383Y106974D02*
X158846Y106664D01*
X159155Y106201D01*
X159264Y105655D01*
X159155Y105109D01*
X158846Y104646D01*
X158383Y104336D01*
X157837Y104227D01*
X157290Y104336D01*
X156827Y104646D01*
X156518Y105109D01*
X156409Y105655D01*
X156518Y106201D01*
X156827Y106664D01*
X157290Y106974D01*
X157837Y107082D01*
X158383Y106974D01*
D02*
G37*
G36*
X148334Y103580D02*
X148797Y103271D01*
X149106Y102808D01*
X149215Y102261D01*
X149106Y101715D01*
X148797Y101252D01*
X148334Y100943D01*
X147787Y100834D01*
X147241Y100943D01*
X146778Y101252D01*
X146469Y101715D01*
X146360Y102261D01*
X146469Y102808D01*
X146778Y103271D01*
X147241Y103580D01*
X147787Y103689D01*
X148334Y103580D01*
D02*
G37*
G36*
X172561Y102223D02*
X173024Y101913D01*
X173334Y101450D01*
X173442Y100904D01*
X173334Y100358D01*
X173024Y99895D01*
X172561Y99585D01*
X172015Y99476D01*
X171469Y99585D01*
X171005Y99895D01*
X170696Y100358D01*
X170587Y100904D01*
X170696Y101450D01*
X171005Y101913D01*
X171469Y102223D01*
X172015Y102331D01*
X172561Y102223D01*
D02*
G37*
G36*
X153121Y101522D02*
X153584Y101212D01*
X153894Y100749D01*
X154002Y100203D01*
X153894Y99657D01*
X153584Y99194D01*
X153121Y98884D01*
X152575Y98776D01*
X152029Y98884D01*
X151566Y99194D01*
X151256Y99657D01*
X151147Y100203D01*
X151256Y100749D01*
X151566Y101212D01*
X152029Y101522D01*
X152575Y101630D01*
X153121Y101522D01*
D02*
G37*
G36*
X178948Y100002D02*
X179411Y99693D01*
X179720Y99230D01*
X179829Y98684D01*
X179720Y98137D01*
X179411Y97674D01*
X178948Y97365D01*
X178402Y97256D01*
X177856Y97365D01*
X177392Y97674D01*
X177083Y98137D01*
X176974Y98684D01*
X177083Y99230D01*
X177392Y99693D01*
X177856Y100002D01*
X178402Y100111D01*
X178948Y100002D01*
D02*
G37*
G36*
X189046Y92819D02*
X189509Y92509D01*
X189819Y92046D01*
X189927Y91500D01*
X189819Y90954D01*
X189509Y90491D01*
X189046Y90181D01*
X188500Y90073D01*
X187954Y90181D01*
X187491Y90491D01*
X187181Y90954D01*
X187073Y91500D01*
X187181Y92046D01*
X187491Y92509D01*
X187954Y92819D01*
X188500Y92927D01*
X189046Y92819D01*
D02*
G37*
G36*
X193363Y96938D02*
X193826Y96628D01*
X194135Y96165D01*
X194244Y95619D01*
X194135Y95073D01*
X193826Y94610D01*
X193783Y94581D01*
Y93980D01*
X193804Y93966D01*
X194113Y93503D01*
X194222Y92957D01*
X194113Y92411D01*
X193804Y91948D01*
X193652Y91846D01*
Y91245D01*
X193756Y91175D01*
X194066Y90712D01*
X194175Y90166D01*
X194066Y89620D01*
X193756Y89156D01*
X193293Y88847D01*
X192747Y88738D01*
X192201Y88847D01*
X191738Y89156D01*
X191428Y89620D01*
X191320Y90166D01*
X191428Y90712D01*
X191738Y91175D01*
X191889Y91277D01*
Y91878D01*
X191785Y91948D01*
X191475Y92411D01*
X191367Y92957D01*
X191475Y93503D01*
X191785Y93966D01*
X191827Y93995D01*
Y94596D01*
X191807Y94610D01*
X191498Y95073D01*
X191389Y95619D01*
X191498Y96165D01*
X191807Y96628D01*
X192270Y96938D01*
X192816Y97046D01*
X193363Y96938D01*
D02*
G37*
G36*
X202427Y78850D02*
X202890Y78541D01*
X203200Y78078D01*
X203309Y77531D01*
X203200Y76985D01*
X202890Y76522D01*
X202427Y76213D01*
X201881Y76104D01*
X201335Y76213D01*
X200872Y76522D01*
X200562Y76985D01*
X200454Y77531D01*
X200562Y78078D01*
X200872Y78541D01*
X201335Y78850D01*
X201881Y78959D01*
X202427Y78850D01*
D02*
G37*
G36*
X202251Y75148D02*
X202714Y74839D01*
X203024Y74376D01*
X203132Y73830D01*
X203024Y73283D01*
X202714Y72820D01*
X202251Y72511D01*
X201705Y72402D01*
X201158Y72511D01*
X200695Y72820D01*
X200386Y73283D01*
X200277Y73830D01*
X200386Y74376D01*
X200695Y74839D01*
X201158Y75148D01*
X201705Y75257D01*
X202251Y75148D01*
D02*
G37*
G36*
X153576Y74168D02*
X154039Y73859D01*
X154348Y73396D01*
X154457Y72849D01*
X154348Y72303D01*
X154039Y71840D01*
X153576Y71531D01*
X153029Y71422D01*
X152483Y71531D01*
X152020Y71840D01*
X151711Y72303D01*
X151602Y72849D01*
X151711Y73396D01*
X152020Y73859D01*
X152483Y74168D01*
X153029Y74277D01*
X153576Y74168D01*
D02*
G37*
G36*
X202146Y71496D02*
X202609Y71187D01*
X202919Y70723D01*
X203027Y70177D01*
X202919Y69631D01*
X202609Y69168D01*
X202146Y68858D01*
X201600Y68750D01*
X201054Y68858D01*
X200591Y69168D01*
X200281Y69631D01*
X200173Y70177D01*
X200281Y70723D01*
X200591Y71187D01*
X201054Y71496D01*
X201600Y71605D01*
X202146Y71496D01*
D02*
G37*
G36*
X164360Y70905D02*
X164823Y70596D01*
X165132Y70133D01*
X165241Y69587D01*
X165132Y69040D01*
X164823Y68577D01*
X164360Y68268D01*
X163813Y68159D01*
X163267Y68268D01*
X162804Y68577D01*
X162495Y69040D01*
X162386Y69587D01*
X162495Y70133D01*
X162804Y70596D01*
X163267Y70905D01*
X163813Y71014D01*
X164360Y70905D01*
D02*
G37*
G36*
X136446Y67585D02*
X136909Y67275D01*
X137219Y66812D01*
X137327Y66266D01*
X137219Y65719D01*
X136909Y65256D01*
X136446Y64947D01*
X135900Y64838D01*
X135354Y64947D01*
X134891Y65256D01*
X134581Y65719D01*
X134473Y66266D01*
X134581Y66812D01*
X134891Y67275D01*
X135354Y67585D01*
X135900Y67693D01*
X136446Y67585D01*
D02*
G37*
G36*
X202146Y67547D02*
X202609Y67238D01*
X202919Y66775D01*
X203027Y66229D01*
X202919Y65682D01*
X202609Y65219D01*
X202146Y64910D01*
X201600Y64801D01*
X201054Y64910D01*
X200591Y65219D01*
X200281Y65682D01*
X200173Y66229D01*
X200281Y66775D01*
X200591Y67238D01*
X201054Y67547D01*
X201600Y67656D01*
X202146Y67547D01*
D02*
G37*
G36*
X169710Y65841D02*
X170173Y65531D01*
X170483Y65068D01*
X170591Y64522D01*
X170483Y63976D01*
X170173Y63512D01*
X169710Y63203D01*
X169164Y63094D01*
X168618Y63203D01*
X168155Y63512D01*
X167845Y63976D01*
X167737Y64522D01*
X167845Y65068D01*
X168155Y65531D01*
X168618Y65841D01*
X169164Y65949D01*
X169710Y65841D01*
D02*
G37*
G36*
X62674Y65019D02*
X63137Y64709D01*
X63446Y64246D01*
X63555Y63700D01*
X63446Y63154D01*
X63137Y62691D01*
X62674Y62381D01*
X62128Y62273D01*
X61581Y62381D01*
X61118Y62691D01*
X60809Y63154D01*
X60700Y63700D01*
X60809Y64246D01*
X61118Y64709D01*
X61581Y65019D01*
X62128Y65127D01*
X62674Y65019D01*
D02*
G37*
G36*
X202146Y63576D02*
X202609Y63267D01*
X202919Y62804D01*
X203027Y62257D01*
X202919Y61711D01*
X202609Y61248D01*
X202146Y60939D01*
X201600Y60830D01*
X201054Y60939D01*
X200591Y61248D01*
X200281Y61711D01*
X200173Y62257D01*
X200281Y62804D01*
X200591Y63267D01*
X201054Y63576D01*
X201600Y63685D01*
X202146Y63576D01*
D02*
G37*
G36*
X159106Y62919D02*
X159569Y62609D01*
X159879Y62146D01*
X159987Y61600D01*
X159879Y61054D01*
X159569Y60591D01*
X159106Y60281D01*
X158560Y60173D01*
X158014Y60281D01*
X157551Y60591D01*
X157241Y61054D01*
X157132Y61600D01*
X157241Y62146D01*
X157551Y62609D01*
X158014Y62919D01*
X158560Y63027D01*
X159106Y62919D01*
D02*
G37*
G36*
X94360Y60328D02*
X94823Y60019D01*
X95132Y59556D01*
X95241Y59009D01*
X95132Y58463D01*
X94823Y58000D01*
X94360Y57691D01*
X93813Y57582D01*
X93267Y57691D01*
X92804Y58000D01*
X92495Y58463D01*
X92386Y59009D01*
X92495Y59556D01*
X92804Y60019D01*
X93267Y60328D01*
X93813Y60437D01*
X94360Y60328D01*
D02*
G37*
G36*
X178603Y58030D02*
X179066Y57720D01*
X179375Y57257D01*
X179484Y56711D01*
X179375Y56165D01*
X179066Y55702D01*
X178603Y55392D01*
X178057Y55284D01*
X177510Y55392D01*
X177047Y55702D01*
X176943Y55858D01*
X176342D01*
X176237Y55702D01*
X175855Y55446D01*
X175823Y55335D01*
X175812Y55130D01*
X175845Y54897D01*
X176186Y54669D01*
X176495Y54206D01*
X176497Y54199D01*
X177027Y54094D01*
X177190Y54338D01*
X177653Y54647D01*
X178199Y54756D01*
X178746Y54647D01*
X179209Y54338D01*
X179518Y53874D01*
X179627Y53328D01*
X179518Y52782D01*
X179209Y52319D01*
X178839Y52072D01*
X178849Y51679D01*
X178890Y51550D01*
X179348Y51244D01*
X179657Y50780D01*
X179766Y50234D01*
X179657Y49688D01*
X179348Y49225D01*
X178885Y48915D01*
X178339Y48807D01*
X177792Y48915D01*
X177329Y49225D01*
X177020Y49688D01*
X177004Y49768D01*
X176642Y49829D01*
X176485Y49813D01*
X176202Y49389D01*
X175739Y49079D01*
X175192Y48970D01*
X174646Y49079D01*
X174183Y49389D01*
X173873Y49852D01*
X173765Y50398D01*
X173873Y50944D01*
X174183Y51407D01*
X174646Y51717D01*
X174926Y51772D01*
Y52282D01*
X174630Y52341D01*
X174167Y52650D01*
X173858Y53114D01*
X173749Y53660D01*
X173858Y54206D01*
X174167Y54669D01*
X174550Y54925D01*
X174581Y55036D01*
X174592Y55241D01*
X174559Y55474D01*
X174219Y55702D01*
X173909Y56165D01*
X173801Y56711D01*
X173909Y57257D01*
X174219Y57720D01*
X174682Y58030D01*
X175228Y58139D01*
X175774Y58030D01*
X176237Y57720D01*
X176342Y57564D01*
X176943D01*
X177047Y57720D01*
X177510Y58030D01*
X178057Y58139D01*
X178603Y58030D01*
D02*
G37*
%LPC*%
G36*
X27167Y54989D02*
X27150Y54966D01*
D01*
X27167Y54989D01*
D02*
G37*
%LPD*%
G36*
X26397Y54022D02*
X26378Y54000D01*
X26378Y54000D01*
X26378Y54000D01*
D01*
X26397Y54022D01*
X26419Y54040D01*
X26397Y54022D01*
D02*
G37*
G36*
X47790Y56391D02*
X48253Y56082D01*
X48562Y55619D01*
X48671Y55072D01*
X48562Y54526D01*
X48253Y54063D01*
X47790Y53754D01*
X47243Y53645D01*
X46697Y53754D01*
X46234Y54063D01*
X45924Y54526D01*
X45816Y55072D01*
X45924Y55619D01*
X46234Y56082D01*
X46697Y56391D01*
X47243Y56500D01*
X47790Y56391D01*
D02*
G37*
G36*
X84580Y53880D02*
X85043Y53570D01*
X85352Y53107D01*
X85461Y52561D01*
X85352Y52015D01*
X85043Y51552D01*
X84580Y51242D01*
X84034Y51133D01*
X83487Y51242D01*
X83024Y51552D01*
X82715Y52015D01*
X82606Y52561D01*
X82715Y53107D01*
X83024Y53570D01*
X83487Y53880D01*
X84034Y53988D01*
X84580Y53880D01*
D02*
G37*
G36*
X62674Y53683D02*
X63137Y53373D01*
X63446Y52910D01*
X63555Y52364D01*
X63446Y51818D01*
X63137Y51355D01*
X62674Y51045D01*
X62128Y50937D01*
X61581Y51045D01*
X61118Y51355D01*
X60809Y51818D01*
X60700Y52364D01*
X60809Y52910D01*
X61118Y53373D01*
X61581Y53683D01*
X62128Y53791D01*
X62674Y53683D01*
D02*
G37*
G36*
X234211Y50369D02*
D01*
Y50398D01*
Y50427D01*
D01*
Y50608D01*
Y50937D01*
Y50369D01*
D02*
G37*
G36*
X98753Y52697D02*
X99216Y52387D01*
X99525Y51924D01*
X99634Y51378D01*
X99525Y50832D01*
X99216Y50369D01*
X98753Y50059D01*
X98207Y49951D01*
X97660Y50059D01*
X97197Y50369D01*
X96888Y50832D01*
X96779Y51378D01*
X96888Y51924D01*
X97197Y52387D01*
X97660Y52697D01*
X98207Y52805D01*
X98753Y52697D01*
D02*
G37*
G36*
X146605Y50608D02*
X147068Y50299D01*
X147378Y49836D01*
X147486Y49290D01*
X147378Y48743D01*
X147068Y48280D01*
X146605Y47971D01*
X146059Y47862D01*
X145512Y47971D01*
X145049Y48280D01*
X144740Y48743D01*
X144631Y49290D01*
X144740Y49836D01*
X145049Y50299D01*
X145512Y50608D01*
X146059Y50717D01*
X146605Y50608D01*
D02*
G37*
G36*
X56346Y50319D02*
X56809Y50009D01*
X57119Y49546D01*
X57227Y49000D01*
X57119Y48454D01*
X56809Y47991D01*
X56346Y47681D01*
X55800Y47573D01*
X55254Y47681D01*
X54791Y47991D01*
X54481Y48454D01*
X54373Y49000D01*
X54481Y49546D01*
X54791Y50009D01*
X55254Y50319D01*
X55800Y50427D01*
X56346Y50319D01*
D02*
G37*
G36*
X122507Y50105D02*
X122970Y49795D01*
X123280Y49332D01*
X123388Y48786D01*
X123280Y48240D01*
X122970Y47776D01*
X122507Y47467D01*
X121961Y47358D01*
X121415Y47467D01*
X120952Y47776D01*
X120642Y48240D01*
X120534Y48786D01*
X120642Y49332D01*
X120952Y49795D01*
X121415Y50105D01*
X121961Y50213D01*
X122507Y50105D01*
D02*
G37*
G36*
X70246Y49319D02*
X70709Y49009D01*
X71019Y48546D01*
X71127Y48000D01*
X71019Y47454D01*
X70709Y46991D01*
X70246Y46681D01*
X69700Y46573D01*
X69154Y46681D01*
X68691Y46991D01*
X68381Y47454D01*
X68273Y48000D01*
X68381Y48546D01*
X68691Y49009D01*
X69154Y49319D01*
X69700Y49427D01*
X70246Y49319D01*
D02*
G37*
G36*
X205461Y48123D02*
X205924Y47814D01*
X206234Y47351D01*
X206343Y46805D01*
X206234Y46259D01*
X205924Y45795D01*
X205461Y45486D01*
X204915Y45377D01*
X204369Y45486D01*
X203906Y45795D01*
X203596Y46259D01*
X203488Y46805D01*
X203596Y47351D01*
X203906Y47814D01*
X204369Y48123D01*
X204915Y48232D01*
X205461Y48123D01*
D02*
G37*
G36*
X139949Y48103D02*
X140412Y47794D01*
X140722Y47330D01*
X140831Y46784D01*
X140722Y46238D01*
X140412Y45775D01*
X139949Y45465D01*
X139403Y45357D01*
X138857Y45465D01*
X138394Y45775D01*
X138084Y46238D01*
X137976Y46784D01*
X138084Y47330D01*
X138394Y47794D01*
X138857Y48103D01*
X139403Y48212D01*
X139949Y48103D01*
D02*
G37*
G36*
X131190Y47403D02*
X131653Y47094D01*
X131963Y46630D01*
X132071Y46084D01*
X131963Y45538D01*
X131653Y45075D01*
X131190Y44765D01*
X130644Y44657D01*
X130097Y44765D01*
X129634Y45075D01*
X129325Y45538D01*
X129216Y46084D01*
X129325Y46630D01*
X129634Y47094D01*
X130097Y47403D01*
X130644Y47512D01*
X131190Y47403D01*
D02*
G37*
G36*
X120283Y46865D02*
X120746Y46555D01*
X121055Y46092D01*
X121164Y45546D01*
X121055Y45000D01*
X120746Y44537D01*
X120283Y44227D01*
X119736Y44118D01*
X119190Y44227D01*
X118727Y44537D01*
X118418Y45000D01*
X118309Y45546D01*
X118418Y46092D01*
X118727Y46555D01*
X119190Y46865D01*
X119736Y46973D01*
X120283Y46865D01*
D02*
G37*
G36*
X32146Y39600D02*
X32609Y39290D01*
X32919Y38827D01*
X33027Y38281D01*
X32919Y37735D01*
X32609Y37272D01*
X32146Y36962D01*
X31600Y36854D01*
X31054Y36962D01*
X30591Y37272D01*
X30281Y37735D01*
X30173Y38281D01*
X30281Y38827D01*
X30591Y39290D01*
X31054Y39600D01*
X31600Y39709D01*
X32146Y39600D01*
D02*
G37*
G36*
X96565Y41591D02*
X97417Y41238D01*
X98148Y40677D01*
X98709Y39946D01*
X99062Y39095D01*
X99182Y38181D01*
X99062Y37267D01*
X98709Y36416D01*
X98148Y35685D01*
X97417Y35124D01*
X96565Y34771D01*
X95652Y34651D01*
X94738Y34771D01*
X93887Y35124D01*
X93155Y35685D01*
X92594Y36416D01*
X92242Y37267D01*
X92121Y38181D01*
X92242Y39095D01*
X92594Y39946D01*
X93155Y40677D01*
X93887Y41238D01*
X94738Y41591D01*
X95652Y41711D01*
X96565Y41591D01*
D02*
G37*
G36*
X71914D02*
X72765Y41238D01*
X73496Y40677D01*
X74057Y39946D01*
X74410Y39095D01*
X74530Y38181D01*
X74410Y37267D01*
X74057Y36416D01*
X73496Y35685D01*
X72765Y35124D01*
X71914Y34771D01*
X71000Y34651D01*
X70086Y34771D01*
X69235Y35124D01*
X68504Y35685D01*
X67943Y36416D01*
X67590Y37267D01*
X67470Y38181D01*
X67590Y39095D01*
X67943Y39946D01*
X68504Y40677D01*
X69235Y41238D01*
X70086Y41591D01*
X71000Y41711D01*
X71914Y41591D01*
D02*
G37*
G36*
X47514D02*
X48365Y41238D01*
X49096Y40677D01*
X49657Y39946D01*
X50010Y39095D01*
X50130Y38181D01*
X50010Y37267D01*
X49657Y36416D01*
X49096Y35685D01*
X48365Y35124D01*
X47514Y34771D01*
X46600Y34651D01*
X45686Y34771D01*
X44835Y35124D01*
X44104Y35685D01*
X43543Y36416D01*
X43190Y37267D01*
X43070Y38181D01*
X43190Y39095D01*
X43543Y39946D01*
X44104Y40677D01*
X44835Y41238D01*
X45686Y41591D01*
X46600Y41711D01*
X47514Y41591D01*
D02*
G37*
G36*
X117703Y36375D02*
X118166Y36065D01*
X118476Y35602D01*
X118584Y35056D01*
X118476Y34510D01*
X118166Y34046D01*
X117703Y33737D01*
X117157Y33628D01*
X116611Y33737D01*
X116147Y34046D01*
X115838Y34510D01*
X115729Y35056D01*
X115838Y35602D01*
X116147Y36065D01*
X116611Y36375D01*
X117157Y36483D01*
X117703Y36375D01*
D02*
G37*
G36*
X31746Y33400D02*
X32209Y33090D01*
X32519Y32627D01*
X32627Y32081D01*
X32519Y31535D01*
X32209Y31072D01*
X31746Y30762D01*
X31200Y30654D01*
X30654Y30762D01*
X30191Y31072D01*
X29881Y31535D01*
X29773Y32081D01*
X29881Y32627D01*
X30191Y33090D01*
X30654Y33400D01*
X31200Y33509D01*
X31746Y33400D01*
D02*
G37*
G36*
X168546Y30607D02*
X169009Y30297D01*
X169319Y29834D01*
X169427Y29288D01*
X169319Y28742D01*
X169009Y28278D01*
X168546Y27969D01*
X168000Y27860D01*
X167454Y27969D01*
X166991Y28278D01*
X166681Y28742D01*
X166573Y29288D01*
X166681Y29834D01*
X166991Y30297D01*
X167454Y30607D01*
X168000Y30715D01*
X168546Y30607D01*
D02*
G37*
G36*
X161746D02*
X162209Y30297D01*
X162519Y29834D01*
X162627Y29288D01*
X162519Y28742D01*
X162209Y28278D01*
X161746Y27969D01*
X161200Y27860D01*
X160654Y27969D01*
X160191Y28278D01*
X159881Y28742D01*
X159773Y29288D01*
X159881Y29834D01*
X160191Y30297D01*
X160654Y30607D01*
X161200Y30715D01*
X161746Y30607D01*
D02*
G37*
G36*
X156927D02*
X157390Y30297D01*
X157700Y29834D01*
X157808Y29288D01*
X157700Y28742D01*
X157390Y28278D01*
X156927Y27969D01*
X156381Y27860D01*
X155835Y27969D01*
X155372Y28278D01*
X155062Y28742D01*
X154954Y29288D01*
X155062Y29834D01*
X155372Y30297D01*
X155835Y30607D01*
X156381Y30715D01*
X156927Y30607D01*
D02*
G37*
G36*
X96565Y31591D02*
X97417Y31238D01*
X98148Y30677D01*
X98709Y29946D01*
X99062Y29095D01*
X99182Y28181D01*
X99062Y27267D01*
X98709Y26416D01*
X98148Y25685D01*
X97417Y25124D01*
X96565Y24771D01*
X95652Y24651D01*
X94738Y24771D01*
X93887Y25124D01*
X93155Y25685D01*
X92594Y26416D01*
X92242Y27267D01*
X92121Y28181D01*
X92242Y29095D01*
X92594Y29946D01*
X93155Y30677D01*
X93887Y31238D01*
X94738Y31591D01*
X95652Y31711D01*
X96565Y31591D01*
D02*
G37*
G36*
X71914D02*
X72765Y31238D01*
X73496Y30677D01*
X74057Y29946D01*
X74410Y29095D01*
X74530Y28181D01*
X74410Y27267D01*
X74057Y26416D01*
X73496Y25685D01*
X72765Y25124D01*
X71914Y24771D01*
X71000Y24651D01*
X70086Y24771D01*
X69235Y25124D01*
X68504Y25685D01*
X67943Y26416D01*
X67590Y27267D01*
X67470Y28181D01*
X67590Y29095D01*
X67943Y29946D01*
X68504Y30677D01*
X69235Y31238D01*
X70086Y31591D01*
X71000Y31711D01*
X71914Y31591D01*
D02*
G37*
G36*
X47514D02*
X48365Y31238D01*
X49096Y30677D01*
X49657Y29946D01*
X50010Y29095D01*
X50130Y28181D01*
X50010Y27267D01*
X49657Y26416D01*
X49096Y25685D01*
X48365Y25124D01*
X47514Y24771D01*
X46600Y24651D01*
X45686Y24771D01*
X44835Y25124D01*
X44104Y25685D01*
X43543Y26416D01*
X43190Y27267D01*
X43070Y28181D01*
X43190Y29095D01*
X43543Y29946D01*
X44104Y30677D01*
X44835Y31238D01*
X45686Y31591D01*
X46600Y31711D01*
X47514Y31591D01*
D02*
G37*
G36*
X177592Y22129D02*
X178055Y21819D01*
X178364Y21356D01*
X178473Y20810D01*
X178364Y20264D01*
X178055Y19801D01*
X177592Y19491D01*
X177045Y19383D01*
X176499Y19491D01*
X176036Y19801D01*
X175727Y20264D01*
X175618Y20810D01*
X175727Y21356D01*
X176036Y21819D01*
X176499Y22129D01*
X177045Y22237D01*
X177592Y22129D01*
D02*
G37*
G36*
X30846Y19500D02*
X31309Y19191D01*
X31619Y18727D01*
X31727Y18181D01*
X31619Y17635D01*
X31309Y17172D01*
X30846Y16862D01*
X30300Y16754D01*
X29754Y16862D01*
X29291Y17172D01*
X28981Y17635D01*
X28873Y18181D01*
X28981Y18727D01*
X29291Y19191D01*
X29754Y19500D01*
X30300Y19609D01*
X30846Y19500D01*
D02*
G37*
G36*
X96565Y21591D02*
X97417Y21238D01*
X98148Y20677D01*
X98709Y19946D01*
X99062Y19095D01*
X99182Y18181D01*
X99062Y17267D01*
X98709Y16416D01*
X98148Y15685D01*
X97417Y15124D01*
X96565Y14771D01*
X95652Y14651D01*
X94738Y14771D01*
X93887Y15124D01*
X93155Y15685D01*
X92594Y16416D01*
X92242Y17267D01*
X92121Y18181D01*
X92242Y19095D01*
X92594Y19946D01*
X93155Y20677D01*
X93887Y21238D01*
X94738Y21591D01*
X95652Y21711D01*
X96565Y21591D01*
D02*
G37*
G36*
X71914D02*
X72765Y21238D01*
X73496Y20677D01*
X74057Y19946D01*
X74410Y19095D01*
X74530Y18181D01*
X74410Y17267D01*
X74057Y16416D01*
X73496Y15685D01*
X72765Y15124D01*
X71914Y14771D01*
X71000Y14651D01*
X70086Y14771D01*
X69235Y15124D01*
X68504Y15685D01*
X67943Y16416D01*
X67590Y17267D01*
X67470Y18181D01*
X67590Y19095D01*
X67943Y19946D01*
X68504Y20677D01*
X69235Y21238D01*
X70086Y21591D01*
X71000Y21711D01*
X71914Y21591D01*
D02*
G37*
G36*
X47514D02*
X48365Y21238D01*
X49096Y20677D01*
X49657Y19946D01*
X50010Y19095D01*
X50130Y18181D01*
X50010Y17267D01*
X49657Y16416D01*
X49096Y15685D01*
X48365Y15124D01*
X47514Y14771D01*
X46600Y14651D01*
X45686Y14771D01*
X44835Y15124D01*
X44104Y15685D01*
X43543Y16416D01*
X43190Y17267D01*
X43070Y18181D01*
X43190Y19095D01*
X43543Y19946D01*
X44104Y20677D01*
X44835Y21238D01*
X45686Y21591D01*
X46600Y21711D01*
X47514Y21591D01*
D02*
G37*
G36*
X170314Y20810D02*
X171165Y20457D01*
X171896Y19896D01*
X172457Y19165D01*
X172810Y18314D01*
X172930Y17400D01*
X172810Y16486D01*
X172457Y15635D01*
X171896Y14904D01*
X171165Y14343D01*
X170314Y13990D01*
X169400Y13870D01*
X168486Y13990D01*
X167635Y14343D01*
X166904Y14904D01*
X166343Y15635D01*
X165990Y16486D01*
X165870Y17400D01*
X165990Y18314D01*
X166343Y19165D01*
X166904Y19896D01*
X167635Y20457D01*
X168486Y20810D01*
X169400Y20930D01*
X170314Y20810D01*
D02*
G37*
G36*
X160314D02*
X161165Y20457D01*
X161896Y19896D01*
X162457Y19165D01*
X162810Y18314D01*
X162930Y17400D01*
X162810Y16486D01*
X162457Y15635D01*
X161896Y14904D01*
X161165Y14343D01*
X160314Y13990D01*
X159400Y13870D01*
X158486Y13990D01*
X157635Y14343D01*
X156904Y14904D01*
X156343Y15635D01*
X155990Y16486D01*
X155870Y17400D01*
X155990Y18314D01*
X156343Y19165D01*
X156904Y19896D01*
X157635Y20457D01*
X158486Y20810D01*
X159400Y20930D01*
X160314Y20810D01*
D02*
G37*
G36*
X150314D02*
X151165Y20457D01*
X151896Y19896D01*
X152457Y19165D01*
X152810Y18314D01*
X152930Y17400D01*
X152810Y16486D01*
X152457Y15635D01*
X151896Y14904D01*
X151165Y14343D01*
X150314Y13990D01*
X149400Y13870D01*
X148486Y13990D01*
X147635Y14343D01*
X146904Y14904D01*
X146343Y15635D01*
X145990Y16486D01*
X145870Y17400D01*
X145990Y18314D01*
X146343Y19165D01*
X146904Y19896D01*
X147635Y20457D01*
X148486Y20810D01*
X149400Y20930D01*
X150314Y20810D01*
D02*
G37*
G36*
X97087Y13540D02*
X98425Y12985D01*
X99174Y12411D01*
X98461Y11698D01*
X97921Y12112D01*
X96826Y12565D01*
X95652Y12720D01*
X94477Y12565D01*
X93382Y12112D01*
X92842Y11698D01*
X92129Y12411D01*
X92878Y12985D01*
X94216Y13540D01*
X95652Y13729D01*
X97087Y13540D01*
D02*
G37*
G36*
X72436D02*
X73774Y12985D01*
X74523Y12411D01*
X73809Y11698D01*
X73269Y12112D01*
X72175Y12565D01*
X71000Y12720D01*
X69825Y12565D01*
X68731Y12112D01*
X68191Y11698D01*
X67477Y12411D01*
X68226Y12985D01*
X69564Y13540D01*
X71000Y13729D01*
X72436Y13540D01*
D02*
G37*
G36*
X48036D02*
X49374Y12985D01*
X50122Y12411D01*
X49409Y11698D01*
X48869Y12112D01*
X47775Y12565D01*
X46600Y12720D01*
X45425Y12565D01*
X44331Y12112D01*
X43791Y11698D01*
X43077Y12411D01*
X43826Y12985D01*
X45164Y13540D01*
X46600Y13729D01*
X48036Y13540D01*
D02*
G37*
G36*
X92135Y10990D02*
X91721Y10451D01*
X91267Y9356D01*
X91113Y8181D01*
X91267Y7006D01*
X91721Y5912D01*
X92135Y5372D01*
X91422Y4659D01*
X90847Y5407D01*
X90293Y6745D01*
X90104Y8181D01*
X90293Y9617D01*
X90847Y10955D01*
X91422Y11704D01*
X92135Y10990D01*
D02*
G37*
G36*
X67484D02*
X67069Y10451D01*
X66616Y9356D01*
X66461Y8181D01*
X66616Y7006D01*
X67069Y5912D01*
X67484Y5372D01*
X66770Y4659D01*
X66196Y5407D01*
X65642Y6745D01*
X65452Y8181D01*
X65642Y9617D01*
X66196Y10955D01*
X66770Y11704D01*
X67484Y10990D01*
D02*
G37*
G36*
X43084D02*
X42669Y10451D01*
X42216Y9356D01*
X42061Y8181D01*
X42216Y7006D01*
X42669Y5912D01*
X43084Y5372D01*
X42370Y4659D01*
X41796Y5407D01*
X41242Y6745D01*
X41052Y8181D01*
X41242Y9617D01*
X41796Y10955D01*
X42370Y11704D01*
X43084Y10990D01*
D02*
G37*
G36*
X100456Y10955D02*
X101010Y9617D01*
X101199Y8181D01*
X101010Y6745D01*
X100456Y5407D01*
X99881Y4659D01*
X99168Y5372D01*
X99582Y5912D01*
X100036Y7006D01*
X100190Y8181D01*
X100036Y9356D01*
X99582Y10451D01*
X99168Y10990D01*
X99881Y11704D01*
X100456Y10955D01*
D02*
G37*
G36*
X75804D02*
X76358Y9617D01*
X76547Y8181D01*
X76358Y6745D01*
X75804Y5407D01*
X75230Y4659D01*
X74516Y5372D01*
X74931Y5912D01*
X75384Y7006D01*
X75539Y8181D01*
X75384Y9356D01*
X74931Y10451D01*
X74516Y10990D01*
X75230Y11704D01*
X75804Y10955D01*
D02*
G37*
G36*
X51404D02*
X51958Y9617D01*
X52148Y8181D01*
X51958Y6745D01*
X51404Y5407D01*
X50830Y4659D01*
X50116Y5372D01*
X50531Y5912D01*
X50984Y7006D01*
X51139Y8181D01*
X50984Y9356D01*
X50531Y10451D01*
X50116Y10990D01*
X50830Y11704D01*
X51404Y10955D01*
D02*
G37*
G36*
X228206Y15476D02*
X229397Y15114D01*
X230494Y14528D01*
X231455Y13739D01*
X232245Y12777D01*
X232831Y11680D01*
X233192Y10490D01*
X233314Y9252D01*
X233192Y8014D01*
X232831Y6824D01*
X232245Y5727D01*
X231455Y4765D01*
X230494Y3976D01*
X229397Y3390D01*
X228206Y3028D01*
X226969Y2906D01*
X225730Y3028D01*
X224540Y3390D01*
X223443Y3976D01*
X222481Y4765D01*
X221692Y5727D01*
X221106Y6824D01*
X220745Y8014D01*
X220623Y9252D01*
X220745Y10490D01*
X221106Y11680D01*
X221692Y12777D01*
X222481Y13739D01*
X223443Y14528D01*
X224540Y15114D01*
X225730Y15476D01*
X226969Y15597D01*
X228206Y15476D01*
D02*
G37*
G36*
X10490D02*
X11680Y15114D01*
X12777Y14528D01*
X13739Y13739D01*
X14528Y12777D01*
X15114Y11680D01*
X15476Y10490D01*
X15597Y9252D01*
X15476Y8014D01*
X15114Y6824D01*
X14528Y5727D01*
X13739Y4765D01*
X12777Y3976D01*
X11680Y3390D01*
X10490Y3028D01*
X9252Y2906D01*
X8014Y3028D01*
X6824Y3390D01*
X5727Y3976D01*
X4765Y4765D01*
X3976Y5727D01*
X3390Y6824D01*
X3028Y8014D01*
X2906Y9252D01*
X3028Y10490D01*
X3390Y11680D01*
X3976Y12777D01*
X4765Y13739D01*
X5727Y14528D01*
X6824Y15114D01*
X8014Y15476D01*
X9252Y15597D01*
X10490Y15476D01*
D02*
G37*
G36*
X93382Y4250D02*
X94477Y3797D01*
X95652Y3642D01*
X96826Y3797D01*
X97921Y4250D01*
X98461Y4665D01*
X99174Y3951D01*
X98425Y3377D01*
X97087Y2823D01*
X95652Y2634D01*
X94216Y2823D01*
X92878Y3377D01*
X92129Y3951D01*
X92842Y4665D01*
X93382Y4250D01*
D02*
G37*
G36*
X68731D02*
X69825Y3797D01*
X71000Y3642D01*
X72175Y3797D01*
X73269Y4250D01*
X73809Y4665D01*
X74523Y3951D01*
X73774Y3377D01*
X72436Y2823D01*
X71000Y2634D01*
X69564Y2823D01*
X68226Y3377D01*
X67477Y3951D01*
X68191Y4665D01*
X68731Y4250D01*
D02*
G37*
G36*
X44331D02*
X45425Y3797D01*
X46600Y3642D01*
X47775Y3797D01*
X48869Y4250D01*
X49409Y4665D01*
X50123Y3951D01*
X49374Y3377D01*
X48036Y2823D01*
X46600Y2634D01*
X45164Y2823D01*
X43826Y3377D01*
X43077Y3951D01*
X43791Y4665D01*
X44331Y4250D01*
D02*
G37*
M02*
