G04*
G04 #@! TF.GenerationSoftware,Altium Limited,Altium Designer,21.1.1 (26)*
G04*
G04 Layer_Physical_Order=4*
G04 Layer_Color=16711680*
%FSLAX25Y25*%
%MOIN*%
G70*
G04*
G04 #@! TF.SameCoordinates,4F177341-0937-496B-BE4A-6E5797C68D15*
G04*
G04*
G04 #@! TF.FilePolarity,Positive*
G04*
G01*
G75*
%ADD13C,0.01000*%
%ADD137C,0.02000*%
%ADD143C,0.00800*%
%ADD148C,0.14173*%
%ADD149C,0.07087*%
%ADD150R,0.07087X0.07087*%
%ADD151R,0.03960X0.03960*%
%ADD152C,0.03960*%
%ADD153R,0.07087X0.07087*%
%ADD154C,0.02500*%
G36*
X210595Y79536D02*
X209489Y34176D01*
X192816D01*
X192816Y79949D01*
X210189D01*
X210595Y79536D01*
D02*
G37*
G36*
X116300Y201306D02*
X80300Y201306D01*
X79458Y217014D01*
X79983Y217538D01*
X116300D01*
Y201306D01*
D02*
G37*
%LPC*%
G36*
X202318Y56000D02*
X201682D01*
X201094Y55756D01*
X200644Y55306D01*
X200400Y54718D01*
Y54082D01*
X200644Y53494D01*
X201094Y53044D01*
X201682Y52800D01*
X202318D01*
X202906Y53044D01*
X203356Y53494D01*
X203600Y54082D01*
Y54718D01*
X203356Y55306D01*
X202906Y55756D01*
X202318Y56000D01*
D02*
G37*
G36*
X85730Y212059D02*
X85093D01*
X84505Y211816D01*
X84055Y211365D01*
X83811Y210777D01*
Y210141D01*
X84055Y209553D01*
X84505Y209103D01*
X85093Y208859D01*
X85730D01*
X86318Y209103D01*
X86768Y209553D01*
X87011Y210141D01*
Y210777D01*
X86768Y211365D01*
X86318Y211816D01*
X85730Y212059D01*
D02*
G37*
%LPD*%
D13*
X91806Y180152D02*
G03*
X89534Y181331I-5943J-8670D01*
G01*
X89079Y181680D02*
G03*
X89534Y181331I810J586D01*
G01*
X89079Y181680D02*
G03*
X81161Y181086I-3779J-2698D01*
G01*
X80762Y180672D02*
G03*
X78692Y179167I5101J-9191D01*
G01*
X80762Y180672D02*
G03*
X81161Y181086I-490J872D01*
G01*
D137*
X232659Y131035D02*
D03*
X232429Y120008D02*
D03*
Y123521D02*
D03*
X178339Y50234D02*
D03*
X178199Y53328D02*
D03*
X178057Y56711D02*
D03*
X119736Y45546D02*
D03*
X64685Y48675D02*
D03*
X100599Y203957D02*
D03*
X118630Y37270D02*
D03*
X177045Y20810D02*
D03*
X21800Y219952D02*
D03*
X19819Y218749D02*
D03*
X17362Y218803D02*
D03*
X14365Y218468D02*
D03*
X28300Y137795D02*
D03*
Y127953D02*
D03*
Y118110D02*
D03*
Y108268D02*
D03*
Y98425D02*
D03*
Y88583D02*
D03*
Y78740D02*
D03*
Y68898D02*
D03*
Y59055D02*
D03*
X13485Y144510D02*
D03*
X23328D02*
D03*
X13780Y52500D02*
D03*
X23622D02*
D03*
X3643Y144510D02*
D03*
X3937Y52500D02*
D03*
X66685Y231850D02*
D03*
X100623Y208225D02*
D03*
X103800Y204671D02*
D03*
X103369Y207979D02*
D03*
X115800Y219512D02*
D03*
X85411Y210459D02*
D03*
X87240Y216253D02*
D03*
X149921Y74509D02*
D03*
X159004Y65426D02*
D03*
X179370Y75128D02*
D03*
X153029Y72849D02*
D03*
X135340Y128600D02*
D03*
X122332Y65984D02*
D03*
X107747Y65939D02*
D03*
X32351Y65796D02*
D03*
X157108Y132621D02*
D03*
X147155Y132494D02*
D03*
X150554Y132566D02*
D03*
X85039Y198128D02*
D03*
X190358Y135785D02*
D03*
X190221Y139211D02*
D03*
X201881Y77531D02*
D03*
X201705Y73830D02*
D03*
X201600Y70177D02*
D03*
Y66229D02*
D03*
X40157Y55118D02*
D03*
X121961Y48786D02*
D03*
X93813Y59009D02*
D03*
X98207Y51378D02*
D03*
X23288Y223064D02*
D03*
X77982Y205538D02*
D03*
X74045D02*
D03*
Y209475D02*
D03*
X77982D02*
D03*
X76013Y207506D02*
D03*
X88758Y198128D02*
D03*
X66685Y210656D02*
D03*
X63887Y168424D02*
D03*
X194312Y135785D02*
D03*
X194229Y139211D02*
D03*
X9252Y29601D02*
D03*
X217444Y203332D02*
D03*
X199673Y217242D02*
D03*
X199356Y228295D02*
D03*
X144515Y229900D02*
D03*
X143861Y190530D02*
D03*
X186655Y171786D02*
D03*
X183300Y174136D02*
D03*
X183219Y170498D02*
D03*
X210713Y156184D02*
D03*
X192794Y92957D02*
D03*
X192747Y90166D02*
D03*
X151206Y29920D02*
D03*
X134401Y33494D02*
D03*
X117157Y35056D02*
D03*
X136764Y46343D02*
D03*
X139403Y46784D02*
D03*
X139246Y104444D02*
D03*
X32065Y130800D02*
D03*
X11582Y149943D02*
D03*
X6400Y200461D02*
D03*
X14494Y200198D02*
D03*
X61736Y189555D02*
D03*
X62470Y213247D02*
D03*
X57557Y213621D02*
D03*
X52472Y209985D02*
D03*
X65425Y149600D02*
D03*
X211309Y188500D02*
D03*
X210681Y180881D02*
D03*
X201600Y62257D02*
D03*
X157837Y105655D02*
D03*
X147787Y102261D02*
D03*
X156381Y29288D02*
D03*
X161200D02*
D03*
X168000D02*
D03*
X204915Y46805D02*
D03*
X202000Y54400D02*
D03*
X158560Y61600D02*
D03*
X175228Y56711D02*
D03*
X175176Y53660D02*
D03*
X175192Y50398D02*
D03*
X169164Y64522D02*
D03*
X163813Y69587D02*
D03*
X172015Y100904D02*
D03*
X188500Y91500D02*
D03*
X192816Y95619D02*
D03*
X178402Y98684D02*
D03*
X171084Y95872D02*
D03*
X153875Y132616D02*
D03*
X157400Y174400D02*
D03*
X179248Y153403D02*
D03*
X176197Y150450D02*
D03*
X179248D02*
D03*
X182300D02*
D03*
X176197Y146317D02*
D03*
X179248D02*
D03*
X182300D02*
D03*
X179248Y143364D02*
D03*
X185353Y122031D02*
D03*
X52495Y213300D02*
D03*
X66583Y229211D02*
D03*
X65136Y219748D02*
D03*
X65009Y222540D02*
D03*
X220350Y207600D02*
D03*
X206600Y198200D02*
D03*
X143274Y221183D02*
D03*
X126650Y212588D02*
D03*
X123200Y217242D02*
D03*
X17100Y184300D02*
D03*
X22950Y179628D02*
D03*
X25848D02*
D03*
X41517Y182514D02*
D03*
Y178971D02*
D03*
Y175428D02*
D03*
X45454D02*
D03*
Y178971D02*
D03*
Y182514D02*
D03*
X33614Y185395D02*
D03*
X31633Y177230D02*
D03*
X31600Y38281D02*
D03*
X30300Y18181D02*
D03*
X48108Y93947D02*
D03*
X47243Y55072D02*
D03*
X31200Y32081D02*
D03*
X48108Y102538D02*
D03*
X55800Y49000D02*
D03*
X108700Y7900D02*
D03*
X130644Y46084D02*
D03*
X69700Y48000D02*
D03*
X123200Y184100D02*
D03*
X101300Y184300D02*
D03*
X152575Y100203D02*
D03*
X135900Y66266D02*
D03*
X146059Y49290D02*
D03*
X56840Y93947D02*
D03*
X96360Y101727D02*
D03*
X84034Y52561D02*
D03*
X62128Y63700D02*
D03*
X107600Y101727D02*
D03*
X96360Y90215D02*
D03*
X107600D02*
D03*
X62128Y52364D02*
D03*
X50700Y159500D02*
D03*
X79309Y152742D02*
D03*
X89806Y140782D02*
D03*
Y157439D02*
D03*
X56840Y102538D02*
D03*
X25352Y168990D02*
D03*
X96753Y151043D02*
D03*
X69800Y140227D02*
D03*
X103800Y141865D02*
D03*
X110164Y147498D02*
D03*
X31754Y143511D02*
D03*
X61490Y48675D02*
D03*
X77341Y167810D02*
D03*
X66382Y178982D02*
D03*
X66400Y182400D02*
D03*
D143*
X87806Y76947D02*
X119005Y45748D01*
X118924Y43000D02*
X125931D01*
X87806Y76947D02*
Y155439D01*
X92582Y61109D02*
X100815D01*
X118924Y43000D01*
X125931D02*
X126400Y43469D01*
X84034Y52561D02*
X92582Y61109D01*
X100636Y203994D02*
X102798D01*
X103475Y204671D02*
X103800D01*
X100599Y203957D02*
X100636Y203994D01*
X102798D02*
X103475Y204671D01*
X177247Y19097D02*
Y20608D01*
X174794Y12725D02*
Y16643D01*
X174325Y12257D02*
X174794Y12725D01*
X142091Y12257D02*
X174325D01*
X174794Y16643D02*
X177247Y19097D01*
X177045Y20810D02*
X177247Y20608D01*
X99294Y206571D02*
X100623Y207900D01*
Y208225D01*
X100746Y208102D01*
X103246D01*
X98728Y205332D02*
X99294Y205897D01*
Y206571D01*
X103246Y208102D02*
X103585Y207764D01*
Y204886D02*
Y207764D01*
Y204886D02*
X103800Y204671D01*
X96135Y205332D02*
X98728D01*
X87465Y210215D02*
X91251D01*
X94800Y206666D02*
X96135Y205332D01*
X158525Y61635D02*
Y63077D01*
Y61635D02*
X158560Y61600D01*
X96500Y125101D02*
X158525Y63077D01*
X96500Y125101D02*
Y151043D01*
X152950Y75758D02*
Y85023D01*
X157403Y71233D02*
Y71305D01*
X152950Y75758D02*
X157403Y71305D01*
X126400Y43469D02*
Y50430D01*
X91806Y85024D02*
X126400Y50430D01*
X91806Y85024D02*
Y159070D01*
X157403Y71233D02*
X162053Y66583D01*
X100831Y137141D02*
X152950Y85023D01*
X162053Y62142D02*
Y66583D01*
X94437Y164900D02*
X107665Y178128D01*
X213681Y178881D02*
X215700Y180900D01*
X184524Y179396D02*
X185040Y178881D01*
X146729Y179396D02*
X184524D01*
X145461Y178128D02*
X146729Y179396D01*
X107665Y178128D02*
X145461D01*
X185040Y178881D02*
X213681D01*
X170431Y131502D02*
X220350Y181420D01*
Y207600D01*
X159384Y131502D02*
X170431D01*
X117157Y32706D02*
X117157Y32706D01*
Y31463D02*
Y32706D01*
Y31463D02*
X117714Y30906D01*
X117157Y32706D02*
Y35056D01*
X96740Y39270D02*
X120473D01*
X95652Y38181D02*
X96740Y39270D01*
X121538Y40335D02*
X123195D01*
X120473Y39270D02*
X121538Y40335D01*
X141967Y105253D02*
Y105432D01*
Y105253D02*
X150720Y96501D01*
X128537Y118862D02*
Y120923D01*
X150720Y96501D02*
X151383D01*
X128537Y118862D02*
X141967Y105432D01*
X106355Y143106D02*
X128537Y120923D01*
X106355Y143106D02*
Y144265D01*
X85747Y163300D02*
X104263D01*
X104556Y163007D02*
X141382Y126181D01*
X154063D01*
X104263Y163300D02*
X104556Y163007D01*
X154063Y126181D02*
X159384Y131502D01*
X173601Y116030D02*
X174164Y116593D01*
X198509Y53211D02*
Y59167D01*
X201600Y62257D01*
X198509Y53211D02*
X204915Y46805D01*
X164510Y61673D02*
X167129Y64292D01*
X168934D01*
X169164Y64522D01*
X171230Y63722D02*
Y65462D01*
X167104Y69587D02*
X171230Y65462D01*
X163813Y69587D02*
X167104D01*
X163813D02*
Y83407D01*
X162053Y62142D02*
X162521Y61673D01*
X169400Y17400D02*
Y27888D01*
X168000Y29288D02*
X169400Y27888D01*
X162521Y61673D02*
X164510D01*
X164004Y100904D02*
X172015D01*
X171418Y98684D02*
X178402D01*
X170730Y99371D02*
X171418Y98684D01*
X164451Y99371D02*
X170730D01*
X106355Y144265D02*
X109358Y147268D01*
X100831Y137141D02*
Y152915D01*
X89299Y173625D02*
X89943Y172981D01*
X81301Y173625D02*
X89299D01*
X100582Y174136D02*
X101410Y174136D01*
X106803Y179528D01*
X91806Y180152D02*
X100582Y174136D01*
X106803Y179528D02*
X123428D01*
X124781Y180881D01*
X123200Y184100D02*
Y217242D01*
X124781Y180881D02*
X210681D01*
X215700Y180900D02*
Y184109D01*
X211309Y188500D02*
X215700Y184109D01*
X109358Y147268D02*
X109934D01*
X110164Y147498D01*
X32361Y169141D02*
X42002Y159500D01*
X22950Y179628D02*
X32089Y170489D01*
Y169141D02*
X32361D01*
X32089D02*
Y170489D01*
X83503Y150806D02*
Y154267D01*
X78439Y147482D02*
X80179D01*
X77209Y148713D02*
X78439Y147482D01*
X80179D02*
X83503Y150806D01*
X77209Y148713D02*
Y154762D01*
X79309Y152742D02*
X88253Y161686D01*
X77209Y154762D02*
X85747Y163300D01*
X87806Y155439D02*
X89806Y157439D01*
X88774Y159539D02*
X91337D01*
X82816Y162631D02*
Y163460D01*
X82230Y164046D02*
X82816Y163460D01*
X81301Y164339D02*
X82230Y164046D01*
X80657Y164983D02*
X81301Y164339D01*
X80657Y164983D02*
Y172981D01*
X81301Y173625D01*
X72693Y173550D02*
X72986Y173843D01*
X72399Y173257D02*
X72693Y173550D01*
X72399Y154939D02*
Y173257D01*
X74127Y153942D02*
X82816Y162631D01*
X72986Y173843D02*
X78692Y179167D01*
X70999Y155519D02*
Y177801D01*
X71925Y154464D02*
X72399Y154939D01*
X40667Y184564D02*
X46303D01*
X83503Y154267D02*
X88774Y159539D01*
X89943Y172981D02*
X90358Y165486D01*
X88253Y161686D02*
X92061D01*
X90358Y165486D02*
X90943Y164900D01*
X92061Y161686D02*
X100831Y152915D01*
X90943Y164900D02*
X94437D01*
X91337Y159539D02*
X91806Y159070D01*
X69800Y140227D02*
Y154320D01*
X70999Y155519D01*
X42002Y159500D02*
X50700D01*
X48342Y178982D02*
X66382D01*
X66400Y182400D02*
X70999Y177801D01*
X47504Y179820D02*
X48342Y178982D01*
X46303Y184564D02*
X47504Y183363D01*
X39467D02*
X40667Y184564D01*
X47504Y179820D02*
Y183363D01*
X39467Y179820D02*
Y183363D01*
X25848Y179628D02*
X32326D01*
X38877Y179230D02*
X39467Y179820D01*
X32724Y179230D02*
X38877D01*
X32326Y179628D02*
X32724Y179230D01*
X159164Y109962D02*
Y116593D01*
X153403Y102203D02*
X154575Y101031D01*
X147846Y102203D02*
X153403D01*
X152554Y94666D02*
X163813Y83407D01*
X147787Y102261D02*
X147846Y102203D01*
X161446Y96366D02*
X164451Y99371D01*
X152575Y100203D02*
X152804Y99973D01*
X151383Y96501D02*
X152554Y95329D01*
X155166Y96366D02*
X161446D01*
X152804Y98728D02*
X155166Y96366D01*
X155746Y97766D02*
X160866D01*
X154575Y98938D02*
X155746Y97766D01*
X160866D02*
X164004Y100904D01*
X152804Y98728D02*
Y99973D01*
X154575Y98938D02*
Y101031D01*
X152554Y94666D02*
Y95329D01*
X157837Y108635D02*
X159164Y109962D01*
X157837Y105655D02*
Y108635D01*
X71185Y132478D02*
X71925Y133218D01*
Y154464D01*
X74127Y133440D02*
Y153942D01*
X72585Y131898D02*
X74127Y133440D01*
X72585Y63805D02*
Y131898D01*
X71185Y64385D02*
Y132478D01*
X53700Y45281D02*
Y55272D01*
X55800Y49000D02*
X71185Y64385D01*
X53700Y55272D02*
X62128Y63700D01*
X69700Y48000D02*
Y60920D01*
X71000Y8181D02*
X95652D01*
X46600D02*
X71000D01*
X30300Y18181D02*
X46600D01*
X71000D01*
X35100Y28181D02*
X46600D01*
X71000D02*
X71631D01*
X46600D02*
X52358D01*
X92331Y30906D02*
X95056Y28181D01*
X71631D02*
X74356Y30906D01*
X92331D01*
X52358Y28181D02*
X67001Y42824D01*
X46500Y38281D02*
X46600Y38181D01*
X71000D02*
X73419Y40600D01*
X95652D01*
X46600Y38181D02*
X53700Y45281D01*
X67001Y42824D02*
X77267D01*
X108559Y8041D02*
X108700Y7900D01*
X95692Y8041D02*
X108559D01*
X95652Y8081D02*
X95692Y8041D01*
X136166Y18181D02*
X142091Y12257D01*
X95652Y18181D02*
X136166D01*
X95056Y28181D02*
X96283D01*
X99007Y30906D01*
X117407D01*
X117714D01*
X138414D01*
X125805Y37724D02*
X129851D01*
X130644Y38516D01*
X123195Y40335D02*
X125805Y37724D01*
X130644Y38516D02*
Y46084D01*
X77267Y42824D02*
X85518Y51076D01*
X85880D01*
X93813Y59009D01*
X69700Y60920D02*
X72585Y63805D01*
X130644Y46084D02*
Y48675D01*
X131112Y49143D01*
X138699D01*
X138845Y49290D01*
X149400Y17400D02*
X156381Y24381D01*
X159400Y17400D02*
Y27488D01*
X156381Y24381D02*
Y29288D01*
X159400Y27488D02*
X161200Y29288D01*
X138414Y30906D02*
X171230Y63722D01*
X146154Y49194D02*
X146154D01*
X138845Y49290D02*
X146059D01*
X146154Y49194D02*
X158560Y61600D01*
X31200Y32081D02*
X35100Y28181D01*
X31600Y38281D02*
X46500D01*
D148*
X226969Y9252D02*
D03*
Y226969D02*
D03*
X9252D02*
D03*
Y9252D02*
D03*
D149*
X169400Y17400D02*
D03*
X159400D02*
D03*
X46600Y8181D02*
D03*
Y18181D02*
D03*
Y28181D02*
D03*
X71000D02*
D03*
Y18181D02*
D03*
Y8181D02*
D03*
X95652Y28181D02*
D03*
Y18181D02*
D03*
Y8181D02*
D03*
X85300Y178982D02*
D03*
Y188982D02*
D03*
D150*
X149400Y17400D02*
D03*
D151*
X179164Y121592D02*
D03*
D152*
X174164D02*
D03*
X179164Y116593D02*
D03*
X174164D02*
D03*
X164164D02*
D03*
X169164D02*
D03*
X164164Y121592D02*
D03*
X169164D02*
D03*
X159164D02*
D03*
Y116593D02*
D03*
D153*
X46600Y38181D02*
D03*
X71000D02*
D03*
X95652D02*
D03*
X85300Y168982D02*
D03*
D154*
X174366Y127751D02*
D03*
X159164Y128100D02*
D03*
M02*
