M48
;Layer_Color=9474304
;FILE_FORMAT=2:5
INCH,LZ
;TYPE=PLATED
T1F00S00C0.00800
T2F00S00C0.01000
T3F00S00C0.02560
T4F00S00C0.05000
T5F00S00C0.10630
%
T01
X01087Y00079
X0117157Y0035056
X011863Y003727
X0119736Y0045546
X0121961Y0048786
X0130644Y0046084
X0136764Y0046343
X0139403Y0046784
X0146059Y004929
X0151206Y002992
X0156381Y0029288
X01612
X0168
X0177045Y002081
X0178339Y0050234
X0178199Y0053328
X0175176Y005366
X0175228Y0056711
X0178057
X0175192Y0050398
X0169164Y0064522
X0163813Y0069587
X0159004Y0065426
X015856Y00616
X0153029Y0072849
X0149921Y0074509
X01359Y0066266
X0122332Y0065984
X0107747Y0065939
X0093813Y0059009
X0098207Y0051378
X009636Y0090215
X01076
Y0101727
X009636
X0139246Y0104444
X0147787Y0102261
X0152575Y0100203
X0157837Y0105655
X0172015Y0100904
X0171084Y0095872
X0178402Y0098684
X01885Y00915
X0192747Y0090166
X0192794Y0092957
X0192816Y0095619
X0201881Y0077531
X0201705Y007383
X02016Y0070177
Y0066229
Y0062257
X0202Y00544
X0204915Y0046805
X017937Y0075128
X0185353Y0122031
X0190358Y0135785
X0190221Y0139211
X0194229
X0194312Y0135785
X0157108Y0132621
X0153875Y0132616
X0150554Y0132566
X0147155Y0132494
X013534Y01286
X01038Y0141865
X0089806Y0140782
X0134401Y0033494
X0232429Y0120008
Y0123521
X0232659Y0131035
X00698Y0140227
X00283Y0137795
Y0127953
X0032065Y01308
X00283Y011811
Y0108268
Y0098425
Y0088583
Y007874
Y0068898
X0032351Y0065796
X00283Y0059055
X0023622Y00525
X001378
X0003937
X0009252Y0029601
X00312Y0032081
X00316Y0038281
X00303Y0018181
X0040157Y0055118
X0047243Y0055072
X00558Y0049
X006149Y0048675
X0064685
X00697Y0048
X0062128Y0052364
Y00637
X0084034Y0052561
X005684Y0093947
Y0102538
X0048108
Y0093947
X0031754Y0143511
X0023328Y014451
X0013485
X0011582Y0149943
X0003643Y014451
X0025352Y016899
X0025848Y0179628
X002295
X00171Y01843
X0033614Y0185395
X0031633Y017723
X0041517Y0178971
Y0182514
X0045454
Y0178971
Y0175428
X0041517
X00507Y01595
X0063887Y0168424
X0066382Y0178982
X00664Y01824
X0061736Y0189555
X006247Y0213247
X0057557Y0213621
X0052495Y02133
X0052472Y0209985
X0066685Y0210656
X0074045Y0209475
Y0205538
X0077982
Y0209475
X0076013Y0207506
X0085411Y0210459
X008724Y0216253
X0085039Y0198128
X0077341Y016781
X0079309Y0152742
X0065425Y01496
X0065136Y0219748
X0065009Y022254
X0066583Y0229211
X0066685Y023185
X0023288Y0223064
X00218Y0219952
X0019819Y0218749
X0017362Y0218803
X0014365Y0218468
X0014494Y0200198
X00064Y0200461
X0088758Y0198128
X0100599Y0203957
X01038Y0204671
X0103369Y0207979
X0100623Y0208225
X01013Y01843
X01232Y01841
X0143861Y019053
X01574Y01744
X01833Y0174136
X0183219Y0170498
X0186655Y0171786
X01823Y015045
X0179248
Y0153403
X0176197Y015045
Y0146317
X0179248
Y0143364
X01823Y0146317
X0210713Y0156184
X0210681Y0180881
X0211309Y01885
X02066Y01982
X0217444Y0203332
X022035Y02076
X0199673Y0217242
X0199356Y0228295
X0144515Y02299
X0143274Y0221183
X01232Y0217242
X012665Y0212588
X01158Y0219512
X0110164Y0147498
X0096753Y0151043
X0089806Y0157439
T02
X0159164Y01281
X0174366Y0127751
T03
X0159164Y0116593
X0164164
X0169164
X0174164
Y0121592
X0179164
Y0116593
X0169164Y0121592
X0164164
X0159164
T04
X0095652Y0008181
Y0018181
Y0028181
Y0038181
X01494Y00174
X01594
X01694
X0071Y0018181
Y0028181
Y0038181
X00466
Y0028181
Y0018181
Y0008181
X0071
X00853Y0168982
Y0178982
Y0188982
T05
X0226969Y0009252
X0009252
Y0226969
X0226969
M30
